<?xml version="1.0" standalone="no"?>
<!DOCTYPE svg PUBLIC "-//W3C//DTD SVG 1.1//EN" "http://www.w3.org/Graphics/SVG/1.1/DTD/svg11.dtd" >
<svg xmlns="http://www.w3.org/2000/svg" xmlns:xlink="http://www.w3.org/1999/xlink" version="1.1">
<metadata>
Created by FontForge 20190801 at Thu May 23 12:49:35 2019
 By Jimmy Wärting
copyright missing
</metadata>
<defs>
<font id="SoDoSans-SemiBold" horiz-adv-x="0" >
  <font-face 
    font-family="SoDo Sans Light"
    font-weight="600"
    font-stretch="normal"
    units-per-em="1000"
    panose-1="0 0 7 0 0 0 0 0 0 0"
    ascent="800"
    descent="-200"
    x-height="510"
    cap-height="710"
    bbox="-507 -270 1349 947"
    underline-thickness="50"
    underline-position="-100"
    stemh="75"
    stemv="128"
    unicode-range="U+0020-1F16A"
  />
<missing-glyph horiz-adv-x="469" 
d="M385 750v-938h-298v938h298zM312 687h-154v-31h61v-35h-62v-30h155v30h-62v35h62v31zM250 566h-93v-97h155v31h-62v66zM219 534v-34h-31v34h31zM312 443h-155v-31h62v-34h-62v-31h93v65h62v31zM312 387h-31v-62h-124v-32h155v94zM312 273h-93v-53h31v22h31v-44h-93v75
h-31v-106h155v106zM312 110h-155v-106h155v106zM281 79v-44h-93v44h93zM312 -17h-155v-31h65l-65 -44v-31h155v31h-95l65 44h30v31z" />
    <glyph glyph-name=".notdef" horiz-adv-x="469" 
d="M385 750v-938h-298v938h298zM312 687h-154v-31h61v-35h-62v-30h155v30h-62v35h62v31zM250 566h-93v-97h155v31h-62v66zM219 534v-34h-31v34h31zM312 443h-155v-31h62v-34h-62v-31h93v65h62v31zM312 387h-31v-62h-124v-32h155v94zM312 273h-93v-53h31v22h31v-44h-93v75
h-31v-106h155v106zM312 110h-155v-106h155v106zM281 79v-44h-93v44h93zM312 -17h-155v-31h65l-65 -44v-31h155v31h-95l65 44h30v31z" />
    <glyph glyph-name="space" unicode=" " horiz-adv-x="220" 
 />
    <glyph glyph-name="uni2009" unicode="&#x2009;" horiz-adv-x="42" 
 />
    <glyph glyph-name="A" unicode="A" horiz-adv-x="689" 
d="M523 0l-60 181h-251l-60 -181h-132l251 710h147l251 -710h-146zM243 274h190l-94 286z" />
    <glyph glyph-name="B" unicode="B" horiz-adv-x="648" 
d="M457 364c87 -18 146 -65 146 -164c0 -133 -98 -200 -248 -200h-267v710h239c143 0 244 -57 244 -188c0 -87 -45 -135 -114 -158zM313 605h-92v-201h92c71 0 118 28 118 100s-47 101 -118 101zM340 105c70 0 120 34 120 105s-51 104 -120 104h-119v-209h119z" />
    <glyph glyph-name="C" unicode="C" horiz-adv-x="660" 
d="M388 -16c-197 0 -344 143 -344 371s146 371 340 371c103 0 174 -31 227 -72l-40 -119c-38 35 -94 64 -170 64c-111 0 -218 -83 -218 -244s104 -244 220 -244c89 0 144 33 187 75l40 -115c-52 -50 -127 -87 -242 -87z" />
    <glyph glyph-name="D" unicode="D" horiz-adv-x="710" 
d="M88 710h225c208 0 353 -118 353 -355s-145 -355 -353 -355h-225v710zM308 113c118 0 215 64 215 242c0 177 -98 242 -215 242h-87v-484h87z" />
    <glyph glyph-name="E" unicode="E" horiz-adv-x="537" 
d="M484 598h-263v-179h226v-105h-226v-202h263v-112h-396v710h396v-112z" />
    <glyph glyph-name="F" unicode="F" horiz-adv-x="513" 
d="M479 597h-258v-197h219v-106h-219v-294h-133v710h391v-113z" />
    <glyph glyph-name="G" unicode="G" horiz-adv-x="755" 
d="M406 376h319v-47c0 -246 -146 -345 -329 -345c-191 0 -352 144 -352 371s164 371 351 371c137 0 225 -52 288 -138l-99 -74c-41 54 -104 93 -183 93c-110 0 -217 -88 -217 -252c0 -165 106 -254 217 -254c99 0 180 46 200 172h-195v103z" />
    <glyph glyph-name="H" unicode="H" horiz-adv-x="748" 
d="M528 710h132v-710h-132v309h-307v-309h-133v710h133v-291h307v291z" />
    <glyph glyph-name="I" unicode="I" horiz-adv-x="309" 
d="M88 710h133v-710h-133v710z" />
    <glyph glyph-name="J" unicode="J" horiz-adv-x="432" 
d="M129 -8c-52 0 -86 7 -104 11l10 115c14 -2 38 -7 73 -7c77 0 106 42 106 144v455h133v-481c0 -178 -84 -237 -218 -237z" />
    <glyph glyph-name="K" unicode="K" horiz-adv-x="664" 
d="M484 0l-198 284l-65 -82v-202h-133v710h133v-334l253 334h153l-249 -319l269 -391h-163z" />
    <glyph glyph-name="L" unicode="L" horiz-adv-x="498" 
d="M221 113h232v-113h-365v710h133v-597z" />
    <glyph glyph-name="M" unicode="M" horiz-adv-x="977" 
d="M910 0h-131l-64 500l-187 -500h-89l-190 502l-60 -502h-123l85 710h139l198 -509l196 509h141z" />
    <glyph glyph-name="N" unicode="N" horiz-adv-x="752" 
d="M542 710h122v-710h-132l-321 499v-499h-123v710h138l316 -467v467z" />
    <glyph glyph-name="O" unicode="O" horiz-adv-x="802" 
d="M401 -16c-191 0 -357 148 -357 371s166 371 357 371s357 -148 357 -371s-166 -371 -357 -371zM401 107c108 0 217 82 217 248s-109 248 -217 248s-216 -82 -216 -248s108 -248 216 -248z" />
    <glyph glyph-name="P" unicode="P" horiz-adv-x="630" 
d="M326 710c160 0 265 -76 265 -238c0 -161 -104 -258 -265 -258h-105v-214h-133v710h238zM302 317c96 0 146 54 146 143s-52 140 -146 140h-81v-283h81z" />
    <glyph glyph-name="Q" unicode="Q" horiz-adv-x="802" 
d="M758 355c0 -111 -41 -203 -106 -268l83 -106l-104 -72l-84 106c-45 -20 -95 -31 -146 -31c-191 0 -357 148 -357 371s166 371 357 371s357 -148 357 -371zM185 355c0 -166 108 -248 216 -248s217 82 217 248s-109 248 -217 248s-216 -82 -216 -248z" />
    <glyph glyph-name="R" unicode="R" horiz-adv-x="662" 
d="M467 0l-167 261h-79v-261h-133v710h253c159 0 265 -65 265 -216c0 -117 -63 -193 -167 -221l184 -273h-156zM221 598v-240h101c90 0 140 40 140 122c0 83 -52 118 -140 118h-101z" />
    <glyph glyph-name="S" unicode="S" horiz-adv-x="564" 
d="M286 -16c-131 0 -211 53 -263 137l70 80c48 -60 105 -108 186 -108c66 0 107 34 107 85c0 45 -33 71 -78 95c-97 52 -252 88 -252 251c0 132 104 202 227 202c110 0 181 -43 228 -113l-73 -78c-41 45 -84 83 -150 83c-58 0 -98 -31 -98 -79c0 -42 31 -67 75 -90
c99 -53 262 -89 262 -252c0 -140 -104 -213 -241 -213z" />
    <glyph glyph-name="T" unicode="T" horiz-adv-x="560" 
d="M527 710v-113h-181v-597h-132v597h-181v113h494z" />
    <glyph glyph-name="U" unicode="U" horiz-adv-x="714" 
d="M355 -16c-166 0 -276 93 -276 280v446h133l-1 -431c-1 -113 56 -173 144 -173c90 0 147 60 147 173v431h134v-446c0 -187 -110 -280 -281 -280z" />
    <glyph glyph-name="V" unicode="V" horiz-adv-x="655" 
d="M504 710h136l-246 -710h-135l-244 710h146l171 -528z" />
    <glyph glyph-name="W" unicode="W" horiz-adv-x="1092" 
d="M942 710h135l-242 -710h-118l-171 513l-172 -513h-118l-241 710h146l162 -507l169 507h118l169 -507z" />
    <glyph glyph-name="X" unicode="X" horiz-adv-x="648" 
d="M629 710l-224 -361l222 -349h-154l-160 252l-156 -252h-143l228 364l-220 346h153l161 -253l148 253h145z" />
    <glyph glyph-name="Y" unicode="Y" horiz-adv-x="618" 
d="M610 710l-232 -431v-279h-140v279l-232 431h154l154 -295l154 295h142z" />
    <glyph glyph-name="Z" unicode="Z" horiz-adv-x="582" 
d="M56 116l305 478h-288v116h451v-116l-312 -478h319v-116h-475v116z" />
    <glyph glyph-name="a" unicode="a" horiz-adv-x="580" 
d="M516 0h-127c-5 12 -10 31 -12 58c-38 -43 -101 -74 -167 -74c-92 0 -166 42 -166 148c0 124 111 179 333 184v17c0 57 -35 86 -101 87c-65 1 -110 -26 -148 -62l-56 78c38 46 117 90 219 90c110 0 214 -42 214 -198v-257c0 -24 3 -52 11 -71zM256 82c50 0 93 25 121 63
v99c-120 -2 -195 -32 -195 -98c0 -40 26 -64 74 -64z" />
    <glyph glyph-name="b" unicode="b" horiz-adv-x="647" 
d="M368 526c133 0 235 -99 235 -271c0 -171 -103 -271 -235 -271c-83 0 -137 36 -170 93v-77h-119v750h129v-302c34 48 86 78 160 78zM332 97c86 0 136 63 136 158s-50 158 -136 158c-84 0 -134 -70 -134 -158c-1 -87 50 -158 134 -158z" />
    <glyph glyph-name="c" unicode="c" horiz-adv-x="522" 
d="M44 255c0 158 107 271 267 271c79 0 141 -26 174 -54l-37 -107c-25 21 -69 42 -125 42c-87 0 -142 -66 -142 -152s57 -153 147 -153c59 0 98 20 130 45l39 -101c-30 -23 -86 -62 -185 -62c-172 0 -268 113 -268 271z" />
    <glyph glyph-name="d" unicode="d" horiz-adv-x="648" 
d="M440 750h129v-750h-119l-2 75c-32 -56 -87 -91 -168 -91c-132 0 -236 100 -236 271c0 172 103 271 236 271c75 0 127 -30 160 -79v303zM316 97c83 0 135 72 134 158c-1 89 -51 159 -134 159c-86 0 -136 -63 -136 -159c0 -95 50 -158 136 -158z" />
    <glyph glyph-name="e" unicode="e" horiz-adv-x="591" 
d="M551 277v-48h-370c13 -94 83 -132 162 -132c66 0 111 23 152 58l49 -91c-48 -43 -120 -80 -218 -80c-174 0 -282 106 -282 269s111 273 261 273c146 0 246 -98 246 -249zM304 422c-61 0 -109 -41 -122 -118h237c-9 76 -52 118 -115 118z" />
    <glyph glyph-name="f" unicode="f" horiz-adv-x="385" 
d="M318 654c-56 0 -78 -23 -78 -73v-71h118v-104h-118v-406h-128v406h-80v104h80v87c0 97 55 162 181 162c26 0 52 -2 71 -5v-102c-16 2 -30 2 -46 2z" />
    <glyph glyph-name="g" unicode="g" horiz-adv-x="577" 
d="M371 92c120 0 177 -51 177 -132c0 -86 -67 -167 -286 -167c-140 0 -242 29 -242 112c0 54 46 82 87 98c-31 13 -58 38 -58 85c0 54 40 85 86 114c-51 32 -81 82 -81 145c0 107 92 180 224 180c54 0 102 -12 140 -33l89 79l69 -70l-94 -66c17 -26 27 -56 27 -90
c0 -110 -96 -182 -230 -182c-28 0 -54 3 -78 9c-18 -12 -33 -26 -33 -45c0 -20 16 -33 71 -35zM282 441c-55 0 -99 -34 -99 -94c0 -62 44 -97 99 -97c56 0 97 35 97 97c0 60 -41 94 -97 94zM275 -129c92 0 150 22 150 66c0 34 -23 49 -96 50l-151 3c-21 -15 -35 -33 -35 -58
c0 -37 33 -61 132 -61z" />
    <glyph glyph-name="h" unicode="h" horiz-adv-x="636" 
d="M388 526c117 0 169 -68 169 -181v-345h-128v302c0 79 -30 114 -96 114c-53 0 -99 -35 -126 -84v-332h-128v750h128v-313c39 55 101 89 181 89z" />
    <glyph glyph-name="i" unicode="i" horiz-adv-x="315" 
d="M158 602c-48 0 -82 28 -82 70c0 44 34 73 82 73c49 0 82 -29 82 -73c0 -42 -33 -70 -82 -70zM94 510h128v-510h-128v510z" />
    <glyph glyph-name="j" unicode="j" horiz-adv-x="315" 
d="M158 602c-48 0 -82 28 -82 70c0 44 34 73 82 73c49 0 82 -29 82 -73c0 -42 -33 -70 -82 -70zM-30 -202v103c15 -2 29 -2 44 -2c58 0 80 28 80 80v531h128v-547c0 -98 -56 -169 -175 -169c-31 0 -58 1 -77 4z" />
    <glyph glyph-name="k" unicode="k" horiz-adv-x="564" 
d="M414 0l-160 202l-47 -50v-152h-128v750h128v-459l192 219h146l-206 -219l226 -291h-151z" />
    <glyph glyph-name="l" unicode="l" horiz-adv-x="286" 
d="M79 750h128v-750h-128v750z" />
    <glyph glyph-name="m" unicode="m" horiz-adv-x="969" 
d="M721 526c117 0 169 -68 169 -181v-345h-128v302c0 79 -30 114 -95 114c-55 0 -96 -40 -120 -94v-322h-128v302c0 79 -30 114 -95 114c-53 0 -93 -37 -117 -87v-329h-128v510h128v-69c36 52 93 85 171 85c88 0 139 -39 159 -106c35 64 97 106 184 106z" />
    <glyph glyph-name="n" unicode="n" horiz-adv-x="636" 
d="M388 526c117 0 169 -68 169 -181v-345h-128v302c0 79 -30 114 -96 114c-54 0 -99 -38 -126 -91v-325h-128v510h128v-73c39 55 101 89 181 89z" />
    <glyph glyph-name="o" unicode="o" horiz-adv-x="630" 
d="M315 -16c-149 0 -271 107 -271 271c0 165 122 271 271 271s271 -106 271 -271c0 -164 -122 -271 -271 -271zM315 99c78 0 133 60 133 156c0 97 -55 156 -133 156s-133 -59 -133 -156c0 -96 55 -156 133 -156z" />
    <glyph glyph-name="p" unicode="p" horiz-adv-x="655" 
d="M376 526c132 0 235 -99 235 -271c0 -171 -102 -270 -235 -270c-81 0 -136 36 -169 92v-265h-128v694h119v-88c31 66 88 108 178 108zM340 97c86 0 136 63 136 158s-50 158 -136 158c-84 0 -135 -71 -134 -158c0 -88 50 -158 134 -158z" />
    <glyph glyph-name="q" unicode="q" horiz-adv-x="656" 
d="M458 506h119v-694h-129v265c-33 -57 -87 -92 -168 -92c-133 0 -236 99 -236 271c0 171 104 271 236 271c89 0 145 -42 177 -107zM316 97c83 0 133 70 134 159c1 86 -51 158 -134 158c-86 0 -136 -63 -136 -158c0 -96 50 -159 136 -159z" />
    <glyph glyph-name="r" unicode="r" horiz-adv-x="424" 
d="M207 397c28 72 93 122 174 122v-134c-83 -3 -165 -39 -174 -173v-212h-128v510h128v-113z" />
    <glyph glyph-name="s" unicode="s" horiz-adv-x="488" 
d="M252 -16c-114 0 -178 43 -219 84l55 86c41 -38 94 -71 158 -71c43 0 72 19 72 54c0 38 -29 51 -100 71c-78 22 -162 55 -162 161c0 108 91 157 192 157c91 0 153 -30 189 -73l-57 -77c-37 29 -75 54 -125 54c-43 0 -71 -18 -71 -49c0 -40 43 -54 103 -70
c87 -26 162 -56 162 -157c0 -114 -83 -170 -197 -170z" />
    <glyph glyph-name="t" unicode="t" horiz-adv-x="422" 
d="M383 100l3 -103c-19 -5 -62 -13 -113 -13c-127 0 -168 53 -168 165v258h-79v103h79v124l128 24v-148h138v-103h-138v-238c0 -63 31 -75 84 -75c23 0 50 3 66 6z" />
    <glyph glyph-name="u" unicode="u" horiz-adv-x="594" 
d="M297 -16c-138 0 -231 58 -231 222v304h128v-306c0 -70 33 -112 103 -112s103 42 103 112v306h128v-304c0 -164 -93 -222 -231 -222z" />
    <glyph glyph-name="v" unicode="v" horiz-adv-x="550" 
d="M396 510h133l-191 -510h-132l-188 510h134l122 -364z" />
    <glyph glyph-name="w" unicode="w" horiz-adv-x="844" 
d="M698 510h125l-172 -510h-120l-120 360l-112 -360h-120l-161 510h133l101 -354l109 354h120l111 -356z" />
    <glyph glyph-name="x" unicode="x" horiz-adv-x="556" 
d="M537 510l-184 -260l180 -250h-143l-120 167l-117 -167h-134l184 260l-180 250h142l122 -169l116 169h134z" />
    <glyph glyph-name="y" unicode="y" horiz-adv-x="545" 
d="M400 510h127l-230 -583c-32 -78 -84 -133 -176 -133c-36 0 -64 6 -84 11l10 100c7 -3 29 -8 61 -8c54 0 78 21 97 74l14 40l-203 499h137l127 -331z" />
    <glyph glyph-name="z" unicode="z" horiz-adv-x="476" 
d="M183 95h264v-95h-418v95l255 319h-243v96h397v-96z" />
    <glyph glyph-name="zero" unicode="0" horiz-adv-x="730" 
d="M365 -16c-189 0 -314 155 -314 370s125 371 314 371c188 0 314 -156 314 -371s-126 -370 -314 -370zM365 95c111 0 173 103 173 259s-62 260 -173 260c-112 0 -173 -104 -173 -260s61 -259 173 -259z" />
    <glyph glyph-name="one" unicode="1" horiz-adv-x="445" 
d="M229 710h84v-710h-133v574l-119 -50v112z" />
    <glyph glyph-name="two" unicode="2" horiz-adv-x="633" 
d="M219 110h343v-110h-498v110c166 136 338 259 338 394c0 72 -42 109 -106 109c-72 0 -114 -49 -140 -114l-102 45c28 103 116 182 254 182c140 0 228 -83 228 -214c0 -194 -202 -323 -317 -402z" />
    <glyph glyph-name="three" unicode="3" horiz-adv-x="571" 
d="M351 366c89 -14 162 -61 162 -172c0 -138 -121 -210 -250 -210c-118 0 -197 39 -234 65l39 102c41 -23 102 -54 174 -54c73 0 130 35 130 104c0 75 -61 113 -179 113h-47v89h42c122 0 167 56 167 120c0 60 -41 92 -104 92s-119 -25 -163 -57l-41 92c45 40 126 76 223 76
c129 0 216 -65 216 -181c0 -90 -53 -154 -135 -179z" />
    <glyph glyph-name="four" unicode="4" horiz-adv-x="641" 
d="M613 283v-89h-115v-194h-133v194h-332v95l338 421h127v-427h115zM139 283h226v279z" />
    <glyph glyph-name="five" unicode="5" horiz-adv-x="628" 
d="M368 452c127 0 212 -74 212 -217c0 -164 -119 -251 -276 -251c-136 0 -216 56 -258 85l48 98c47 -30 119 -74 201 -74c88 0 144 50 144 139c0 85 -51 128 -122 128c-80 0 -124 -48 -151 -75l-77 32l42 393h403v-107h-306l-24 -207c36 30 91 56 164 56z" />
    <glyph glyph-name="six" unicode="6" horiz-adv-x="627" 
d="M374 441c120 0 215 -75 215 -216c0 -145 -100 -241 -261 -241c-174 0 -276 124 -276 330c0 247 124 411 341 411c49 0 86 -8 120 -18l-10 -105c-29 9 -59 16 -94 16c-126 0 -214 -99 -220 -266c41 55 103 89 185 89zM325 88c78 0 127 51 127 133c0 83 -52 126 -122 126
c-62 0 -115 -34 -140 -107c8 -90 50 -152 135 -152z" />
    <glyph glyph-name="seven" unicode="7" horiz-adv-x="565" 
d="M50 710h480v-79c-82 -120 -225 -362 -261 -631h-145c44 261 174 478 259 602h-333v108z" />
    <glyph glyph-name="eight" unicode="8" horiz-adv-x="637" 
d="M418 390c89 -39 173 -89 173 -196c0 -127 -104 -209 -274 -209s-271 77 -271 200c0 100 83 153 157 181c-62 36 -111 86 -111 174c0 111 89 185 229 185s229 -73 229 -174c0 -81 -61 -133 -132 -161zM321 635c-57 0 -102 -32 -102 -89c0 -61 58 -94 129 -125
c39 28 77 68 77 120c0 61 -48 94 -104 94zM317 82c73 0 131 42 131 102c0 76 -82 107 -167 144c-60 -25 -99 -72 -99 -130c0 -73 62 -116 135 -116z" />
    <glyph glyph-name="nine" unicode="9" horiz-adv-x="627" 
d="M299 726c174 0 276 -124 276 -330c0 -247 -125 -411 -342 -411c-48 0 -85 8 -119 18l10 105c28 -9 58 -16 93 -16c128 0 215 99 221 266c-42 -55 -104 -89 -186 -89c-119 0 -214 75 -214 216c0 145 100 241 261 241zM297 363c62 0 115 34 140 107c-8 90 -50 152 -136 152
c-78 0 -126 -51 -126 -133c0 -83 52 -126 122 -126z" />
    <glyph glyph-name="uni00B9" unicode="&#xb9;" horiz-adv-x="241" 
d="M126 710h54v-380h-86v297l-64 -26v68z" />
    <glyph glyph-name="uni00B2" unicode="&#xb2;" horiz-adv-x="348" 
d="M131 398h178v-68h-273v68c91 75 177 132 177 198c0 34 -20 53 -51 53c-35 0 -54 -25 -68 -59l-65 26c15 62 66 103 141 103c76 0 127 -44 127 -116c0 -104 -108 -167 -166 -205z" />
    <glyph glyph-name="uni00B3" unicode="&#xb3;" horiz-adv-x="304" 
d="M192 527c46 -8 85 -33 85 -93c0 -74 -66 -111 -139 -112c-64 -1 -109 19 -129 33l22 64c24 -12 57 -27 93 -27c37 0 63 17 63 49c0 36 -32 54 -90 54h-24v55h21c62 0 85 25 85 56c0 29 -20 44 -50 44c-31 0 -63 -12 -87 -28l-22 59c23 21 71 39 122 39
c72 0 121 -35 121 -98c0 -47 -28 -81 -71 -95z" />
    <glyph glyph-name="onequarter" unicode="&#xbc;" horiz-adv-x="714" 
d="M547 725h87l-511 -725h-87zM94 330v297l-64 -26v68l96 41h54v-380h-86zM699 156v-54h-60v-102h-84v102h-176v59l179 219h81v-224h60zM442 156h113v135z" />
    <glyph glyph-name="onehalf" unicode="&#xbd;" horiz-adv-x="756" 
d="M547 725h87l-511 -725h-87zM94 330v297l-64 -26v68l96 41h54v-380h-86zM539 68h178v-68h-273v68c91 75 177 132 177 198c0 34 -20 53 -51 53c-35 0 -54 -25 -68 -59l-65 26c15 62 66 103 141 103c76 0 127 -44 127 -116c0 -104 -108 -167 -166 -205z" />
    <glyph glyph-name="threequarters" unicode="&#xbe;" horiz-adv-x="763" 
d="M596 725h87l-511 -725h-87zM124 392c37 0 63 17 63 49c0 36 -32 54 -90 54h-24v55h21c62 0 85 25 85 56c0 29 -20 44 -50 44c-31 0 -63 -12 -87 -28l-22 59c23 21 71 39 122 39c72 0 121 -35 121 -98c0 -47 -28 -81 -71 -95c46 -8 85 -33 85 -93
c0 -74 -66 -111 -139 -112c-64 -1 -109 19 -129 33l22 64c24 -12 57 -27 93 -27zM748 156v-54h-60v-102h-84v102h-176v59l179 219h81v-224h60zM491 156h113v135z" />
    <glyph glyph-name="uni2153" unicode="&#x2153;" horiz-adv-x="723" 
d="M547 725h87l-511 -725h-87zM94 330v297l-64 -26v68l96 41h54v-380h-86zM611 197c46 -8 85 -33 85 -93c0 -74 -66 -111 -139 -112c-64 -1 -109 19 -129 33l22 64c24 -12 57 -27 93 -27c37 0 63 17 63 49c0 36 -32 54 -90 54h-24v55h21c62 0 85 25 85 56
c0 29 -20 44 -50 44c-31 0 -63 -12 -87 -28l-22 59c23 21 71 39 122 39c72 0 121 -35 121 -98c0 -47 -28 -81 -71 -95z" />
    <glyph glyph-name="uni2154" unicode="&#x2154;" horiz-adv-x="830" 
d="M654 725h87l-511 -725h-87zM309 398v-68h-273v68c91 75 177 132 177 198c0 34 -20 53 -51 53c-35 0 -54 -25 -68 -59l-65 26c15 62 66 103 141 103c76 0 127 -44 127 -116c0 -104 -108 -167 -166 -205h178zM718 197c46 -8 85 -33 85 -93c0 -74 -66 -111 -139 -112
c-64 -1 -109 19 -129 33l22 64c24 -12 57 -27 93 -27c37 0 63 17 63 49c0 36 -32 54 -90 54h-24v55h21c62 0 85 25 85 56c0 29 -20 44 -50 44c-31 0 -63 -12 -87 -28l-22 59c23 21 71 39 122 39c72 0 121 -35 121 -98c0 -47 -28 -81 -71 -95z" />
    <glyph glyph-name="oneeighth" unicode="&#x215b;" horiz-adv-x="738" 
d="M547 725h87l-511 -725h-87zM94 330v297l-64 -26v68l96 41h54v-380h-86zM626 210c48 -21 92 -48 92 -104c0 -71 -58 -114 -152 -114c-95 0 -152 40 -152 109c0 51 44 79 83 93c-33 19 -59 46 -59 94c0 60 49 100 129 100s128 -40 128 -94c0 -42 -31 -69 -69 -84zM566 334
c-29 0 -51 -16 -51 -43c0 -30 30 -46 67 -62c18 14 36 34 36 59c0 30 -24 46 -52 46zM566 51c36 0 63 18 63 48c0 37 -40 53 -84 72c-28 -14 -45 -37 -45 -64c0 -35 31 -56 66 -56z" />
    <glyph glyph-name="threeeighths" unicode="&#x215c;" horiz-adv-x="787" 
d="M596 725h87l-511 -725h-87zM124 392c37 0 63 17 63 49c0 36 -32 54 -90 54h-24v55h21c62 0 85 25 85 56c0 29 -20 44 -50 44c-31 0 -63 -12 -87 -28l-22 59c23 21 71 39 122 39c72 0 121 -35 121 -98c0 -47 -28 -81 -71 -95c46 -8 85 -33 85 -93
c0 -74 -66 -111 -139 -112c-64 -1 -109 19 -129 33l22 64c24 -12 57 -27 93 -27zM675 210c48 -21 92 -48 92 -104c0 -71 -58 -114 -152 -114c-95 0 -152 40 -152 109c0 51 44 79 83 93c-33 19 -59 46 -59 94c0 60 49 100 129 100s128 -40 128 -94c0 -42 -31 -69 -69 -84z
M615 334c-29 0 -51 -16 -51 -43c0 -30 30 -46 67 -62c18 14 36 34 36 59c0 30 -24 46 -52 46zM615 51c36 0 63 18 63 48c0 37 -40 53 -84 72c-28 -14 -45 -37 -45 -64c0 -35 31 -56 66 -56z" />
    <glyph glyph-name="fiveeighths" unicode="&#x215d;" horiz-adv-x="822" 
d="M630 725h87l-511 -725h-87zM156 390c42 0 71 24 71 68c0 42 -27 61 -61 61c-38 0 -60 -22 -74 -36l-48 19l22 209h225v-66h-165l-11 -99c21 17 51 29 86 29c71 0 115 -40 115 -117c0 -91 -68 -136 -153 -136c-72 0 -118 29 -142 44l28 61c29 -16 68 -37 107 -37zM709 210
c48 -21 92 -48 92 -104c0 -71 -58 -114 -152 -114c-95 0 -152 40 -152 109c0 51 44 79 83 93c-33 19 -59 46 -59 94c0 60 49 100 129 100s128 -40 128 -94c0 -42 -31 -69 -69 -84zM649 334c-29 0 -51 -16 -51 -43c0 -30 30 -46 67 -62c18 14 36 34 36 59c0 30 -24 46 -52 46
zM649 51c36 0 63 18 63 48c0 37 -40 53 -84 72c-28 -14 -45 -37 -45 -64c0 -35 31 -56 66 -56z" />
    <glyph glyph-name="seveneighths" unicode="&#x215e;" horiz-adv-x="722" 
d="M530 725h87l-511 -725h-87zM57 330c24 136 89 247 135 313h-174v67h266v-50c-45 -65 -116 -188 -134 -330h-93zM609 210c48 -21 92 -48 92 -104c0 -71 -58 -114 -152 -114c-95 0 -152 40 -152 109c0 51 44 79 83 93c-33 19 -59 46 -59 94c0 60 49 100 129 100
s128 -40 128 -94c0 -42 -31 -69 -69 -84zM549 334c-29 0 -51 -16 -51 -43c0 -30 30 -46 67 -62c18 14 36 34 36 59c0 30 -24 46 -52 46zM549 51c36 0 63 18 63 48c0 37 -40 53 -84 72c-28 -14 -45 -37 -45 -64c0 -35 31 -56 66 -56z" />
    <glyph glyph-name="underscore" unicode="_" horiz-adv-x="540" 
d="M17 -84h507v-109h-507v109z" />
    <glyph glyph-name="hyphen" unicode="-" horiz-adv-x="606" 
d="M93 339h421v-108h-421v108z" />
    <glyph glyph-name="endash" unicode="&#x2013;" horiz-adv-x="663" 
d="M93 231v108h477v-108h-477z" />
    <glyph glyph-name="emdash" unicode="&#x2014;" horiz-adv-x="994" 
d="M93 231v108h808v-108h-808z" />
    <glyph glyph-name="parenleft" unicode="(" horiz-adv-x="389" 
d="M232 -226c-66 61 -183 222 -183 479s117 418 183 479l108 -48c-75 -102 -156 -230 -156 -431s81 -329 156 -431z" />
    <glyph glyph-name="parenright" unicode=")" horiz-adv-x="389" 
d="M156 -226l-107 48c75 102 155 230 155 431s-80 329 -155 431l107 48c67 -61 184 -222 184 -479s-117 -418 -184 -479z" />
    <glyph glyph-name="bracketleft" unicode="[" horiz-adv-x="430" 
d="M93 710h288v-113h-155v-686h155v-110h-288v909z" />
    <glyph glyph-name="bracketright" unicode="]" horiz-adv-x="430" 
d="M338 710v-909h-289v110h155v686h-155v113h289z" />
    <glyph glyph-name="braceleft" unicode="{" horiz-adv-x="436" 
d="M255 378c0 -65 -30 -103 -87 -112c57 -10 87 -45 87 -108v-165c0 -39 18 -60 59 -60h78v-114h-153c-74 0 -117 39 -117 115v214c0 41 -18 61 -48 64l-53 6v95l53 5c30 3 48 23 48 64v213c0 76 43 115 117 115h153v-113h-81c-38 0 -56 -22 -56 -61v-158z" />
    <glyph glyph-name="braceright" unicode="}" horiz-adv-x="468" 
d="M366 318l53 -5v-95l-53 -6c-30 -3 -48 -23 -48 -64v-214c0 -76 -43 -115 -117 -115h-153v114h78c41 0 59 21 59 60v165c0 63 29 98 87 108c-58 9 -87 47 -87 112v158c0 39 -18 61 -56 61h-81v113h153c74 0 117 -39 117 -115v-213c0 -41 18 -61 48 -64z" />
    <glyph glyph-name="numbersign" unicode="#" horiz-adv-x="729" 
d="M718 452h-150l-48 -175h147v-88h-172l-52 -190h-102l52 190h-163l-53 -190h-100l52 190h-112v88h136l48 175h-133v88h157l47 170h102l-47 -170h163l47 170h102l-47 -170h126v-88zM418 277l48 175h-163l-49 -175h164z" />
    <glyph glyph-name="percent" unicode="%" horiz-adv-x="941" 
d="M680 725h87l-511 -725h-87zM205 322c-106 0 -180 82 -180 198s74 198 180 198c105 0 179 -82 179 -198s-74 -198 -179 -198zM205 388c57 0 89 53 89 132s-32 132 -89 132s-89 -53 -89 -132s32 -132 89 -132zM733 -8c-105 0 -179 82 -179 198s74 198 179 198
s179 -82 179 -198s-74 -198 -179 -198zM733 58c57 0 89 53 89 132s-32 132 -89 132s-89 -53 -89 -132s32 -132 89 -132z" />
    <glyph glyph-name="perthousand" unicode="&#x2030;" horiz-adv-x="1378" 
d="M680 725h87l-511 -725h-87zM205 322c-106 0 -180 82 -180 198s74 198 180 198c105 0 179 -82 179 -198s-74 -198 -179 -198zM205 388c57 0 89 53 89 132s-32 132 -89 132s-89 -53 -89 -132s32 -132 89 -132zM733 -8c-105 0 -179 82 -179 198s74 198 179 198
s179 -82 179 -198s-74 -198 -179 -198zM1170 -8c-105 0 -179 82 -179 198s74 198 179 198s179 -82 179 -198s-74 -198 -179 -198zM733 58c57 0 89 53 89 132s-32 132 -89 132s-89 -53 -89 -132s32 -132 89 -132zM1170 58c57 0 89 53 89 132s-32 132 -89 132
s-89 -53 -89 -132s32 -132 89 -132z" />
    <glyph glyph-name="ampersand" unicode="&#x26;" horiz-adv-x="770" 
d="M752 0h-170l-90 92c-58 -58 -130 -108 -238 -108c-134 0 -204 74 -204 180c0 121 89 172 176 200c-38 43 -76 98 -76 173c0 112 86 189 209 189c113 0 193 -67 193 -169c0 -100 -66 -162 -146 -198l106 -110c34 40 78 94 101 137l81 -56c-28 -40 -63 -91 -115 -150z
M362 635c-48 0 -88 -32 -88 -89c0 -56 37 -94 75 -131c54 29 94 76 94 136c0 50 -32 84 -81 84zM289 91c57 0 100 28 139 67l-142 145c-52 -23 -95 -58 -95 -123c0 -52 36 -89 98 -89z" />
    <glyph glyph-name="section" unicode="&#xa7;" horiz-adv-x="570" 
d="M481 118c31 -29 51 -67 51 -117c0 -130 -113 -195 -241 -195c-145 0 -232 67 -274 127l53 81c49 -58 119 -105 203 -105c64 0 118 31 118 89c0 128 -342 101 -342 305c0 54 26 89 63 113c-30 29 -49 64 -49 112c0 125 105 189 224 189c115 0 180 -41 221 -97l-56 -75
c-45 46 -92 76 -157 76c-57 0 -98 -33 -98 -80c0 -120 328 -103 328 -313c0 -45 -18 -82 -44 -110zM166 317c0 -73 132 -95 238 -147c7 10 10 23 10 38c0 77 -126 103 -227 156c-13 -12 -21 -28 -21 -47z" />
    <glyph glyph-name="paragraph" unicode="&#xb6;" horiz-adv-x="768" 
d="M301 241c-137 0 -252 85 -252 234c0 151 115 235 252 235h386v-875h-128v766h-129v-766h-129v406z" />
    <glyph glyph-name="uni2116" unicode="&#x2116;" horiz-adv-x="1306" 
d="M996 187c-145 0 -270 97 -270 268c0 173 126 270 271 270s271 -97 271 -270c0 -171 -127 -268 -272 -268zM545 241v469h117v-710h-133l-324 502v-502h-116v710h138zM996 616c-72 0 -132 -59 -132 -161c0 -99 59 -158 132 -158s134 59 134 158c0 102 -61 161 -134 161z
M753 0v96h487v-96h-487z" />
    <glyph glyph-name="quotesingle" unicode="'" horiz-adv-x="244" 
d="M53 710h137l-14 -289h-109z" />
    <glyph glyph-name="quotedbl" unicode="&#x22;" horiz-adv-x="457" 
d="M53 710h137l-14 -289h-109zM267 710h136l-13 -289h-110z" />
    <glyph glyph-name="quoteleft" unicode="&#x2018;" horiz-adv-x="300" 
d="M144 556c39 -4 66 -30 66 -70c0 -44 -34 -73 -79 -73c-43 0 -78 27 -78 87c0 92 85 182 155 226l38 -47c-35 -30 -84 -78 -102 -123z" />
    <glyph glyph-name="quoteright" unicode="&#x2019;" horiz-adv-x="300" 
d="M169 726c42 0 77 -27 77 -87c0 -92 -84 -182 -154 -226l-39 47c36 30 85 78 103 123c-39 4 -66 30 -66 70c0 44 34 73 79 73z" />
    <glyph glyph-name="quotedblleft" unicode="&#x201c;" horiz-adv-x="511" 
d="M246 679c-35 -29 -83 -77 -102 -122c39 -5 66 -31 66 -70c0 -44 -34 -74 -79 -74c-43 0 -78 28 -78 87c0 92 85 182 155 226zM355 557c39 -4 66 -31 66 -70c0 -44 -34 -74 -79 -74c-42 0 -77 28 -77 87c0 92 84 182 154 226l39 -47c-36 -29 -84 -77 -103 -122z" />
    <glyph glyph-name="quotedblright" unicode="&#x201d;" horiz-adv-x="501" 
d="M159 726c42 0 77 -27 77 -87c0 -92 -84 -182 -154 -226l-39 47c36 30 85 78 103 123c-39 4 -66 30 -66 70c0 44 34 73 79 73zM370 726c43 0 78 -27 78 -87c0 -92 -85 -182 -155 -226l-38 47c35 30 84 78 102 123c-39 4 -66 30 -66 70c0 44 34 73 79 73z" />
    <glyph glyph-name="quotesinglbase" unicode="&#x201a;" horiz-adv-x="300" 
d="M169 141c42 0 77 -28 77 -87c0 -92 -84 -182 -154 -226l-39 47c36 29 84 77 103 122c-39 4 -66 31 -66 70c0 44 34 74 79 74z" />
    <glyph glyph-name="quotedblbase" unicode="&#x201e;" horiz-adv-x="501" 
d="M150 141c43 0 78 -28 78 -87c0 -92 -85 -182 -155 -226l-38 47c35 29 83 77 102 122c-39 5 -66 31 -66 70c0 44 34 74 79 74zM361 141c43 0 78 -28 78 -87c0 -92 -84 -182 -155 -226l-38 47c36 29 84 77 103 122c-39 4 -66 31 -66 70c0 44 34 74 78 74z" />
    <glyph glyph-name="guilsinglleft" unicode="&#x2039;" horiz-adv-x="389" 
d="M49 265l162 264h129l-162 -264l162 -265h-129z" />
    <glyph glyph-name="guilsinglright" unicode="&#x203a;" horiz-adv-x="388" 
d="M339 265l-162 -265h-129l162 265l-162 264h129z" />
    <glyph glyph-name="guillemotleft" unicode="&#xab;" horiz-adv-x="774" 
d="M49 265l162 264h129l-162 -264l162 -265h-129zM384 265l162 264h129l-162 -264l162 -265h-129z" />
    <glyph glyph-name="guillemotright" unicode="&#xbb;" horiz-adv-x="774" 
d="M390 265l-162 -265h-129l162 265l-162 264h129zM725 265l-162 -265h-129l162 265l-162 264h129z" />
    <glyph glyph-name="asterisk" unicode="*" horiz-adv-x="531" 
d="M265 477l-80 -127l-86 63l100 111l-146 35l34 102l137 -61l-13 150h107l-13 -150l140 56l33 -103l-148 -30l96 -114l-87 -62z" />
    <glyph glyph-name="dagger" unicode="&#x2020;" horiz-adv-x="488" 
d="M461 529v-109h-156v-228l-19 -302h-94l-20 302v228h-155v109h155v181h133v-181h156z" />
    <glyph glyph-name="daggerdbl" unicode="&#x2021;" horiz-adv-x="629" 
d="M377 420l-10 -120l10 -120h159v-109h-155v-181h-134v181h-154v109h159l10 120l-10 120h-159v109h154v181h134v-181h155v-109h-159z" />
    <glyph glyph-name="period" unicode="." horiz-adv-x="275" 
d="M137 -5c-48 0 -84 29 -84 77s36 81 84 81c49 0 84 -33 84 -81s-35 -77 -84 -77z" />
    <glyph glyph-name="comma" unicode="," horiz-adv-x="300" 
d="M169 141c42 0 77 -28 77 -87c0 -92 -84 -182 -154 -226l-39 47c36 29 84 77 103 122c-39 4 -66 31 -66 70c0 44 34 74 79 74z" />
    <glyph glyph-name="colon" unicode=":" horiz-adv-x="275" 
d="M137 370c-48 0 -84 29 -84 78c0 48 36 80 84 80c49 0 84 -32 84 -80c0 -49 -35 -78 -84 -78zM137 -5c-48 0 -84 29 -84 77s36 81 84 81c49 0 84 -33 84 -81s-35 -77 -84 -77z" />
    <glyph glyph-name="semicolon" unicode=";" horiz-adv-x="300" 
d="M137 294c-48 0 -84 29 -84 77s36 81 84 81c49 0 84 -33 84 -81s-35 -77 -84 -77zM142 141c42 0 77 -28 77 -87c0 -92 -84 -182 -154 -226l-39 47c36 29 84 77 103 122c-39 4 -66 31 -66 70c0 44 34 74 79 74z" />
    <glyph glyph-name="ellipsis" unicode="&#x2026;" horiz-adv-x="937" 
d="M137 -5c-48 0 -84 29 -84 77s36 81 84 81c49 0 84 -33 84 -81s-35 -77 -84 -77zM468 -5c-48 0 -84 29 -84 77s36 81 84 81c49 0 84 -33 84 -81s-35 -77 -84 -77zM799 -5c-48 0 -84 29 -84 77s36 81 84 81c49 0 84 -33 84 -81s-35 -77 -84 -77z" />
    <glyph glyph-name="exclam" unicode="!" horiz-adv-x="268" 
d="M98 269c-11 132 -45 289 -45 373c0 50 35 81 81 81c47 0 80 -31 80 -81c0 -84 -32 -240 -44 -373l-1 -43h-69zM134 -5c-49 0 -84 29 -84 77s35 81 84 81s84 -33 84 -81s-35 -77 -84 -77z" />
    <glyph glyph-name="exclamdown" unicode="&#xa1;" horiz-adv-x="282" 
d="M149 544c48 0 83 -29 83 -77s-35 -81 -83 -81c-50 0 -84 33 -84 81s34 77 84 77zM185 270c10 -132 44 -289 44 -373c0 -50 -34 -81 -81 -81s-80 31 -80 81c0 84 33 240 44 373l1 43h70z" />
    <glyph glyph-name="question" unicode="?" horiz-adv-x="460" 
d="M157 216c-6 224 144 205 144 325c0 50 -37 83 -96 83c-58 0 -108 -31 -145 -79l-45 74c33 53 100 107 213 107c103 0 208 -48 208 -164c0 -180 -172 -140 -177 -346h-102zM209 -4c-49 0 -84 29 -84 77s35 81 84 81s84 -33 84 -81s-35 -77 -84 -77z" />
    <glyph glyph-name="questiondown" unicode="&#xbf;" horiz-adv-x="460" 
d="M242 526c48 0 83 -29 83 -77s-35 -81 -83 -81c-50 0 -84 33 -84 81s34 77 84 77zM294 307c5 -224 -145 -206 -145 -326c0 -50 38 -83 96 -83c59 0 109 31 145 80l46 -75c-34 -53 -101 -107 -214 -107c-103 0 -207 48 -207 164c0 180 171 140 176 347h103z" />
    <glyph glyph-name="slash" unicode="/" horiz-adv-x="550" 
d="M17 -108l389 833h134l-389 -833h-134z" />
    <glyph glyph-name="backslash" unicode="\" horiz-adv-x="534" 
d="M17 725h134l389 -833h-134z" />
    <glyph glyph-name="fraction" unicode="&#x2044;" horiz-adv-x="188" 
d="M306 725h87l-511 -725h-87z" />
    <glyph glyph-name="bar" unicode="|" horiz-adv-x="314" 
d="M93 900h128v-1150h-128v1150z" />
    <glyph glyph-name="brokenbar" unicode="&#xa6;" horiz-adv-x="243" 
d="M57 900h129v-513h-129v513zM57 264h129v-514h-129v514z" />
    <glyph glyph-name="periodcentered" unicode="&#xb7;" horiz-adv-x="353" 
d="M176 247c-48 0 -83 29 -83 77s35 81 83 81c50 0 84 -33 84 -81s-34 -77 -84 -77z" />
    <glyph glyph-name="bullet" unicode="&#x2022;" horiz-adv-x="386" 
d="M192 214c-64 0 -110 38 -110 102c0 63 46 107 110 107c65 0 111 -44 111 -107c0 -64 -46 -102 -111 -102z" />
    <glyph glyph-name="minute" unicode="&#x2032;" horiz-adv-x="213" 
d="M38 710h138l-27 -297h-111v297z" />
    <glyph glyph-name="second" unicode="&#x2033;" horiz-adv-x="449" 
d="M38 710h138l-27 -297h-111v297zM275 710h138l-28 -297h-110v297z" />
    <glyph glyph-name="plus" unicode="+" horiz-adv-x="644" 
d="M551 368v-95h-180v-178h-98v178h-180v95h180v179h98v-179h180z" />
    <glyph glyph-name="minus" unicode="&#x2212;" horiz-adv-x="644" 
d="M93 368h458v-95h-458v95z" />
    <glyph glyph-name="plusminus" unicode="&#xb1;" horiz-adv-x="583" 
d="M340 414h181v-95h-181v-148h-98v148h-180v95h180v148h98v-148zM62 0v94h459v-94h-459z" />
    <glyph glyph-name="divide" unicode="&#xf7;" horiz-adv-x="583" 
d="M292 425c-40 0 -67 24 -67 62c0 39 27 65 67 65c38 0 66 -26 66 -65c0 -38 -28 -62 -66 -62zM62 368h459v-95h-459v95zM292 90c-40 0 -67 23 -67 62c0 38 27 64 67 64c38 0 66 -26 66 -64c0 -39 -28 -62 -66 -62z" />
    <glyph glyph-name="multiply" unicode="&#xd7;" horiz-adv-x="557" 
d="M475 449l-129 -128l128 -128l-67 -68l-128 128l-129 -128l-67 67l129 129l-129 129l67 67l129 -129l128 129z" />
    <glyph glyph-name="equal" unicode="=" horiz-adv-x="664" 
d="M93 495h478v-95h-478v95zM93 248h478v-95h-478v95z" />
    <glyph glyph-name="less" unicode="&#x3c;" horiz-adv-x="610" 
d="M49 284v118l469 169v-98l-376 -130l376 -130v-98z" />
    <glyph glyph-name="greater" unicode="&#x3e;" horiz-adv-x="604" 
d="M548 284l-469 -169v98l376 130l-376 130v98l469 -169v-118z" />
    <glyph glyph-name="lessequal" unicode="&#x2264;" horiz-adv-x="575" 
d="M525 601v-99l-371 -108l371 -109v-100l-468 150v117zM57 0v94h468v-94h-468z" />
    <glyph glyph-name="greaterequal" unicode="&#x2265;" horiz-adv-x="575" 
d="M50 601l469 -149v-117l-469 -150v100l371 109l-371 108v99zM50 0v94h469v-94h-469z" />
    <glyph glyph-name="approxequal" unicode="&#x2248;" horiz-adv-x="642" 
d="M448 396c-96 0 -175 56 -251 56s-135 -30 -135 -30v96c0 -1 44 30 135 30s178 -56 251 -56s132 30 132 30v-96s-36 -30 -132 -30zM448 147c-96 0 -175 56 -251 56s-135 -30 -135 -30v96c0 -1 44 30 135 30s178 -56 251 -56s132 30 132 30v-96s-36 -30 -132 -30z" />
    <glyph glyph-name="notequal" unicode="&#x2260;" horiz-adv-x="646" 
d="M563 400h-148l-78 -152h226v-95h-274l-61 -118h-104l61 118h-102v95h150l78 152h-228v95h277l60 117h104l-60 -117h99v-95z" />
    <glyph glyph-name="logicalnot" unicode="&#xac;" horiz-adv-x="618" 
d="M50 397h518v-260h-97v164h-421v96z" />
    <glyph glyph-name="dollar" unicode="$" horiz-adv-x="554" 
d="M524 197c0 -122 -79 -193 -189 -209v-87h-111v87c-97 14 -160 62 -204 133l70 80c48 -60 105 -108 186 -108c66 0 107 34 107 85c0 45 -33 71 -78 95c-97 52 -252 88 -252 251c0 111 74 179 171 197v88h111v-87c79 -12 134 -51 173 -109l-73 -78c-41 45 -84 83 -150 83
c-58 0 -98 -31 -98 -79c0 -42 31 -67 75 -90c99 -53 262 -89 262 -252z" />
    <glyph glyph-name="cent" unicode="&#xa2;" horiz-adv-x="520" 
d="M497 46c-26 -19 -70 -50 -145 -59v-91h-105v95c-131 25 -203 128 -203 266c0 136 79 237 203 263v95h105v-91c59 -7 106 -29 133 -52l-37 -105c-25 21 -69 41 -125 41c-87 0 -142 -66 -142 -151c0 -86 57 -153 147 -153c59 0 98 20 130 44z" />
    <glyph glyph-name="sterling" unicode="&#xa3;" horiz-adv-x="469" 
d="M265 212c-7 -57 -39 -95 -80 -118h254v-94h-422v94h16c56 0 118 24 125 118h-124v67h118c-28 94 -135 129 -135 261s105 185 208 185c113 0 180 -46 217 -99l-52 -76c-34 46 -84 76 -140 76c-61 0 -102 -33 -102 -99c0 -102 93 -137 114 -248h128v-67h-125z" />
    <glyph glyph-name="currency" unicode="&#xa4;" horiz-adv-x="634" 
d="M578 256c0 -62 -17 -114 -46 -156l72 -61l-70 -70l-62 72c-44 -31 -98 -47 -155 -47c-58 0 -112 16 -156 47l-62 -72l-71 70l73 62c-28 41 -45 93 -45 155s17 115 45 156l-73 63l71 70l61 -73c45 31 99 48 157 48c57 0 111 -16 155 -47l62 72l70 -70l-72 -62
c29 -41 46 -94 46 -157zM317 98c72 0 133 59 133 158c0 102 -61 161 -133 161c-74 0 -133 -59 -133 -161c0 -99 59 -158 133 -158z" />
    <glyph glyph-name="yen" unicode="&#xa5;" horiz-adv-x="616" 
d="M607 710l-212 -390h142v-55h-162v-79h162v-55h-162v-131h-134v131h-163v55h163v79h-163v55h143l-212 390h146l160 -301l160 301h132z" />
    <glyph glyph-name="uni20A9" unicode="&#x20a9;" horiz-adv-x="1085" 
d="M1070 710l-80 -242h66v-58h-85l-42 -129h115v-57h-134l-74 -224h-120l-74 224h-201l-74 -224h-119l-74 224h-133v57h115l-43 129h-84v58h65l-79 242h143l75 -242h183l79 242h109l79 -242h184l75 242h128zM542 528l-20 -60h40zM250 410l40 -129h65l42 129h-147zM460 281
h163l-42 129h-78zM810 281l40 129h-148l42 -129h66zM322 179l14 45h-28zM778 178l14 46h-29z" />
    <glyph glyph-name="Euro" unicode="&#x20ac;" horiz-adv-x="731" 
d="M655 154l24 -116c-50 -32 -116 -54 -208 -54c-173 0 -301 100 -339 265h-103l14 59h80c-1 15 -2 31 -2 47c0 15 1 30 2 44h-78l14 59h73c38 167 169 268 339 268c78 0 143 -17 192 -44l-24 -112c-39 23 -88 35 -153 35c-88 0 -172 -51 -207 -147h287l-13 -59h-288
c-1 -13 -2 -27 -2 -41c0 -18 1 -34 3 -50h269l-14 -59h-240c34 -91 113 -139 206 -139c73 0 124 15 168 44z" />
    <glyph glyph-name="fhook" unicode="&#x192;" horiz-adv-x="399" 
d="M347 661c-44 0 -72 -18 -78 -70l-10 -79h122l-13 -110h-122l-50 -404c-13 -105 -74 -156 -195 -156c-34 0 -65 3 -82 6l13 98c16 -2 34 -4 59 -4c44 0 72 19 79 70l48 390h-83l14 110h83l11 93c13 105 74 156 194 156c34 0 65 -3 82 -6l-13 -97c-16 2 -34 3 -59 3z" />
    <glyph glyph-name="copyright" unicode="&#xa9;" horiz-adv-x="803" 
d="M368 -15c-185 0 -368 136 -368 370s183 370 368 370c186 0 369 -136 369 -370s-183 -370 -369 -370zM368 25c157 0 322 110 322 330s-165 330 -322 330s-321 -110 -321 -330s164 -330 321 -330zM382 134c-114 0 -205 78 -205 227c0 150 92 228 205 228
c55 0 90 -15 123 -38l-14 -53c-29 21 -55 32 -105 32c-71 0 -144 -48 -144 -168s70 -169 144 -169c57 0 88 16 118 45l17 -54c-34 -30 -74 -50 -139 -50z" />
    <glyph glyph-name="registered" unicode="&#xae;" horiz-adv-x="833" 
d="M416 -15c-185 0 -368 136 -368 370s183 370 368 370c186 0 369 -136 369 -370s-183 -370 -369 -370zM416 38c151 0 310 105 310 317s-159 317 -310 317s-309 -105 -309 -317s158 -317 309 -317zM293 146v419h126c86 0 151 -33 151 -122c0 -73 -42 -114 -105 -127
l114 -170h-63l-110 166h-61v-166h-52zM418 355c57 -1 94 26 94 84c0 57 -38 82 -94 82h-73v-166h73z" />
    <glyph glyph-name="trademark" unicode="&#x2122;" horiz-adv-x="658" 
d="M249 710v-54h-68v-221h-64v221h-69v54h201zM610 435h-60l-24 192l-67 -192h-43l-66 191l-22 -191h-56l31 275h71l66 -186l66 186h73z" />
    <glyph glyph-name="degree" unicode="&#xb0;" horiz-adv-x="405" 
d="M203 350c-106 0 -183 71 -183 184c0 112 77 184 183 184s182 -72 182 -184c0 -113 -76 -184 -182 -184zM203 401c65 0 113 50 113 133s-48 132 -113 132c-66 0 -114 -49 -114 -132s48 -133 114 -133z" />
    <glyph glyph-name="uni2117" unicode="&#x2117;" horiz-adv-x="803" 
d="M368 725c186 0 369 -136 369 -370s-183 -370 -369 -370c-185 0 -368 136 -368 370s183 370 368 370zM368 25c157 0 322 110 322 330s-165 330 -322 330s-321 -110 -321 -330s164 -330 321 -330zM375 532c75 0 127 -33 127 -108c0 -77 -54 -120 -128 -120h-64v-127h-53
v355h118zM364 343c47 -1 80 25 80 75s-30 68 -79 68h-55v-143h54z" />
    <glyph glyph-name="at" unicode="@" horiz-adv-x="1031" 
d="M753 467l-57 -246c-17 -73 3 -107 57 -107c66 0 148 63 148 218c0 210 -168 316 -355 316c-220 0 -401 -157 -401 -403s168 -379 377 -379c103 0 197 31 265 88l38 -62c-80 -65 -187 -104 -305 -104c-273 0 -469 167 -469 456s225 481 496 481c237 0 436 -146 436 -392
c0 -210 -136 -296 -237 -296c-83 0 -126 38 -134 91c-33 -55 -82 -90 -148 -90c-98 0 -161 66 -157 197c4 152 105 244 208 244c74 0 118 -34 137 -85l18 73h83zM499 127c72 0 120 75 126 158c7 62 -28 107 -87 107c-71 0 -123 -72 -126 -157c-3 -71 27 -108 87 -108z" />
    <glyph glyph-name="zero.den" horiz-adv-x="397" 
d="M198 -8c-103 0 -173 81 -173 198s70 199 173 199s173 -82 173 -199s-70 -198 -173 -198zM198 61c55 0 83 51 83 129s-28 130 -83 130c-54 0 -82 -52 -82 -130s28 -129 82 -129z" />
    <glyph glyph-name="one.den" horiz-adv-x="241" 
d="M126 380h54v-380h-86v297l-64 -26v68z" />
    <glyph glyph-name="two.den" horiz-adv-x="348" 
d="M131 68h178v-68h-273v68c91 75 177 132 177 198c0 34 -20 53 -51 53c-35 0 -54 -25 -68 -59l-65 26c15 62 66 103 141 103c76 0 127 -44 127 -116c0 -104 -108 -167 -166 -205z" />
    <glyph glyph-name="three.den" horiz-adv-x="304" 
d="M192 197c46 -8 85 -33 85 -93c0 -74 -66 -111 -139 -112c-64 -1 -109 19 -129 33l22 64c24 -12 57 -27 93 -27c37 0 63 17 63 49c0 36 -32 54 -90 54h-24v55h21c62 0 85 25 85 56c0 29 -20 44 -50 44c-31 0 -63 -12 -87 -28l-22 59c23 21 71 39 122 39
c72 0 121 -35 121 -98c0 -47 -28 -81 -71 -95z" />
    <glyph glyph-name="four.den" horiz-adv-x="351" 
d="M336 156v-54h-60v-102h-84v102h-176v59l179 219h81v-224h60zM79 156h113v135z" />
    <glyph glyph-name="five.den" horiz-adv-x="338" 
d="M201 245c71 0 115 -40 115 -117c0 -91 -68 -136 -153 -136c-72 0 -118 29 -142 44l28 61c29 -16 68 -37 107 -37c42 0 71 24 71 68c0 42 -27 61 -61 61c-38 0 -60 -22 -74 -36l-48 19l22 209h225v-66h-165l-11 -99c21 17 51 29 86 29z" />
    <glyph glyph-name="six.den" horiz-adv-x="346" 
d="M212 238c62 0 115 -38 115 -115c0 -80 -55 -131 -146 -131c-95 0 -154 64 -154 177c0 131 63 220 188 220c28 0 52 -5 72 -11l-8 -64c-17 4 -35 8 -55 8c-63 0 -105 -45 -109 -126c23 26 55 42 97 42zM179 56c38 0 61 24 61 65c0 42 -25 61 -59 61c-28 0 -52 -14 -66 -46
c2 -49 22 -80 64 -80z" />
    <glyph glyph-name="seven.den" horiz-adv-x="301" 
d="M18 380h266v-50c-45 -65 -116 -188 -134 -330h-93c24 136 89 247 135 313h-174v67z" />
    <glyph glyph-name="eight.den" horiz-adv-x="345" 
d="M233 210c48 -21 92 -48 92 -104c0 -71 -58 -114 -152 -114c-95 0 -152 40 -152 109c0 51 44 79 83 93c-33 19 -59 46 -59 94c0 60 49 100 129 100s128 -40 128 -94c0 -42 -31 -69 -69 -84zM173 334c-29 0 -51 -16 -51 -43c0 -30 30 -46 67 -62c18 14 36 34 36 59
c0 30 -24 46 -52 46zM173 51c36 0 63 18 63 48c0 37 -40 53 -84 72c-28 -14 -45 -37 -45 -64c0 -35 31 -56 66 -56z" />
    <glyph glyph-name="nine.den" horiz-adv-x="346" 
d="M167 388c96 0 154 -64 154 -177c0 -131 -63 -220 -187 -220c-28 0 -52 5 -73 11l8 64c18 -4 35 -8 56 -8c63 0 105 45 109 126c-23 -26 -55 -42 -97 -42c-62 0 -115 38 -115 115c0 80 55 131 145 131zM167 198c28 0 53 14 67 47c-2 48 -23 79 -65 79
c-38 0 -61 -24 -61 -65c0 -42 26 -61 59 -61z" />
    <glyph glyph-name="zero.num" horiz-adv-x="397" 
d="M198 322c-103 0 -173 81 -173 198s70 199 173 199s173 -82 173 -199s-70 -198 -173 -198zM198 391c55 0 83 51 83 129s-28 130 -83 130c-54 0 -82 -52 -82 -130s28 -129 82 -129z" />
    <glyph glyph-name="one.num" horiz-adv-x="241" 
d="M126 710h54v-380h-86v297l-64 -26v68z" />
    <glyph glyph-name="two.num" horiz-adv-x="348" 
d="M131 398h178v-68h-273v68c91 75 177 132 177 198c0 34 -20 53 -51 53c-35 0 -54 -25 -68 -59l-65 26c15 62 66 103 141 103c76 0 127 -44 127 -116c0 -104 -108 -167 -166 -205z" />
    <glyph glyph-name="three.num" horiz-adv-x="304" 
d="M192 527c46 -8 85 -33 85 -93c0 -74 -66 -111 -139 -112c-64 -1 -109 19 -129 33l22 64c24 -12 57 -27 93 -27c37 0 63 17 63 49c0 36 -32 54 -90 54h-24v55h21c62 0 85 25 85 56c0 29 -20 44 -50 44c-31 0 -63 -12 -87 -28l-22 59c23 21 71 39 122 39
c72 0 121 -35 121 -98c0 -47 -28 -81 -71 -95z" />
    <glyph glyph-name="four.num" horiz-adv-x="351" 
d="M336 486v-54h-60v-102h-84v102h-176v59l179 219h81v-224h60zM79 486h113v135z" />
    <glyph glyph-name="five.num" horiz-adv-x="338" 
d="M201 575c71 0 115 -40 115 -117c0 -91 -68 -136 -153 -136c-72 0 -118 29 -142 44l28 61c29 -16 68 -37 107 -37c42 0 71 24 71 68c0 42 -27 61 -61 61c-38 0 -60 -22 -74 -36l-48 19l22 209h225v-66h-165l-11 -99c21 17 51 29 86 29z" />
    <glyph glyph-name="six.num" horiz-adv-x="346" 
d="M212 568c62 0 115 -38 115 -115c0 -80 -55 -131 -146 -131c-95 0 -154 64 -154 177c0 131 63 220 188 220c28 0 52 -5 72 -11l-8 -64c-17 4 -35 8 -55 8c-63 0 -105 -45 -109 -126c23 26 55 42 97 42zM179 386c38 0 61 24 61 65c0 42 -25 61 -59 61
c-28 0 -52 -14 -66 -46c2 -49 22 -80 64 -80z" />
    <glyph glyph-name="seven.num" horiz-adv-x="301" 
d="M18 710h266v-50c-45 -65 -116 -188 -134 -330h-93c24 136 89 247 135 313h-174v67z" />
    <glyph glyph-name="eight.num" horiz-adv-x="345" 
d="M233 540c48 -21 92 -48 92 -104c0 -71 -58 -114 -152 -114c-95 0 -152 40 -152 109c0 51 44 79 83 93c-33 19 -59 46 -59 94c0 60 49 100 129 100s128 -40 128 -94c0 -42 -31 -69 -69 -84zM173 664c-29 0 -51 -16 -51 -43c0 -30 30 -46 67 -62c18 14 36 34 36 59
c0 30 -24 46 -52 46zM173 381c36 0 63 18 63 48c0 37 -40 53 -84 72c-28 -14 -45 -37 -45 -64c0 -35 31 -56 66 -56z" />
    <glyph glyph-name="nine.num" horiz-adv-x="346" 
d="M167 718c96 0 154 -64 154 -177c0 -131 -63 -220 -187 -220c-28 0 -52 5 -73 11l8 64c18 -4 35 -8 56 -8c63 0 105 45 109 126c-23 -26 -55 -42 -97 -42c-62 0 -115 38 -115 115c0 80 55 131 145 131zM167 528c28 0 53 14 67 47c-2 48 -23 79 -65 79
c-38 0 -61 -24 -61 -65c0 -42 26 -61 59 -61z" />
    <glyph glyph-name="zero.sub" horiz-adv-x="397" 
d="M198 -68c-103 0 -173 81 -173 198s70 199 173 199s173 -82 173 -199s-70 -198 -173 -198zM198 1c55 0 83 51 83 129s-28 130 -83 130c-54 0 -82 -52 -82 -130s28 -129 82 -129z" />
    <glyph glyph-name="one.sub" horiz-adv-x="241" 
d="M126 320h54v-380h-86v297l-64 -26v68z" />
    <glyph glyph-name="two.sub" horiz-adv-x="348" 
d="M131 8h178v-68h-273v68c91 75 177 132 177 198c0 34 -20 53 -51 53c-35 0 -54 -25 -68 -59l-65 26c15 62 66 103 141 103c76 0 127 -44 127 -116c0 -104 -108 -167 -166 -205z" />
    <glyph glyph-name="three.sub" horiz-adv-x="304" 
d="M192 137c46 -8 85 -33 85 -93c0 -74 -66 -111 -139 -112c-64 -1 -109 19 -129 33l22 64c24 -12 57 -27 93 -27c37 0 63 17 63 49c0 36 -32 54 -90 54h-24v55h21c62 0 85 25 85 56c0 29 -20 44 -50 44c-31 0 -63 -12 -87 -28l-22 59c23 21 71 39 122 39
c72 0 121 -35 121 -98c0 -47 -28 -81 -71 -95z" />
    <glyph glyph-name="four.sub" horiz-adv-x="351" 
d="M336 96v-54h-60v-102h-84v102h-176v59l179 219h81v-224h60zM79 96h113v135z" />
    <glyph glyph-name="five.sub" horiz-adv-x="338" 
d="M201 185c71 0 115 -40 115 -117c0 -91 -68 -136 -153 -136c-72 0 -118 29 -142 44l28 61c29 -16 68 -37 107 -37c42 0 71 24 71 68c0 42 -27 61 -61 61c-38 0 -60 -22 -74 -36l-48 19l22 209h225v-66h-165l-11 -99c21 17 51 29 86 29z" />
    <glyph glyph-name="six.sub" horiz-adv-x="346" 
d="M212 178c62 0 115 -38 115 -115c0 -80 -55 -131 -146 -131c-95 0 -154 64 -154 177c0 131 63 220 188 220c28 0 52 -5 72 -11l-8 -64c-17 4 -35 8 -55 8c-63 0 -105 -45 -109 -126c23 26 55 42 97 42zM179 -4c38 0 61 24 61 65c0 42 -25 61 -59 61c-28 0 -52 -14 -66 -46
c2 -49 22 -80 64 -80z" />
    <glyph glyph-name="seven.sub" horiz-adv-x="301" 
d="M18 320h266v-50c-45 -65 -116 -188 -134 -330h-93c24 136 89 247 135 313h-174v67z" />
    <glyph glyph-name="eight.sub" horiz-adv-x="345" 
d="M233 150c48 -21 92 -48 92 -104c0 -71 -58 -114 -152 -114c-95 0 -152 40 -152 109c0 51 44 79 83 93c-33 19 -59 46 -59 94c0 60 49 100 129 100s128 -40 128 -94c0 -42 -31 -69 -69 -84zM173 274c-29 0 -51 -16 -51 -43c0 -30 30 -46 67 -62c18 14 36 34 36 59
c0 30 -24 46 -52 46zM173 -9c36 0 63 18 63 48c0 37 -40 53 -84 72c-28 -14 -45 -37 -45 -64c0 -35 31 -56 66 -56z" />
    <glyph glyph-name="nine.sub" horiz-adv-x="346" 
d="M167 328c96 0 154 -64 154 -177c0 -131 -63 -220 -187 -220c-28 0 -52 5 -73 11l8 64c18 -4 35 -8 56 -8c63 0 105 45 109 126c-23 -26 -55 -42 -97 -42c-62 0 -115 38 -115 115c0 80 55 131 145 131zM167 138c28 0 53 14 67 47c-2 48 -23 79 -65 79
c-38 0 -61 -24 -61 -65c0 -42 26 -61 59 -61z" />
    <glyph glyph-name="zero.sup" horiz-adv-x="397" 
d="M198 382c-103 0 -173 81 -173 198s70 199 173 199s173 -82 173 -199s-70 -198 -173 -198zM198 451c55 0 83 51 83 129s-28 130 -83 130c-54 0 -82 -52 -82 -130s28 -129 82 -129z" />
    <glyph glyph-name="one.sup" horiz-adv-x="241" 
d="M126 770h54v-380h-86v297l-64 -26v68z" />
    <glyph glyph-name="two.sup" horiz-adv-x="348" 
d="M131 458h178v-68h-273v68c91 75 177 132 177 198c0 34 -20 53 -51 53c-35 0 -54 -25 -68 -59l-65 26c15 62 66 103 141 103c76 0 127 -44 127 -116c0 -104 -108 -167 -166 -205z" />
    <glyph glyph-name="three.sup" horiz-adv-x="304" 
d="M192 587c46 -8 85 -33 85 -93c0 -74 -66 -111 -139 -112c-64 -1 -109 19 -129 33l22 64c24 -12 57 -27 93 -27c37 0 63 17 63 49c0 36 -32 54 -90 54h-24v55h21c62 0 85 25 85 56c0 29 -20 44 -50 44c-31 0 -63 -12 -87 -28l-22 59c23 21 71 39 122 39
c72 0 121 -35 121 -98c0 -47 -28 -81 -71 -95z" />
    <glyph glyph-name="four.sup" horiz-adv-x="351" 
d="M336 546v-54h-60v-102h-84v102h-176v59l179 219h81v-224h60zM79 546h113v135z" />
    <glyph glyph-name="five.sup" horiz-adv-x="338" 
d="M201 635c71 0 115 -40 115 -117c0 -91 -68 -136 -153 -136c-72 0 -118 29 -142 44l28 61c29 -16 68 -37 107 -37c42 0 71 24 71 68c0 42 -27 61 -61 61c-38 0 -60 -22 -74 -36l-48 19l22 209h225v-66h-165l-11 -99c21 17 51 29 86 29z" />
    <glyph glyph-name="six.sup" horiz-adv-x="346" 
d="M212 628c62 0 115 -38 115 -115c0 -80 -55 -131 -146 -131c-95 0 -154 64 -154 177c0 131 63 220 188 220c28 0 52 -5 72 -11l-8 -64c-17 4 -35 8 -55 8c-63 0 -105 -45 -109 -126c23 26 55 42 97 42zM179 446c38 0 61 24 61 65c0 42 -25 61 -59 61
c-28 0 -52 -14 -66 -46c2 -49 22 -80 64 -80z" />
    <glyph glyph-name="seven.sup" horiz-adv-x="301" 
d="M18 770h266v-50c-45 -65 -116 -188 -134 -330h-93c24 136 89 247 135 313h-174v67z" />
    <glyph glyph-name="eight.sup" horiz-adv-x="345" 
d="M233 600c48 -21 92 -48 92 -104c0 -71 -58 -114 -152 -114c-95 0 -152 40 -152 109c0 51 44 79 83 93c-33 19 -59 46 -59 94c0 60 49 100 129 100s128 -40 128 -94c0 -42 -31 -69 -69 -84zM173 724c-29 0 -51 -16 -51 -43c0 -30 30 -46 67 -62c18 14 36 34 36 59
c0 30 -24 46 -52 46zM173 441c36 0 63 18 63 48c0 37 -40 53 -84 72c-28 -14 -45 -37 -45 -64c0 -35 31 -56 66 -56z" />
    <glyph glyph-name="nine.sup" horiz-adv-x="346" 
d="M165 778c95 0 154 -64 154 -177c0 -131 -63 -220 -188 -220c-28 0 -52 5 -72 11l8 64c17 -4 35 -8 55 -8c63 0 105 45 109 126c-23 -26 -55 -42 -97 -42c-62 0 -115 38 -115 115c0 80 55 131 146 131zM165 588c28 0 52 14 66 46c-2 49 -22 80 -64 80
c-38 0 -61 -24 -61 -65c0 -42 25 -61 59 -61z" />
    <glyph glyph-name="Aacute" unicode="&#xc1;" horiz-adv-x="689" 
d="M561 891l-161 -124h-111l147 124h125zM523 0l-60 181h-251l-60 -181h-132l251 710h147l251 -710h-146zM243 274h190l-94 286z" />
    <glyph glyph-name="Abreve" unicode="&#x102;" horiz-adv-x="689" 
d="M345 764c-96 0 -151 48 -155 127h83c7 -40 32 -61 72 -61c41 0 66 21 72 61h83c-8 -79 -61 -127 -155 -127zM523 0l-60 181h-251l-60 -181h-132l251 710h147l251 -710h-146zM243 274h190l-94 286z" />
    <glyph glyph-name="Acircumflex" unicode="&#xc2;" horiz-adv-x="689" 
d="M345 845l-73 -78h-106l122 124h114l121 -124h-107zM523 0l-60 181h-251l-60 -181h-132l251 710h147l251 -710h-146zM243 274h190l-94 286z" />
    <glyph glyph-name="Adieresis" unicode="&#xc4;" horiz-adv-x="689" 
d="M247 771c-36 0 -61 23 -61 61c0 37 25 63 61 63s61 -26 61 -63c0 -38 -25 -61 -61 -61zM444 771c-37 0 -62 23 -62 61c0 37 25 63 62 63c35 0 60 -26 60 -63c0 -38 -25 -61 -60 -61zM523 0l-60 181h-251l-60 -181h-132l251 710h147l251 -710h-146zM243 274h190l-94 286z
" />
    <glyph glyph-name="Agrave" unicode="&#xc0;" horiz-adv-x="689" 
d="M400 767h-110l-162 124h125zM523 0l-60 181h-251l-60 -181h-132l251 710h147l251 -710h-146zM243 274h190l-94 286z" />
    <glyph glyph-name="Amacron" unicode="&#x100;" horiz-adv-x="689" 
d="M487 863v-79h-284v79h284zM523 0l-60 181h-251l-60 -181h-132l251 710h147l251 -710h-146zM243 274h190l-94 286z" />
    <glyph glyph-name="Aogonek" unicode="&#x104;" horiz-adv-x="689" 
d="M675 -107l40 -67c-27 -29 -65 -48 -121 -48c-80 0 -126 45 -126 108c0 48 23 84 74 114h-19l-60 181h-251l-60 -181h-132l251 710h147l251 -710c-55 -18 -96 -52 -96 -91c0 -26 16 -40 41 -40c24 0 40 7 61 24zM243 274h190l-94 286z" />
    <glyph glyph-name="Aring" unicode="&#xc5;" horiz-adv-x="689" 
d="M346 762c-59 0 -98 37 -98 91c0 56 39 94 98 94c58 0 96 -39 96 -95c0 -53 -39 -90 -96 -90zM345 899c-28 0 -46 -19 -46 -46c0 -26 19 -43 46 -43c28 0 46 17 46 43c0 27 -18 46 -46 46zM523 0l-60 181h-251l-60 -181h-132l251 710h147l251 -710h-146zM243 274h190
l-94 286z" />
    <glyph glyph-name="Atilde" unicode="&#xc3;" horiz-adv-x="689" 
d="M269 809c-22 0 -32 -15 -34 -40h-59c3 74 32 121 95 121c57 0 112 -44 150 -44c21 0 31 16 34 41h59c-4 -75 -33 -122 -95 -122c-56 0 -114 44 -150 44zM523 0l-60 181h-251l-60 -181h-132l251 710h147l251 -710h-146zM243 274h190l-94 286z" />
    <glyph glyph-name="AE" unicode="&#xc6;" horiz-adv-x="942" 
d="M889 598h-264v-179h227v-105h-227v-202h264v-112h-396v181h-252l-109 -181h-132l428 710h461v-112zM297 274h196v326z" />
    <glyph glyph-name="AEacute" unicode="&#x1fc;" horiz-adv-x="942" 
d="M751 891l-161 -124h-111l147 124h125zM889 598h-264v-179h227v-105h-227v-202h264v-112h-396v181h-252l-109 -181h-132l428 710h461v-112zM297 274h196v326z" />
    <glyph glyph-name="Cacute" unicode="&#x106;" horiz-adv-x="660" 
d="M468 891h125l-161 -124h-111zM388 -16c-197 0 -344 143 -344 371s146 371 340 371c103 0 174 -31 227 -72l-40 -119c-38 35 -94 64 -170 64c-111 0 -218 -83 -218 -244s104 -244 220 -244c89 0 144 33 187 75l40 -115c-52 -50 -127 -87 -242 -87z" />
    <glyph glyph-name="Ccaron" unicode="&#x10c;" horiz-adv-x="660" 
d="M320 767l-122 124h106l73 -78l71 78h107l-121 -124h-114zM590 186l40 -115c-52 -50 -127 -87 -242 -87c-197 0 -344 143 -344 371s146 371 340 371c103 0 174 -31 227 -72l-40 -119c-38 35 -94 64 -170 64c-111 0 -218 -83 -218 -244s104 -244 220 -244
c89 0 144 33 187 75z" />
    <glyph glyph-name="Ccedilla" unicode="&#xc7;" horiz-adv-x="660" 
d="M414 -47c56 0 88 -29 88 -79c0 -61 -54 -98 -145 -98c-46 0 -89 14 -124 40l34 52c30 -21 60 -32 86 -32c27 0 47 11 47 33c0 20 -14 30 -40 30c-16 0 -26 -3 -39 -7l-40 25l58 70c-172 22 -295 159 -295 368c0 228 146 371 340 371c103 0 174 -31 227 -72l-40 -119
c-38 35 -94 64 -170 64c-111 0 -218 -83 -218 -244s104 -244 220 -244c89 0 144 33 187 75l40 -115c-49 -47 -117 -82 -220 -87l-31 -36c8 3 20 5 35 5z" />
    <glyph glyph-name="Ccircumflex" unicode="&#x108;" horiz-adv-x="660" 
d="M377 845l-73 -78h-106l122 124h114l121 -124h-107zM590 186l40 -115c-52 -50 -127 -87 -242 -87c-197 0 -344 143 -344 371s146 371 340 371c103 0 174 -31 227 -72l-40 -119c-38 35 -94 64 -170 64c-111 0 -218 -83 -218 -244s104 -244 220 -244c89 0 144 33 187 75z
" />
    <glyph glyph-name="Cdotaccent" unicode="&#x10a;" horiz-adv-x="660" 
d="M377 776c-41 0 -71 23 -71 61s30 65 71 65c42 0 72 -27 72 -65s-30 -61 -72 -61zM388 -16c-197 0 -344 143 -344 371s146 371 340 371c103 0 174 -31 227 -72l-40 -119c-38 35 -94 64 -170 64c-111 0 -218 -83 -218 -244s104 -244 220 -244c89 0 144 33 187 75l40 -115
c-52 -50 -127 -87 -242 -87z" />
    <glyph glyph-name="Eth" unicode="&#xd0;" horiz-adv-x="710" 
d="M313 710c208 0 353 -118 353 -355s-145 -355 -353 -355h-225v307h-88v101h88v302h225zM308 113c118 0 215 64 215 242c0 177 -98 242 -215 242h-87v-189h172v-101h-172v-194h87z" />
    <glyph glyph-name="Dcaron" unicode="&#x10e;" horiz-adv-x="710" 
d="M299 767l-122 124h106l73 -78l71 78h107l-121 -124h-114zM313 710c208 0 353 -118 353 -355s-145 -355 -353 -355h-225v710h225zM308 113c118 0 215 64 215 242c0 177 -98 242 -215 242h-87v-484h87z" />
    <glyph glyph-name="Dcroat" unicode="&#x110;" horiz-adv-x="710" 
d="M313 710c208 0 353 -118 353 -355s-145 -355 -353 -355h-225v307h-88v101h88v302h225zM308 113c118 0 215 64 215 242c0 177 -98 242 -215 242h-87v-189h172v-101h-172v-194h87z" />
    <glyph glyph-name="Eacute" unicode="&#xc9;" horiz-adv-x="537" 
d="M505 891l-161 -124h-111l147 124h125zM484 710v-112h-263v-179h226v-105h-226v-202h263v-112h-396v710h396z" />
    <glyph glyph-name="Ebreve" unicode="&#x114;" horiz-adv-x="537" 
d="M288 764c-96 0 -151 48 -155 127h83c7 -40 32 -61 72 -61c41 0 66 21 72 61h83c-8 -79 -61 -127 -155 -127zM484 598h-263v-179h226v-105h-226v-202h263v-112h-396v710h396v-112z" />
    <glyph glyph-name="Ecaron" unicode="&#x11a;" horiz-adv-x="537" 
d="M231 767l-122 124h106l73 -78l71 78h107l-121 -124h-114zM484 598h-263v-179h226v-105h-226v-202h263v-112h-396v710h396v-112z" />
    <glyph glyph-name="Ecircumflex" unicode="&#xca;" horiz-adv-x="537" 
d="M288 845l-73 -78h-106l122 124h114l121 -124h-107zM484 598h-263v-179h226v-105h-226v-202h263v-112h-396v710h396v-112z" />
    <glyph glyph-name="Edieresis" unicode="&#xcb;" horiz-adv-x="537" 
d="M191 771c-36 0 -61 23 -61 61c0 37 25 63 61 63s61 -26 61 -63c0 -38 -25 -61 -61 -61zM388 771c-37 0 -62 23 -62 61c0 37 25 63 62 63c35 0 60 -26 60 -63c0 -38 -25 -61 -60 -61zM484 598h-263v-179h226v-105h-226v-202h263v-112h-396v710h396v-112z" />
    <glyph glyph-name="Edotaccent" unicode="&#x116;" horiz-adv-x="537" 
d="M288 776c-41 0 -71 23 -71 61s30 65 71 65c42 0 72 -27 72 -65s-30 -61 -72 -61zM484 598h-263v-179h226v-105h-226v-202h263v-112h-396v710h396v-112z" />
    <glyph glyph-name="Egrave" unicode="&#xc8;" horiz-adv-x="537" 
d="M343 767h-110l-162 124h125zM484 598h-263v-179h226v-105h-226v-202h263v-112h-396v710h396v-112z" />
    <glyph glyph-name="Emacron" unicode="&#x112;" horiz-adv-x="537" 
d="M430 863v-79h-284v79h284zM484 598h-263v-179h226v-105h-226v-202h263v-112h-396v710h396v-112z" />
    <glyph glyph-name="Eogonek" unicode="&#x118;" horiz-adv-x="537" 
d="M490 -107l40 -67c-27 -29 -65 -48 -121 -48c-80 0 -126 45 -126 108c0 48 23 84 74 114h-269v710h396v-112h-263v-179h226v-105h-226v-202h263v-112c-55 -18 -96 -52 -96 -91c0 -26 16 -40 41 -40c24 0 40 7 61 24z" />
    <glyph glyph-name="Gbreve" unicode="&#x11e;" horiz-adv-x="755" 
d="M390 764c-96 0 -151 48 -155 127h83c7 -40 32 -61 72 -61c41 0 66 21 72 61h83c-8 -79 -61 -127 -155 -127zM406 376h319v-47c0 -246 -146 -345 -329 -345c-191 0 -352 144 -352 371s164 371 351 371c137 0 225 -52 288 -138l-99 -74c-41 54 -104 93 -183 93
c-110 0 -217 -88 -217 -252c0 -165 106 -254 217 -254c99 0 180 46 200 172h-195v103z" />
    <glyph glyph-name="Gcircumflex" unicode="&#x11c;" horiz-adv-x="755" 
d="M390 845l-73 -78h-106l122 124h114l121 -124h-107zM406 376h319v-47c0 -246 -146 -345 -329 -345c-191 0 -352 144 -352 371s164 371 351 371c137 0 225 -52 288 -138l-99 -74c-41 54 -104 93 -183 93c-110 0 -217 -88 -217 -252c0 -165 106 -254 217 -254
c99 0 180 46 200 172h-195v103z" />
    <glyph glyph-name="uni0122" unicode="&#x122;" horiz-adv-x="755" 
d="M406 376h319v-47c0 -246 -146 -345 -329 -345c-191 0 -352 144 -352 371s164 371 351 371c137 0 225 -52 288 -138l-99 -74c-41 54 -104 93 -183 93c-110 0 -217 -88 -217 -252c0 -165 106 -254 217 -254c99 0 180 46 200 172h-195v103zM391 -57c33 0 58 -18 58 -62
c0 -54 -35 -111 -80 -151l-38 35c20 22 39 48 48 71c-27 5 -46 24 -46 52c0 33 26 55 58 55z" />
    <glyph glyph-name="Gdotaccent" unicode="&#x120;" horiz-adv-x="755" 
d="M390 776c-41 0 -71 23 -71 61s30 65 71 65c42 0 72 -27 72 -65s-30 -61 -72 -61zM406 376h319v-47c0 -246 -146 -345 -329 -345c-191 0 -352 144 -352 371s164 371 351 371c137 0 225 -52 288 -138l-99 -74c-41 54 -104 93 -183 93c-110 0 -217 -88 -217 -252
c0 -165 106 -254 217 -254c99 0 180 46 200 172h-195v103z" />
    <glyph glyph-name="Hbar" unicode="&#x126;" horiz-adv-x="740" 
d="M740 593v-96h-84v-497h-132v292h-307v-292h-133v497h-84v96h84v117h133v-117h307v117h132v-117h84zM524 399v98h-307v-98h307z" />
    <glyph glyph-name="Hcircumflex" unicode="&#x124;" horiz-adv-x="748" 
d="M375 845l-73 -78h-106l122 124h114l121 -124h-107zM528 710h132v-710h-132v309h-307v-309h-133v710h133v-291h307v291z" />
    <glyph glyph-name="IJ" unicode="&#x132;" horiz-adv-x="741" 
d="M88 710h133v-710h-133v710zM438 -8c-52 0 -86 7 -104 11l10 115c14 -2 38 -7 73 -7c77 0 106 42 106 144v455h133v-481c0 -178 -84 -237 -218 -237z" />
    <glyph glyph-name="Iacute" unicode="&#xcd;" horiz-adv-x="309" 
d="M246 891h125l-161 -124h-111zM88 710h133v-710h-133v710z" />
    <glyph glyph-name="Ibreve" unicode="&#x12c;" horiz-adv-x="309" 
d="M155 764c-96 0 -151 48 -155 127h83c7 -40 32 -61 72 -61c41 0 66 21 72 61h83c-8 -79 -61 -127 -155 -127zM88 710h133v-710h-133v710z" />
    <glyph glyph-name="Icircumflex" unicode="&#xce;" horiz-adv-x="309" 
d="M212 891l121 -124h-107l-71 78l-73 -78h-106l122 124h114zM88 0v710h133v-710h-133z" />
    <glyph glyph-name="Idieresis" unicode="&#xcf;" horiz-adv-x="309" 
d="M57 771c-36 0 -61 23 -61 61c0 37 25 63 61 63s61 -26 61 -63c0 -38 -25 -61 -61 -61zM254 771c-37 0 -62 23 -62 61c0 37 25 63 62 63c35 0 60 -26 60 -63c0 -38 -25 -61 -60 -61zM88 710h133v-710h-133v710z" />
    <glyph glyph-name="Idotaccent" unicode="&#x130;" horiz-adv-x="309" 
d="M154 776c-41 0 -71 23 -71 61s30 65 71 65c42 0 72 -27 72 -65s-30 -61 -72 -61zM88 710h133v-710h-133v710z" />
    <glyph glyph-name="Igrave" unicode="&#xcc;" horiz-adv-x="309" 
d="M100 767l-162 124h125l147 -124h-110zM88 710h133v-710h-133v710z" />
    <glyph glyph-name="Imacron" unicode="&#x12a;" horiz-adv-x="309" 
d="M13 863h284v-79h-284v79zM88 710h133v-710h-133v710z" />
    <glyph glyph-name="Iogonek" unicode="&#x12e;" horiz-adv-x="309" 
d="M227 -107l40 -67c-27 -29 -65 -48 -121 -48c-80 0 -126 45 -126 108c0 48 23 84 74 114h-6v710h133v-710c-55 -18 -96 -52 -96 -91c0 -26 16 -40 41 -40c24 0 40 7 61 24z" />
    <glyph glyph-name="Itilde" unicode="&#x128;" horiz-adv-x="309" 
d="M229 765c-56 0 -114 44 -150 44c-22 0 -32 -15 -34 -40h-59c3 74 32 121 95 121c57 0 112 -44 150 -44c21 0 31 16 34 41h59c-4 -75 -33 -122 -95 -122zM88 710h133v-710h-133v710z" />
    <glyph glyph-name="Jcircumflex" unicode="&#x134;" horiz-adv-x="432" 
d="M337 891l121 -124h-107l-71 78l-73 -78h-106l122 124h114zM214 255v455h133v-481c0 -178 -84 -237 -218 -237c-52 0 -86 7 -104 11l10 115c14 -2 38 -7 73 -7c77 0 106 42 106 144z" />
    <glyph glyph-name="uni0136" unicode="&#x136;" horiz-adv-x="664" 
d="M378 391l269 -391h-163l-198 284l-65 -82v-202h-133v710h133v-334l253 334h153zM333 -57c33 0 58 -18 58 -62c0 -54 -35 -111 -80 -151l-38 35c20 22 39 48 48 71c-27 5 -46 24 -46 52c0 33 26 55 58 55z" />
    <glyph glyph-name="Lacute" unicode="&#x139;" horiz-adv-x="498" 
d="M370 891l-161 -124h-111l147 124h125zM221 113h232v-113h-365v710h133v-597z" />
    <glyph glyph-name="Lcaron" unicode="&#x13d;" horiz-adv-x="498" 
d="M420 750l-37 -167h-83l16 167h104zM221 113h232v-113h-365v710h133v-597z" />
    <glyph glyph-name="uni013B" unicode="&#x13b;" horiz-adv-x="498" 
d="M221 113h232v-113h-365v710h133v-597zM266 -57c33 0 58 -18 58 -62c0 -54 -35 -111 -80 -151l-38 35c20 22 39 48 48 71c-27 5 -46 24 -46 52c0 33 26 55 58 55z" />
    <glyph glyph-name="Ldot" unicode="&#x13f;" horiz-adv-x="498" 
d="M221 710v-597h232v-113h-365v710h133zM403 450c49 0 84 -33 84 -81s-35 -77 -84 -77c-48 0 -84 29 -84 77s36 81 84 81z" />
    <glyph glyph-name="Lslash" unicode="&#x141;" horiz-adv-x="498" 
d="M221 113h232v-113h-365v242l-88 -69v105l88 69v363h133v-258l161 126v-104l-161 -127v-234z" />
    <glyph glyph-name="Nacute" unicode="&#x143;" horiz-adv-x="752" 
d="M594 891l-161 -124h-111l147 124h125zM542 710h122v-710h-132l-321 499v-499h-123v710h138l316 -467v467z" />
    <glyph glyph-name="Ncaron" unicode="&#x147;" horiz-adv-x="752" 
d="M320 767l-122 124h106l73 -78l71 78h107l-121 -124h-114zM542 710h122v-710h-132l-321 499v-499h-123v710h138l316 -467v467z" />
    <glyph glyph-name="uni0145" unicode="&#x145;" horiz-adv-x="752" 
d="M542 710h122v-710h-132l-321 499v-499h-123v710h138l316 -467v467zM378 -57c33 0 58 -18 58 -62c0 -54 -35 -111 -80 -151l-38 35c20 22 39 48 48 71c-27 5 -46 24 -46 52c0 33 26 55 58 55z" />
    <glyph glyph-name="Eng" unicode="&#x14a;" horiz-adv-x="752" 
d="M542 710h122v-710c0 -156 -81 -211 -203 -211c-54 0 -84 7 -101 11l9 106c13 -2 36 -6 70 -6c68 0 98 33 102 104l-330 497v-501h-123v710h138l316 -467v467z" />
    <glyph glyph-name="Ntilde" unicode="&#xd1;" horiz-adv-x="752" 
d="M301 809c-22 0 -32 -15 -34 -40h-59c3 74 32 121 95 121c57 0 112 -44 150 -44c21 0 31 16 34 41h59c-4 -75 -33 -122 -95 -122c-56 0 -114 44 -150 44zM542 710h122v-710h-132l-321 499v-499h-123v710h138l316 -467v467z" />
    <glyph glyph-name="Oacute" unicode="&#xd3;" horiz-adv-x="802" 
d="M493 891h125l-161 -124h-111zM401 -16c-191 0 -357 148 -357 371s166 371 357 371s357 -148 357 -371s-166 -371 -357 -371zM401 107c108 0 217 82 217 248s-109 248 -217 248s-216 -82 -216 -248s108 -248 216 -248z" />
    <glyph glyph-name="Obreve" unicode="&#x14e;" horiz-adv-x="802" 
d="M402 764c-96 0 -151 48 -155 127h83c7 -40 32 -61 72 -61c41 0 66 21 72 61h83c-8 -79 -61 -127 -155 -127zM401 -16c-191 0 -357 148 -357 371s166 371 357 371s357 -148 357 -371s-166 -371 -357 -371zM401 107c108 0 217 82 217 248s-109 248 -217 248
s-216 -82 -216 -248s108 -248 216 -248z" />
    <glyph glyph-name="Ocircumflex" unicode="&#xd4;" horiz-adv-x="802" 
d="M402 845l-73 -78h-106l122 124h114l121 -124h-107zM401 726c191 0 357 -148 357 -371s-166 -371 -357 -371s-357 148 -357 371s166 371 357 371zM401 107c108 0 217 82 217 248s-109 248 -217 248s-216 -82 -216 -248s108 -248 216 -248z" />
    <glyph glyph-name="Odieresis" unicode="&#xd6;" horiz-adv-x="802" 
d="M304 771c-36 0 -61 23 -61 61c0 37 25 63 61 63s61 -26 61 -63c0 -38 -25 -61 -61 -61zM501 771c-37 0 -62 23 -62 61c0 37 25 63 62 63c35 0 60 -26 60 -63c0 -38 -25 -61 -60 -61zM401 -16c-191 0 -357 148 -357 371s166 371 357 371s357 -148 357 -371
s-166 -371 -357 -371zM401 107c108 0 217 82 217 248s-109 248 -217 248s-216 -82 -216 -248s108 -248 216 -248z" />
    <glyph glyph-name="Ograve" unicode="&#xd2;" horiz-adv-x="802" 
d="M347 767l-162 124h125l147 -124h-110zM401 -16c-191 0 -357 148 -357 371s166 371 357 371s357 -148 357 -371s-166 -371 -357 -371zM401 107c108 0 217 82 217 248s-109 248 -217 248s-216 -82 -216 -248s108 -248 216 -248z" />
    <glyph glyph-name="Ohungarumlaut" unicode="&#x150;" horiz-adv-x="802" 
d="M391 891h130l-166 -124h-109zM595 891h130l-166 -124h-110zM401 -16c-191 0 -357 148 -357 371s166 371 357 371s357 -148 357 -371s-166 -371 -357 -371zM401 107c108 0 217 82 217 248s-109 248 -217 248s-216 -82 -216 -248s108 -248 216 -248z" />
    <glyph glyph-name="Omacron" unicode="&#x14c;" horiz-adv-x="802" 
d="M260 863h284v-79h-284v79zM401 -16c-191 0 -357 148 -357 371s166 371 357 371s357 -148 357 -371s-166 -371 -357 -371zM401 107c108 0 217 82 217 248s-109 248 -217 248s-216 -82 -216 -248s108 -248 216 -248z" />
    <glyph glyph-name="Oslash" unicode="&#xd8;" horiz-adv-x="802" 
d="M758 662l-73 -77c45 -61 73 -139 73 -230c0 -223 -166 -370 -357 -370c-82 0 -159 27 -220 75l-73 -76l-64 64l74 77c-46 60 -74 139 -74 230c0 223 166 370 357 370c82 0 159 -27 221 -75l73 76zM180 355c0 -54 11 -98 29 -135l327 340c-39 32 -87 48 -135 48
c-111 0 -221 -83 -221 -253zM622 355c0 53 -11 98 -29 135l-327 -341c39 -31 87 -47 135 -47c110 0 221 83 221 253z" />
    <glyph glyph-name="Oslashacute" unicode="&#x1fe;" horiz-adv-x="802" 
d="M618 891l-161 -124h-111l147 124h125zM758 662l-73 -77c45 -61 73 -139 73 -230c0 -223 -166 -370 -357 -370c-82 0 -159 27 -220 75l-73 -76l-64 64l74 77c-46 60 -74 139 -74 230c0 223 166 370 357 370c82 0 159 -27 221 -75l73 76zM180 355c0 -54 11 -98 29 -135
l327 340c-39 32 -87 48 -135 48c-111 0 -221 -83 -221 -253zM622 355c0 53 -11 98 -29 135l-327 -341c39 -31 87 -47 135 -47c110 0 221 83 221 253z" />
    <glyph glyph-name="Otilde" unicode="&#xd5;" horiz-adv-x="802" 
d="M476 765c-56 0 -114 44 -150 44c-22 0 -32 -15 -34 -40h-59c3 74 32 121 95 121c57 0 112 -44 150 -44c21 0 31 16 34 41h59c-4 -75 -33 -122 -95 -122zM401 -16c-191 0 -357 148 -357 371s166 371 357 371s357 -148 357 -371s-166 -371 -357 -371zM401 107
c108 0 217 82 217 248s-109 248 -217 248s-216 -82 -216 -248s108 -248 216 -248z" />
    <glyph glyph-name="OE" unicode="&#x152;" horiz-adv-x="1067" 
d="M1014 598h-263v-179h226v-105h-226v-202h263v-112h-396v60c-60 -48 -135 -75 -217 -75c-191 0 -357 147 -357 370s166 370 357 370c82 0 157 -27 217 -75v60h396v-112zM401 108c108 0 217 81 217 247s-109 247 -217 247s-216 -81 -216 -247s108 -247 216 -247z" />
    <glyph glyph-name="Thorn" unicode="&#xde;" horiz-adv-x="630" 
d="M326 609c160 0 265 -76 265 -238c0 -161 -104 -258 -265 -258h-105v-113h-133v710h133v-101h105zM302 216c96 0 146 54 146 143s-52 140 -146 140h-81v-283h81z" />
    <glyph glyph-name="Racute" unicode="&#x154;" horiz-adv-x="662" 
d="M541 891l-161 -124h-111l147 124h125zM467 0l-167 261h-79v-261h-133v710h253c159 0 265 -65 265 -216c0 -117 -63 -193 -167 -221l184 -273h-156zM221 598v-240h101c90 0 140 40 140 122c0 83 -52 118 -140 118h-101z" />
    <glyph glyph-name="Rcaron" unicode="&#x158;" horiz-adv-x="662" 
d="M267 767l-122 124h106l73 -78l71 78h107l-121 -124h-114zM467 0l-167 261h-79v-261h-133v710h253c159 0 265 -65 265 -216c0 -117 -63 -193 -167 -221l184 -273h-156zM221 598v-240h101c90 0 140 40 140 122c0 83 -52 118 -140 118h-101z" />
    <glyph glyph-name="uni0156" unicode="&#x156;" horiz-adv-x="662" 
d="M439 273l184 -273h-156l-167 261h-79v-261h-133v710h253c159 0 265 -65 265 -216c0 -117 -63 -193 -167 -221zM221 598v-240h101c90 0 140 40 140 122c0 83 -52 118 -140 118h-101zM331 -57c33 0 58 -18 58 -62c0 -54 -35 -111 -80 -151l-38 35c20 22 39 48 48 71
c-27 5 -46 24 -46 52c0 33 26 55 58 55z" />
    <glyph glyph-name="Sacute" unicode="&#x15a;" horiz-adv-x="564" 
d="M373 891h125l-161 -124h-111zM286 -16c-131 0 -211 53 -263 137l70 80c48 -60 105 -108 186 -108c66 0 107 34 107 85c0 45 -33 71 -78 95c-97 52 -252 88 -252 251c0 132 104 202 227 202c110 0 181 -43 228 -113l-73 -78c-41 45 -84 83 -150 83c-58 0 -98 -31 -98 -79
c0 -42 31 -67 75 -90c99 -53 262 -89 262 -252c0 -140 -104 -213 -241 -213z" />
    <glyph glyph-name="Scaron" unicode="&#x160;" horiz-adv-x="564" 
d="M224 767l-122 124h106l73 -78l71 78h107l-121 -124h-114zM265 449c99 -53 262 -89 262 -252c0 -140 -104 -213 -241 -213c-131 0 -211 53 -263 137l70 80c48 -60 105 -108 186 -108c66 0 107 34 107 85c0 45 -33 71 -78 95c-97 52 -252 88 -252 251
c0 132 104 202 227 202c110 0 181 -43 228 -113l-73 -78c-41 45 -84 83 -150 83c-58 0 -98 -31 -98 -79c0 -42 31 -67 75 -90z" />
    <glyph glyph-name="Scedilla" unicode="&#x15e;" horiz-adv-x="564" 
d="M527 197c0 -132 -93 -205 -219 -212l-31 -37c8 3 20 5 35 5c56 0 88 -29 88 -79c0 -61 -54 -98 -145 -98c-46 0 -89 14 -124 40l34 52c30 -21 60 -32 86 -32c27 0 47 11 47 33c0 20 -14 30 -40 30c-16 0 -26 -3 -39 -7l-40 25l58 70c-103 11 -169 61 -214 134l70 80
c48 -60 105 -108 186 -108c66 0 107 34 107 85c0 45 -33 71 -78 95c-97 52 -252 88 -252 251c0 132 104 202 227 202c110 0 181 -43 228 -113l-73 -78c-41 45 -84 83 -150 83c-58 0 -98 -31 -98 -79c0 -42 31 -67 75 -90c99 -53 262 -89 262 -252z" />
    <glyph glyph-name="Scircumflex" unicode="&#x15c;" horiz-adv-x="564" 
d="M281 845l-73 -78h-106l122 124h114l121 -124h-107zM265 449c99 -53 262 -89 262 -252c0 -140 -104 -213 -241 -213c-131 0 -211 53 -263 137l70 80c48 -60 105 -108 186 -108c66 0 107 34 107 85c0 45 -33 71 -78 95c-97 52 -252 88 -252 251c0 132 104 202 227 202
c110 0 181 -43 228 -113l-73 -78c-41 45 -84 83 -150 83c-58 0 -98 -31 -98 -79c0 -42 31 -67 75 -90z" />
    <glyph glyph-name="uni0218" unicode="&#x218;" horiz-adv-x="564" 
d="M265 449c99 -53 262 -89 262 -252c0 -140 -104 -213 -241 -213c-131 0 -211 53 -263 137l70 80c48 -60 105 -108 186 -108c66 0 107 34 107 85c0 45 -33 71 -78 95c-97 52 -252 88 -252 251c0 132 104 202 227 202c110 0 181 -43 228 -113l-73 -78c-41 45 -84 83 -150 83
c-58 0 -98 -31 -98 -79c0 -42 31 -67 75 -90zM282 -57c33 0 58 -18 58 -62c0 -54 -35 -111 -80 -151l-38 35c20 22 39 48 48 71c-27 5 -46 24 -46 52c0 33 26 55 58 55z" />
    <glyph glyph-name="uni1E9E" unicode="&#x1e9e;" horiz-adv-x="1128" 
d="M286 -16c-131 0 -211 53 -263 137l70 80c48 -60 105 -108 186 -108c66 0 107 34 107 85c0 45 -33 71 -78 95c-97 52 -252 88 -252 251c0 132 104 202 227 202c110 0 181 -43 228 -113l-73 -78c-41 45 -84 83 -150 83c-58 0 -98 -31 -98 -79c0 -42 31 -67 75 -90
c99 -53 262 -89 262 -252c0 -140 -104 -213 -241 -213zM850 -16c-131 0 -211 53 -263 137l70 80c48 -60 105 -108 186 -108c66 0 107 34 107 85c0 45 -33 71 -78 95c-97 52 -252 88 -252 251c0 132 104 202 227 202c110 0 181 -43 228 -113l-73 -78c-41 45 -84 83 -150 83
c-58 0 -98 -31 -98 -79c0 -42 31 -67 75 -90c99 -53 262 -89 262 -252c0 -140 -104 -213 -241 -213z" />
    <glyph glyph-name="Tbar" unicode="&#x166;" horiz-adv-x="553" 
d="M524 597h-181v-210h141v-100h-141v-287h-133v287h-147v100h147v210h-180v113h494v-113z" />
    <glyph glyph-name="Tcaron" unicode="&#x164;" horiz-adv-x="560" 
d="M223 767l-122 124h106l73 -78l71 78h107l-121 -124h-114zM527 710v-113h-181v-597h-132v597h-181v113h494z" />
    <glyph glyph-name="uni0162" unicode="&#x162;" horiz-adv-x="560" 
d="M346 0h-25l-44 -52c8 3 20 5 35 5c56 0 88 -29 88 -79c0 -61 -54 -98 -145 -98c-46 0 -89 14 -124 40l34 52c30 -21 60 -32 86 -32c27 0 47 11 47 33c0 20 -14 30 -40 30c-16 0 -26 -3 -39 -7l-40 25l69 83h-34v597h-181v113h494v-113h-181v-597z" />
    <glyph glyph-name="uni021A" unicode="&#x21a;" horiz-adv-x="560" 
d="M527 710v-113h-181v-597h-132v597h-181v113h494zM282 -57c33 0 58 -18 58 -62c0 -54 -35 -111 -80 -151l-38 35c20 22 39 48 48 71c-27 5 -46 24 -46 52c0 33 26 55 58 55z" />
    <glyph glyph-name="Uacute" unicode="&#xda;" horiz-adv-x="714" 
d="M449 891h125l-161 -124h-111zM355 -16c-166 0 -276 93 -276 280v446h133l-1 -431c-1 -113 56 -173 144 -173c90 0 147 60 147 173v431h134v-446c0 -187 -110 -280 -281 -280z" />
    <glyph glyph-name="Ubreve" unicode="&#x16c;" horiz-adv-x="714" 
d="M357 764c-96 0 -151 48 -155 127h83c7 -40 32 -61 72 -61c41 0 66 21 72 61h83c-8 -79 -61 -127 -155 -127zM355 -16c-166 0 -276 93 -276 280v446h133l-1 -431c-1 -113 56 -173 144 -173c90 0 147 60 147 173v431h134v-446c0 -187 -110 -280 -281 -280z" />
    <glyph glyph-name="Ucircumflex" unicode="&#xdb;" horiz-adv-x="714" 
d="M357 845l-73 -78h-106l122 124h114l121 -124h-107zM502 710h134v-446c0 -187 -110 -280 -281 -280c-166 0 -276 93 -276 280v446h133l-1 -431c-1 -113 56 -173 144 -173c90 0 147 60 147 173v431z" />
    <glyph glyph-name="Udieresis" unicode="&#xdc;" horiz-adv-x="714" 
d="M260 771c-36 0 -61 23 -61 61c0 37 25 63 61 63s61 -26 61 -63c0 -38 -25 -61 -61 -61zM457 771c-37 0 -62 23 -62 61c0 37 25 63 62 63c35 0 60 -26 60 -63c0 -38 -25 -61 -60 -61zM355 -16c-166 0 -276 93 -276 280v446h133l-1 -431c-1 -113 56 -173 144 -173
c90 0 147 60 147 173v431h134v-446c0 -187 -110 -280 -281 -280z" />
    <glyph glyph-name="Ugrave" unicode="&#xd9;" horiz-adv-x="714" 
d="M302 767l-162 124h125l147 -124h-110zM355 -16c-166 0 -276 93 -276 280v446h133l-1 -431c-1 -113 56 -173 144 -173c90 0 147 60 147 173v431h134v-446c0 -187 -110 -280 -281 -280z" />
    <glyph glyph-name="Uhungarumlaut" unicode="&#x170;" horiz-adv-x="714" 
d="M347 891h130l-166 -124h-109zM551 891h130l-166 -124h-110zM355 -16c-166 0 -276 93 -276 280v446h133l-1 -431c-1 -113 56 -173 144 -173c90 0 147 60 147 173v431h134v-446c0 -187 -110 -280 -281 -280z" />
    <glyph glyph-name="Umacron" unicode="&#x16a;" horiz-adv-x="714" 
d="M215 863h284v-79h-284v79zM355 -16c-166 0 -276 93 -276 280v446h133l-1 -431c-1 -113 56 -173 144 -173c90 0 147 60 147 173v431h134v-446c0 -187 -110 -280 -281 -280z" />
    <glyph glyph-name="Uogonek" unicode="&#x172;" horiz-adv-x="714" 
d="M502 710h134v-446c0 -164 -85 -256 -222 -276c-48 -19 -82 -50 -82 -86c0 -26 16 -40 41 -40c24 0 40 7 61 24l40 -67c-27 -29 -65 -48 -121 -48c-80 0 -126 45 -126 108c0 45 21 81 67 110c-132 21 -215 112 -215 275v446h133l-1 -431c-1 -113 56 -173 144 -173
c90 0 147 60 147 173v431z" />
    <glyph glyph-name="Uring" unicode="&#x16e;" horiz-adv-x="714" 
d="M358 762c-59 0 -98 37 -98 91c0 56 39 94 98 94c58 0 96 -39 96 -95c0 -53 -39 -90 -96 -90zM357 810c28 0 46 17 46 43c0 27 -18 46 -46 46s-46 -19 -46 -46c0 -26 19 -43 46 -43zM355 -16c-166 0 -276 93 -276 280v446h133l-1 -431c-1 -113 56 -173 144 -173
c90 0 147 60 147 173v431h134v-446c0 -187 -110 -280 -281 -280z" />
    <glyph glyph-name="Utilde" unicode="&#x168;" horiz-adv-x="714" 
d="M431 765c-56 0 -114 44 -150 44c-22 0 -32 -15 -34 -40h-59c3 74 32 121 95 121c57 0 112 -44 150 -44c21 0 31 16 34 41h59c-4 -75 -33 -122 -95 -122zM355 -16c-166 0 -276 93 -276 280v446h133l-1 -431c-1 -113 56 -173 144 -173c90 0 147 60 147 173v431h134v-446
c0 -187 -110 -280 -281 -280z" />
    <glyph glyph-name="Wacute" unicode="&#x1e82;" horiz-adv-x="1092" 
d="M766 891l-161 -124h-111l147 124h125zM942 710h135l-242 -710h-118l-171 513l-172 -513h-118l-241 710h146l162 -507l169 507h118l169 -507z" />
    <glyph glyph-name="Wcircumflex" unicode="&#x174;" horiz-adv-x="1092" 
d="M549 845l-73 -78h-106l122 124h114l121 -124h-107zM942 710h135l-242 -710h-118l-171 513l-172 -513h-118l-241 710h146l162 -507l169 507h118l169 -507z" />
    <glyph glyph-name="Wdieresis" unicode="&#x1e84;" horiz-adv-x="1092" 
d="M452 771c-36 0 -61 23 -61 61c0 37 25 63 61 63s61 -26 61 -63c0 -38 -25 -61 -61 -61zM649 771c-37 0 -62 23 -62 61c0 37 25 63 62 63c35 0 60 -26 60 -63c0 -38 -25 -61 -60 -61zM942 710h135l-242 -710h-118l-171 513l-172 -513h-118l-241 710h146l162 -507l169 507
h118l169 -507z" />
    <glyph glyph-name="Wgrave" unicode="&#x1e80;" horiz-adv-x="1092" 
d="M604 767h-110l-162 124h125zM942 710h135l-242 -710h-118l-171 513l-172 -513h-118l-241 710h146l162 -507l169 507h118l169 -507z" />
    <glyph glyph-name="Yacute" unicode="&#xdd;" horiz-adv-x="618" 
d="M526 891l-161 -124h-111l147 124h125zM610 710l-232 -431v-279h-140v279l-232 431h154l154 -295l154 295h142z" />
    <glyph glyph-name="Ycircumflex" unicode="&#x176;" horiz-adv-x="618" 
d="M309 845l-73 -78h-106l122 124h114l121 -124h-107zM610 710l-232 -431v-279h-140v279l-232 431h154l154 -295l154 295h142z" />
    <glyph glyph-name="Ydieresis" unicode="&#x178;" horiz-adv-x="618" 
d="M212 771c-36 0 -61 23 -61 61c0 37 25 63 61 63s61 -26 61 -63c0 -38 -25 -61 -61 -61zM409 771c-37 0 -62 23 -62 61c0 37 25 63 62 63c35 0 60 -26 60 -63c0 -38 -25 -61 -60 -61zM610 710l-232 -431v-279h-140v279l-232 431h154l154 -295l154 295h142z" />
    <glyph glyph-name="Ygrave" unicode="&#x1ef2;" horiz-adv-x="618" 
d="M364 767h-110l-162 124h125zM610 710l-232 -431v-279h-140v279l-232 431h154l154 -295l154 295h142z" />
    <glyph glyph-name="Zacute" unicode="&#x179;" horiz-adv-x="582" 
d="M390 891h125l-161 -124h-111zM56 116l305 478h-288v116h451v-116l-312 -478h319v-116h-475v116z" />
    <glyph glyph-name="Zcaron" unicode="&#x17d;" horiz-adv-x="582" 
d="M241 767l-122 124h106l73 -78l71 78h107l-121 -124h-114zM212 116h319v-116h-475v116l305 478h-288v116h451v-116z" />
    <glyph glyph-name="Zdotaccent" unicode="&#x17b;" horiz-adv-x="582" 
d="M298 776c-41 0 -71 23 -71 61s30 65 71 65c42 0 72 -27 72 -65s-30 -61 -72 -61zM56 116l305 478h-288v116h451v-116l-312 -478h319v-116h-475v116z" />
    <glyph glyph-name="Q.alt" horiz-adv-x="802" 
d="M758 355c0 -111 -41 -204 -106 -268l83 -106l-104 -72l-84 106c-45 -20 -95 -31 -146 -31c-191 0 -357 148 -357 371s166 371 357 371s357 -148 357 -371zM401 107c22 0 44 3 65 10l-49 61l105 73l47 -60c30 40 49 95 49 164c0 166 -109 248 -217 248s-216 -82 -216 -248
s108 -248 216 -248z" />
    <glyph glyph-name="aacute" unicode="&#xe1;" horiz-adv-x="580" 
d="M464 730l-122 -154h-103l104 154h121zM516 0h-127c-5 12 -10 31 -12 58c-38 -43 -101 -74 -167 -74c-92 0 -166 42 -166 148c0 124 111 179 333 184v17c0 57 -35 86 -101 87c-65 1 -110 -26 -148 -62l-56 78c38 46 117 90 219 90c110 0 214 -42 214 -198v-257
c0 -24 3 -52 11 -71zM256 82c50 0 93 25 121 63v99c-120 -2 -195 -32 -195 -98c0 -40 26 -64 74 -64z" />
    <glyph glyph-name="abreve" unicode="&#x103;" horiz-adv-x="580" 
d="M290 573c-96 0 -152 51 -154 157h82c5 -59 31 -85 72 -85s67 26 72 85h83c-8 -106 -61 -157 -155 -157zM516 0h-127c-5 12 -10 31 -12 58c-38 -43 -101 -74 -167 -74c-92 0 -166 42 -166 148c0 124 111 179 333 184v17c0 57 -35 86 -101 87c-65 1 -110 -26 -148 -62
l-56 78c38 46 117 90 219 90c110 0 214 -42 214 -198v-257c0 -24 3 -52 11 -71zM256 82c50 0 93 25 121 63v99c-120 -2 -195 -32 -195 -98c0 -40 26 -64 74 -64z" />
    <glyph glyph-name="acircumflex" unicode="&#xe2;" horiz-adv-x="580" 
d="M291 667l-67 -91h-103l105 154h130l105 -154h-103zM516 0h-127c-5 12 -10 31 -12 58c-38 -43 -101 -74 -167 -74c-92 0 -166 42 -166 148c0 124 111 179 333 184v17c0 57 -35 86 -101 87c-65 1 -110 -26 -148 -62l-56 78c38 46 117 90 219 90c110 0 214 -42 214 -198
v-257c0 -24 3 -52 11 -71zM256 82c50 0 93 25 121 63v99c-120 -2 -195 -32 -195 -98c0 -40 26 -64 74 -64z" />
    <glyph glyph-name="adieresis" unicode="&#xe4;" horiz-adv-x="580" 
d="M184 579c-40 0 -68 26 -68 67c0 42 28 71 68 71s68 -29 68 -71c0 -41 -28 -67 -68 -67zM398 579c-40 0 -68 26 -68 67c0 42 28 71 68 71s67 -29 67 -71c0 -41 -27 -67 -67 -67zM516 0h-127c-5 12 -10 31 -12 58c-38 -43 -101 -74 -167 -74c-92 0 -166 42 -166 148
c0 124 111 179 333 184v17c0 57 -35 86 -101 87c-65 1 -110 -26 -148 -62l-56 78c38 46 117 90 219 90c110 0 214 -42 214 -198v-257c0 -24 3 -52 11 -71zM256 82c50 0 93 25 121 63v99c-120 -2 -195 -32 -195 -98c0 -40 26 -64 74 -64z" />
    <glyph glyph-name="agrave" unicode="&#xe0;" horiz-adv-x="580" 
d="M342 576h-102l-124 154h121zM516 0h-127c-5 12 -10 31 -12 58c-38 -43 -101 -74 -167 -74c-92 0 -166 42 -166 148c0 124 111 179 333 184v17c0 57 -35 86 -101 87c-65 1 -110 -26 -148 -62l-56 78c38 46 117 90 219 90c110 0 214 -42 214 -198v-257c0 -24 3 -52 11 -71z
M256 82c50 0 93 25 121 63v99c-120 -2 -195 -32 -195 -98c0 -40 26 -64 74 -64z" />
    <glyph glyph-name="amacron" unicode="&#x101;" horiz-adv-x="580" 
d="M424 683v-78h-267v78h267zM516 0h-127c-5 12 -10 31 -12 58c-38 -43 -101 -74 -167 -74c-92 0 -166 42 -166 148c0 124 111 179 333 184v17c0 57 -35 86 -101 87c-65 1 -110 -26 -148 -62l-56 78c38 46 117 90 219 90c110 0 214 -42 214 -198v-257c0 -24 3 -52 11 -71z
M256 82c50 0 93 25 121 63v99c-120 -2 -195 -32 -195 -98c0 -40 26 -64 74 -64z" />
    <glyph glyph-name="aogonek" unicode="&#x105;" horiz-adv-x="580" 
d="M522 -107l40 -67c-27 -29 -65 -48 -121 -48c-80 0 -126 45 -126 108c0 48 23 84 74 114c-5 12 -10 31 -12 58c-38 -43 -101 -74 -167 -74c-92 0 -166 42 -166 148c0 124 111 179 333 184v17c0 57 -35 86 -101 87c-65 1 -110 -26 -148 -62l-56 78c38 46 117 90 219 90
c110 0 214 -42 214 -198v-257c0 -24 3 -52 11 -71c-55 -18 -96 -52 -96 -91c0 -26 16 -40 41 -40c24 0 40 7 61 24zM256 82c50 0 93 25 121 63v99c-120 -2 -195 -32 -195 -98c0 -40 26 -64 74 -64z" />
    <glyph glyph-name="aring" unicode="&#xe5;" horiz-adv-x="580" 
d="M291 579c-62 0 -105 40 -105 97c0 60 43 101 105 101s104 -41 104 -101c0 -57 -42 -97 -104 -97zM291 725c-29 0 -49 -20 -49 -48c0 -27 20 -46 49 -46c28 0 48 19 48 47c0 27 -20 47 -48 47zM516 0h-127c-5 12 -10 31 -12 58c-38 -43 -101 -74 -167 -74
c-92 0 -166 42 -166 148c0 124 111 179 333 184v17c0 57 -35 86 -101 87c-65 1 -110 -26 -148 -62l-56 78c38 46 117 90 219 90c110 0 214 -42 214 -198v-257c0 -24 3 -52 11 -71zM256 82c50 0 93 25 121 63v99c-120 -2 -195 -32 -195 -98c0 -40 26 -64 74 -64z" />
    <glyph glyph-name="atilde" unicode="&#xe3;" horiz-adv-x="580" 
d="M214 632c-22 0 -32 -16 -34 -42h-60c4 76 33 124 97 124c57 0 113 -45 151 -45c22 0 32 16 34 41h60c-4 -76 -33 -123 -96 -123c-56 0 -115 45 -152 45zM516 0h-127c-5 12 -10 31 -12 58c-38 -43 -101 -74 -167 -74c-92 0 -166 42 -166 148c0 124 111 179 333 184v17
c0 57 -35 86 -101 87c-65 1 -110 -26 -148 -62l-56 78c38 46 117 90 219 90c110 0 214 -42 214 -198v-257c0 -24 3 -52 11 -71zM256 82c50 0 93 25 121 63v99c-120 -2 -195 -32 -195 -98c0 -40 26 -64 74 -64z" />
    <glyph glyph-name="ae" unicode="&#xe6;" horiz-adv-x="920" 
d="M880 277v-48h-370c13 -94 83 -132 162 -132c66 0 112 23 151 58l49 -91c-47 -43 -116 -79 -218 -79c-107 0 -185 42 -230 107c-42 -67 -121 -107 -209 -107c-97 0 -171 41 -171 147c0 124 111 179 333 184v17c0 57 -35 86 -101 87c-65 1 -110 -26 -148 -62l-56 78
c38 46 117 90 219 90c68 0 133 -16 174 -65c44 40 102 65 168 65c148 0 247 -98 247 -249zM631 422c-61 0 -107 -40 -120 -118h237c-9 76 -54 118 -117 118zM258 82c56 0 106 29 134 75c-9 27 -14 56 -15 87c-120 -2 -195 -32 -195 -98c0 -40 26 -64 76 -64z" />
    <glyph glyph-name="aeacute" unicode="&#x1fd;" horiz-adv-x="920" 
d="M634 730l-122 -154h-103l104 154h121zM880 277v-48h-370c13 -94 83 -132 162 -132c66 0 112 23 151 58l49 -91c-47 -43 -116 -79 -218 -79c-107 0 -185 42 -230 107c-42 -67 -121 -107 -209 -107c-97 0 -171 41 -171 147c0 124 111 179 333 184v17c0 57 -35 86 -101 87
c-65 1 -110 -26 -148 -62l-56 78c38 46 117 90 219 90c68 0 133 -16 174 -65c44 40 102 65 168 65c148 0 247 -98 247 -249zM631 422c-61 0 -107 -40 -120 -118h237c-9 76 -54 118 -117 118zM258 82c56 0 106 29 134 75c-9 27 -14 56 -15 87c-120 -2 -195 -32 -195 -98
c0 -40 26 -64 76 -64z" />
    <glyph glyph-name="cacute" unicode="&#x107;" horiz-adv-x="522" 
d="M249 576l104 154h121l-122 -154h-103zM44 255c0 158 107 271 267 271c79 0 141 -26 174 -54l-37 -107c-25 21 -69 42 -125 42c-87 0 -142 -66 -142 -152s57 -153 147 -153c59 0 98 20 130 45l39 -101c-30 -23 -86 -62 -185 -62c-172 0 -268 113 -268 271z" />
    <glyph glyph-name="ccaron" unicode="&#x10d;" horiz-adv-x="522" 
d="M236 576l-106 154h103l67 -91l67 91h103l-106 -154h-128zM458 147l39 -101c-30 -23 -86 -62 -185 -62c-172 0 -268 113 -268 271s107 271 267 271c79 0 141 -26 174 -54l-37 -107c-25 21 -69 42 -125 42c-87 0 -142 -66 -142 -152s57 -153 147 -153c59 0 98 20 130 45z
" />
    <glyph glyph-name="ccedilla" unicode="&#xe7;" horiz-adv-x="522" 
d="M324 -48c56 0 88 -36 88 -79c0 -61 -54 -98 -145 -98c-46 0 -89 14 -124 40l34 52c30 -21 60 -32 86 -32c27 0 47 11 47 33c0 20 -14 30 -40 30c-16 0 -26 -3 -39 -7l-40 25l61 73c-134 24 -208 128 -208 266c0 158 107 271 267 271c79 0 141 -26 174 -54l-37 -107
c-25 21 -69 42 -125 42c-87 0 -142 -66 -142 -152s57 -153 147 -153c59 0 98 20 130 45l39 -101c-29 -22 -83 -60 -177 -62l-31 -37c8 3 20 5 35 5z" />
    <glyph glyph-name="ccircumflex" unicode="&#x109;" horiz-adv-x="522" 
d="M301 667l-67 -91h-103l105 154h130l105 -154h-103zM458 147l39 -101c-30 -23 -86 -62 -185 -62c-172 0 -268 113 -268 271s107 271 267 271c79 0 141 -26 174 -54l-37 -107c-25 21 -69 42 -125 42c-87 0 -142 -66 -142 -152s57 -153 147 -153c59 0 98 20 130 45z" />
    <glyph glyph-name="cdotaccent" unicode="&#x10b;" horiz-adv-x="522" 
d="M300 602c-48 0 -82 28 -82 70c0 44 34 73 82 73c49 0 82 -29 82 -73c0 -42 -33 -70 -82 -70zM44 255c0 158 107 271 267 271c79 0 141 -26 174 -54l-37 -107c-25 21 -69 42 -125 42c-87 0 -142 -66 -142 -152s57 -153 147 -153c59 0 98 20 130 45l39 -101
c-30 -23 -86 -62 -185 -62c-172 0 -268 113 -268 271z" />
    <glyph glyph-name="eth" unicode="&#xf0;" horiz-adv-x="628" 
d="M404 675c114 -86 179 -219 179 -380c0 -203 -113 -310 -268 -310c-149 0 -271 103 -271 267c0 161 120 259 255 259c40 0 77 -9 107 -28c-26 51 -63 94 -111 126l-144 -86l-39 65l103 62c-30 12 -62 20 -98 26l16 102c74 -9 141 -28 199 -58l98 59l39 -65zM315 100
c66 0 116 43 129 135c10 116 -41 184 -121 184c-86 0 -141 -72 -141 -167c0 -96 55 -152 133 -152z" />
    <glyph glyph-name="dcaron" unicode="&#x10f;" horiz-adv-x="679" 
d="M440 447v303h129v-750h-119l-2 75c-32 -56 -87 -91 -168 -91c-132 0 -236 100 -236 271c0 172 103 271 236 271c75 0 127 -30 160 -79zM663 750h104l-36 -167h-83zM316 97c83 0 135 72 134 158c-1 89 -51 159 -134 159c-86 0 -136 -63 -136 -159c0 -95 50 -158 136 -158z
" />
    <glyph glyph-name="dcroat" unicode="&#x111;" horiz-adv-x="648" 
d="M641 649v-75h-72v-574h-119l-2 75c-32 -56 -87 -91 -168 -91c-132 0 -236 100 -236 271c0 172 103 271 236 271c75 0 127 -30 160 -79v127h-197v75h197v101h129v-101h72zM316 97c83 0 135 72 134 158c-1 89 -51 159 -134 159c-86 0 -136 -63 -136 -159
c0 -95 50 -158 136 -158z" />
    <glyph glyph-name="eacute" unicode="&#xe9;" horiz-adv-x="591" 
d="M481 730l-122 -154h-103l104 154h121zM551 277v-48h-370c13 -94 83 -132 162 -132c66 0 111 23 152 58l49 -91c-48 -43 -120 -80 -218 -80c-174 0 -282 106 -282 269s111 273 261 273c146 0 246 -98 246 -249zM304 422c-61 0 -109 -41 -122 -118h237
c-9 76 -52 118 -115 118z" />
    <glyph glyph-name="ebreve" unicode="&#x115;" horiz-adv-x="591" 
d="M306 573c-96 0 -152 51 -154 157h82c5 -59 31 -85 72 -85s67 26 72 85h83c-8 -106 -61 -157 -155 -157zM551 277v-48h-370c13 -94 83 -132 162 -132c66 0 111 23 152 58l49 -91c-48 -43 -120 -80 -218 -80c-174 0 -282 106 -282 269s111 273 261 273
c146 0 246 -98 246 -249zM304 422c-61 0 -109 -41 -122 -118h237c-9 76 -52 118 -115 118z" />
    <glyph glyph-name="ecaron" unicode="&#x11b;" horiz-adv-x="591" 
d="M243 576l-106 154h103l67 -91l67 91h103l-106 -154h-128zM551 277v-48h-370c13 -94 83 -132 162 -132c66 0 111 23 152 58l49 -91c-48 -43 -120 -80 -218 -80c-174 0 -282 106 -282 269s111 273 261 273c146 0 246 -98 246 -249zM304 422c-61 0 -109 -41 -122 -118h237
c-9 76 -52 118 -115 118z" />
    <glyph glyph-name="ecircumflex" unicode="&#xea;" horiz-adv-x="591" 
d="M307 667l-67 -91h-103l105 154h130l105 -154h-103zM551 277v-48h-370c13 -94 83 -132 162 -132c66 0 111 23 152 58l49 -91c-48 -43 -120 -80 -218 -80c-174 0 -282 106 -282 269s111 273 261 273c146 0 246 -98 246 -249zM304 422c-61 0 -109 -41 -122 -118h237
c-9 76 -52 118 -115 118z" />
    <glyph glyph-name="edieresis" unicode="&#xeb;" horiz-adv-x="591" 
d="M200 579c-40 0 -68 26 -68 67c0 42 28 71 68 71s68 -29 68 -71c0 -41 -28 -67 -68 -67zM414 579c-40 0 -68 26 -68 67c0 42 28 71 68 71s67 -29 67 -71c0 -41 -27 -67 -67 -67zM551 277v-48h-370c13 -94 83 -132 162 -132c66 0 111 23 152 58l49 -91
c-48 -43 -120 -80 -218 -80c-174 0 -282 106 -282 269s111 273 261 273c146 0 246 -98 246 -249zM304 422c-61 0 -109 -41 -122 -118h237c-9 76 -52 118 -115 118z" />
    <glyph glyph-name="edotaccent" unicode="&#x117;" horiz-adv-x="591" 
d="M307 602c-48 0 -82 28 -82 70c0 44 34 73 82 73c49 0 82 -29 82 -73c0 -42 -33 -70 -82 -70zM551 277v-48h-370c13 -94 83 -132 162 -132c66 0 111 23 152 58l49 -91c-48 -43 -120 -80 -218 -80c-174 0 -282 106 -282 269s111 273 261 273c146 0 246 -98 246 -249z
M304 422c-61 0 -109 -41 -122 -118h237c-9 76 -52 118 -115 118z" />
    <glyph glyph-name="egrave" unicode="&#xe8;" horiz-adv-x="591" 
d="M358 576h-102l-124 154h121zM551 277v-48h-370c13 -94 83 -132 162 -132c66 0 111 23 152 58l49 -91c-48 -43 -120 -80 -218 -80c-174 0 -282 106 -282 269s111 273 261 273c146 0 246 -98 246 -249zM304 422c-61 0 -109 -41 -122 -118h237c-9 76 -52 118 -115 118z" />
    <glyph glyph-name="emacron" unicode="&#x113;" horiz-adv-x="591" 
d="M441 683v-78h-267v78h267zM551 277v-48h-370c13 -94 83 -132 162 -132c66 0 111 23 152 58l49 -91c-48 -43 -120 -80 -218 -80c-174 0 -282 106 -282 269s111 273 261 273c146 0 246 -98 246 -249zM304 422c-61 0 -109 -41 -122 -118h237c-9 76 -52 118 -115 118z" />
    <glyph glyph-name="eogonek" unicode="&#x119;" horiz-adv-x="591" 
d="M551 277v-48h-370c13 -94 83 -132 162 -132c66 0 111 23 152 58l49 -91c-3 -3 -6 -6 -10 -8c-58 -49 -136 -96 -136 -149c0 -26 17 -38 41 -38c22 0 43 8 61 24l40 -67c-27 -29 -65 -48 -121 -48c-80 0 -129 44 -129 107c0 41 19 72 45 99h-9c-174 0 -282 106 -282 269
s111 273 261 273c146 0 246 -98 246 -249zM304 422c-61 0 -109 -41 -122 -118h237c-9 76 -52 118 -115 118z" />
    <glyph glyph-name="gbreve" unicode="&#x11f;" horiz-adv-x="577" 
d="M279 573c-96 0 -152 51 -154 157h82c5 -59 31 -85 72 -85s67 26 72 85h83c-8 -106 -61 -157 -155 -157zM371 92c120 0 177 -51 177 -132c0 -86 -67 -167 -286 -167c-140 0 -242 29 -242 112c0 54 46 82 87 98c-31 13 -58 38 -58 85c0 54 40 85 86 114
c-51 32 -81 82 -81 145c0 107 92 180 224 180c54 0 102 -12 140 -33l89 79l69 -70l-94 -66c17 -26 27 -56 27 -90c0 -110 -96 -182 -230 -182c-28 0 -54 3 -78 9c-18 -12 -33 -26 -33 -45c0 -20 16 -33 71 -35zM282 441c-55 0 -99 -34 -99 -94c0 -62 44 -97 99 -97
c56 0 97 35 97 97c0 60 -41 94 -97 94zM275 -129c92 0 150 22 150 66c0 34 -23 49 -96 50l-151 3c-21 -15 -35 -33 -35 -58c0 -37 33 -61 132 -61z" />
    <glyph glyph-name="gcircumflex" unicode="&#x11d;" horiz-adv-x="577" 
d="M280 667l-67 -91h-103l105 154h130l105 -154h-103zM371 92c120 0 177 -51 177 -132c0 -86 -67 -167 -286 -167c-140 0 -242 29 -242 112c0 54 46 82 87 98c-31 13 -58 38 -58 85c0 54 40 85 86 114c-51 32 -81 82 -81 145c0 107 92 180 224 180c54 0 102 -12 140 -33
l89 79l69 -70l-94 -66c17 -26 27 -56 27 -90c0 -110 -96 -182 -230 -182c-28 0 -54 3 -78 9c-18 -12 -33 -26 -33 -45c0 -20 16 -33 71 -35zM282 441c-55 0 -99 -34 -99 -94c0 -62 44 -97 99 -97c56 0 97 35 97 97c0 60 -41 94 -97 94zM275 -129c92 0 150 22 150 66
c0 34 -23 49 -96 50l-151 3c-21 -15 -35 -33 -35 -58c0 -37 33 -61 132 -61z" />
    <glyph glyph-name="uni0123" unicode="&#x123;" horiz-adv-x="577" 
d="M282 572c-32 0 -58 18 -58 62c0 55 36 111 81 151l38 -35c-21 -22 -40 -48 -48 -71c27 -5 45 -24 45 -52c0 -33 -26 -55 -58 -55zM371 92c120 0 177 -51 177 -132c0 -86 -67 -167 -286 -167c-140 0 -242 29 -242 112c0 54 46 82 87 98c-31 13 -58 38 -58 85
c0 54 40 85 86 114c-51 32 -81 82 -81 145c0 107 92 180 224 180c54 0 102 -12 140 -33l89 79l69 -70l-94 -66c17 -26 27 -56 27 -90c0 -110 -96 -182 -230 -182c-28 0 -54 3 -78 9c-18 -12 -33 -26 -33 -45c0 -20 16 -33 71 -35zM282 441c-55 0 -99 -34 -99 -94
c0 -62 44 -97 99 -97c56 0 97 35 97 97c0 60 -41 94 -97 94zM275 -129c92 0 150 22 150 66c0 34 -23 49 -96 50l-151 3c-21 -15 -35 -33 -35 -58c0 -37 33 -61 132 -61z" />
    <glyph glyph-name="gdotaccent" unicode="&#x121;" horiz-adv-x="577" 
d="M280 602c-48 0 -82 28 -82 70c0 44 34 73 82 73c49 0 82 -29 82 -73c0 -42 -33 -70 -82 -70zM371 92c120 0 177 -51 177 -132c0 -86 -67 -167 -286 -167c-140 0 -242 29 -242 112c0 54 46 82 87 98c-31 13 -58 38 -58 85c0 54 40 85 86 114c-51 32 -81 82 -81 145
c0 107 92 180 224 180c54 0 102 -12 140 -33l89 79l69 -70l-94 -66c17 -26 27 -56 27 -90c0 -110 -96 -182 -230 -182c-28 0 -54 3 -78 9c-18 -12 -33 -26 -33 -45c0 -20 16 -33 71 -35zM282 441c-55 0 -99 -34 -99 -94c0 -62 44 -97 99 -97c56 0 97 35 97 97
c0 60 -41 94 -97 94zM275 -129c92 0 150 22 150 66c0 34 -23 49 -96 50l-151 3c-21 -15 -35 -33 -35 -58c0 -37 33 -61 132 -61z" />
    <glyph glyph-name="hbar" unicode="&#x127;" horiz-adv-x="636" 
d="M388 526c117 0 169 -68 169 -181v-345h-128v302c0 79 -30 114 -96 114c-53 0 -99 -35 -126 -84v-332h-128v574h-73v75h73v101h128v-101h198v-75h-198v-137c39 55 101 89 181 89z" />
    <glyph glyph-name="hcircumflex" unicode="&#x125;" horiz-adv-x="636" 
d="M318 885l-73 -78h-106l122 124h114l121 -124h-107zM388 526c117 0 169 -68 169 -181v-345h-128v302c0 79 -30 114 -96 114c-53 0 -99 -35 -126 -84v-332h-128v750h128v-313c39 55 101 89 181 89z" />
    <glyph glyph-name="dotlessi" unicode="&#x131;" horiz-adv-x="315" 
d="M94 510h128v-510h-128v510z" />
    <glyph glyph-name="iacute" unicode="&#xed;" horiz-adv-x="315" 
d="M106 576l104 154h121l-122 -154h-103zM94 510h128v-510h-128v510z" />
    <glyph glyph-name="ibreve" unicode="&#x12d;" horiz-adv-x="315" 
d="M157 573c-96 0 -152 51 -154 157h82c5 -59 31 -85 72 -85s67 26 72 85h83c-8 -106 -61 -157 -155 -157zM94 510h128v-510h-128v510z" />
    <glyph glyph-name="icircumflex" unicode="&#xee;" horiz-adv-x="315" 
d="M223 730l105 -154h-103l-67 91l-67 -91h-103l105 154h130zM94 0v510h128v-510h-128z" />
    <glyph glyph-name="idieresis" unicode="&#xef;" horiz-adv-x="315" 
d="M51 579c-40 0 -68 26 -68 67c0 42 28 71 68 71s68 -29 68 -71c0 -41 -28 -67 -68 -67zM265 579c-40 0 -68 26 -68 67c0 42 28 71 68 71s67 -29 67 -71c0 -41 -27 -67 -67 -67zM94 510h128v-510h-128v510z" />
    <glyph glyph-name="i.loclTRK" horiz-adv-x="315" 
d="M158 602c-48 0 -82 28 -82 70c0 44 34 73 82 73c49 0 82 -29 82 -73c0 -42 -33 -70 -82 -70zM94 510h128v-510h-128v510z" />
    <glyph glyph-name="igrave" unicode="&#xec;" horiz-adv-x="315" 
d="M-17 730h121l105 -154h-102zM94 510h128v-510h-128v510z" />
    <glyph glyph-name="ij" unicode="&#x133;" horiz-adv-x="630" 
d="M158 602c-48 0 -82 28 -82 70c0 44 34 73 82 73c49 0 82 -29 82 -73c0 -42 -33 -70 -82 -70zM473 602c-48 0 -82 28 -82 70c0 44 34 73 82 73c49 0 82 -29 82 -73c0 -42 -33 -70 -82 -70zM94 510h128v-510h-128v510zM285 -202v103c15 -2 29 -2 44 -2c58 0 80 28 80 80
v531h128v-547c0 -98 -56 -169 -175 -169c-31 0 -58 1 -77 4z" />
    <glyph glyph-name="imacron" unicode="&#x12b;" horiz-adv-x="315" 
d="M24 683h267v-78h-267v78zM94 510h128v-510h-128v510z" />
    <glyph glyph-name="iogonek" unicode="&#x12f;" horiz-adv-x="315" 
d="M158 602c-48 0 -82 28 -82 70c0 44 34 73 82 73c49 0 82 -29 82 -73c0 -42 -33 -70 -82 -70zM228 -107l40 -67c-27 -29 -65 -48 -121 -48c-80 0 -126 45 -126 108c0 48 23 84 74 114h-1v510h128v-510c-55 -18 -96 -52 -96 -91c0 -26 16 -40 41 -40c24 0 40 7 61 24z" />
    <glyph glyph-name="itilde" unicode="&#x129;" horiz-adv-x="315" 
d="M233 587c-56 0 -115 45 -152 45c-22 0 -32 -16 -34 -42h-60c4 76 33 124 97 124c57 0 113 -45 151 -45c22 0 32 16 34 41h60c-4 -76 -33 -123 -96 -123zM94 510h128v-510h-128v510z" />
    <glyph glyph-name="uni0237" unicode="&#x237;" horiz-adv-x="315" 
d="M-30 -202v103c15 -2 29 -2 44 -2c58 0 80 28 80 80v531h128v-547c0 -98 -56 -169 -175 -169c-31 0 -58 1 -77 4z" />
    <glyph glyph-name="jcircumflex" unicode="&#x135;" horiz-adv-x="315" 
d="M223 730l105 -154h-103l-67 91l-67 -91h-103l105 154h130zM94 -21v531h128v-547c0 -98 -56 -169 -175 -169c-31 0 -58 1 -77 4v103c15 -2 29 -2 44 -2c58 0 80 28 80 80z" />
    <glyph glyph-name="uni0137" unicode="&#x137;" horiz-adv-x="564" 
d="M339 291l226 -291h-151l-160 202l-47 -50v-152h-128v750h128v-459l192 219h146zM283 -50c32 0 58 -18 58 -62c0 -55 -36 -112 -81 -151l-38 35c21 21 40 48 48 71c-27 5 -45 24 -45 52c0 33 26 55 58 55z" />
    <glyph glyph-name="kgreenlandic" unicode="&#x138;" horiz-adv-x="564" 
d="M414 0l-160 202l-47 -50v-152h-128v510h128v-219l192 219h146l-206 -219l226 -291h-151z" />
    <glyph glyph-name="lacute" unicode="&#x13a;" horiz-adv-x="286" 
d="M234 931h125l-161 -124h-111zM79 750h128v-750h-128v750z" />
    <glyph glyph-name="lcaron" unicode="&#x13e;" horiz-adv-x="317" 
d="M79 750h128v-750h-128v750zM302 750h104l-37 -167h-83z" />
    <glyph glyph-name="uni013C" unicode="&#x13c;" horiz-adv-x="286" 
d="M79 750h128v-750h-128v750zM144 -50c32 0 58 -18 58 -62c0 -55 -36 -112 -81 -151l-38 35c21 21 40 48 48 71c-27 5 -45 24 -45 52c0 33 26 55 58 55z" />
    <glyph glyph-name="ldot" unicode="&#x140;" horiz-adv-x="360" 
d="M79 750h128v-750h-128v750zM323 292c-49 0 -84 29 -84 77s35 81 84 81s84 -33 84 -81s-35 -77 -84 -77z" />
    <glyph glyph-name="lslash" unicode="&#x142;" horiz-adv-x="286" 
d="M286 549v-99l-79 -54v-396h-128v307l-79 -54v100l79 54v343h128v-255z" />
    <glyph glyph-name="nacute" unicode="&#x144;" horiz-adv-x="636" 
d="M491 730l-122 -154h-103l104 154h121zM388 526c117 0 169 -68 169 -181v-345h-128v302c0 79 -30 114 -96 114c-54 0 -99 -38 -126 -91v-325h-128v510h128v-73c39 55 101 89 181 89z" />
    <glyph glyph-name="ncaron" unicode="&#x148;" horiz-adv-x="636" 
d="M253 576l-106 154h103l67 -91l67 91h103l-106 -154h-128zM388 526c117 0 169 -68 169 -181v-345h-128v302c0 79 -30 114 -96 114c-54 0 -99 -38 -126 -91v-325h-128v510h128v-73c39 55 101 89 181 89z" />
    <glyph glyph-name="uni0146" unicode="&#x146;" horiz-adv-x="636" 
d="M388 526c117 0 169 -68 169 -181v-345h-128v302c0 79 -30 114 -96 114c-54 0 -99 -38 -126 -91v-325h-128v510h128v-73c39 55 101 89 181 89zM319 -50c32 0 58 -18 58 -62c0 -55 -36 -112 -81 -151l-38 35c21 21 40 48 48 71c-27 5 -45 24 -45 52c0 33 26 55 58 55z" />
    <glyph glyph-name="eng" unicode="&#x14b;" horiz-adv-x="636" 
d="M388 524c117 0 169 -68 169 -181v-380c0 -98 -56 -169 -175 -169c-25 0 -46 1 -64 2v104c10 -1 19 -1 31 -1c58 0 80 28 80 80v321c0 79 -30 114 -96 114c-54 0 -99 -38 -126 -91v-323h-128v510h128v-75c39 55 101 89 181 89z" />
    <glyph glyph-name="ntilde" unicode="&#xf1;" horiz-adv-x="636" 
d="M240 632c-22 0 -32 -16 -34 -42h-60c4 76 33 124 97 124c57 0 113 -45 151 -45c22 0 32 16 34 41h60c-4 -76 -33 -123 -96 -123c-56 0 -115 45 -152 45zM388 526c117 0 169 -68 169 -181v-345h-128v302c0 79 -30 114 -96 114c-54 0 -99 -38 -126 -91v-325h-128v510h128
v-73c39 55 101 89 181 89z" />
    <glyph glyph-name="oacute" unicode="&#xf3;" horiz-adv-x="630" 
d="M264 576l104 154h121l-122 -154h-103zM315 -16c-149 0 -271 107 -271 271c0 165 122 271 271 271s271 -106 271 -271c0 -164 -122 -271 -271 -271zM315 99c78 0 133 60 133 156c0 97 -55 156 -133 156s-133 -59 -133 -156c0 -96 55 -156 133 -156z" />
    <glyph glyph-name="obreve" unicode="&#x14f;" horiz-adv-x="630" 
d="M314 573c-96 0 -152 51 -154 157h82c5 -59 31 -85 72 -85s67 26 72 85h83c-8 -106 -61 -157 -155 -157zM315 -16c-149 0 -271 107 -271 271c0 165 122 271 271 271s271 -106 271 -271c0 -164 -122 -271 -271 -271zM315 99c78 0 133 60 133 156c0 97 -55 156 -133 156
s-133 -59 -133 -156c0 -96 55 -156 133 -156z" />
    <glyph glyph-name="ocircumflex" unicode="&#xf4;" horiz-adv-x="630" 
d="M315 667l-67 -91h-103l105 154h130l105 -154h-103zM315 526c149 0 271 -106 271 -271c0 -164 -122 -271 -271 -271s-271 107 -271 271c0 165 122 271 271 271zM315 99c78 0 133 60 133 156c0 97 -55 156 -133 156s-133 -59 -133 -156c0 -96 55 -156 133 -156z" />
    <glyph glyph-name="odieresis" unicode="&#xf6;" horiz-adv-x="630" 
d="M208 579c-40 0 -68 26 -68 67c0 42 28 71 68 71s68 -29 68 -71c0 -41 -28 -67 -68 -67zM422 579c-40 0 -68 26 -68 67c0 42 28 71 68 71s67 -29 67 -71c0 -41 -27 -67 -67 -67zM315 -16c-149 0 -271 107 -271 271c0 165 122 271 271 271s271 -106 271 -271
c0 -164 -122 -271 -271 -271zM315 99c78 0 133 60 133 156c0 97 -55 156 -133 156s-133 -59 -133 -156c0 -96 55 -156 133 -156z" />
    <glyph glyph-name="ograve" unicode="&#xf2;" horiz-adv-x="630" 
d="M140 730h121l105 -154h-102zM315 -16c-149 0 -271 107 -271 271c0 165 122 271 271 271s271 -106 271 -271c0 -164 -122 -271 -271 -271zM315 99c78 0 133 60 133 156c0 97 -55 156 -133 156s-133 -59 -133 -156c0 -96 55 -156 133 -156z" />
    <glyph glyph-name="ohungarumlaut" unicode="&#x151;" horiz-adv-x="630" 
d="M164 576l109 154h124l-130 -154h-103zM361 576l109 154h124l-130 -154h-103zM315 -16c-149 0 -271 107 -271 271c0 165 122 271 271 271s271 -106 271 -271c0 -164 -122 -271 -271 -271zM315 99c78 0 133 60 133 156c0 97 -55 156 -133 156s-133 -59 -133 -156
c0 -96 55 -156 133 -156z" />
    <glyph glyph-name="omacron" unicode="&#x14d;" horiz-adv-x="630" 
d="M182 683h267v-78h-267v78zM315 -16c-149 0 -271 107 -271 271c0 165 122 271 271 271s271 -106 271 -271c0 -164 -122 -271 -271 -271zM315 99c78 0 133 60 133 156c0 97 -55 156 -133 156s-133 -59 -133 -156c0 -96 55 -156 133 -156z" />
    <glyph glyph-name="oslash" unicode="&#xf8;" horiz-adv-x="630" 
d="M586 473l-52 -52c33 -44 52 -100 52 -166c0 -164 -122 -270 -271 -270c-62 0 -119 18 -165 52l-52 -52l-54 53l52 52c-33 44 -52 100 -52 165c0 165 122 271 271 271c62 0 119 -18 165 -52l52 52zM174 255c0 -28 4 -53 12 -75l214 214c-23 18 -52 28 -85 28
c-83 0 -141 -64 -141 -167zM456 255c0 28 -4 54 -12 76l-214 -214c23 -18 52 -28 85 -28c83 0 141 64 141 166z" />
    <glyph glyph-name="oslashacute" unicode="&#x1ff;" horiz-adv-x="630" 
d="M489 730l-122 -154h-103l104 154h121zM586 473l-52 -52c33 -44 52 -100 52 -166c0 -164 -122 -270 -271 -270c-62 0 -119 18 -165 52l-52 -52l-54 53l52 52c-33 44 -52 100 -52 165c0 165 122 271 271 271c62 0 119 -18 165 -52l52 52zM174 255c0 -28 4 -53 12 -75
l214 214c-23 18 -52 28 -85 28c-83 0 -141 -64 -141 -167zM456 255c0 28 -4 54 -12 76l-214 -214c23 -18 52 -28 85 -28c83 0 141 64 141 166z" />
    <glyph glyph-name="otilde" unicode="&#xf5;" horiz-adv-x="630" 
d="M390 587c-56 0 -115 45 -152 45c-22 0 -32 -16 -34 -42h-60c4 76 33 124 97 124c57 0 113 -45 151 -45c22 0 32 16 34 41h60c-4 -76 -33 -123 -96 -123zM315 -16c-149 0 -271 107 -271 271c0 165 122 271 271 271s271 -106 271 -271c0 -164 -122 -271 -271 -271zM315 99
c78 0 133 60 133 156c0 97 -55 156 -133 156s-133 -59 -133 -156c0 -96 55 -156 133 -156z" />
    <glyph glyph-name="oe" unicode="&#x153;" horiz-adv-x="988" 
d="M948 277v-48h-370c13 -94 84 -132 162 -132c67 0 113 23 152 58l49 -91c-48 -43 -116 -79 -215 -79c-94 0 -168 34 -215 92c-47 -58 -118 -92 -200 -92c-145 0 -267 106 -267 270c0 165 122 271 268 271c82 0 153 -34 199 -93c45 59 113 93 193 93
c145 0 244 -98 244 -249zM700 422c-61 0 -108 -40 -121 -118h237c-9 76 -53 118 -116 118zM315 100c78 0 133 59 133 155c0 97 -55 156 -133 156s-133 -59 -133 -156c0 -96 55 -155 133 -155z" />
    <glyph glyph-name="thorn" unicode="&#xfe;" horiz-adv-x="655" 
d="M376 525c132 0 235 -99 235 -270c0 -172 -102 -271 -235 -271c-81 0 -136 36 -169 92v-264h-128v938h128v-316c33 56 87 91 169 91zM340 96c86 0 136 64 136 159s-50 157 -136 157c-84 0 -135 -70 -134 -157c0 -88 50 -159 134 -159z" />
    <glyph glyph-name="racute" unicode="&#x155;" horiz-adv-x="424" 
d="M316 730l-122 -154h-103l104 154h121zM207 397c28 72 93 122 174 122v-134c-83 -3 -165 -39 -174 -173v-212h-128v510h128v-113z" />
    <glyph glyph-name="rcaron" unicode="&#x159;" horiz-adv-x="424" 
d="M78 576l-106 154h103l67 -91l67 91h103l-106 -154h-128zM207 397c28 72 93 122 174 122v-134c-83 -3 -165 -39 -174 -173v-212h-128v510h128v-113z" />
    <glyph glyph-name="uni0157" unicode="&#x157;" horiz-adv-x="424" 
d="M207 397c28 72 93 122 174 122v-134c-83 -3 -165 -39 -174 -173v-212h-128v510h128v-113zM143 -50c32 0 58 -18 58 -62c0 -55 -36 -112 -81 -151l-38 35c21 21 40 48 48 71c-27 5 -45 24 -45 52c0 33 26 55 58 55z" />
    <glyph glyph-name="sacute" unicode="&#x15b;" horiz-adv-x="488" 
d="M193 576l104 154h121l-122 -154h-103zM252 -16c-114 0 -178 43 -219 84l55 86c41 -38 94 -71 158 -71c43 0 72 19 72 54c0 38 -29 51 -100 71c-78 22 -162 55 -162 161c0 108 91 157 192 157c91 0 153 -30 189 -73l-57 -77c-37 29 -75 54 -125 54c-43 0 -71 -18 -71 -49
c0 -40 43 -54 103 -70c87 -26 162 -56 162 -157c0 -114 -83 -170 -197 -170z" />
    <glyph glyph-name="scaron" unicode="&#x161;" horiz-adv-x="488" 
d="M180 576l-106 154h103l67 -91l67 91h103l-106 -154h-128zM287 311c87 -26 162 -56 162 -157c0 -114 -83 -170 -197 -170s-178 43 -219 84l55 86c41 -38 94 -71 158 -71c43 0 72 19 72 54c0 38 -29 51 -100 71c-78 22 -162 55 -162 161c0 108 91 157 192 157
c91 0 153 -30 189 -73l-57 -77c-37 29 -75 54 -125 54c-43 0 -71 -18 -71 -49c0 -40 43 -54 103 -70z" />
    <glyph glyph-name="scedilla" unicode="&#x15f;" horiz-adv-x="488" 
d="M449 154c0 -108 -74 -164 -178 -169l-31 -37c8 3 20 5 35 5c56 0 88 -36 88 -79c0 -61 -54 -98 -145 -98c-46 0 -89 14 -124 40l34 52c30 -21 60 -32 86 -32c27 0 47 11 47 33c0 20 -14 30 -40 30c-16 0 -26 -3 -39 -7l-40 25l58 70c-82 11 -133 47 -167 81l55 86
c41 -38 94 -71 158 -71c43 0 72 19 72 54c0 38 -29 51 -100 71c-78 22 -162 55 -162 161c0 108 91 157 192 157c91 0 153 -30 189 -73l-57 -77c-37 29 -75 54 -125 54c-43 0 -71 -18 -71 -49c0 -40 43 -54 103 -70c87 -26 162 -56 162 -157z" />
    <glyph glyph-name="scircumflex" unicode="&#x15d;" horiz-adv-x="488" 
d="M245 667l-67 -91h-103l105 154h130l105 -154h-103zM287 311c87 -26 162 -56 162 -157c0 -114 -83 -170 -197 -170s-178 43 -219 84l55 86c41 -38 94 -71 158 -71c43 0 72 19 72 54c0 38 -29 51 -100 71c-78 22 -162 55 -162 161c0 108 91 157 192 157
c91 0 153 -30 189 -73l-57 -77c-37 29 -75 54 -125 54c-43 0 -71 -18 -71 -49c0 -40 43 -54 103 -70z" />
    <glyph glyph-name="uni0219" unicode="&#x219;" horiz-adv-x="488" 
d="M287 311c87 -26 162 -56 162 -157c0 -114 -83 -170 -197 -170s-178 43 -219 84l55 86c41 -38 94 -71 158 -71c43 0 72 19 72 54c0 38 -29 51 -100 71c-78 22 -162 55 -162 161c0 108 91 157 192 157c91 0 153 -30 189 -73l-57 -77c-37 29 -75 54 -125 54
c-43 0 -71 -18 -71 -49c0 -40 43 -54 103 -70zM245 -50c32 0 58 -18 58 -62c0 -55 -36 -112 -81 -151l-38 35c21 21 40 48 48 71c-27 5 -45 24 -45 52c0 33 26 55 58 55z" />
    <glyph glyph-name="germandbls" unicode="&#xdf;" horiz-adv-x="642" 
d="M444 420c92 -25 147 -98 147 -197c0 -157 -88 -232 -249 -232c-17 0 -28 1 -37 2v113c8 -1 14 -2 27 -2c80 0 128 44 128 129c0 79 -56 125 -134 125h-14l-1 106h6c54 0 93 35 93 92c0 54 -38 92 -91 92c-68 0 -111 -57 -111 -156v-492h-128v481c0 177 84 279 247 279
c126 0 211 -82 211 -191c0 -69 -36 -123 -94 -149z" />
    <glyph glyph-name="tbar" unicode="&#x167;" horiz-adv-x="422" 
d="M383 100l3 -103c-19 -5 -62 -13 -113 -13c-127 0 -168 53 -168 165v70h-77v81h77v107h-79v103h79v124l128 24v-148h138v-103h-138v-107h140v-81h-140v-50c0 -63 31 -75 84 -75c23 0 50 3 66 6z" />
    <glyph glyph-name="tcaron" unicode="&#x165;" horiz-adv-x="422" 
d="M414 750l-37 -167h-83l16 167h104zM317 94c23 0 50 3 66 6l3 -103c-19 -5 -62 -13 -113 -13c-127 0 -168 53 -168 165v258h-79v103h79v124l128 24v-148h138v-103h-138v-238c0 -63 31 -75 84 -75z" />
    <glyph glyph-name="uni0163" unicode="&#x163;" horiz-adv-x="422" 
d="M268 -47c56 0 88 -36 88 -79c0 -61 -54 -98 -145 -98c-46 0 -89 14 -124 40l34 52c30 -21 60 -32 86 -32c27 0 47 11 47 33c0 20 -14 30 -40 30c-16 0 -26 -3 -39 -7l-40 25l63 76c-69 19 -93 70 -93 156v258h-79v103h79v124l128 24v-148h138v-103h-138v-238
c0 -63 31 -75 84 -75c23 0 50 3 66 6l3 -103c-19 -5 -62 -13 -113 -13h-9l-31 -36c8 3 20 5 35 5z" />
    <glyph glyph-name="uni021B" unicode="&#x21b;" horiz-adv-x="422" 
d="M386 -3c-19 -5 -62 -13 -113 -13c-127 0 -168 53 -168 165v258h-79v103h79v124l128 24v-148h138v-103h-138v-238c0 -63 31 -75 84 -75c23 0 50 3 66 6zM238 -50c32 0 58 -18 58 -62c0 -55 -36 -112 -81 -151l-38 35c21 21 40 48 48 71c-27 5 -45 24 -45 52
c0 33 26 55 58 55z" />
    <glyph glyph-name="uacute" unicode="&#xfa;" horiz-adv-x="594" 
d="M245 576l104 154h121l-122 -154h-103zM297 -16c-138 0 -231 58 -231 222v304h128v-306c0 -70 33 -112 103 -112s103 42 103 112v306h128v-304c0 -164 -93 -222 -231 -222z" />
    <glyph glyph-name="ubreve" unicode="&#x16d;" horiz-adv-x="594" 
d="M296 573c-96 0 -152 51 -154 157h82c5 -59 31 -85 72 -85s67 26 72 85h83c-8 -106 -61 -157 -155 -157zM297 -16c-138 0 -231 58 -231 222v304h128v-306c0 -70 33 -112 103 -112s103 42 103 112v306h128v-304c0 -164 -93 -222 -231 -222z" />
    <glyph glyph-name="ucircumflex" unicode="&#xfb;" horiz-adv-x="594" 
d="M297 667l-67 -91h-103l105 154h130l105 -154h-103zM400 510h128v-304c0 -164 -93 -222 -231 -222s-231 58 -231 222v304h128v-306c0 -70 33 -112 103 -112s103 42 103 112v306z" />
    <glyph glyph-name="udieresis" unicode="&#xfc;" horiz-adv-x="594" 
d="M190 579c-40 0 -68 26 -68 67c0 42 28 71 68 71s68 -29 68 -71c0 -41 -28 -67 -68 -67zM404 579c-40 0 -68 26 -68 67c0 42 28 71 68 71s67 -29 67 -71c0 -41 -27 -67 -67 -67zM297 -16c-138 0 -231 58 -231 222v304h128v-306c0 -70 33 -112 103 -112s103 42 103 112v306
h128v-304c0 -164 -93 -222 -231 -222z" />
    <glyph glyph-name="ugrave" unicode="&#xf9;" horiz-adv-x="594" 
d="M122 730h121l105 -154h-102zM297 -16c-138 0 -231 58 -231 222v304h128v-306c0 -70 33 -112 103 -112s103 42 103 112v306h128v-304c0 -164 -93 -222 -231 -222z" />
    <glyph glyph-name="uhungarumlaut" unicode="&#x171;" horiz-adv-x="594" 
d="M146 576l109 154h124l-130 -154h-103zM343 576l109 154h124l-130 -154h-103zM297 -16c-138 0 -231 58 -231 222v304h128v-306c0 -70 33 -112 103 -112s103 42 103 112v306h128v-304c0 -164 -93 -222 -231 -222z" />
    <glyph glyph-name="umacron" unicode="&#x16b;" horiz-adv-x="594" 
d="M163 683h267v-78h-267v78zM297 -16c-138 0 -231 58 -231 222v304h128v-306c0 -70 33 -112 103 -112s103 42 103 112v306h128v-304c0 -164 -93 -222 -231 -222z" />
    <glyph glyph-name="uogonek" unicode="&#x173;" horiz-adv-x="594" 
d="M400 510h128v-304c0 -148 -76 -210 -192 -220c-35 -19 -58 -46 -58 -75c0 -26 16 -40 41 -40c24 0 40 7 61 24l40 -67c-27 -29 -65 -48 -121 -48c-80 0 -126 45 -126 108c0 41 17 74 55 102c-99 18 -162 81 -162 216v304h128v-306c0 -70 33 -112 103 -112s103 42 103 112
v306z" />
    <glyph glyph-name="uring" unicode="&#x16f;" horiz-adv-x="594" 
d="M297 579c-62 0 -105 40 -105 97c0 60 43 101 105 101s104 -41 104 -101c0 -57 -42 -97 -104 -97zM297 631c28 0 48 19 48 47c0 27 -20 47 -48 47c-29 0 -49 -20 -49 -48c0 -27 20 -46 49 -46zM297 -16c-138 0 -231 58 -231 222v304h128v-306c0 -70 33 -112 103 -112
s103 42 103 112v306h128v-304c0 -164 -93 -222 -231 -222z" />
    <glyph glyph-name="utilde" unicode="&#x169;" horiz-adv-x="594" 
d="M372 587c-56 0 -115 45 -152 45c-22 0 -32 -16 -34 -42h-60c4 76 33 124 97 124c57 0 113 -45 151 -45c22 0 32 16 34 41h60c-4 -76 -33 -123 -96 -123zM297 -16c-138 0 -231 58 -231 222v304h128v-306c0 -70 33 -112 103 -112s103 42 103 112v306h128v-304
c0 -164 -93 -222 -231 -222z" />
    <glyph glyph-name="wacute" unicode="&#x1e83;" horiz-adv-x="844" 
d="M595 730l-122 -154h-103l104 154h121zM698 510h125l-172 -510h-120l-120 360l-112 -360h-120l-161 510h133l101 -354l109 354h120l111 -356z" />
    <glyph glyph-name="wcircumflex" unicode="&#x175;" horiz-adv-x="844" 
d="M422 667l-67 -91h-103l105 154h130l105 -154h-103zM698 510h125l-172 -510h-120l-120 360l-112 -360h-120l-161 510h133l101 -354l109 354h120l111 -356z" />
    <glyph glyph-name="wdieresis" unicode="&#x1e85;" horiz-adv-x="844" 
d="M315 579c-40 0 -68 26 -68 67c0 42 28 71 68 71s68 -29 68 -71c0 -41 -28 -67 -68 -67zM529 579c-40 0 -68 26 -68 67c0 42 28 71 68 71s67 -29 67 -71c0 -41 -27 -67 -67 -67zM698 510h125l-172 -510h-120l-120 360l-112 -360h-120l-161 510h133l101 -354l109 354h120
l111 -356z" />
    <glyph glyph-name="wgrave" unicode="&#x1e81;" horiz-adv-x="844" 
d="M473 576h-102l-124 154h121zM698 510h125l-172 -510h-120l-120 360l-112 -360h-120l-161 510h133l101 -354l109 354h120l111 -356z" />
    <glyph glyph-name="yacute" unicode="&#xfd;" horiz-adv-x="545" 
d="M447 730l-122 -154h-103l104 154h121zM400 510h127l-230 -583c-32 -78 -84 -133 -176 -133c-36 0 -64 6 -84 11l10 100c7 -3 29 -8 61 -8c54 0 78 21 97 74l14 40l-203 499h137l127 -331z" />
    <glyph glyph-name="ycircumflex" unicode="&#x177;" horiz-adv-x="545" 
d="M274 667l-67 -91h-103l105 154h130l105 -154h-103zM400 510h127l-230 -583c-32 -78 -84 -133 -176 -133c-36 0 -64 6 -84 11l10 100c7 -3 29 -8 61 -8c54 0 78 21 97 74l14 40l-203 499h137l127 -331z" />
    <glyph glyph-name="ydieresis" unicode="&#xff;" horiz-adv-x="545" 
d="M167 579c-40 0 -68 26 -68 67c0 42 28 71 68 71s68 -29 68 -71c0 -41 -28 -67 -68 -67zM381 579c-40 0 -68 26 -68 67c0 42 28 71 68 71s67 -29 67 -71c0 -41 -27 -67 -67 -67zM400 510h127l-230 -583c-32 -78 -84 -133 -176 -133c-36 0 -64 6 -84 11l10 100
c7 -3 29 -8 61 -8c54 0 78 21 97 74l14 40l-203 499h137l127 -331z" />
    <glyph glyph-name="ygrave" unicode="&#x1ef3;" horiz-adv-x="545" 
d="M325 576h-102l-124 154h121zM400 510h127l-230 -583c-32 -78 -84 -133 -176 -133c-36 0 -64 6 -84 11l10 100c7 -3 29 -8 61 -8c54 0 78 21 97 74l14 40l-203 499h137l127 -331z" />
    <glyph glyph-name="zacute" unicode="&#x17a;" horiz-adv-x="476" 
d="M412 730l-122 -154h-103l104 154h121zM183 95h264v-95h-418v95l255 319h-243v96h397v-96z" />
    <glyph glyph-name="zcaron" unicode="&#x17e;" horiz-adv-x="476" 
d="M174 576l-106 154h103l67 -91l67 91h103l-106 -154h-128zM183 95h264v-95h-418v95l255 319h-243v96h397v-96z" />
    <glyph glyph-name="zdotaccent" unicode="&#x17c;" horiz-adv-x="476" 
d="M239 602c-48 0 -82 28 -82 70c0 44 34 73 82 73c49 0 82 -29 82 -73c0 -42 -33 -70 -82 -70zM183 95h264v-95h-418v95l255 319h-243v96h397v-96z" />
    <glyph glyph-name="zero.linTab" horiz-adv-x="646" 
d="M322 -15c-184 0 -275 164 -275 370s91 370 275 370s277 -164 277 -370s-93 -370 -277 -370zM322 90c93 0 139 100 139 265s-46 265 -139 265s-137 -100 -137 -265s44 -265 137 -265z" />
    <glyph glyph-name="one.linTab" horiz-adv-x="646" 
d="M336 710h84v-710h-133v575l-158 -63v112z" />
    <glyph glyph-name="two.linTab" horiz-adv-x="646" 
d="M228 110h342v-110h-497v110c165 136 338 259 338 394c0 72 -42 109 -106 109c-73 0 -115 -49 -140 -114l-103 45c29 103 116 182 255 182s228 -83 228 -214c0 -194 -203 -323 -317 -402z" />
    <glyph glyph-name="three.linTab" horiz-adv-x="646" 
d="M394 366c89 -14 162 -61 162 -172c0 -138 -121 -210 -250 -210c-118 0 -197 39 -234 65l39 102c41 -23 102 -54 174 -54c73 0 130 35 130 104c0 75 -61 113 -179 113h-47v89h42c122 0 167 56 167 120c0 60 -41 92 -104 92s-119 -25 -163 -57l-41 92c45 40 126 76 223 76
c129 0 216 -65 216 -181c0 -90 -53 -154 -135 -179z" />
    <glyph glyph-name="four.linTab" horiz-adv-x="646" 
d="M609 283v-89h-115v-194h-133v194h-332v95l338 421h127v-427h115zM135 283h226v279z" />
    <glyph glyph-name="five.linTab" horiz-adv-x="646" 
d="M368 452c127 0 212 -74 212 -217c0 -164 -119 -251 -276 -251c-136 0 -216 56 -258 85l48 98c47 -30 119 -74 201 -74c88 0 144 50 144 139c0 85 -51 128 -122 128c-80 0 -124 -48 -151 -75l-77 32l42 393h403v-107h-306l-24 -207c36 30 91 56 164 56z" />
    <glyph glyph-name="six.linTab" horiz-adv-x="646" 
d="M384 441c119 0 215 -75 215 -216c0 -145 -100 -241 -261 -241c-175 0 -277 124 -277 330c0 247 125 411 342 411c48 0 86 -8 120 -18l-11 -105c-28 9 -58 16 -93 16c-128 0 -215 -99 -221 -266c42 55 104 89 186 89zM335 88c78 0 126 51 126 133c0 83 -52 126 -121 126
c-62 0 -116 -34 -141 -107c8 -90 50 -152 136 -152z" />
    <glyph glyph-name="seven.linTab" horiz-adv-x="646" 
d="M90 710h480v-79c-82 -120 -225 -362 -261 -631h-146c45 261 175 478 259 602h-332v108z" />
    <glyph glyph-name="eight.linTab" horiz-adv-x="646" 
d="M426 390c88 -39 172 -89 172 -196c0 -127 -104 -209 -274 -209s-271 77 -271 200c0 100 83 153 157 181c-62 36 -111 86 -111 174c0 111 89 185 229 185s229 -73 229 -174c0 -81 -61 -133 -131 -161zM328 635c-56 0 -102 -32 -102 -89c0 -62 59 -94 129 -125
c40 27 78 68 78 120c0 61 -49 94 -105 94zM325 82c73 0 130 42 130 102c0 76 -82 107 -167 144c-60 -25 -99 -72 -99 -130c1 -73 63 -116 136 -116z" />
    <glyph glyph-name="nine.linTab" horiz-adv-x="646" 
d="M308 726c175 0 277 -124 277 -330c0 -247 -125 -411 -342 -411c-48 0 -86 8 -120 18l11 105c28 -9 58 -16 93 -16c128 0 215 99 221 266c-42 -55 -104 -89 -186 -89c-119 0 -215 75 -215 216c0 145 100 241 261 241zM306 363c62 0 116 34 141 107c-8 90 -50 152 -136 152
c-78 0 -126 -51 -126 -133c0 -83 52 -126 121 -126z" />
    <glyph glyph-name="colon.cap" horiz-adv-x="275" 
d="M137 464c-48 0 -84 29 -84 77s36 81 84 81c49 0 84 -33 84 -81s-35 -77 -84 -77zM137 88c-48 0 -84 29 -84 78c0 48 36 80 84 80c49 0 84 -32 84 -80c0 -49 -35 -78 -84 -78z" />
    <glyph glyph-name="colonmonetary" unicode="&#x20a1;" horiz-adv-x="660" 
d="M630 71c-46 -44 -109 -77 -203 -85l-13 -90h-75l13 91c-32 3 -63 10 -92 20l-17 -111h-75l22 148c-90 62 -146 170 -146 311c0 189 100 319 245 358l15 98h75l-12 -86h17c28 0 54 -2 77 -6l14 92h75l-17 -112c30 -12 56 -28 78 -45l-40 -118c-16 14 -34 28 -56 39
l-68 -459c64 9 108 37 143 72zM183 357c0 -147 86 -228 189 -242l71 482c-13 2 -27 3 -42 3c-111 0 -218 -82 -218 -243z" />
    <glyph glyph-name="cent.bar" horiz-adv-x="520" 
d="M497 46c-26 -19 -72 -52 -150 -59v-91h-75v91c-147 16 -228 124 -228 270c0 145 90 250 228 267v91h75v-91c62 -6 110 -28 138 -52l-37 -105c-21 18 -56 35 -101 40v-302c49 4 83 22 111 43zM181 257c0 -66 34 -122 91 -143v285c-57 -20 -91 -75 -91 -142z" />
    <glyph glyph-name="colonmonetary.bar" horiz-adv-x="660" 
d="M630 71c-42 -40 -99 -71 -179 -82l-14 -93h-75l13 89c-27 1 -53 5 -78 11l-15 -100h-76l19 127c-110 56 -181 173 -181 332c0 206 119 341 285 366l13 90h76l-13 -86c29 -2 55 -5 79 -11l14 97h75l-18 -122c21 -10 39 -22 56 -35l-40 -118c-10 9 -22 19 -35 27l-66 -443
c52 12 89 38 120 68zM317 130c24 -10 50 -16 77 -17l72 479c-20 5 -42 8 -65 8h-14zM183 357c0 -80 25 -140 65 -181l60 403c-71 -33 -125 -108 -125 -222z" />
    <glyph glyph-name="dollar.bar" horiz-adv-x="564" 
d="M527 197c0 -127 -86 -199 -205 -211v-85h-74v85c-109 9 -178 59 -225 135l70 80c42 -52 90 -95 155 -106v207c-90 41 -192 90 -192 222c0 119 85 188 192 200v85h74v-85c88 -9 148 -50 189 -111l-73 -78c-34 37 -68 69 -116 79v-192c94 -43 205 -91 205 -225zM190 539
c0 -36 23 -60 58 -81v154c-36 -11 -58 -37 -58 -73zM322 99c40 11 64 40 64 79c0 40 -26 65 -64 87v-166z" />
    <glyph glyph-name="u1F16A" unicode="&#x1f16a;" horiz-adv-x="799" 
d="M341 198l74 323h27l-75 -323h-26zM713 261c11 -2 17 1 26 6l7 -22c-7 -7 -20 -12 -36 -10c-50 -2 -73 54 -73 142s23 144 73 144c16 0 29 -5 36 -10l-7 -22c-9 3 -15 6 -26 6c-28 0 -49 -28 -49 -117c0 -91 21 -119 49 -117zM143 515v-24h-35v-251h-24v251h-36v24h95z
M278 515h27l17 -275h-26l-12 196l-37 -196h-16l-37 193l-12 -193h-23l16 275h27l38 -196zM575 515h28l15 -275h-24l-13 193l-36 -193h-16l-38 196l-11 -196h-25l17 275h27l38 -196z" />
    <glyph glyph-name="copyright.cap" horiz-adv-x="360" 
d="M184 450c-69 0 -136 51 -136 137c0 87 67 138 136 138c70 0 138 -51 138 -138c0 -86 -68 -137 -138 -137zM184 470c56 0 114 38 114 117c0 81 -58 118 -114 118c-54 0 -112 -37 -112 -118c0 -79 58 -117 112 -117zM186 518c-35 0 -63 24 -63 70s28 71 63 71
c17 0 28 -5 38 -12l-9 -21c-7 5 -15 8 -27 8c-22 0 -39 -13 -39 -46s16 -46 39 -46c15 0 23 4 32 11l9 -20c-11 -10 -23 -15 -43 -15z" />
    <glyph glyph-name="registered.cap" horiz-adv-x="360" 
d="M184 725c70 0 138 -51 138 -138c0 -86 -68 -137 -138 -137c-69 0 -136 51 -136 137c0 87 67 138 136 138zM184 470c56 0 114 38 114 117c0 81 -58 118 -114 118c-54 0 -112 -37 -112 -118c0 -79 58 -117 112 -117zM237 613c0 -20 -12 -34 -29 -40l33 -49h-31l-27 46h-16
v-46h-26v128h48c28 0 48 -12 48 -39zM167 631v-44h17c14 0 25 8 25 24c0 14 -10 20 -25 20h-17z" />
    <glyph glyph-name="copyright.star" horiz-adv-x="803" 
d="M368 -15c-185 0 -368 136 -368 370s183 370 368 370c186 0 369 -136 369 -370s-183 -370 -369 -370zM368 25c157 0 322 110 322 330s-165 330 -322 330s-321 -110 -321 -330s164 -330 321 -330zM382 134c-114 0 -205 78 -205 227c0 150 92 228 205 228
c55 0 90 -15 123 -38l-14 -53c-29 21 -55 32 -105 32c-71 0 -144 -48 -144 -168s70 -169 144 -169c57 0 88 16 118 45l17 -54c-34 -30 -74 -50 -139 -50zM390 461l-21 -62l-63 -1l49 -41l-17 -62l52 37l53 -37l-17 62l50 41l-64 1z" />
    <glyph glyph-name="copyright.x" horiz-adv-x="360" 
d="M184 251c-69 0 -136 51 -136 137c0 87 67 138 136 138c70 0 138 -51 138 -138c0 -86 -68 -137 -138 -137zM184 271c56 0 114 38 114 117c0 81 -58 118 -114 118c-54 0 -112 -37 -112 -118c0 -79 58 -117 112 -117zM186 319c-35 0 -63 24 -63 70s28 71 63 71
c17 0 28 -5 38 -12l-9 -21c-7 5 -15 8 -27 8c-22 0 -39 -13 -39 -46s16 -46 39 -46c15 0 23 4 32 11l9 -20c-11 -10 -23 -15 -43 -15z" />
    <glyph glyph-name="registered.x" horiz-adv-x="360" 
d="M184 526c70 0 138 -51 138 -138c0 -86 -68 -137 -138 -137c-69 0 -136 51 -136 137c0 87 67 138 136 138zM184 271c56 0 114 38 114 117c0 81 -58 118 -114 118c-54 0 -112 -37 -112 -118c0 -79 58 -117 112 -117zM237 414c0 -20 -12 -34 -29 -40l33 -49h-31l-27 46h-16
v-46h-26v128h48c28 0 48 -12 48 -39zM167 432v-44h17c14 0 25 8 25 24c0 14 -10 20 -25 20h-17z" />
    <glyph glyph-name="trademark.x" horiz-adv-x="658" 
d="M249 510v-54h-68v-221h-64v221h-69v54h201zM610 235h-60l-24 192l-67 -192h-43l-66 191l-22 -191h-56l31 275h71l66 -186l66 186h73z" />
    <glyph glyph-name="uni0308" unicode="&#x308;" 
d="M-331 579c-40 0 -68 26 -68 67c0 42 28 71 68 71s68 -29 68 -71c0 -41 -28 -67 -68 -67zM-117 579c-40 0 -68 26 -68 67c0 42 28 71 68 71s67 -29 67 -71c0 -41 -27 -67 -67 -67z" />
    <glyph glyph-name="uni0307" unicode="&#x307;" 
d="M-132 602c-48 0 -82 28 -82 70c0 44 34 73 82 73c49 0 82 -29 82 -73c0 -42 -33 -70 -82 -70z" />
    <glyph glyph-name="gravecomb" unicode="&#x300;" 
d="M-276 730h121l105 -154h-102z" />
    <glyph glyph-name="acutecomb" unicode="&#x301;" 
d="M-275 576l104 154h121l-122 -154h-103z" />
    <glyph glyph-name="uni030B" unicode="&#x30b;" 
d="M-480 576l109 154h124l-130 -154h-103zM-283 576l109 154h124l-130 -154h-103z" />
    <glyph glyph-name="uni030C.alt" 
d="M-154 750h104l-37 -167h-83z" />
    <glyph glyph-name="uni0302" unicode="&#x302;" 
d="M-50 576h-103l-67 91l-67 -91h-103l105 154h130z" />
    <glyph glyph-name="uni030C" unicode="&#x30c;" 
d="M-153 730h103l-106 -154h-128l-106 154h103l67 -91z" />
    <glyph glyph-name="uni0306" unicode="&#x306;" 
d="M-205 573c-96 0 -152 51 -154 157h82c5 -59 31 -85 72 -85s67 26 72 85h83c-8 -106 -61 -157 -155 -157z" />
    <glyph glyph-name="uni030A" unicode="&#x30a;" 
d="M-154 579c-62 0 -105 40 -105 97c0 60 43 101 105 101s104 -41 104 -101c0 -57 -42 -97 -104 -97zM-154 631c28 0 48 19 48 47c0 27 -20 47 -48 47c-29 0 -49 -20 -49 -48c0 -27 20 -46 49 -46z" />
    <glyph glyph-name="tildecomb" unicode="&#x303;" 
d="M-146 587c-56 0 -115 45 -152 45c-22 0 -32 -16 -34 -42h-60c4 76 33 124 97 124c57 0 113 -45 151 -45c22 0 32 16 34 41h60c-4 -76 -33 -123 -96 -123z" />
    <glyph glyph-name="uni0304" unicode="&#x304;" 
d="M-317 683h267v-78h-267v78z" />
    <glyph glyph-name="uni0312" unicode="&#x312;" 
d="M-98 679c27 -5 45 -24 45 -52c0 -33 -26 -55 -58 -55s-58 18 -58 62c0 55 36 111 81 151l38 -35c-21 -22 -40 -48 -48 -71z" />
    <glyph glyph-name="uni0326" unicode="&#x326;" 
d="M-108 -50c32 0 58 -18 58 -62c0 -55 -36 -112 -81 -151l-38 35c21 21 40 48 48 71c-27 5 -45 24 -45 52c0 33 26 55 58 55z" />
    <glyph glyph-name="uni0327" unicode="&#x327;" 
d="M-195 -224c-46 0 -89 14 -124 40l34 52c30 -21 60 -32 86 -32c27 0 47 11 47 33c0 20 -14 30 -40 30c-16 0 -26 -3 -39 -7l-40 25l69 83h73l-44 -52c8 3 20 5 35 5c56 0 88 -36 88 -79c0 -61 -54 -98 -145 -98z" />
    <glyph glyph-name="uni0328" unicode="&#x328;" 
d="M-171 -222c-80 0 -126 45 -126 108c0 56 32 97 103 129l98 -15c-55 -18 -96 -52 -96 -91c0 -26 16 -40 41 -40c24 0 40 7 61 24l40 -67c-27 -29 -65 -48 -121 -48z" />
    <glyph glyph-name="acute" unicode="&#xb4;" horiz-adv-x="600" 
d="M49 576l104 154h122l-123 -154h-103z" />
    <glyph glyph-name="breve" unicode="&#x2d8;" horiz-adv-x="600" 
d="M240 573c-96 0 -152 51 -154 157h82c5 -59 31 -85 72 -85s67 26 72 85h83c-8 -106 -61 -157 -155 -157z" />
    <glyph glyph-name="caron" unicode="&#x2c7;" horiz-adv-x="600" 
d="M320 730h103l-106 -154h-128l-106 154h104l66 -90z" />
    <glyph glyph-name="cedilla" unicode="&#xb8;" horiz-adv-x="600" 
d="M212 -224c-47 0 -90 14 -125 40l34 52c31 -21 60 -32 86 -32c27 0 47 11 47 33c0 20 -13 30 -40 30c-15 0 -26 -3 -39 -7l-40 25l69 83h73l-43 -52c8 3 19 5 35 5c55 0 87 -36 87 -79c0 -61 -54 -98 -144 -98z" />
    <glyph glyph-name="circumflex" unicode="&#x2c6;" horiz-adv-x="600" 
d="M423 576h-103l-66 91l-67 -91h-104l105 154h130z" />
    <glyph glyph-name="dieresis" unicode="&#xa8;" horiz-adv-x="600" 
d="M151 579c-39 0 -68 26 -68 67c0 42 29 71 68 71c40 0 68 -29 68 -71c0 -41 -28 -67 -68 -67zM365 579c-40 0 -68 26 -68 67c0 42 28 71 68 71s67 -29 67 -71c0 -41 -27 -67 -67 -67z" />
    <glyph glyph-name="dotaccent" unicode="&#x2d9;" horiz-adv-x="600" 
d="M165 602c-47 0 -82 28 -82 70c0 44 35 73 82 73c49 0 82 -29 82 -73c0 -42 -33 -70 -82 -70z" />
    <glyph glyph-name="grave" unicode="`" horiz-adv-x="600" 
d="M99 730h122l104 -154h-102z" />
    <glyph glyph-name="hungarumlaut" unicode="&#x2dd;" horiz-adv-x="600" 
d="M83 576l109 154h124l-129 -154h-104zM281 576l108 154h124l-130 -154h-102z" />
    <glyph glyph-name="macron" unicode="&#xaf;" horiz-adv-x="600" 
d="M83 683h267v-78h-267v78z" />
    <glyph glyph-name="ogonek" unicode="&#x2db;" horiz-adv-x="600" 
d="M224 -222c-80 0 -126 45 -126 108c0 56 32 97 103 129l98 -15c-55 -18 -96 -52 -96 -91c0 -26 16 -40 41 -40c24 0 40 7 61 24l40 -67c-27 -29 -65 -48 -121 -48z" />
    <glyph glyph-name="ring" unicode="&#x2da;" horiz-adv-x="600" 
d="M189 579c-63 0 -106 40 -106 97c0 60 43 101 106 101c62 0 104 -41 104 -101c0 -57 -42 -97 -104 -97zM188 631c29 0 48 19 48 47c0 27 -19 47 -48 47s-48 -20 -48 -48c0 -27 19 -46 48 -46z" />
    <glyph glyph-name="tilde" unicode="&#x2dc;" horiz-adv-x="600" 
d="M329 587c-56 0 -115 45 -151 45c-23 0 -32 -16 -35 -42h-60c4 76 33 124 97 124c58 0 113 -45 151 -45c22 0 32 16 35 41h60c-5 -76 -34 -123 -97 -123z" />
    <glyph glyph-name="uni0308.case" 
d="M-368 771c-36 0 -61 23 -61 61c0 37 25 63 61 63s61 -26 61 -63c0 -38 -25 -61 -61 -61zM-171 771c-37 0 -62 23 -62 61c0 37 25 63 62 63c35 0 60 -26 60 -63c0 -38 -25 -61 -60 -61z" />
    <glyph glyph-name="uni0307.case" 
d="M-274 776c-41 0 -71 23 -71 61s30 65 71 65c42 0 72 -27 72 -65s-30 -61 -72 -61z" />
    <glyph glyph-name="gravecomb.case" 
d="M-333 767l-162 124h125l147 -124h-110z" />
    <glyph glyph-name="acutecomb.case" 
d="M-229 891h125l-161 -124h-111z" />
    <glyph glyph-name="uni030B.case" 
d="M-362 891h130l-166 -124h-109zM-158 891h130l-166 -124h-110z" />
    <glyph glyph-name="uni0302.case" 
d="M-101 767h-107l-71 78l-73 -78h-106l122 124h114z" />
    <glyph glyph-name="uni030C.case" 
d="M-237 891h107l-121 -124h-114l-122 124h106l73 -78z" />
    <glyph glyph-name="uni0306.case" 
d="M-255 764c-96 0 -151 48 -155 127h83c7 -40 32 -61 72 -61c41 0 66 21 72 61h83c-8 -79 -61 -127 -155 -127z" />
    <glyph glyph-name="uni030A.case" 
d="M-249 762c-59 0 -98 37 -98 91c0 56 39 94 98 94c58 0 96 -39 96 -95c0 -53 -39 -90 -96 -90zM-250 810c28 0 46 17 46 43c0 27 -18 46 -46 46s-46 -19 -46 -46c0 -26 19 -43 46 -43z" />
    <glyph glyph-name="tildecomb.case" 
d="M-175 765c-56 0 -114 44 -150 44c-22 0 -32 -15 -34 -40h-59c3 74 32 121 95 121c57 0 112 -44 150 -44c21 0 31 16 34 41h59c-4 -75 -33 -122 -95 -122z" />
    <glyph glyph-name="uni0304.case" 
d="M-392 863h284v-79h-284v79z" />
    <glyph glyph-name="uni0326.case" 
d="M-139 -57c33 0 58 -18 58 -62c0 -54 -35 -111 -80 -151l-38 35c20 22 39 48 48 71c-27 5 -46 24 -46 52c0 33 26 55 58 55z" />
    <glyph glyph-name="uni0327.case" 
d="M-264 -224c-46 0 -89 14 -124 40l34 52c30 -21 60 -32 86 -32c27 0 47 11 47 33c0 20 -14 30 -40 30c-16 0 -26 -3 -39 -7l-40 25l69 83h73l-44 -52c8 3 20 5 35 5c56 0 88 -29 88 -79c0 -61 -54 -98 -145 -98z" />
    <glyph glyph-name="uni0328.case" 
d="M-285 -222c-80 0 -126 45 -126 108c0 56 32 97 103 129l98 -15c-55 -18 -96 -52 -96 -91c0 -26 16 -40 41 -40c24 0 40 7 61 24l40 -67c-27 -29 -65 -48 -121 -48z" />
    <glyph glyph-name="bowl" horiz-adv-x="618" 
d="M243 -16c-132 0 -235 100 -235 271c0 172 102 271 235 271c150 0 209 -121 209 -271c0 -151 -58 -271 -209 -271zM279 97c84 0 135 71 134 158c0 88 -50 158 -134 158c-86 0 -136 -63 -136 -158s50 -158 136 -158z" />
    </font>
</defs>
</svg>
