<?xml version="1.0" standalone="no"?>
<!DOCTYPE svg PUBLIC "-//W3C//DTD SVG 1.1//EN" "http://www.w3.org/Graphics/SVG/1.1/DTD/svg11.dtd" >
<svg xmlns="http://www.w3.org/2000/svg" xmlns:xlink="http://www.w3.org/1999/xlink" version="1.1">
<metadata>
Created by FontForge 20190801 at Thu May 23 12:49:37 2019
 By Jimmy Wärting
copyright missing
</metadata>
<defs>
<font id="SoDoSans-Black" horiz-adv-x="0" >
  <font-face 
    font-family="SoDo Sans Black"
    font-weight="900"
    font-stretch="normal"
    units-per-em="1000"
    panose-1="0 0 10 0 0 0 0 0 0 0"
    ascent="800"
    descent="-200"
    x-height="529"
    cap-height="710"
    bbox="-594 -320 1506 973"
    underline-thickness="50"
    underline-position="-100"
    stemh="93"
    stemv="212"
    unicode-range="U+0020-1F16A"
  />
<missing-glyph horiz-adv-x="458" 
d="M375 750v-915h-290v915h290zM305 689h-151v-30h59v-34h-60v-31h152v31h-61v34h61v30zM244 571h-91v-95h152v31h-61v64zM213 540v-33h-30v33h30zM305 451h-152v-30h60v-34h-60v-30h91v64h61v30zM305 396h-30v-60h-122v-32h152v92zM305 284h-92v-51h31v21h31v-43h-92v73
h-30v-103h152v103zM305 126h-152v-103h152v103zM275 96v-43h-92v43h92zM305 2h-152v-31h64l-64 -43v-30h152v30h-94l64 43h30v31z" />
    <glyph glyph-name=".notdef" horiz-adv-x="458" 
d="M375 750v-915h-290v915h290zM305 689h-151v-30h59v-34h-60v-31h152v31h-61v34h61v30zM244 571h-91v-95h152v31h-61v64zM213 540v-33h-30v33h30zM305 451h-152v-30h60v-34h-60v-30h91v64h61v30zM305 396h-30v-60h-122v-32h152v92zM305 284h-92v-51h31v21h31v-43h-92v73
h-30v-103h152v103zM305 126h-152v-103h152v103zM275 96v-43h-92v43h92zM305 2h-152v-31h64l-64 -43v-30h152v30h-94l64 43h30v31z" />
    <glyph glyph-name="space" unicode=" " horiz-adv-x="187" 
 />
    <glyph glyph-name="uni2009" unicode="&#x2009;" horiz-adv-x="42" 
 />
    <glyph glyph-name="A" unicode="A" horiz-adv-x="744" 
d="M500 0l-38 126h-209l-39 -126h-214l248 710h249l247 -710h-244zM294 261h126l-63 207z" />
    <glyph glyph-name="B" unicode="B" horiz-adv-x="721" 
d="M554 362c87 -20 137 -68 137 -161c0 -131 -99 -201 -285 -201h-332v710h312c186 0 280 -69 280 -201c0 -86 -40 -128 -112 -147zM372 546h-78v-132h78c49 0 68 31 68 69s-21 63 -68 63zM386 164c47 0 74 31 74 70s-26 62 -74 62h-92v-132h92z" />
    <glyph glyph-name="C" unicode="C" horiz-adv-x="637" 
d="M403 -18c-235 0 -366 148 -366 373s138 373 366 373c77 0 146 -24 191 -45l-37 -199c-28 13 -71 29 -128 29c-87 0 -159 -56 -159 -158s57 -158 160 -158c65 0 103 18 136 31l38 -198c-43 -20 -108 -48 -201 -48z" />
    <glyph glyph-name="D" unicode="D" horiz-adv-x="765" 
d="M74 710h285c221 0 369 -106 369 -355s-148 -355 -369 -355h-285v710zM359 188c80 0 137 52 137 167s-57 167 -137 167h-65v-334h65z" />
    <glyph glyph-name="E" unicode="E" horiz-adv-x="579" 
d="M521 526h-227v-82h195v-162h-195v-98h227v-184h-447v710h447v-184z" />
    <glyph glyph-name="F" unicode="F" horiz-adv-x="572" 
d="M521 522h-227v-119h200v-168h-200v-235h-220v710h447v-188z" />
    <glyph glyph-name="G" unicode="G" horiz-adv-x="777" 
d="M408 413h336v-84c0 -246 -150 -347 -344 -347s-363 135 -363 373s169 373 358 373c152 0 250 -63 313 -173l-178 -90c-25 43 -69 70 -118 70c-84 0 -143 -73 -143 -180c0 -112 58 -186 146 -186c68 0 120 34 129 95h-136v149z" />
    <glyph glyph-name="H" unicode="H" horiz-adv-x="767" 
d="M473 710h220v-710h-220v271h-179v-271h-220v710h220v-261h179v261z" />
    <glyph glyph-name="I" unicode="I" horiz-adv-x="368" 
d="M74 710h220v-710h-220v710z" />
    <glyph glyph-name="J" unicode="J" horiz-adv-x="469" 
d="M158 -9c-64 0 -118 13 -144 19l16 179c18 -3 42 -9 68 -9c62 0 85 40 85 106v424h220v-470c0 -190 -109 -249 -245 -249z" />
    <glyph glyph-name="K" unicode="K" horiz-adv-x="745" 
d="M471 0l-144 216l-33 -42v-174h-220v710h220v-269l185 269h241l-238 -321l261 -389h-272z" />
    <glyph glyph-name="L" unicode="L" horiz-adv-x="531" 
d="M294 188h192v-188h-412v710h220v-522z" />
    <glyph glyph-name="M" unicode="M" horiz-adv-x="1018" 
d="M969 0h-210l-55 407l-132 -407h-151l-131 408l-46 -408h-195l77 710h249l131 -395l131 395h255z" />
    <glyph glyph-name="N" unicode="N" horiz-adv-x="767" 
d="M503 710h190v-710h-217l-212 361v-361h-190v710h226l203 -311v311z" />
    <glyph glyph-name="O" unicode="O" horiz-adv-x="801" 
d="M400 -18c-201 0 -363 148 -363 373s162 373 363 373s364 -148 364 -373s-163 -373 -364 -373zM400 188c70 0 132 52 132 167s-62 167 -132 167s-130 -52 -130 -167s60 -167 130 -167z" />
    <glyph glyph-name="P" unicode="P" horiz-adv-x="696" 
d="M391 710c186 0 285 -88 285 -251s-98 -282 -285 -282h-97v-177h-220v710h317zM341 344c74 0 104 44 104 97s-32 85 -104 85h-47v-182h47z" />
    <glyph glyph-name="Q" unicode="Q" horiz-adv-x="801" 
d="M773 9l-169 -115l-84 107c-37 -12 -78 -19 -120 -19c-201 0 -363 148 -363 373s162 373 363 373s364 -148 364 -373c0 -94 -28 -175 -76 -237zM270 355c0 -115 60 -167 130 -167s132 52 132 167s-62 167 -132 167s-130 -52 -130 -167z" />
    <glyph glyph-name="R" unicode="R" horiz-adv-x="730" 
d="M455 0l-131 222h-30v-222h-220v710h331c186 0 285 -86 285 -236c0 -108 -50 -191 -148 -229l166 -245h-253zM294 526v-162h59c74 0 104 34 104 87s-32 75 -104 75h-59z" />
    <glyph glyph-name="S" unicode="S" horiz-adv-x="612" 
d="M317 -18c-156 0 -242 50 -302 101l72 152c63 -37 127 -77 199 -77c46 0 69 16 69 41c0 29 -31 41 -77 54c-94 27 -240 61 -240 239c0 169 139 236 272 236s207 -38 260 -90l-75 -143c-63 34 -112 59 -168 59c-41 0 -68 -14 -68 -38c0 -27 34 -39 80 -52
c97 -29 249 -64 249 -230c0 -173 -118 -252 -271 -252z" />
    <glyph glyph-name="T" unicode="T" horiz-adv-x="602" 
d="M573 710v-188h-162v-522h-220v522h-162v188h544z" />
    <glyph glyph-name="U" unicode="U" horiz-adv-x="739" 
d="M368 -18c-166 0 -302 77 -302 267v461h220v-422c-1 -66 20 -106 82 -106s85 40 85 106v422h220v-461c0 -190 -134 -267 -305 -267z" />
    <glyph glyph-name="V" unicode="V" horiz-adv-x="694" 
d="M473 710h216l-218 -710h-249l-217 710h242l113 -429z" />
    <glyph glyph-name="W" unicode="W" horiz-adv-x="1152" 
d="M931 710h216l-241 -710h-199l-131 407l-132 -407h-199l-240 710h242l121 -401l125 401h192l125 -401z" />
    <glyph glyph-name="X" unicode="X" horiz-adv-x="697" 
d="M693 710l-217 -360l216 -350h-245l-116 189l-111 -189h-223l224 367l-211 343h244l116 -188l98 188h225z" />
    <glyph glyph-name="Y" unicode="Y" horiz-adv-x="659" 
d="M669 710l-232 -448v-262h-220v260l-232 450h242l113 -232l113 232h216z" />
    <glyph glyph-name="Z" unicode="Z" horiz-adv-x="605" 
d="M39 184l264 342h-249v184h505v-184l-274 -342h291v-184h-537v184z" />
    <glyph glyph-name="a" unicode="a" horiz-adv-x="619" 
d="M572 0h-208c-5 12 -12 35 -14 58c-35 -46 -96 -76 -158 -76c-99 0 -167 57 -167 158c0 123 91 179 324 181v8c0 40 -31 53 -82 53c-49 0 -98 -11 -142 -35l-68 132c55 43 137 68 255 68c126 0 249 -36 249 -221v-255c0 -24 2 -52 11 -71zM294 132c22 0 38 9 55 24v78
c-76 -4 -98 -26 -98 -61c0 -25 17 -41 43 -41z" />
    <glyph glyph-name="b" unicode="b" horiz-adv-x="675" 
d="M414 547c134 0 236 -95 236 -282c0 -186 -104 -283 -236 -283c-75 0 -127 31 -161 81v-63h-196v750h214v-261c33 36 80 58 143 58zM340 161c53 0 82 41 82 104c0 64 -29 103 -82 103s-87 -42 -87 -103c0 -56 34 -104 87 -104z" />
    <glyph glyph-name="c" unicode="c" horiz-adv-x="528" 
d="M25 265c0 171 111 282 291 282c85 0 152 -22 184 -44l-42 -173c-21 9 -58 21 -106 21c-56 0 -99 -33 -99 -86s38 -86 108 -86c46 0 78 11 104 19l45 -169c-40 -17 -98 -47 -194 -47c-185 0 -291 112 -291 283z" />
    <glyph glyph-name="d" unicode="d" horiz-adv-x="675" 
d="M404 750h214v-750h-196l-4 59c-33 -47 -84 -76 -157 -76c-132 0 -236 97 -236 283c0 187 102 282 236 282c63 0 110 -22 143 -58v260zM335 162c53 0 87 48 87 104c0 61 -34 103 -87 103s-82 -39 -82 -103c0 -63 29 -104 82 -104z" />
    <glyph glyph-name="e" unicode="e" horiz-adv-x="613" 
d="M586 298v-71h-332c22 -60 81 -65 132 -65c55 0 92 8 128 20l47 -160c-60 -28 -136 -40 -212 -40c-209 0 -324 103 -324 277c0 180 123 288 294 288c159 0 267 -90 267 -249zM314 393c-32 0 -57 -25 -65 -73h126c-6 50 -29 73 -61 73z" />
    <glyph glyph-name="f" unicode="f" horiz-adv-x="458" 
d="M364 602c-38 0 -54 -12 -54 -41v-32h104v-163h-104v-366h-212v366h-67v163h67v53c0 119 58 186 224 186c40 0 83 -3 103 -7v-162c-20 2 -42 3 -61 3z" />
    <glyph glyph-name="g" unicode="g" horiz-adv-x="626" 
d="M448 129c132 0 170 -76 170 -144c0 -83 -57 -187 -349 -187c-158 0 -275 30 -275 104c0 55 62 70 116 77c-49 13 -96 41 -96 99c0 63 50 97 112 129c-63 31 -100 83 -100 155c0 117 107 188 268 188c64 0 121 -11 166 -30l88 87l110 -109l-99 -64c11 -22 17 -46 17 -72
c0 -123 -114 -189 -280 -189c-30 0 -59 2 -85 7c-7 -5 -12 -12 -12 -23c0 -20 17 -28 65 -28h184zM302 427c-34 0 -59 -25 -59 -65c0 -42 25 -68 59 -68s56 26 56 68c0 40 -22 65 -56 65zM298 -103c70 0 107 14 107 39c0 20 -15 33 -56 33h-150c-5 -7 -9 -15 -9 -24
c0 -25 25 -48 108 -48z" />
    <glyph glyph-name="h" unicode="h" horiz-adv-x="671" 
d="M450 547c126 0 164 -84 164 -191v-356h-212v282c0 54 -13 83 -58 83c-28 0 -55 -18 -75 -46v-319h-212v750h212v-306c31 57 85 103 181 103z" />
    <glyph glyph-name="i" unicode="i" horiz-adv-x="362" 
d="M181 581c-73 0 -124 40 -124 103c0 64 51 105 124 105c74 0 124 -41 124 -105c0 -63 -50 -103 -124 -103zM75 529h212v-529h-212v529z" />
    <glyph glyph-name="j" unicode="j" horiz-adv-x="362" 
d="M181 581c-73 0 -124 40 -124 103c0 64 51 105 124 105c74 0 124 -41 124 -105c0 -63 -50 -103 -124 -103zM-40 -200v162c20 -2 42 -3 55 -3c44 0 60 27 60 61v509h212v-530c0 -119 -58 -206 -224 -206c-40 0 -83 3 -103 7z" />
    <glyph glyph-name="k" unicode="k" horiz-adv-x="645" 
d="M413 0l-112 160l-32 -36v-124h-212v750h212v-392l135 171h235l-198 -216l224 -313h-252z" />
    <glyph glyph-name="l" unicode="l" horiz-adv-x="326" 
d="M57 750h212v-750h-212v750z" />
    <glyph glyph-name="m" unicode="m" horiz-adv-x="1001" 
d="M780 547c126 0 164 -84 164 -191v-356h-212v282c0 54 -13 83 -58 83c-29 0 -52 -19 -69 -48v-317h-212v282c0 54 -13 83 -58 83c-27 0 -49 -17 -66 -43v-322h-212v529h212v-80c28 54 79 98 172 98c96 0 141 -49 157 -119c26 63 76 119 182 119z" />
    <glyph glyph-name="n" unicode="n" horiz-adv-x="671" 
d="M450 547c126 0 164 -84 164 -191v-356h-212v282c0 54 -13 83 -58 83c-29 0 -56 -20 -75 -51v-314h-212v529h212v-85c31 57 85 103 181 103z" />
    <glyph glyph-name="o" unicode="o" horiz-adv-x="653" 
d="M326 -18c-163 0 -301 104 -301 283c0 181 139 282 302 282s301 -101 301 -282c0 -179 -139 -283 -302 -283zM326 169c46 0 74 41 74 96c0 56 -28 95 -74 95s-73 -39 -73 -95c0 -55 26 -96 73 -96z" />
    <glyph glyph-name="p" unicode="p" horiz-adv-x="691" 
d="M430 549c132 0 236 -97 236 -283c0 -187 -102 -282 -236 -282c-75 0 -127 31 -161 80v-229h-212v684h196v-78c32 65 89 108 177 108zM356 163c53 0 82 39 82 103c0 63 -29 104 -82 104s-87 -48 -87 -104c0 -61 34 -103 87 -103z" />
    <glyph glyph-name="q" unicode="q" horiz-adv-x="691" 
d="M439 519h195v-684h-213v229c-34 -48 -86 -79 -160 -79c-134 0 -236 95 -236 282c0 186 104 283 236 283c85 0 141 -40 174 -102zM335 164c53 0 87 42 87 103c0 56 -34 104 -87 104s-82 -41 -82 -104c0 -64 29 -103 82 -103z" />
    <glyph glyph-name="r" unicode="r" horiz-adv-x="486" 
d="M269 394c27 83 92 144 177 144v-228c-97 3 -177 -21 -177 -150v-160h-212v529h212v-135z" />
    <glyph glyph-name="s" unicode="s" horiz-adv-x="531" 
d="M266 -18c-113 0 -198 28 -251 72l62 127c56 -24 109 -51 176 -51c26 0 41 7 41 23c0 23 -30 26 -79 36c-78 16 -183 48 -183 176c0 137 114 182 239 182c92 0 176 -24 224 -63l-64 -119c-57 25 -101 40 -149 40c-29 0 -45 -6 -45 -22c0 -20 27 -24 72 -34
c92 -20 201 -45 201 -170c0 -136 -91 -197 -244 -197z" />
    <glyph glyph-name="t" unicode="t" horiz-adv-x="485" 
d="M444 169l3 -172c-19 -5 -96 -15 -153 -15c-189 0 -206 84 -206 205v179h-74v163h74v110l212 36v-146h128v-163h-128v-142c0 -46 14 -61 60 -61c33 0 67 3 84 6z" />
    <glyph glyph-name="u" unicode="u" horiz-adv-x="630" 
d="M314 -18c-162 0 -267 55 -267 230v317h212v-319c0 -31 13 -58 55 -58s57 27 57 58v319h212v-317c0 -175 -107 -230 -269 -230z" />
    <glyph glyph-name="v" unicode="v" horiz-adv-x="590" 
d="M385 529h210l-192 -529h-225l-188 529h214l90 -316z" />
    <glyph glyph-name="w" unicode="w" horiz-adv-x="877" 
d="M687 529h195l-177 -529h-190l-94 296l-83 -296h-190l-158 529h212l68 -283l76 283h182l82 -291z" />
    <glyph glyph-name="x" unicode="x" horiz-adv-x="591" 
d="M606 529l-190 -273l180 -256h-229l-88 125l-85 -125h-209l189 274l-179 255h229l90 -127l83 127h209z" />
    <glyph glyph-name="y" unicode="y" horiz-adv-x="575" 
d="M390 529h200l-234 -549c-43 -101 -112 -169 -218 -169c-44 0 -77 6 -100 11l12 158s29 -4 63 -4c45 0 70 12 86 33l-214 520h214l98 -261z" />
    <glyph glyph-name="z" unicode="z" horiz-adv-x="519" 
d="M277 148h219v-148h-474v148l212 233h-197v148h450v-148z" />
    <glyph glyph-name="zero" unicode="0" horiz-adv-x="765" 
d="M382 -18c-201 0 -343 146 -343 371s142 372 343 372s344 -147 344 -372s-143 -371 -344 -371zM382 151c81 0 112 78 112 202s-31 203 -112 203s-110 -79 -110 -203s29 -202 110 -202z" />
    <glyph glyph-name="one" unicode="1" horiz-adv-x="482" 
d="M247 710h134v-710h-220v502l-113 -41v169z" />
    <glyph glyph-name="two" unicode="2" horiz-adv-x="660" 
d="M292 169h307v-169h-543v169c181 142 315 214 315 316c0 42 -23 70 -68 70c-52 0 -74 -36 -93 -97l-171 54c29 146 140 216 285 216c149 0 259 -76 259 -223c0 -190 -191 -282 -291 -336z" />
    <glyph glyph-name="three" unicode="3" horiz-adv-x="604" 
d="M395 368c85 -14 165 -58 165 -171c0 -142 -129 -215 -282 -214c-122 -1 -219 31 -260 53l43 161c55 -19 118 -42 178 -42c62 0 88 30 88 65c0 53 -59 74 -141 74h-45v127h30c106 0 150 31 150 77c0 38 -31 59 -79 59c-46 0 -113 -17 -160 -40l-40 156
c43 30 147 55 245 55c147 0 247 -61 247 -183c0 -92 -59 -152 -139 -177z" />
    <glyph glyph-name="four" unicode="4" horiz-adv-x="685" 
d="M658 305v-121h-98v-184h-220v184h-316v148l324 378h212v-405h98zM161 305h179v196z" />
    <glyph glyph-name="five" unicode="5" horiz-adv-x="669" 
d="M411 461c139 0 221 -76 221 -220c0 -187 -148 -259 -308 -259c-137 0 -234 49 -285 74l62 150c72 -34 141 -56 192 -56c63 0 107 32 107 97s-43 90 -90 90s-84 -34 -109 -57l-122 44l37 386h467v-162h-314l-14 -131c48 37 110 44 156 44z" />
    <glyph glyph-name="six" unicode="6" horiz-adv-x="684" 
d="M437 446c114 0 222 -60 222 -212c0 -162 -114 -252 -301 -252s-319 111 -319 336c0 229 100 407 369 407c69 0 131 -12 185 -31l-31 -157c-41 12 -85 22 -130 22c-98 0 -156 -49 -163 -171c43 34 96 58 168 58zM352 131c54 0 85 33 85 99c0 70 -36 92 -85 92
c-33 0 -59 -10 -84 -42v-30c0 -86 30 -119 84 -119z" />
    <glyph glyph-name="seven" unicode="7" horiz-adv-x="592" 
d="M29 710h534v-128c-92 -128 -197 -326 -222 -582h-242c41 239 147 427 236 546h-306v164z" />
    <glyph glyph-name="eight" unicode="8" horiz-adv-x="662" 
d="M480 400c85 -41 164 -93 164 -192c0 -146 -121 -223 -313 -223s-313 70 -313 211c0 85 76 132 150 156c-59 37 -105 89 -105 181c0 114 100 192 268 192s266 -74 266 -181c0 -73 -52 -119 -117 -144zM334 603c-41 0 -64 -23 -64 -60c0 -40 40 -67 94 -92
c20 24 36 52 36 83c0 44 -25 69 -66 69zM324 119c47 0 80 29 80 64c0 56 -53 83 -117 111c-29 -22 -44 -56 -44 -89c0 -53 34 -86 81 -86z" />
    <glyph glyph-name="nine" unicode="9" horiz-adv-x="684" 
d="M326 728c187 0 319 -111 319 -336c0 -229 -100 -407 -369 -407c-69 0 -131 12 -185 31l31 157c41 -12 85 -22 130 -22c98 0 156 49 163 171c-43 -34 -96 -58 -168 -58c-114 0 -222 60 -222 212c0 162 114 252 301 252zM332 388c33 0 59 10 84 42v30c0 86 -30 119 -84 119
s-85 -33 -85 -99c0 -70 36 -92 85 -92z" />
    <glyph glyph-name="uni00B9" unicode="&#xb9;" horiz-adv-x="276" 
d="M139 710h82v-380h-135v259l-63 -21v98z" />
    <glyph glyph-name="uni00B2" unicode="&#xb2;" horiz-adv-x="363" 
d="M176 433h154v-103h-299v103c100 77 164 105 164 152c0 17 -9 29 -29 29c-23 0 -31 -16 -41 -47l-105 32c16 85 80 121 160 121c81 0 144 -40 144 -122c0 -100 -96 -141 -148 -165z" />
    <glyph glyph-name="uni00B3" unicode="&#xb3;" horiz-adv-x="332" 
d="M221 528c45 -7 87 -30 87 -91c0 -77 -71 -114 -157 -115c-66 -1 -122 15 -144 26l25 99c32 -10 66 -20 95 -20s38 13 38 25c0 23 -30 32 -67 32h-24v77h15c54 0 75 11 75 32c0 15 -14 24 -36 24c-21 0 -59 -8 -85 -19l-22 96c23 15 83 27 136 27c82 0 138 -32 138 -99
c0 -48 -31 -80 -74 -94z" />
    <glyph glyph-name="onequarter" unicode="&#xbc;" horiz-adv-x="822" 
d="M582 725h127l-511 -725h-127zM86 330v259l-63 -21v98l116 44h82v-380h-135zM806 169v-73h-49v-96h-136v96h-166v90l171 194h131v-211h49zM537 169h84v87z" />
    <glyph glyph-name="onehalf" unicode="&#xbd;" horiz-adv-x="837" 
d="M582 725h127l-511 -725h-127zM86 330v259l-63 -21v98l116 44h82v-380h-135zM650 103h154v-103h-299v103c100 77 164 105 164 152c0 17 -9 29 -29 29c-23 0 -31 -16 -41 -47l-105 32c16 85 80 121 160 121c81 0 144 -40 144 -122c0 -100 -96 -141 -148 -165z" />
    <glyph glyph-name="threequarters" unicode="&#xbe;" horiz-adv-x="868" 
d="M628 725h127l-511 -725h-127zM127 427c29 0 38 13 38 25c0 23 -30 32 -67 32h-24v77h15c54 0 75 11 75 32c0 15 -14 24 -36 24c-21 0 -59 -8 -85 -19l-22 96c23 15 83 27 136 27c82 0 138 -32 138 -99c0 -48 -31 -80 -74 -94c45 -7 87 -30 87 -91
c0 -77 -71 -114 -157 -115c-66 -1 -122 15 -144 26l25 99c32 -10 66 -20 95 -20zM852 169v-73h-49v-96h-136v96h-166v90l171 194h131v-211h49zM583 169h84v87z" />
    <glyph glyph-name="uni2153" unicode="&#x2153;" horiz-adv-x="826" 
d="M582 725h127l-511 -725h-127zM86 330v259l-63 -21v98l116 44h82v-380h-135zM715 198c45 -7 87 -30 87 -91c0 -77 -71 -114 -157 -115c-66 -1 -122 15 -144 26l25 99c32 -10 66 -20 95 -20s38 13 38 25c0 23 -30 32 -67 32h-24v77h15c54 0 75 11 75 32c0 15 -14 24 -36 24
c-21 0 -59 -8 -85 -19l-22 96c23 15 83 27 136 27c82 0 138 -32 138 -99c0 -48 -31 -80 -74 -94z" />
    <glyph glyph-name="uni2154" unicode="&#x2154;" horiz-adv-x="913" 
d="M669 725h127l-511 -725h-127zM330 433v-103h-299v103c100 77 164 105 164 152c0 17 -9 29 -29 29c-23 0 -31 -16 -41 -47l-105 32c16 85 80 121 160 121c81 0 144 -40 144 -122c0 -100 -96 -141 -148 -165h154zM802 198c45 -7 87 -30 87 -91c0 -77 -71 -114 -157 -115
c-66 -1 -122 15 -144 26l25 99c32 -10 66 -20 95 -20s38 13 38 25c0 23 -30 32 -67 32h-24v77h15c54 0 75 11 75 32c0 15 -14 24 -36 24c-21 0 -59 -8 -85 -19l-22 96c23 15 83 27 136 27c82 0 138 -32 138 -99c0 -48 -31 -80 -74 -94z" />
    <glyph glyph-name="oneeighth" unicode="&#x215b;" horiz-adv-x="826" 
d="M582 725h127l-511 -725h-127zM86 330v259l-63 -21v98l116 44h82v-380h-135zM734 214c45 -21 86 -50 86 -100c0 -82 -68 -122 -174 -122c-107 0 -176 36 -176 115c0 43 39 67 79 80c-31 20 -55 48 -55 96c0 62 55 105 151 105s150 -41 150 -98c0 -38 -27 -62 -61 -76z
M642 315c-21 0 -31 -10 -31 -25c0 -19 21 -32 49 -45c9 12 16 25 16 39c0 19 -12 31 -34 31zM646 72c22 0 37 10 37 26c0 26 -27 40 -60 54c-12 -11 -17 -27 -17 -40c0 -25 17 -40 40 -40z" />
    <glyph glyph-name="threeeighths" unicode="&#x215c;" horiz-adv-x="872" 
d="M628 725h127l-511 -725h-127zM127 427c29 0 38 13 38 25c0 23 -30 32 -67 32h-24v77h15c54 0 75 11 75 32c0 15 -14 24 -36 24c-21 0 -59 -8 -85 -19l-22 96c23 15 83 27 136 27c82 0 138 -32 138 -99c0 -48 -31 -80 -74 -94c45 -7 87 -30 87 -91
c0 -77 -71 -114 -157 -115c-66 -1 -122 15 -144 26l25 99c32 -10 66 -20 95 -20zM780 214c45 -21 86 -50 86 -100c0 -82 -68 -122 -174 -122c-107 0 -176 36 -176 115c0 43 39 67 79 80c-31 20 -55 48 -55 96c0 62 55 105 151 105s150 -41 150 -98c0 -38 -27 -62 -61 -76z
M688 315c-21 0 -31 -10 -31 -25c0 -19 21 -32 49 -45c9 12 16 25 16 39c0 19 -12 31 -34 31zM692 72c22 0 37 10 37 26c0 26 -27 40 -60 54c-12 -11 -17 -27 -17 -40c0 -25 17 -40 40 -40z" />
    <glyph glyph-name="fiveeighths" unicode="&#x215d;" horiz-adv-x="897" 
d="M653 725h127l-511 -725h-127zM153 425c28 0 49 12 49 42c0 29 -21 39 -41 39s-37 -15 -50 -26l-75 27l20 205h261v-99h-168l-6 -52c28 21 62 20 81 20c77 0 120 -41 120 -119c0 -104 -85 -140 -171 -140c-73 0 -128 24 -157 37l36 91c43 -18 80 -25 101 -25zM805 214
c45 -21 86 -50 86 -100c0 -82 -68 -122 -174 -122c-107 0 -176 36 -176 115c0 43 39 67 79 80c-31 20 -55 48 -55 96c0 62 55 105 151 105s150 -41 150 -98c0 -38 -27 -62 -61 -76zM713 315c-21 0 -31 -10 -31 -25c0 -19 21 -32 49 -45c9 12 16 25 16 39c0 19 -12 31 -34 31
zM717 72c22 0 37 10 37 26c0 26 -27 40 -60 54c-12 -11 -17 -27 -17 -40c0 -25 17 -40 40 -40z" />
    <glyph glyph-name="seveneighths" unicode="&#x215e;" horiz-adv-x="806" 
d="M562 725h127l-511 -725h-127zM198 330h-149c23 124 75 217 121 280h-157v100h296v-78c-49 -70 -99 -167 -111 -302zM714 214c45 -21 86 -50 86 -100c0 -82 -68 -122 -174 -122c-107 0 -176 36 -176 115c0 43 39 67 79 80c-31 20 -55 48 -55 96c0 62 55 105 151 105
s150 -41 150 -98c0 -38 -27 -62 -61 -76zM622 315c-21 0 -31 -10 -31 -25c0 -19 21 -32 49 -45c9 12 16 25 16 39c0 19 -12 31 -34 31zM626 72c22 0 37 10 37 26c0 26 -27 40 -60 54c-12 -11 -17 -27 -17 -40c0 -25 17 -40 40 -40z" />
    <glyph glyph-name="underscore" unicode="_" horiz-adv-x="537" 
d="M0 -84h537v-178h-537v178z" />
    <glyph glyph-name="hyphen" unicode="-" horiz-adv-x="602" 
d="M74 382h454v-178h-454v178z" />
    <glyph glyph-name="endash" unicode="&#x2013;" horiz-adv-x="705" 
d="M74 204v178h557v-178h-557z" />
    <glyph glyph-name="emdash" unicode="&#x2014;" horiz-adv-x="1034" 
d="M74 204v178h886v-178h-886z" />
    <glyph glyph-name="parenleft" unicode="(" horiz-adv-x="422" 
d="M205 -236c-55 59 -168 234 -168 489s113 430 168 489l180 -75c-77 -136 -126 -246 -126 -414s49 -278 126 -414z" />
    <glyph glyph-name="parenright" unicode=")" horiz-adv-x="422" 
d="M217 -236l-180 75c77 136 126 246 126 414s-49 278 -126 414l180 75c55 -59 168 -234 168 -489s-113 -430 -168 -489z" />
    <glyph glyph-name="bracketleft" unicode="[" horiz-adv-x="469" 
d="M74 710h358v-188h-138v-539h138v-182h-358v909z" />
    <glyph glyph-name="bracketright" unicode="]" horiz-adv-x="469" 
d="M395 710v-909h-358v182h138v539h-138v188h358z" />
    <glyph glyph-name="braceleft" unicode="{" horiz-adv-x="525" 
d="M351 409c0 -82 -46 -126 -119 -136c73 -10 119 -49 119 -127v-75c0 -36 16 -49 50 -49h87v-188h-217c-87 0 -140 43 -140 132v155c0 41 -18 58 -48 64l-46 10v155l46 10c30 6 48 23 48 64v154c0 89 53 132 140 132h217v-188h-92c-29 0 -45 -13 -45 -49v-64z" />
    <glyph glyph-name="braceright" unicode="}" horiz-adv-x="523" 
d="M440 360l46 -10v-155l-46 -10c-30 -6 -48 -23 -48 -64v-155c0 -89 -53 -132 -140 -132h-217v188h87c34 0 50 13 50 49v75c0 78 46 117 119 127c-73 10 -119 54 -119 136v64c0 36 -16 49 -45 49h-92v188h217c87 0 140 -43 140 -132v-154c0 -41 18 -58 48 -64z" />
    <glyph glyph-name="numbersign" unicode="#" horiz-adv-x="718" 
d="M729 431h-140l-37 -133h126v-130h-161l-47 -169h-151l47 169h-125l-47 -169h-150l46 169h-90v130h126l36 133h-111v130h147l41 149h152l-41 -149h124l41 149h151l-41 -149h104v-130zM401 298l37 133h-124l-37 -133h124z" />
    <glyph glyph-name="percent" unicode="%" horiz-adv-x="1044" 
d="M699 725h127l-511 -725h-127zM217 322c-115 0 -197 77 -197 198s82 198 196 198s196 -77 196 -198s-82 -198 -195 -198zM216 421c41 0 54 37 54 99s-13 99 -54 99s-53 -37 -53 -99s12 -99 53 -99zM828 -8c-115 0 -197 77 -197 198s82 198 196 198s196 -77 196 -198
s-82 -198 -195 -198zM827 91c41 0 54 37 54 99s-13 99 -54 99s-53 -37 -53 -99s12 -99 53 -99z" />
    <glyph glyph-name="perthousand" unicode="&#x2030;" horiz-adv-x="1527" 
d="M699 725h127l-511 -725h-127zM217 322c-115 0 -197 77 -197 198s82 198 196 198s196 -77 196 -198s-82 -198 -195 -198zM216 421c41 0 54 37 54 99s-13 99 -54 99s-53 -37 -53 -99s12 -99 53 -99zM828 -8c-115 0 -197 77 -197 198s82 198 196 198s196 -77 196 -198
s-82 -198 -195 -198zM1311 -8c-115 0 -197 77 -197 198s82 198 196 198s196 -77 196 -198s-82 -198 -195 -198zM827 91c41 0 54 37 54 99s-13 99 -54 99s-53 -37 -53 -99s12 -99 53 -99zM1310 91c41 0 54 37 54 99s-13 99 -54 99s-53 -37 -53 -99s12 -99 53 -99z" />
    <glyph glyph-name="ampersand" unicode="&#x26;" horiz-adv-x="809" 
d="M824 0h-269l-76 77c-55 -48 -129 -95 -248 -95c-128 0 -205 69 -205 181c0 119 83 166 181 195c-42 49 -70 98 -70 168c0 113 98 202 248 202c130 0 227 -66 227 -178c0 -86 -57 -146 -139 -184l64 -68c38 35 76 69 107 106l109 -96c-41 -36 -81 -72 -121 -108zM397 594
c-33 0 -57 -26 -57 -59c0 -41 23 -66 52 -92c41 26 58 66 58 98c0 28 -20 53 -53 53zM312 143c28 0 52 12 73 29l-94 95c-25 -17 -44 -39 -44 -67c0 -33 27 -57 65 -57z" />
    <glyph glyph-name="section" unicode="&#xa7;" horiz-adv-x="623" 
d="M538 158c47 -28 79 -69 79 -129c0 -147 -133 -218 -286 -218c-156 0 -265 47 -325 98l82 137c63 -37 140 -66 212 -66c46 0 84 15 84 42c0 73 -355 28 -355 236c0 64 31 104 75 131c-36 28 -59 66 -59 118c0 154 139 218 272 218s203 -30 256 -82l-86 -125
c-56 34 -99 50 -157 50c-39 0 -64 -13 -64 -40c0 -74 329 -39 329 -241c0 -55 -23 -97 -57 -129zM219 282c0 -34 83 -45 173 -68c17 7 25 18 25 35c0 34 -79 47 -164 72c-20 -7 -34 -21 -34 -39z" />
    <glyph glyph-name="paragraph" unicode="&#xb6;" horiz-adv-x="933" 
d="M339 148c-163 0 -302 101 -302 280c0 181 139 282 302 282h557v-875h-212v697h-133v-697h-212v313z" />
    <glyph glyph-name="uni2116" unicode="&#x2116;" horiz-adv-x="1342" 
d="M1039 173c-163 0 -301 96 -301 275c0 181 139 277 302 277s301 -96 301 -277c0 -179 -139 -275 -302 -275zM491 399v311h190v-710h-217l-212 361v-361h-190v710h226zM1039 545c-46 0 -73 -41 -73 -97c0 -55 26 -94 73 -94c46 0 74 39 74 94c0 56 -28 97 -74 97zM780 0
v153h518v-153h-518z" />
    <glyph glyph-name="quotesingle" unicode="'" horiz-adv-x="300" 
d="M38 710h224l-21 -378h-182z" />
    <glyph glyph-name="quotedbl" unicode="&#x22;" horiz-adv-x="600" 
d="M38 710h224l-21 -378h-182zM338 710h224l-21 -378h-182z" />
    <glyph glyph-name="quoteleft" unicode="&#x2018;" horiz-adv-x="351" 
d="M183 522c52 -7 90 -44 90 -101c0 -66 -52 -110 -120 -110c-62 0 -115 38 -115 118c0 118 115 242 216 299l59 -73c-39 -30 -99 -83 -130 -133z" />
    <glyph glyph-name="quoteright" unicode="&#x2019;" horiz-adv-x="351" 
d="M198 728c62 0 115 -38 115 -118c0 -118 -115 -242 -216 -299l-59 73c39 30 99 83 130 133c-52 7 -90 44 -90 101c0 66 52 110 120 110z" />
    <glyph glyph-name="quotedblleft" unicode="&#x201c;" horiz-adv-x="631" 
d="M313 656c-39 -30 -99 -83 -130 -133c52 -7 90 -44 90 -101c0 -66 -52 -110 -120 -110c-62 0 -115 38 -115 118c0 118 115 242 216 299zM463 523c52 -7 90 -44 90 -101c0 -66 -52 -110 -120 -110c-62 0 -115 38 -115 118c0 118 115 242 216 299l59 -73
c-39 -30 -99 -83 -130 -133z" />
    <glyph glyph-name="quotedblright" unicode="&#x201d;" horiz-adv-x="631" 
d="M198 728c62 0 115 -38 115 -118c0 -118 -115 -242 -216 -299l-59 73c39 30 99 83 130 133c-52 7 -90 44 -90 101c0 66 52 110 120 110zM478 728c62 0 115 -38 115 -118c0 -118 -115 -242 -216 -299l-59 73c39 30 99 83 130 133c-52 7 -90 44 -90 101c0 66 52 110 120 110
z" />
    <glyph glyph-name="quotesinglbase" unicode="&#x201a;" horiz-adv-x="351" 
d="M198 208c62 0 115 -38 115 -118c0 -118 -115 -242 -216 -299l-59 73c39 30 99 83 130 133c-52 7 -90 44 -90 101c0 66 52 110 120 110z" />
    <glyph glyph-name="quotedblbase" unicode="&#x201e;" horiz-adv-x="631" 
d="M198 208c62 0 115 -38 115 -118c0 -118 -115 -242 -216 -299l-59 73c39 30 99 83 130 133c-52 7 -90 44 -90 101c0 66 52 110 120 110zM478 208c62 0 115 -38 115 -118c0 -118 -115 -242 -216 -299l-59 73c39 30 99 83 130 133c-52 7 -90 44 -90 101c0 66 52 110 120 110
z" />
    <glyph glyph-name="guilsinglleft" unicode="&#x2039;" horiz-adv-x="448" 
d="M37 265l162 264h212l-162 -264l162 -265h-212z" />
    <glyph glyph-name="guilsinglright" unicode="&#x203a;" horiz-adv-x="446" 
d="M409 265l-162 -265h-212l162 265l-162 264h212z" />
    <glyph glyph-name="guillemotleft" unicode="&#xab;" horiz-adv-x="774" 
d="M37 265l162 264h212l-162 -264l162 -265h-212zM372 265l162 264h212l-162 -264l162 -265h-212z" />
    <glyph glyph-name="guillemotright" unicode="&#xbb;" horiz-adv-x="774" 
d="M402 265l-162 -265h-212l162 265l-162 264h212zM737 265l-162 -265h-212l162 265l-162 264h212z" />
    <glyph glyph-name="asterisk" unicode="*" horiz-adv-x="551" 
d="M276 417l-61 -117l-139 101l93 92l-131 21l54 165l117 -62l-19 133h171l-19 -133l118 64l53 -166l-131 -22l94 -92l-139 -101z" />
    <glyph glyph-name="dagger" unicode="&#x2020;" horiz-adv-x="543" 
d="M524 529v-178h-152v-159l-29 -302h-162l-29 302v159h-152v178h152v181h220v-181h152z" />
    <glyph glyph-name="daggerdbl" unicode="&#x2021;" horiz-adv-x="672" 
d="M429 351l-5 -51l5 -51h169v-178h-152v-181h-220v181h-152v178h169l5 51l-5 51h-169v178h152v181h220v-181h152v-178h-169z" />
    <glyph glyph-name="period" unicode="." horiz-adv-x="331" 
d="M165 -8c-75 0 -127 43 -127 116c0 72 52 122 127 122c76 0 128 -50 128 -122c0 -73 -52 -116 -128 -116z" />
    <glyph glyph-name="comma" unicode="," horiz-adv-x="351" 
d="M198 208c62 0 115 -38 115 -118c0 -118 -115 -242 -216 -299l-59 73c39 30 99 83 130 133c-52 7 -90 44 -90 101c0 66 52 110 120 110z" />
    <glyph glyph-name="colon" unicode=":" horiz-adv-x="331" 
d="M165 309c-75 0 -127 43 -127 116c0 72 52 122 127 122c76 0 128 -50 128 -122c0 -73 -52 -116 -128 -116zM165 -8c-75 0 -127 43 -127 116c0 72 52 122 127 122c76 0 128 -50 128 -122c0 -73 -52 -116 -128 -116z" />
    <glyph glyph-name="semicolon" unicode=";" horiz-adv-x="351" 
d="M165 291c-75 0 -127 43 -127 116c0 72 52 122 127 122c76 0 128 -50 128 -122c0 -73 -52 -116 -128 -116zM171 208c62 0 115 -38 115 -118c0 -118 -115 -242 -216 -299l-59 73c39 30 99 83 130 133c-52 7 -90 44 -90 101c0 66 52 110 120 110z" />
    <glyph glyph-name="ellipsis" unicode="&#x2026;" horiz-adv-x="993" 
d="M165 -8c-75 0 -127 43 -127 116c0 72 52 122 127 122c76 0 128 -50 128 -122c0 -73 -52 -116 -128 -116zM496 -8c-75 0 -127 43 -127 116c0 72 52 122 127 122c76 0 128 -50 128 -122c0 -73 -52 -116 -128 -116zM827 -8c-75 0 -127 43 -127 116c0 72 52 122 127 122
c76 0 128 -50 128 -122c0 -73 -52 -116 -128 -116z" />
    <glyph glyph-name="exclam" unicode="!" horiz-adv-x="339" 
d="M113 287c-18 142 -75 226 -75 314c0 74 59 121 132 121c74 0 131 -47 131 -121c0 -88 -56 -171 -74 -314l-2 -16h-110zM169 -8c-75 0 -127 43 -127 116c0 72 52 122 127 122c76 0 128 -50 128 -122c0 -73 -52 -116 -128 -116z" />
    <glyph glyph-name="exclamdown" unicode="&#xa1;" horiz-adv-x="339" 
d="M170 547c75 0 127 -43 127 -116c0 -72 -52 -122 -127 -122c-76 0 -128 50 -128 122c0 73 52 116 128 116zM226 252c18 -142 75 -226 75 -314c0 -74 -59 -121 -132 -121c-74 0 -131 47 -131 121c0 88 56 171 74 314l2 16h110z" />
    <glyph glyph-name="question" unicode="?" horiz-adv-x="484" 
d="M142 253c-10 178 124 180 124 260c0 32 -23 49 -64 49c-46 0 -96 -26 -134 -58l-68 124c36 45 114 100 241 100c107 0 246 -33 246 -177c0 -179 -172 -147 -182 -298h-163zM224 -8c-75 0 -127 43 -127 116c0 72 52 122 127 122c76 0 128 -50 128 -122
c0 -73 -52 -116 -128 -116z" />
    <glyph glyph-name="questiondown" unicode="&#xbf;" horiz-adv-x="484" 
d="M263 547c75 0 127 -43 127 -116c0 -72 -52 -122 -127 -122c-76 0 -128 50 -128 122c0 73 52 116 128 116zM345 286c10 -178 -124 -180 -124 -260c0 -32 23 -49 64 -49c46 0 96 26 134 58l68 -124c-36 -45 -114 -100 -241 -100c-107 0 -246 33 -246 177
c0 179 172 147 182 298h163z" />
    <glyph glyph-name="slash" unicode="/" horiz-adv-x="599" 
d="M0 -108l389 833h220l-389 -833h-220z" />
    <glyph glyph-name="backslash" unicode="\" horiz-adv-x="569" 
d="M0 725h220l389 -833h-220z" />
    <glyph glyph-name="fraction" unicode="&#x2044;" horiz-adv-x="228" 
d="M306 725h127l-511 -725h-127z" />
    <glyph glyph-name="bar" unicode="|" horiz-adv-x="360" 
d="M74 900h212v-1150h-212v1150z" />
    <glyph glyph-name="brokenbar" unicode="&#xa6;" horiz-adv-x="326" 
d="M57 900h212v-513h-212v513zM57 264h212v-514h-212v514z" />
    <glyph glyph-name="periodcentered" unicode="&#xb7;" horiz-adv-x="403" 
d="M201 244c-75 0 -127 43 -127 116c0 72 52 122 127 122c76 0 128 -50 128 -122c0 -73 -52 -116 -128 -116z" />
    <glyph glyph-name="bullet" unicode="&#x2022;" horiz-adv-x="454" 
d="M226 206c-99 0 -168 57 -168 154c0 95 69 161 168 161c100 0 169 -66 169 -161c0 -97 -69 -154 -169 -154z" />
    <glyph glyph-name="minute" unicode="&#x2032;" horiz-adv-x="300" 
d="M38 710h224l-42 -378h-182v378z" />
    <glyph glyph-name="second" unicode="&#x2033;" horiz-adv-x="592" 
d="M38 710h224l-42 -378h-182v378zM330 710h224l-42 -378h-182v378z" />
    <glyph glyph-name="plus" unicode="+" horiz-adv-x="666" 
d="M592 397v-153h-180v-182h-157v182h-181v153h181v183h157v-183h180z" />
    <glyph glyph-name="minus" unicode="&#x2212;" horiz-adv-x="666" 
d="M74 397h518v-153h-518v153z" />
    <glyph glyph-name="plusminus" unicode="&#xb1;" horiz-adv-x="642" 
d="M400 477h180v-153h-180v-127h-157v127h-181v153h181v128h157v-128zM62 0v153h518v-153h-518z" />
    <glyph glyph-name="divide" unicode="&#xf7;" horiz-adv-x="642" 
d="M321 429c-58 0 -97 33 -97 89c0 55 39 93 97 93s98 -38 98 -93c0 -56 -40 -89 -98 -89zM62 397h518v-153h-518v153zM321 30c-58 0 -97 33 -97 89c0 55 39 93 97 93s98 -38 98 -93c0 -56 -40 -89 -98 -89z" />
    <glyph glyph-name="multiply" unicode="&#xd7;" horiz-adv-x="596" 
d="M536 450l-129 -129l128 -129l-108 -109l-129 129l-129 -129l-108 109l129 129l-130 129l109 108l129 -129l129 129z" />
    <glyph glyph-name="equal" unicode="=" horiz-adv-x="666" 
d="M74 522h518v-153h-518v153zM74 273h518v-153h-518v153z" />
    <glyph glyph-name="less" unicode="&#x3c;" horiz-adv-x="629" 
d="M37 249v188l518 191v-155l-376 -130l376 -130v-155z" />
    <glyph glyph-name="greater" unicode="&#x3e;" horiz-adv-x="618" 
d="M579 249l-518 -191v155l376 130l-376 130v155l518 -191v-188z" />
    <glyph glyph-name="lessequal" unicode="&#x2264;" horiz-adv-x="630" 
d="M580 682v-158l-365 -92l365 -92v-158l-518 156v188zM62 0v153h518v-153h-518z" />
    <glyph glyph-name="greaterequal" unicode="&#x2265;" horiz-adv-x="630" 
d="M50 682l518 -156v-188l-518 -156v158l365 92l-365 92v158zM50 0v153h518v-153h-518z" />
    <glyph glyph-name="approxequal" unicode="&#x2248;" horiz-adv-x="642" 
d="M448 339c-96 0 -175 60 -251 60s-135 -30 -135 -30v153c0 -1 44 30 135 30s178 -60 251 -60s132 30 132 30v-153s-36 -30 -132 -30zM448 90c-96 0 -175 60 -251 60s-135 -30 -135 -30v153c0 -1 44 30 135 30s178 -60 251 -60s132 30 132 30v-153s-36 -30 -132 -30z" />
    <glyph glyph-name="notequal" unicode="&#x2260;" horiz-adv-x="642" 
d="M580 369h-151l-45 -96h196v-153h-268l-51 -110h-168l51 110h-82v153h154l44 96h-198v153h270l51 110h169l-51 -110h79v-153z" />
    <glyph glyph-name="logicalnot" unicode="&#xac;" horiz-adv-x="618" 
d="M50 397h518v-335h-157v182h-361v153z" />
    <glyph glyph-name="dollar" unicode="$" horiz-adv-x="583" 
d="M579 234c0 -142 -80 -221 -193 -244v-99h-182v100c-93 16 -153 54 -198 92l72 152c63 -37 127 -77 199 -77c46 0 69 16 69 41c0 29 -31 41 -77 54c-94 27 -240 61 -240 239c0 127 79 197 175 223v104h182v-97c82 -13 135 -44 175 -84l-75 -143c-63 34 -112 59 -168 59
c-41 0 -68 -14 -68 -38c0 -27 34 -39 80 -52c97 -29 249 -64 249 -230z" />
    <glyph glyph-name="cent" unicode="&#xa2;" horiz-adv-x="521" 
d="M510 30c-28 -12 -65 -29 -117 -38v-96h-162v98c-132 30 -206 133 -206 276c0 142 77 239 206 268v98h162v-95c48 -8 85 -23 107 -38l-42 -169c-21 9 -58 21 -106 21c-56 0 -99 -32 -99 -85s38 -86 108 -86c46 0 78 11 104 19z" />
    <glyph glyph-name="sterling" unicode="&#xa3;" horiz-adv-x="484" 
d="M298 225c-10 -32 -31 -56 -59 -72h244v-153h-483v153h16c75 0 118 28 131 72h-146v101h128c-42 60 -129 91 -129 205c0 146 139 194 246 194c127 0 205 -52 241 -97l-68 -124c-39 45 -88 63 -126 63c-49 0 -82 -27 -82 -75c0 -65 57 -100 81 -166h140v-101h-134z" />
    <glyph glyph-name="currency" unicode="&#xa4;" horiz-adv-x="653" 
d="M598 265c0 -54 -14 -100 -38 -137l85 -66l-115 -115l-70 91l7 7c-41 -21 -90 -32 -141 -32s-100 11 -142 33l8 -8l-70 -91l-115 115l86 66c-24 37 -38 83 -38 137c0 55 14 101 38 139l-86 66l115 115l70 -91l-8 -8c42 22 91 33 143 33c51 0 99 -11 140 -32l-7 7l70 91
l115 -115l-85 -66c24 -37 38 -84 38 -139zM326 171c46 0 74 39 74 94c0 56 -28 97 -74 97s-73 -41 -73 -97c0 -55 26 -94 73 -94z" />
    <glyph glyph-name="yen" unicode="&#xa5;" horiz-adv-x="664" 
d="M674 710l-194 -375h111v-71h-148l-1 -2v-75h149v-71h-149v-116h-220v116h-149v71h149v73l-2 4h-147v71h110l-193 375h242l113 -232l113 232h216z" />
    <glyph glyph-name="uni20A9" unicode="&#x20a9;" horiz-adv-x="1142" 
d="M1155 432h-107l-59 -172h131v-71h-155l-64 -189h-199l-59 189h-145l-59 -189h-199l-64 189h-154v71h130l-58 172h-107v71h83l-70 207h232l63 -207h139l64 207h172l64 -207h139l63 207h206l-70 -207h83v-71zM412 432h-96l47 -156zM805 276l47 156h-96zM521 260h100
l-50 160z" />
    <glyph glyph-name="Euro" unicode="&#x20ac;" horiz-adv-x="748" 
d="M652 205l38 -183c-43 -20 -108 -40 -201 -40c-200 0 -325 107 -357 278h-95l20 66h67c-1 10 -1 19 -1 29c0 11 0 22 1 32h-58l20 66h47c35 169 163 275 356 275c77 0 146 -16 191 -37l-37 -176c-28 13 -71 19 -128 19c-60 0 -112 -27 -139 -81h201l-20 -66h-200
c-1 -9 -1 -18 -1 -27c0 -12 1 -23 2 -34h190l-20 -66h-152c25 -51 72 -76 140 -76c65 0 103 8 136 21z" />
    <glyph glyph-name="fhook" unicode="&#x192;" horiz-adv-x="443" 
d="M384 602c-38 0 -55 -12 -59 -41l-4 -32h104l-22 -183h-104l-43 -346c-15 -119 -81 -186 -247 -186c-40 0 -82 3 -102 7l20 162c20 -2 42 -3 61 -3c38 0 55 12 59 41l40 325h-67l22 183h67l7 53c15 119 81 186 247 186c40 0 82 -3 102 -7l-20 -162c-20 2 -42 3 -61 3z" />
    <glyph glyph-name="copyright" unicode="&#xa9;" horiz-adv-x="803" 
d="M368 -15c-185 0 -368 136 -368 370s183 370 368 370c186 0 369 -136 369 -370s-183 -370 -369 -370zM368 25c157 0 322 110 322 330s-165 330 -322 330s-321 -110 -321 -330s164 -330 321 -330zM382 134c-114 0 -205 78 -205 227c0 150 92 228 205 228
c55 0 90 -15 123 -38l-14 -53c-29 21 -55 32 -105 32c-71 0 -144 -48 -144 -168s70 -169 144 -169c57 0 88 16 118 45l17 -54c-34 -30 -74 -50 -139 -50z" />
    <glyph glyph-name="registered" unicode="&#xae;" horiz-adv-x="833" 
d="M416 -15c-185 0 -368 136 -368 370s183 370 368 370c186 0 369 -136 369 -370s-183 -370 -369 -370zM416 38c151 0 310 105 310 317s-159 317 -310 317s-309 -105 -309 -317s158 -317 309 -317zM293 146v419h126c86 0 151 -33 151 -122c0 -73 -42 -114 -105 -127
l114 -170h-63l-110 166h-61v-166h-52zM418 355c57 -1 94 26 94 84c0 57 -38 82 -94 82h-73v-166h73z" />
    <glyph glyph-name="trademark" unicode="&#x2122;" horiz-adv-x="658" 
d="M249 710v-54h-68v-221h-64v221h-69v54h201zM610 435h-60l-24 192l-67 -192h-43l-66 191l-22 -191h-56l31 275h71l66 -186l66 186h73z" />
    <glyph glyph-name="degree" unicode="&#xb0;" horiz-adv-x="433" 
d="M216 322c-114 0 -196 77 -196 198s82 198 196 198s196 -77 196 -198s-82 -198 -196 -198zM216 400c54 0 91 45 91 120s-37 120 -91 120s-90 -45 -90 -120s36 -120 90 -120z" />
    <glyph glyph-name="uni2117" unicode="&#x2117;" horiz-adv-x="803" 
d="M368 725c186 0 369 -136 369 -370s-183 -370 -369 -370c-185 0 -368 136 -368 370s183 370 368 370zM368 25c157 0 322 110 322 330s-165 330 -322 330s-321 -110 -321 -330s164 -330 321 -330zM375 532c75 0 127 -33 127 -108c0 -77 -54 -120 -128 -120h-64v-127h-53
v355h118zM364 343c47 -1 80 25 80 75s-30 68 -79 68h-55v-143h54z" />
    <glyph glyph-name="at" unicode="@" horiz-adv-x="1033" 
d="M766 458l-55 -222c-14 -58 9 -79 45 -79c49 0 114 51 114 180c0 180 -152 277 -320 277c-203 0 -362 -154 -362 -368c0 -216 130 -339 340 -339c105 0 192 29 252 76l54 -90c-78 -60 -185 -99 -309 -99c-303 0 -480 162 -480 450s229 481 508 481
c236 0 440 -145 440 -385c0 -208 -139 -294 -256 -294c-85 0 -134 39 -146 92c-28 -55 -72 -93 -144 -93c-90 0 -156 73 -144 211c13 142 106 213 192 213c70 0 110 -28 128 -71l16 60h127zM515 182c39 0 65 33 75 74c11 46 -11 80 -52 80c-42 0 -66 -32 -74 -80
c-8 -47 12 -74 51 -74z" />
    <glyph glyph-name="zero.den" horiz-adv-x="420" 
d="M210 -8c-110 0 -190 76 -190 198c0 123 80 200 190 200s190 -77 190 -200c0 -122 -80 -198 -190 -198zM210 95c37 0 47 36 47 95c0 60 -10 97 -47 97s-45 -37 -45 -97c0 -59 8 -95 45 -95z" />
    <glyph glyph-name="one.den" horiz-adv-x="276" 
d="M139 380h82v-380h-135v259l-63 -21v98z" />
    <glyph glyph-name="two.den" horiz-adv-x="363" 
d="M176 103h154v-103h-299v103c100 77 164 105 164 152c0 17 -9 29 -29 29c-23 0 -31 -16 -41 -47l-105 32c16 85 80 121 160 121c81 0 144 -40 144 -122c0 -100 -96 -141 -148 -165z" />
    <glyph glyph-name="three.den" horiz-adv-x="332" 
d="M221 198c45 -7 87 -30 87 -91c0 -77 -71 -114 -157 -115c-66 -1 -122 15 -144 26l25 99c32 -10 66 -20 95 -20s38 13 38 25c0 23 -30 32 -67 32h-24v77h15c54 0 75 11 75 32c0 15 -14 24 -36 24c-21 0 -59 -8 -85 -19l-22 96c23 15 83 27 136 27c82 0 138 -32 138 -99
c0 -48 -31 -80 -74 -94z" />
    <glyph glyph-name="four.den" horiz-adv-x="378" 
d="M362 169v-73h-49v-96h-136v96h-166v90l171 194h131v-211h49zM93 169h84v87z" />
    <glyph glyph-name="five.den" horiz-adv-x="357" 
d="M224 251c77 0 120 -41 120 -119c0 -104 -85 -140 -171 -140c-73 0 -128 24 -157 37l36 91c43 -18 80 -25 101 -25c28 0 49 12 49 42c0 29 -21 39 -41 39s-37 -15 -50 -26l-75 27l20 205h261v-99h-168l-6 -52c28 21 62 20 81 20z" />
    <glyph glyph-name="six.den" horiz-adv-x="388" 
d="M245 241c59 0 119 -29 119 -112c0 -90 -63 -137 -168 -137c-102 0 -178 57 -178 180c0 121 51 218 204 218c39 0 76 -7 108 -18l-20 -95c-24 6 -49 12 -74 12c-46 0 -73 -18 -77 -75c22 16 49 27 86 27zM192 82c24 0 37 14 37 44c0 34 -17 41 -37 41
c-13 0 -24 -3 -34 -14v-21c0 -41 14 -50 34 -50z" />
    <glyph glyph-name="seven.den" horiz-adv-x="326" 
d="M13 380h296v-78c-49 -70 -99 -167 -111 -302h-149c23 124 75 217 121 280h-157v100z" />
    <glyph glyph-name="eight.den" horiz-adv-x="362" 
d="M270 214c45 -21 86 -50 86 -100c0 -82 -68 -122 -174 -122c-107 0 -176 36 -176 115c0 43 39 67 79 80c-31 20 -55 48 -55 96c0 62 55 105 151 105s150 -41 150 -98c0 -38 -27 -62 -61 -76zM178 315c-21 0 -31 -10 -31 -25c0 -19 21 -32 49 -45c9 12 16 25 16 39
c0 19 -12 31 -34 31zM182 72c22 0 37 10 37 26c0 26 -27 40 -60 54c-12 -11 -17 -27 -17 -40c0 -25 17 -40 40 -40z" />
    <glyph glyph-name="nine.den" horiz-adv-x="388" 
d="M200 388c102 0 178 -57 178 -180c0 -121 -51 -218 -204 -218c-39 0 -76 7 -108 18l20 95c24 -6 49 -12 74 -12c46 0 73 18 77 75c-22 -16 -49 -27 -86 -27c-59 0 -119 29 -119 112c0 90 63 137 168 137zM204 213c13 0 24 3 34 14v21c0 41 -14 50 -34 50
c-24 0 -37 -14 -37 -44c0 -34 17 -41 37 -41z" />
    <glyph glyph-name="zero.num" horiz-adv-x="420" 
d="M210 322c-110 0 -190 76 -190 198c0 123 80 200 190 200s190 -77 190 -200c0 -122 -80 -198 -190 -198zM210 425c37 0 47 36 47 95c0 60 -10 97 -47 97s-45 -37 -45 -97c0 -59 8 -95 45 -95z" />
    <glyph glyph-name="one.num" horiz-adv-x="276" 
d="M139 710h82v-380h-135v259l-63 -21v98z" />
    <glyph glyph-name="two.num" horiz-adv-x="363" 
d="M176 433h154v-103h-299v103c100 77 164 105 164 152c0 17 -9 29 -29 29c-23 0 -31 -16 -41 -47l-105 32c16 85 80 121 160 121c81 0 144 -40 144 -122c0 -100 -96 -141 -148 -165z" />
    <glyph glyph-name="three.num" horiz-adv-x="332" 
d="M221 528c45 -7 87 -30 87 -91c0 -77 -71 -114 -157 -115c-66 -1 -122 15 -144 26l25 99c32 -10 66 -20 95 -20s38 13 38 25c0 23 -30 32 -67 32h-24v77h15c54 0 75 11 75 32c0 15 -14 24 -36 24c-21 0 -59 -8 -85 -19l-22 96c23 15 83 27 136 27c82 0 138 -32 138 -99
c0 -48 -31 -80 -74 -94z" />
    <glyph glyph-name="four.num" horiz-adv-x="378" 
d="M362 499v-73h-49v-96h-136v96h-166v90l171 194h131v-211h49zM93 499h84v87z" />
    <glyph glyph-name="five.num" horiz-adv-x="357" 
d="M224 581c77 0 120 -41 120 -119c0 -104 -85 -140 -171 -140c-73 0 -128 24 -157 37l36 91c43 -18 80 -25 101 -25c28 0 49 12 49 42c0 29 -21 39 -41 39s-37 -15 -50 -26l-75 27l20 205h261v-99h-168l-6 -52c28 21 62 20 81 20z" />
    <glyph glyph-name="six.num" horiz-adv-x="388" 
d="M245 571c59 0 119 -29 119 -112c0 -90 -63 -137 -168 -137c-102 0 -178 57 -178 180c0 121 51 218 204 218c39 0 76 -7 108 -18l-20 -95c-24 6 -49 12 -74 12c-46 0 -73 -18 -77 -75c22 16 49 27 86 27zM192 412c24 0 37 14 37 44c0 34 -17 41 -37 41
c-13 0 -24 -3 -34 -14v-21c0 -41 14 -50 34 -50z" />
    <glyph glyph-name="seven.num" horiz-adv-x="326" 
d="M13 710h296v-78c-49 -70 -99 -167 -111 -302h-149c23 124 75 217 121 280h-157v100z" />
    <glyph glyph-name="eight.num" horiz-adv-x="362" 
d="M270 544c45 -21 86 -50 86 -100c0 -82 -68 -122 -174 -122c-107 0 -176 36 -176 115c0 43 39 67 79 80c-31 20 -55 48 -55 96c0 62 55 105 151 105s150 -41 150 -98c0 -38 -27 -62 -61 -76zM178 645c-21 0 -31 -10 -31 -25c0 -19 21 -32 49 -45c9 12 16 25 16 39
c0 19 -12 31 -34 31zM182 402c22 0 37 10 37 26c0 26 -27 40 -60 54c-12 -11 -17 -27 -17 -40c0 -25 17 -40 40 -40z" />
    <glyph glyph-name="nine.num" horiz-adv-x="388" 
d="M200 718c102 0 178 -57 178 -180c0 -121 -51 -218 -204 -218c-39 0 -76 7 -108 18l20 95c24 -6 49 -12 74 -12c46 0 73 18 77 75c-22 -16 -49 -27 -86 -27c-59 0 -119 29 -119 112c0 90 63 137 168 137zM204 543c13 0 24 3 34 14v21c0 41 -14 50 -34 50
c-24 0 -37 -14 -37 -44c0 -34 17 -41 37 -41z" />
    <glyph glyph-name="zero.sub" horiz-adv-x="420" 
d="M210 -68c-110 0 -190 76 -190 198c0 123 80 200 190 200s190 -77 190 -200c0 -122 -80 -198 -190 -198zM210 35c37 0 47 36 47 95c0 60 -10 97 -47 97s-45 -37 -45 -97c0 -59 8 -95 45 -95z" />
    <glyph glyph-name="one.sub" horiz-adv-x="276" 
d="M139 320h82v-380h-135v259l-63 -21v98z" />
    <glyph glyph-name="two.sub" horiz-adv-x="363" 
d="M176 43h154v-103h-299v103c100 77 164 105 164 152c0 17 -9 29 -29 29c-23 0 -31 -16 -41 -47l-105 32c16 85 80 121 160 121c81 0 144 -40 144 -122c0 -100 -96 -141 -148 -165z" />
    <glyph glyph-name="three.sub" horiz-adv-x="332" 
d="M221 138c45 -7 87 -30 87 -91c0 -77 -71 -114 -157 -115c-66 -1 -122 15 -144 26l25 99c32 -10 66 -20 95 -20s38 13 38 25c0 23 -30 32 -67 32h-24v77h15c54 0 75 11 75 32c0 15 -14 24 -36 24c-21 0 -59 -8 -85 -19l-22 96c23 15 83 27 136 27c82 0 138 -32 138 -99
c0 -48 -31 -80 -74 -94z" />
    <glyph glyph-name="four.sub" horiz-adv-x="378" 
d="M362 109v-73h-49v-96h-136v96h-166v90l171 194h131v-211h49zM93 109h84v87z" />
    <glyph glyph-name="five.sub" horiz-adv-x="357" 
d="M224 191c77 0 120 -41 120 -119c0 -104 -85 -140 -171 -140c-73 0 -128 24 -157 37l36 91c43 -18 80 -25 101 -25c28 0 49 12 49 42c0 29 -21 39 -41 39s-37 -15 -50 -26l-75 27l20 205h261v-99h-168l-6 -52c28 21 62 20 81 20z" />
    <glyph glyph-name="six.sub" horiz-adv-x="388" 
d="M245 181c59 0 119 -29 119 -112c0 -90 -63 -137 -168 -137c-102 0 -178 57 -178 180c0 121 51 218 204 218c39 0 76 -7 108 -18l-20 -95c-24 6 -49 12 -74 12c-46 0 -73 -18 -77 -75c22 16 49 27 86 27zM192 22c24 0 37 14 37 44c0 34 -17 41 -37 41
c-13 0 -24 -3 -34 -14v-21c0 -41 14 -50 34 -50z" />
    <glyph glyph-name="seven.sub" horiz-adv-x="326" 
d="M13 320h296v-78c-49 -70 -99 -167 -111 -302h-149c23 124 75 217 121 280h-157v100z" />
    <glyph glyph-name="eight.sub" horiz-adv-x="362" 
d="M270 154c45 -21 86 -50 86 -100c0 -82 -68 -122 -174 -122c-107 0 -176 36 -176 115c0 43 39 67 79 80c-31 20 -55 48 -55 96c0 62 55 105 151 105s150 -41 150 -98c0 -38 -27 -62 -61 -76zM178 255c-21 0 -31 -10 -31 -25c0 -19 21 -32 49 -45c9 12 16 25 16 39
c0 19 -12 31 -34 31zM182 12c22 0 37 10 37 26c0 26 -27 40 -60 54c-12 -11 -17 -27 -17 -40c0 -25 17 -40 40 -40z" />
    <glyph glyph-name="nine.sub" horiz-adv-x="388" 
d="M200 328c102 0 178 -57 178 -180c0 -121 -51 -218 -204 -218c-39 0 -76 7 -108 18l20 95c24 -6 49 -12 74 -12c46 0 73 18 77 75c-22 -16 -49 -27 -86 -27c-59 0 -119 29 -119 112c0 90 63 137 168 137zM204 153c13 0 24 3 34 14v21c0 41 -14 50 -34 50
c-24 0 -37 -14 -37 -44c0 -34 17 -41 37 -41z" />
    <glyph glyph-name="zero.sup" horiz-adv-x="420" 
d="M210 382c-110 0 -190 76 -190 198c0 123 80 200 190 200s190 -77 190 -200c0 -122 -80 -198 -190 -198zM210 485c37 0 47 36 47 95c0 60 -10 97 -47 97s-45 -37 -45 -97c0 -59 8 -95 45 -95z" />
    <glyph glyph-name="one.sup" horiz-adv-x="276" 
d="M139 770h82v-380h-135v259l-63 -21v98z" />
    <glyph glyph-name="two.sup" horiz-adv-x="363" 
d="M176 493h154v-103h-299v103c100 77 164 105 164 152c0 17 -9 29 -29 29c-23 0 -31 -16 -41 -47l-105 32c16 85 80 121 160 121c81 0 144 -40 144 -122c0 -100 -96 -141 -148 -165z" />
    <glyph glyph-name="three.sup" horiz-adv-x="332" 
d="M221 588c45 -7 87 -30 87 -91c0 -77 -71 -114 -157 -115c-66 -1 -122 15 -144 26l25 99c32 -10 66 -20 95 -20s38 13 38 25c0 23 -30 32 -67 32h-24v77h15c54 0 75 11 75 32c0 15 -14 24 -36 24c-21 0 -59 -8 -85 -19l-22 96c23 15 83 27 136 27c82 0 138 -32 138 -99
c0 -48 -31 -80 -74 -94z" />
    <glyph glyph-name="four.sup" horiz-adv-x="378" 
d="M362 559v-73h-49v-96h-136v96h-166v90l171 194h131v-211h49zM93 559h84v87z" />
    <glyph glyph-name="five.sup" horiz-adv-x="357" 
d="M224 641c77 0 120 -41 120 -119c0 -104 -85 -140 -171 -140c-73 0 -128 24 -157 37l36 91c43 -18 80 -25 101 -25c28 0 49 12 49 42c0 29 -21 39 -41 39s-37 -15 -50 -26l-75 27l20 205h261v-99h-168l-6 -52c28 21 62 20 81 20z" />
    <glyph glyph-name="six.sup" horiz-adv-x="388" 
d="M245 631c59 0 119 -29 119 -112c0 -90 -63 -137 -168 -137c-102 0 -178 57 -178 180c0 121 51 218 204 218c39 0 76 -7 108 -18l-20 -95c-24 6 -49 12 -74 12c-46 0 -73 -18 -77 -75c22 16 49 27 86 27zM192 472c24 0 37 14 37 44c0 34 -17 41 -37 41
c-13 0 -24 -3 -34 -14v-21c0 -41 14 -50 34 -50z" />
    <glyph glyph-name="seven.sup" horiz-adv-x="326" 
d="M13 770h296v-78c-49 -70 -99 -167 -111 -302h-149c23 124 75 217 121 280h-157v100z" />
    <glyph glyph-name="eight.sup" horiz-adv-x="362" 
d="M270 604c45 -21 86 -50 86 -100c0 -82 -68 -122 -174 -122c-107 0 -176 36 -176 115c0 43 39 67 79 80c-31 20 -55 48 -55 96c0 62 55 105 151 105s150 -41 150 -98c0 -38 -27 -62 -61 -76zM178 705c-21 0 -31 -10 -31 -25c0 -19 21 -32 49 -45c9 12 16 25 16 39
c0 19 -12 31 -34 31zM182 462c22 0 37 10 37 26c0 26 -27 40 -60 54c-12 -11 -17 -27 -17 -40c0 -25 17 -40 40 -40z" />
    <glyph glyph-name="nine.sup" horiz-adv-x="388" 
d="M192 778c102 0 178 -57 178 -180c0 -121 -51 -218 -204 -218c-39 0 -76 7 -108 18l20 95c24 -6 49 -12 74 -12c46 0 73 18 77 75c-22 -16 -49 -27 -86 -27c-59 0 -119 29 -119 112c0 90 63 137 168 137zM196 603c13 0 24 3 34 14v21c0 41 -14 50 -34 50
c-24 0 -37 -14 -37 -44c0 -34 17 -41 37 -41z" />
    <glyph glyph-name="Aacute" unicode="&#xc1;" horiz-adv-x="744" 
d="M626 912l-174 -144h-160l144 144h190zM500 0l-38 126h-209l-39 -126h-214l248 710h249l247 -710h-244zM294 261h126l-63 207z" />
    <glyph glyph-name="Abreve" unicode="&#x102;" horiz-adv-x="744" 
d="M372 763c-113 0 -183 50 -184 149h128c3 -38 27 -51 56 -51c30 0 54 13 56 51h128c-8 -99 -73 -149 -184 -149zM500 0l-38 126h-209l-39 -126h-214l248 710h249l247 -710h-244zM294 261h126l-63 207z" />
    <glyph glyph-name="Acircumflex" unicode="&#xc2;" horiz-adv-x="744" 
d="M372 838l-54 -70h-162l136 144h160l136 -144h-162zM500 0l-38 126h-209l-39 -126h-214l248 710h249l247 -710h-244zM294 261h126l-63 207z" />
    <glyph glyph-name="Adieresis" unicode="&#xc4;" horiz-adv-x="744" 
d="M256 760c-52 0 -87 31 -87 86c0 54 35 89 87 89c54 0 89 -35 89 -89c0 -55 -35 -86 -89 -86zM489 760c-53 0 -89 31 -89 86c0 54 36 89 89 89c52 0 87 -35 87 -89c0 -55 -35 -86 -87 -86zM500 0l-38 126h-209l-39 -126h-214l248 710h249l247 -710h-244zM294 261h126
l-63 207z" />
    <glyph glyph-name="Agrave" unicode="&#xc0;" horiz-adv-x="744" 
d="M452 768h-160l-174 144h190zM500 0l-38 126h-209l-39 -126h-214l248 710h249l247 -710h-244zM294 261h126l-63 207z" />
    <glyph glyph-name="Amacron" unicode="&#x100;" horiz-adv-x="744" 
d="M522 901v-120h-300v120h300zM500 0l-38 126h-209l-39 -126h-214l248 710h249l247 -710h-244zM294 261h126l-63 207z" />
    <glyph glyph-name="Aogonek" unicode="&#x104;" horiz-adv-x="744" 
d="M741 -120l38 -87c-21 -17 -49 -39 -125 -39c-86 0 -143 39 -143 115c0 58 31 99 99 131h-110l-38 126h-209l-39 -126h-214l248 710h249l247 -710c-47 -22 -99 -58 -99 -100c0 -26 18 -38 40 -38c23 0 37 6 56 18zM294 261h126l-63 207z" />
    <glyph glyph-name="Aring" unicode="&#xc5;" horiz-adv-x="744" 
d="M372 770c-68 0 -110 38 -110 99c0 64 42 104 110 104s110 -40 110 -104c0 -61 -42 -99 -110 -99zM372 918c-31 0 -51 -19 -51 -48c0 -28 20 -45 51 -45s51 17 51 45c0 29 -20 48 -51 48zM500 0l-38 126h-209l-39 -126h-214l248 710h249l247 -710h-244zM294 261h126
l-63 207z" />
    <glyph glyph-name="Atilde" unicode="&#xc3;" horiz-adv-x="744" 
d="M285 800c-22 0 -30 -11 -33 -32h-86c3 92 40 151 120 151c65 0 133 -40 172 -40c21 0 30 12 33 33h86c-3 -93 -40 -151 -120 -151c-66 0 -134 39 -172 39zM500 0l-38 126h-209l-39 -126h-214l248 710h249l247 -710h-244zM294 261h126l-63 207z" />
    <glyph glyph-name="AE" unicode="&#xc6;" horiz-adv-x="991" 
d="M933 526h-227v-82h195v-162h-195v-98h227v-184h-447v126h-208l-64 -126h-214l361 710h572v-184zM347 261h139v275z" />
    <glyph glyph-name="AEacute" unicode="&#x1fc;" horiz-adv-x="991" 
d="M801 912l-174 -144h-160l144 144h190zM933 526h-227v-82h195v-162h-195v-98h227v-184h-447v126h-208l-64 -126h-214l361 710h572v-184zM347 261h139v275z" />
    <glyph glyph-name="Cacute" unicode="&#x106;" horiz-adv-x="637" 
d="M433 912h190l-174 -144h-160zM403 -18c-235 0 -366 148 -366 373s138 373 366 373c77 0 146 -24 191 -45l-37 -199c-28 13 -71 29 -128 29c-87 0 -159 -56 -159 -158s57 -158 160 -158c65 0 103 18 136 31l38 -198c-43 -20 -108 -48 -201 -48z" />
    <glyph glyph-name="Ccaron" unicode="&#x10c;" horiz-adv-x="637" 
d="M289 768l-136 144h162l54 -70l54 70h162l-136 -144h-160zM566 228l38 -198c-43 -20 -108 -48 -201 -48c-235 0 -366 148 -366 373s138 373 366 373c77 0 146 -24 191 -45l-37 -199c-28 13 -71 29 -128 29c-87 0 -159 -56 -159 -158s57 -158 160 -158c65 0 103 18 136 31z
" />
    <glyph glyph-name="Ccedilla" unicode="&#xc7;" horiz-adv-x="637" 
d="M416 -48c65 0 103 -34 103 -91c0 -62 -64 -98 -162 -98c-54 0 -94 14 -137 43l43 67c36 -22 58 -31 84 -31c16 0 35 4 35 23c0 18 -14 23 -32 23c-12 0 -20 -2 -33 -5l-48 29l58 76c-187 28 -290 167 -290 367c0 225 138 373 366 373c77 0 146 -24 191 -45l-37 -199
c-28 13 -71 29 -128 29c-87 0 -159 -56 -159 -158s57 -158 160 -158c65 0 103 18 136 31l38 -198c-40 -18 -98 -44 -180 -48l-23 -31c6 1 10 1 15 1z" />
    <glyph glyph-name="Ccircumflex" unicode="&#x108;" horiz-adv-x="637" 
d="M369 838l-54 -70h-162l136 144h160l136 -144h-162zM566 228l38 -198c-43 -20 -108 -48 -201 -48c-235 0 -366 148 -366 373s138 373 366 373c77 0 146 -24 191 -45l-37 -199c-28 13 -71 29 -128 29c-87 0 -159 -56 -159 -158s57 -158 160 -158c65 0 103 18 136 31z" />
    <glyph glyph-name="Cdotaccent" unicode="&#x10a;" horiz-adv-x="637" 
d="M369 759c-62 0 -106 32 -106 86c0 55 44 92 106 92c63 0 106 -37 106 -92c0 -54 -43 -86 -106 -86zM403 -18c-235 0 -366 148 -366 373s138 373 366 373c77 0 146 -24 191 -45l-37 -199c-28 13 -71 29 -128 29c-87 0 -159 -56 -159 -158s57 -158 160 -158
c65 0 103 18 136 31l38 -198c-43 -20 -108 -48 -201 -48z" />
    <glyph glyph-name="Eth" unicode="&#xd0;" horiz-adv-x="765" 
d="M359 710c221 0 369 -106 369 -355s-148 -355 -369 -355h-285v283h-74v142h74v285h285zM359 188c80 0 137 52 137 167s-57 167 -137 167h-65v-97h102v-142h-102v-95h65z" />
    <glyph glyph-name="Dcaron" unicode="&#x10e;" horiz-adv-x="765" 
d="M303 768l-136 144h162l54 -70l54 70h162l-136 -144h-160zM359 710c221 0 369 -106 369 -355s-148 -355 -369 -355h-285v710h285zM359 188c80 0 137 52 137 167s-57 167 -137 167h-65v-334h65z" />
    <glyph glyph-name="Dcroat" unicode="&#x110;" horiz-adv-x="765" 
d="M359 710c221 0 369 -106 369 -355s-148 -355 -369 -355h-285v283h-74v142h74v285h285zM359 188c80 0 137 52 137 167s-57 167 -137 167h-65v-97h102v-142h-102v-95h65z" />
    <glyph glyph-name="Eacute" unicode="&#xc9;" horiz-adv-x="579" 
d="M553 912l-174 -144h-160l144 144h190zM521 710v-184h-227v-82h195v-162h-195v-98h227v-184h-447v710h447z" />
    <glyph glyph-name="Ebreve" unicode="&#x114;" horiz-adv-x="579" 
d="M299 763c-113 0 -183 50 -184 149h128c3 -38 27 -51 56 -51c30 0 54 13 56 51h128c-8 -99 -73 -149 -184 -149zM521 526h-227v-82h195v-162h-195v-98h227v-184h-447v710h447v-184z" />
    <glyph glyph-name="Ecaron" unicode="&#x11a;" horiz-adv-x="579" 
d="M219 768l-136 144h162l54 -70l54 70h162l-136 -144h-160zM521 526h-227v-82h195v-162h-195v-98h227v-184h-447v710h447v-184z" />
    <glyph glyph-name="Ecircumflex" unicode="&#xca;" horiz-adv-x="579" 
d="M299 838l-54 -70h-162l136 144h160l136 -144h-162zM521 526h-227v-82h195v-162h-195v-98h227v-184h-447v710h447v-184z" />
    <glyph glyph-name="Edieresis" unicode="&#xcb;" horiz-adv-x="579" 
d="M183 760c-52 0 -87 31 -87 86c0 54 35 89 87 89c54 0 89 -35 89 -89c0 -55 -35 -86 -89 -86zM416 760c-53 0 -89 31 -89 86c0 54 36 89 89 89c52 0 87 -35 87 -89c0 -55 -35 -86 -87 -86zM521 526h-227v-82h195v-162h-195v-98h227v-184h-447v710h447v-184z" />
    <glyph glyph-name="Edotaccent" unicode="&#x116;" horiz-adv-x="579" 
d="M299 759c-62 0 -106 32 -106 86c0 55 44 92 106 92c63 0 106 -37 106 -92c0 -54 -43 -86 -106 -86zM521 526h-227v-82h195v-162h-195v-98h227v-184h-447v710h447v-184z" />
    <glyph glyph-name="Egrave" unicode="&#xc8;" horiz-adv-x="579" 
d="M379 768h-160l-174 144h190zM521 526h-227v-82h195v-162h-195v-98h227v-184h-447v710h447v-184z" />
    <glyph glyph-name="Emacron" unicode="&#x112;" horiz-adv-x="579" 
d="M449 901v-120h-300v120h300zM521 526h-227v-82h195v-162h-195v-98h227v-184h-447v710h447v-184z" />
    <glyph glyph-name="Eogonek" unicode="&#x118;" horiz-adv-x="579" 
d="M518 -120l38 -87c-21 -17 -49 -39 -125 -39c-86 0 -143 39 -143 115c0 58 31 99 99 131h-313v710h447v-184h-227v-82h195v-162h-195v-98h227v-184c-47 -22 -99 -58 -99 -100c0 -26 18 -38 40 -38c23 0 37 6 56 18z" />
    <glyph glyph-name="Gbreve" unicode="&#x11e;" horiz-adv-x="777" 
d="M389 763c-113 0 -183 50 -184 149h128c3 -38 27 -51 56 -51c30 0 54 13 56 51h128c-8 -99 -73 -149 -184 -149zM408 413h336v-84c0 -246 -150 -347 -344 -347s-363 135 -363 373s169 373 358 373c152 0 250 -63 313 -173l-178 -90c-25 43 -69 70 -118 70
c-84 0 -143 -73 -143 -180c0 -112 58 -186 146 -186c68 0 120 34 129 95h-136v149z" />
    <glyph glyph-name="Gcircumflex" unicode="&#x11c;" horiz-adv-x="777" 
d="M389 838l-54 -70h-162l136 144h160l136 -144h-162zM408 413h336v-84c0 -246 -150 -347 -344 -347s-363 135 -363 373s169 373 358 373c152 0 250 -63 313 -173l-178 -90c-25 43 -69 70 -118 70c-84 0 -143 -73 -143 -180c0 -112 58 -186 146 -186c68 0 120 34 129 95
h-136v149z" />
    <glyph glyph-name="uni0122" unicode="&#x122;" horiz-adv-x="777" 
d="M408 413h336v-84c0 -246 -150 -347 -344 -347s-363 135 -363 373s169 373 358 373c152 0 250 -63 313 -173l-178 -90c-25 43 -69 70 -118 70c-84 0 -143 -73 -143 -180c0 -112 58 -186 146 -186c68 0 120 34 129 95h-136v149zM388 -59c46 0 80 -25 80 -83
c0 -61 -46 -131 -105 -178l-55 51c22 20 43 46 55 67c-31 7 -55 32 -55 68c0 45 36 75 80 75z" />
    <glyph glyph-name="Gdotaccent" unicode="&#x120;" horiz-adv-x="777" 
d="M389 759c-62 0 -106 32 -106 86c0 55 44 92 106 92c63 0 106 -37 106 -92c0 -54 -43 -86 -106 -86zM408 413h336v-84c0 -246 -150 -347 -344 -347s-363 135 -363 373s169 373 358 373c152 0 250 -63 313 -173l-178 -90c-25 43 -69 70 -118 70c-84 0 -143 -73 -143 -180
c0 -112 58 -186 146 -186c68 0 120 34 129 95h-136v149z" />
    <glyph glyph-name="Hbar" unicode="&#x126;" horiz-adv-x="743" 
d="M743 634v-142h-62v-492h-220v211h-179v-211h-220v492h-62v142h62v76h220v-76h179v76h220v-76h62zM461 389v103h-179v-103h179z" />
    <glyph glyph-name="Hcircumflex" unicode="&#x124;" horiz-adv-x="767" 
d="M384 838l-54 -70h-162l136 144h160l136 -144h-162zM473 710h220v-710h-220v271h-179v-271h-220v710h220v-261h179v261z" />
    <glyph glyph-name="IJ" unicode="&#x132;" horiz-adv-x="837" 
d="M74 710h220v-710h-220v710zM526 -9c-64 0 -118 13 -144 19l16 179c18 -3 42 -9 68 -9c62 0 85 40 85 106v424h220v-470c0 -190 -109 -249 -245 -249z" />
    <glyph glyph-name="Iacute" unicode="&#xcd;" horiz-adv-x="368" 
d="M248 912h190l-174 -144h-160zM74 710h220v-710h-220v710z" />
    <glyph glyph-name="Ibreve" unicode="&#x12c;" horiz-adv-x="368" 
d="M184 763c-113 0 -183 50 -184 149h128c3 -38 27 -51 56 -51c30 0 54 13 56 51h128c-8 -99 -73 -149 -184 -149zM74 710h220v-710h-220v710z" />
    <glyph glyph-name="Icircumflex" unicode="&#xce;" horiz-adv-x="368" 
d="M184 838l-54 -70h-162l136 144h160l136 -144h-162zM74 0v710h220v-710h-220z" />
    <glyph glyph-name="Idieresis" unicode="&#xcf;" horiz-adv-x="368" 
d="M68 760c-52 0 -87 31 -87 86c0 54 35 89 87 89c54 0 89 -35 89 -89c0 -55 -35 -86 -89 -86zM301 760c-53 0 -89 31 -89 86c0 54 36 89 89 89c52 0 87 -35 87 -89c0 -55 -35 -86 -87 -86zM74 710h220v-710h-220v710z" />
    <glyph glyph-name="Idotaccent" unicode="&#x130;" horiz-adv-x="368" 
d="M184 759c-62 0 -106 32 -106 86c0 55 44 92 106 92c63 0 106 -37 106 -92c0 -54 -43 -86 -106 -86zM74 710h220v-710h-220v710z" />
    <glyph glyph-name="Igrave" unicode="&#xcc;" horiz-adv-x="368" 
d="M104 768l-174 144h190l144 -144h-160zM74 710h220v-710h-220v710z" />
    <glyph glyph-name="Imacron" unicode="&#x12a;" horiz-adv-x="368" 
d="M34 901h300v-120h-300v120zM74 710h220v-710h-220v710z" />
    <glyph glyph-name="Iogonek" unicode="&#x12e;" horiz-adv-x="368" 
d="M291 -120l38 -87c-21 -17 -49 -39 -125 -39c-86 0 -143 39 -143 115c0 58 31 99 99 131h-86v710h220v-710c-47 -22 -99 -58 -99 -100c0 -26 18 -38 40 -38c23 0 37 6 56 18z" />
    <glyph glyph-name="Itilde" unicode="&#x128;" horiz-adv-x="368" 
d="M269 761c-66 0 -134 39 -172 39c-22 0 -30 -11 -33 -32h-86c3 92 40 151 120 151c65 0 133 -40 172 -40c21 0 30 12 33 33h86c-3 -93 -40 -151 -120 -151zM74 710h220v-710h-220v710z" />
    <glyph glyph-name="Jcircumflex" unicode="&#x134;" horiz-adv-x="469" 
d="M293 838l-54 -70h-162l136 144h160l136 -144h-162zM183 286v424h220v-470c0 -190 -109 -249 -245 -249c-64 0 -118 13 -144 19l16 179c18 -3 42 -9 68 -9c62 0 85 40 85 106z" />
    <glyph glyph-name="uni0136" unicode="&#x136;" horiz-adv-x="745" 
d="M482 389l261 -389h-272l-144 216l-33 -42v-174h-220v710h220v-269l185 269h241zM372 -59c46 0 80 -25 80 -83c0 -61 -46 -131 -105 -178l-55 51c22 20 43 46 55 67c-31 7 -55 32 -55 68c0 45 36 75 80 75z" />
    <glyph glyph-name="Lacute" unicode="&#x139;" horiz-adv-x="531" 
d="M435 912l-174 -144h-160l144 144h190zM294 188h192v-188h-412v710h220v-522z" />
    <glyph glyph-name="Lcaron" unicode="&#x13d;" horiz-adv-x="531" 
d="M530 750l-47 -182h-130l17 182h160zM294 710v-522h192v-188h-412v710h220z" />
    <glyph glyph-name="uni013B" unicode="&#x13b;" horiz-adv-x="531" 
d="M294 188h192v-188h-412v710h220v-522zM265 -59c46 0 80 -25 80 -83c0 -61 -46 -131 -105 -178l-55 51c22 20 43 46 55 67c-31 7 -55 32 -55 68c0 45 36 75 80 75z" />
    <glyph glyph-name="Ldot" unicode="&#x13f;" horiz-adv-x="531" 
d="M294 710v-522h192v-188h-412v710h220zM449 502c76 0 128 -50 128 -122c0 -73 -52 -116 -128 -116c-75 0 -127 43 -127 116c0 72 52 122 127 122z" />
    <glyph glyph-name="Lslash" unicode="&#x141;" horiz-adv-x="531" 
d="M294 188h192v-188h-412v197l-74 -63v153l74 63v360h220v-174l109 93v-154l-109 -92v-195z" />
    <glyph glyph-name="Nacute" unicode="&#x143;" horiz-adv-x="767" 
d="M638 912l-174 -144h-160l144 144h190zM503 710h190v-710h-217l-212 361v-361h-190v710h226l203 -311v311z" />
    <glyph glyph-name="Ncaron" unicode="&#x147;" horiz-adv-x="767" 
d="M304 768l-136 144h162l54 -70l54 70h162l-136 -144h-160zM503 710h190v-710h-217l-212 361v-361h-190v710h226l203 -311v311z" />
    <glyph glyph-name="uni0145" unicode="&#x145;" horiz-adv-x="767" 
d="M503 710h190v-710h-217l-212 361v-361h-190v710h226l203 -311v311zM383 -59c46 0 80 -25 80 -83c0 -61 -46 -131 -105 -178l-55 51c22 20 43 46 55 67c-31 7 -55 32 -55 68c0 45 36 75 80 75z" />
    <glyph glyph-name="Eng" unicode="&#x14a;" horiz-adv-x="767" 
d="M503 710h190v-711c0 -164 -99 -212 -203 -212c-69 0 -111 10 -133 16l13 154c16 -2 36 -7 59 -7c46 0 67 24 73 67l-238 357v-374h-190v710h226l203 -311v311z" />
    <glyph glyph-name="Ntilde" unicode="&#xd1;" horiz-adv-x="767" 
d="M297 800c-22 0 -30 -11 -33 -32h-86c3 92 40 151 120 151c65 0 133 -40 172 -40c21 0 30 12 33 33h86c-3 -93 -40 -151 -120 -151c-66 0 -134 39 -172 39zM503 710h190v-710h-217l-212 361v-361h-190v710h226l203 -311v311z" />
    <glyph glyph-name="Oacute" unicode="&#xd3;" horiz-adv-x="801" 
d="M465 912h190l-174 -144h-160zM400 -18c-201 0 -363 148 -363 373s162 373 363 373s364 -148 364 -373s-163 -373 -364 -373zM400 188c70 0 132 52 132 167s-62 167 -132 167s-130 -52 -130 -167s60 -167 130 -167z" />
    <glyph glyph-name="Obreve" unicode="&#x14e;" horiz-adv-x="801" 
d="M401 763c-113 0 -183 50 -184 149h128c3 -38 27 -51 56 -51c30 0 54 13 56 51h128c-8 -99 -73 -149 -184 -149zM400 -18c-201 0 -363 148 -363 373s162 373 363 373s364 -148 364 -373s-163 -373 -364 -373zM400 188c70 0 132 52 132 167s-62 167 -132 167
s-130 -52 -130 -167s60 -167 130 -167z" />
    <glyph glyph-name="Ocircumflex" unicode="&#xd4;" horiz-adv-x="801" 
d="M401 838l-54 -70h-162l136 144h160l136 -144h-162zM400 728c201 0 364 -148 364 -373s-163 -373 -364 -373s-363 148 -363 373s162 373 363 373zM400 188c70 0 132 52 132 167s-62 167 -132 167s-130 -52 -130 -167s60 -167 130 -167z" />
    <glyph glyph-name="Odieresis" unicode="&#xd6;" horiz-adv-x="801" 
d="M285 760c-52 0 -87 31 -87 86c0 54 35 89 87 89c54 0 89 -35 89 -89c0 -55 -35 -86 -89 -86zM518 760c-53 0 -89 31 -89 86c0 54 36 89 89 89c52 0 87 -35 87 -89c0 -55 -35 -86 -87 -86zM400 -18c-201 0 -363 148 -363 373s162 373 363 373s364 -148 364 -373
s-163 -373 -364 -373zM400 188c70 0 132 52 132 167s-62 167 -132 167s-130 -52 -130 -167s60 -167 130 -167z" />
    <glyph glyph-name="Ograve" unicode="&#xd2;" horiz-adv-x="801" 
d="M321 768l-174 144h190l144 -144h-160zM400 -18c-201 0 -363 148 -363 373s162 373 363 373s364 -148 364 -373s-163 -373 -364 -373zM400 188c70 0 132 52 132 167s-62 167 -132 167s-130 -52 -130 -167s60 -167 130 -167z" />
    <glyph glyph-name="Ohungarumlaut" unicode="&#x150;" horiz-adv-x="801" 
d="M345 912h190l-174 -144h-160zM585 912h190l-174 -144h-160zM400 -18c-201 0 -363 148 -363 373s162 373 363 373s364 -148 364 -373s-163 -373 -364 -373zM400 188c70 0 132 52 132 167s-62 167 -132 167s-130 -52 -130 -167s60 -167 130 -167z" />
    <glyph glyph-name="Omacron" unicode="&#x14c;" horiz-adv-x="801" 
d="M251 901h300v-120h-300v120zM400 -18c-201 0 -363 148 -363 373s162 373 363 373s364 -148 364 -373s-163 -373 -364 -373zM400 188c70 0 132 52 132 167s-62 167 -132 167s-130 -52 -130 -167s60 -167 130 -167z" />
    <glyph glyph-name="Oslash" unicode="&#xd8;" horiz-adv-x="801" 
d="M764 647l-67 -69c42 -59 67 -135 67 -223c0 -225 -163 -370 -364 -370c-82 0 -158 24 -218 68l-67 -68l-78 78l67 68c-42 60 -67 136 -67 224c0 225 162 370 363 370c82 0 158 -24 219 -68l67 68zM257 355c0 -23 2 -43 6 -61l216 220c-23 16 -50 24 -79 24
c-77 0 -143 -57 -143 -183zM545 355c0 23 -2 44 -6 62l-217 -221c23 -16 50 -24 78 -24c77 0 145 57 145 183z" />
    <glyph glyph-name="Oslashacute" unicode="&#x1fe;" horiz-adv-x="801" 
d="M655 912l-174 -144h-160l144 144h190zM764 647l-67 -69c42 -59 67 -135 67 -223c0 -225 -163 -370 -364 -370c-82 0 -158 24 -218 68l-67 -68l-78 78l67 68c-42 60 -67 136 -67 224c0 225 162 370 363 370c82 0 158 -24 219 -68l67 68zM257 355c0 -23 2 -43 6 -61
l216 220c-23 16 -50 24 -79 24c-77 0 -143 -57 -143 -183zM545 355c0 23 -2 44 -6 62l-217 -221c23 -16 50 -24 78 -24c77 0 145 57 145 183z" />
    <glyph glyph-name="Otilde" unicode="&#xd5;" horiz-adv-x="801" 
d="M486 761c-66 0 -134 39 -172 39c-22 0 -30 -11 -33 -32h-86c3 92 40 151 120 151c65 0 133 -40 172 -40c21 0 30 12 33 33h86c-3 -93 -40 -151 -120 -151zM400 -18c-201 0 -363 148 -363 373s162 373 363 373s364 -148 364 -373s-163 -373 -364 -373zM400 188
c70 0 132 52 132 167s-62 167 -132 167s-130 -52 -130 -167s60 -167 130 -167z" />
    <glyph glyph-name="OE" unicode="&#x152;" horiz-adv-x="1037" 
d="M979 526h-227v-82h195v-162h-195v-98h227v-184h-472c-33 -10 -69 -15 -107 -15c-201 0 -363 145 -363 370s162 370 363 370c38 0 74 -5 107 -15h472v-184zM400 189c70 0 132 51 132 166s-62 166 -132 166s-130 -51 -130 -166s60 -166 130 -166z" />
    <glyph glyph-name="Thorn" unicode="&#xde;" horiz-adv-x="696" 
d="M391 629c186 0 285 -88 285 -251s-98 -282 -285 -282h-97v-96h-220v710h220v-81h97zM341 263c74 0 104 44 104 97s-32 85 -104 85h-47v-182h47z" />
    <glyph glyph-name="Racute" unicode="&#x154;" horiz-adv-x="730" 
d="M599 912l-174 -144h-160l144 144h190zM455 0l-131 222h-30v-222h-220v710h331c186 0 285 -86 285 -236c0 -108 -50 -191 -148 -229l166 -245h-253zM294 526v-162h59c74 0 104 34 104 87s-32 75 -104 75h-59z" />
    <glyph glyph-name="Rcaron" unicode="&#x158;" horiz-adv-x="730" 
d="M265 768l-136 144h162l54 -70l54 70h162l-136 -144h-160zM455 0l-131 222h-30v-222h-220v710h331c186 0 285 -86 285 -236c0 -108 -50 -191 -148 -229l166 -245h-253zM294 526v-162h59c74 0 104 34 104 87s-32 75 -104 75h-59z" />
    <glyph glyph-name="uni0156" unicode="&#x156;" horiz-adv-x="730" 
d="M542 245l166 -245h-253l-131 222h-30v-222h-220v710h331c186 0 285 -86 285 -236c0 -108 -50 -191 -148 -229zM294 526v-162h59c74 0 104 34 104 87s-32 75 -104 75h-59zM364 -59c46 0 80 -25 80 -83c0 -61 -46 -131 -105 -178l-55 51c22 20 43 46 55 67
c-31 7 -55 32 -55 68c0 45 36 75 80 75z" />
    <glyph glyph-name="Sacute" unicode="&#x15a;" horiz-adv-x="612" 
d="M370 912h190l-174 -144h-160zM317 -18c-156 0 -242 50 -302 101l72 152c63 -37 127 -77 199 -77c46 0 69 16 69 41c0 29 -31 41 -77 54c-94 27 -240 61 -240 239c0 169 139 236 272 236s207 -38 260 -90l-75 -143c-63 34 -112 59 -168 59c-41 0 -68 -14 -68 -38
c0 -27 34 -39 80 -52c97 -29 249 -64 249 -230c0 -173 -118 -252 -271 -252z" />
    <glyph glyph-name="Scaron" unicode="&#x160;" horiz-adv-x="612" 
d="M226 768l-136 144h162l54 -70l54 70h162l-136 -144h-160zM339 464c97 -29 249 -64 249 -230c0 -173 -118 -252 -271 -252c-156 0 -242 50 -302 101l72 152c63 -37 127 -77 199 -77c46 0 69 16 69 41c0 29 -31 41 -77 54c-94 27 -240 61 -240 239c0 169 139 236 272 236
s207 -38 260 -90l-75 -143c-63 34 -112 59 -168 59c-41 0 -68 -14 -68 -38c0 -27 34 -39 80 -52z" />
    <glyph glyph-name="Scedilla" unicode="&#x15e;" horiz-adv-x="612" 
d="M588 234c0 -160 -100 -239 -236 -251l-24 -32c6 1 10 1 15 1c65 0 103 -34 103 -91c0 -62 -64 -98 -162 -98c-54 0 -94 14 -137 43l43 67c36 -22 58 -31 84 -31c16 0 35 4 35 23c0 18 -14 23 -32 23c-12 0 -20 -2 -33 -5l-48 29l56 73c-116 12 -186 55 -237 98l72 152
c63 -37 127 -77 199 -77c46 0 69 16 69 41c0 29 -31 41 -77 54c-94 27 -240 61 -240 239c0 169 139 236 272 236s207 -38 260 -90l-75 -143c-63 34 -112 59 -168 59c-41 0 -68 -14 -68 -38c0 -27 34 -39 80 -52c97 -29 249 -64 249 -230z" />
    <glyph glyph-name="Scircumflex" unicode="&#x15c;" horiz-adv-x="612" 
d="M306 838l-54 -70h-162l136 144h160l136 -144h-162zM339 464c97 -29 249 -64 249 -230c0 -173 -118 -252 -271 -252c-156 0 -242 50 -302 101l72 152c63 -37 127 -77 199 -77c46 0 69 16 69 41c0 29 -31 41 -77 54c-94 27 -240 61 -240 239c0 169 139 236 272 236
s207 -38 260 -90l-75 -143c-63 34 -112 59 -168 59c-41 0 -68 -14 -68 -38c0 -27 34 -39 80 -52z" />
    <glyph glyph-name="uni0218" unicode="&#x218;" horiz-adv-x="612" 
d="M339 464c97 -29 249 -64 249 -230c0 -173 -118 -252 -271 -252c-156 0 -242 50 -302 101l72 152c63 -37 127 -77 199 -77c46 0 69 16 69 41c0 29 -31 41 -77 54c-94 27 -240 61 -240 239c0 169 139 236 272 236s207 -38 260 -90l-75 -143c-63 34 -112 59 -168 59
c-41 0 -68 -14 -68 -38c0 -27 34 -39 80 -52zM305 -59c46 0 80 -25 80 -83c0 -61 -46 -131 -105 -178l-55 51c22 20 43 46 55 67c-31 7 -55 32 -55 68c0 45 36 75 80 75z" />
    <glyph glyph-name="uni1E9E" unicode="&#x1e9e;" horiz-adv-x="1224" 
d="M317 -18c-156 0 -242 50 -302 101l72 152c63 -37 127 -77 199 -77c46 0 69 16 69 41c0 29 -31 41 -77 54c-94 27 -240 61 -240 239c0 169 139 236 272 236s207 -38 260 -90l-75 -143c-63 34 -112 59 -168 59c-41 0 -68 -14 -68 -38c0 -27 34 -39 80 -52
c97 -29 249 -64 249 -230c0 -173 -118 -252 -271 -252zM929 -18c-156 0 -242 50 -302 101l72 152c63 -37 127 -77 199 -77c46 0 69 16 69 41c0 29 -31 41 -77 54c-94 27 -240 61 -240 239c0 169 139 236 272 236s207 -38 260 -90l-75 -143c-63 34 -112 59 -168 59
c-41 0 -68 -14 -68 -38c0 -27 34 -39 80 -52c97 -29 249 -64 249 -230c0 -173 -118 -252 -271 -252z" />
    <glyph glyph-name="Tbar" unicode="&#x166;" horiz-adv-x="582" 
d="M563 522h-162v-158h120v-142h-120v-222h-220v222h-140v142h140v158h-162v188h544v-188z" />
    <glyph glyph-name="Tcaron" unicode="&#x164;" horiz-adv-x="602" 
d="M221 768l-136 144h162l54 -70l54 70h162l-136 -144h-160zM573 710v-188h-162v-522h-220v522h-162v188h544z" />
    <glyph glyph-name="uni0162" unicode="&#x162;" horiz-adv-x="602" 
d="M411 0h-52l-36 -49c6 1 10 1 15 1c65 0 103 -34 103 -91c0 -62 -64 -98 -162 -98c-54 0 -94 14 -137 43l43 67c36 -22 58 -31 84 -31c16 0 35 4 35 23c0 18 -14 23 -32 23c-12 0 -20 -2 -33 -5l-48 29l68 88h-68v522h-162v188h544v-188h-162v-522z" />
    <glyph glyph-name="uni021A" unicode="&#x21a;" horiz-adv-x="602" 
d="M573 710v-188h-162v-522h-220v522h-162v188h544zM300 -59c46 0 80 -25 80 -83c0 -61 -46 -131 -105 -178l-55 51c22 20 43 46 55 67c-31 7 -55 32 -55 68c0 45 36 75 80 75z" />
    <glyph glyph-name="Uacute" unicode="&#xda;" horiz-adv-x="739" 
d="M434 912h190l-174 -144h-160zM368 -18c-166 0 -302 77 -302 267v461h220v-422c-1 -66 20 -106 82 -106s85 40 85 106v422h220v-461c0 -190 -134 -267 -305 -267z" />
    <glyph glyph-name="Ubreve" unicode="&#x16c;" horiz-adv-x="739" 
d="M370 763c-113 0 -183 50 -184 149h128c3 -38 27 -51 56 -51c30 0 54 13 56 51h128c-8 -99 -73 -149 -184 -149zM368 -18c-166 0 -302 77 -302 267v461h220v-422c-1 -66 20 -106 82 -106s85 40 85 106v422h220v-461c0 -190 -134 -267 -305 -267z" />
    <glyph glyph-name="Ucircumflex" unicode="&#xdb;" horiz-adv-x="739" 
d="M370 838l-54 -70h-162l136 144h160l136 -144h-162zM453 710h220v-461c0 -190 -134 -267 -305 -267c-166 0 -302 77 -302 267v461h220v-422c-1 -66 20 -106 82 -106s85 40 85 106v422z" />
    <glyph glyph-name="Udieresis" unicode="&#xdc;" horiz-adv-x="739" 
d="M254 760c-52 0 -87 31 -87 86c0 54 35 89 87 89c54 0 89 -35 89 -89c0 -55 -35 -86 -89 -86zM487 760c-53 0 -89 31 -89 86c0 54 36 89 89 89c52 0 87 -35 87 -89c0 -55 -35 -86 -87 -86zM368 -18c-166 0 -302 77 -302 267v461h220v-422c-1 -66 20 -106 82 -106
s85 40 85 106v422h220v-461c0 -190 -134 -267 -305 -267z" />
    <glyph glyph-name="Ugrave" unicode="&#xd9;" horiz-adv-x="739" 
d="M290 768l-174 144h190l144 -144h-160zM368 -18c-166 0 -302 77 -302 267v461h220v-422c-1 -66 20 -106 82 -106s85 40 85 106v422h220v-461c0 -190 -134 -267 -305 -267z" />
    <glyph glyph-name="Uhungarumlaut" unicode="&#x170;" horiz-adv-x="739" 
d="M314 912h190l-174 -144h-160zM554 912h190l-174 -144h-160zM368 -18c-166 0 -302 77 -302 267v461h220v-422c-1 -66 20 -106 82 -106s85 40 85 106v422h220v-461c0 -190 -134 -267 -305 -267z" />
    <glyph glyph-name="Umacron" unicode="&#x16a;" horiz-adv-x="739" 
d="M220 901h300v-120h-300v120zM368 -18c-166 0 -302 77 -302 267v461h220v-422c-1 -66 20 -106 82 -106s85 40 85 106v422h220v-461c0 -190 -134 -267 -305 -267z" />
    <glyph glyph-name="Uogonek" unicode="&#x172;" horiz-adv-x="739" 
d="M453 710h220v-461c0 -152 -85 -231 -207 -257c-44 -23 -90 -57 -90 -96c0 -26 18 -38 40 -38c23 0 37 6 56 18l38 -87c-21 -17 -49 -39 -125 -39c-86 0 -143 39 -143 115c0 51 24 89 77 119c-143 15 -253 94 -253 265v461h220v-422c-1 -66 20 -106 82 -106s85 40 85 106
v422z" />
    <glyph glyph-name="Uring" unicode="&#x16e;" horiz-adv-x="739" 
d="M370 770c-68 0 -110 38 -110 99c0 64 42 104 110 104s110 -40 110 -104c0 -61 -42 -99 -110 -99zM370 825c31 0 51 17 51 45c0 29 -20 48 -51 48s-51 -19 -51 -48c0 -28 20 -45 51 -45zM368 -18c-166 0 -302 77 -302 267v461h220v-422c-1 -66 20 -106 82 -106
s85 40 85 106v422h220v-461c0 -190 -134 -267 -305 -267z" />
    <glyph glyph-name="Utilde" unicode="&#x168;" horiz-adv-x="739" 
d="M455 761c-66 0 -134 39 -172 39c-22 0 -30 -11 -33 -32h-86c3 92 40 151 120 151c65 0 133 -40 172 -40c21 0 30 12 33 33h86c-3 -93 -40 -151 -120 -151zM368 -18c-166 0 -302 77 -302 267v461h220v-422c-1 -66 20 -106 82 -106s85 40 85 106v422h220v-461
c0 -190 -134 -267 -305 -267z" />
    <glyph glyph-name="Wacute" unicode="&#x1e82;" horiz-adv-x="1152" 
d="M840 912l-174 -144h-160l144 144h190zM931 710h216l-241 -710h-199l-131 407l-132 -407h-199l-240 710h242l121 -401l125 401h192l125 -401z" />
    <glyph glyph-name="Wcircumflex" unicode="&#x174;" horiz-adv-x="1152" 
d="M586 838l-54 -70h-162l136 144h160l136 -144h-162zM931 710h216l-241 -710h-199l-131 407l-132 -407h-199l-240 710h242l121 -401l125 401h192l125 -401z" />
    <glyph glyph-name="Wdieresis" unicode="&#x1e84;" horiz-adv-x="1152" 
d="M470 760c-52 0 -87 31 -87 86c0 54 35 89 87 89c54 0 89 -35 89 -89c0 -55 -35 -86 -89 -86zM703 760c-53 0 -89 31 -89 86c0 54 36 89 89 89c52 0 87 -35 87 -89c0 -55 -35 -86 -87 -86zM931 710h216l-241 -710h-199l-131 407l-132 -407h-199l-240 710h242l121 -401
l125 401h192l125 -401z" />
    <glyph glyph-name="Wgrave" unicode="&#x1e80;" horiz-adv-x="1152" 
d="M666 768h-160l-174 144h190zM931 710h216l-241 -710h-199l-131 407l-132 -407h-199l-240 710h242l121 -401l125 401h192l125 -401z" />
    <glyph glyph-name="Yacute" unicode="&#xdd;" horiz-adv-x="659" 
d="M584 912l-174 -144h-160l144 144h190zM669 710l-232 -448v-262h-220v260l-232 450h242l113 -232l113 232h216z" />
    <glyph glyph-name="Ycircumflex" unicode="&#x176;" horiz-adv-x="659" 
d="M330 838l-54 -70h-162l136 144h160l136 -144h-162zM669 710l-232 -448v-262h-220v260l-232 450h242l113 -232l113 232h216z" />
    <glyph glyph-name="Ydieresis" unicode="&#x178;" horiz-adv-x="659" 
d="M214 760c-52 0 -87 31 -87 86c0 54 35 89 87 89c54 0 89 -35 89 -89c0 -55 -35 -86 -89 -86zM447 760c-53 0 -89 31 -89 86c0 54 36 89 89 89c52 0 87 -35 87 -89c0 -55 -35 -86 -87 -86zM669 710l-232 -448v-262h-220v260l-232 450h242l113 -232l113 232h216z" />
    <glyph glyph-name="Ygrave" unicode="&#x1ef2;" horiz-adv-x="659" 
d="M410 768h-160l-174 144h190zM669 710l-232 -448v-262h-220v260l-232 450h242l113 -232l113 232h216z" />
    <glyph glyph-name="Zacute" unicode="&#x179;" horiz-adv-x="605" 
d="M371 912h190l-174 -144h-160zM39 184l264 342h-249v184h505v-184l-274 -342h291v-184h-537v184z" />
    <glyph glyph-name="Zcaron" unicode="&#x17d;" horiz-adv-x="605" 
d="M227 768l-136 144h162l54 -70l54 70h162l-136 -144h-160zM285 184h291v-184h-537v184l264 342h-249v184h505v-184z" />
    <glyph glyph-name="Zdotaccent" unicode="&#x17b;" horiz-adv-x="605" 
d="M307 759c-62 0 -106 32 -106 86c0 55 44 92 106 92c63 0 106 -37 106 -92c0 -54 -43 -86 -106 -86zM39 184l264 342h-249v184h505v-184l-274 -342h291v-184h-537v184z" />
    <glyph glyph-name="Q.alt" horiz-adv-x="801" 
d="M773 9l-169 -115l-84 107c-37 -12 -78 -19 -120 -19c-201 0 -363 148 -363 373s162 373 363 373s364 -148 364 -373c0 -94 -29 -175 -76 -237zM270 355c0 -115 60 -167 130 -167s132 52 132 167s-62 167 -132 167s-130 -52 -130 -167z" />
    <glyph glyph-name="aacute" unicode="&#xe1;" horiz-adv-x="619" 
d="M534 750l-144 -160h-160l114 160h190zM572 0h-208c-5 12 -12 35 -14 58c-35 -46 -96 -76 -158 -76c-99 0 -167 57 -167 158c0 123 91 179 324 181v8c0 40 -31 53 -82 53c-49 0 -98 -11 -142 -35l-68 132c55 43 137 68 255 68c126 0 249 -36 249 -221v-255
c0 -24 2 -52 11 -71zM294 132c22 0 38 9 55 24v78c-76 -4 -98 -26 -98 -61c0 -25 17 -41 43 -41z" />
    <glyph glyph-name="abreve" unicode="&#x103;" horiz-adv-x="619" 
d="M310 585c-113 0 -183 55 -184 165h128c3 -42 27 -57 56 -57c30 0 54 15 56 57h128c-8 -110 -73 -165 -184 -165zM572 0h-208c-5 12 -12 35 -14 58c-35 -46 -96 -76 -158 -76c-99 0 -167 57 -167 158c0 123 91 179 324 181v8c0 40 -31 53 -82 53c-49 0 -98 -11 -142 -35
l-68 132c55 43 137 68 255 68c126 0 249 -36 249 -221v-255c0 -24 2 -52 11 -71zM294 132c22 0 38 9 55 24v78c-76 -4 -98 -26 -98 -61c0 -25 17 -41 43 -41z" />
    <glyph glyph-name="acircumflex" unicode="&#xe2;" horiz-adv-x="619" 
d="M310 658l-53 -68h-160l114 160h198l114 -160h-160zM572 0h-208c-5 12 -12 35 -14 58c-35 -46 -96 -76 -158 -76c-99 0 -167 57 -167 158c0 123 91 179 324 181v8c0 40 -31 53 -82 53c-49 0 -98 -11 -142 -35l-68 132c55 43 137 68 255 68c126 0 249 -36 249 -221v-255
c0 -24 2 -52 11 -71zM294 132c22 0 38 9 55 24v78c-76 -4 -98 -26 -98 -61c0 -25 17 -41 43 -41z" />
    <glyph glyph-name="adieresis" unicode="&#xe4;" horiz-adv-x="619" 
d="M184 584c-59 0 -100 36 -100 96c0 61 41 102 100 102c60 0 100 -41 100 -102c0 -60 -40 -96 -100 -96zM435 584c-59 0 -100 36 -100 96c0 61 41 102 100 102c60 0 100 -41 100 -102c0 -60 -40 -96 -100 -96zM572 0h-208c-5 12 -12 35 -14 58c-35 -46 -96 -76 -158 -76
c-99 0 -167 57 -167 158c0 123 91 179 324 181v8c0 40 -31 53 -82 53c-49 0 -98 -11 -142 -35l-68 132c55 43 137 68 255 68c126 0 249 -36 249 -221v-255c0 -24 2 -52 11 -71zM294 132c22 0 38 9 55 24v78c-76 -4 -98 -26 -98 -61c0 -25 17 -41 43 -41z" />
    <glyph glyph-name="agrave" unicode="&#xe0;" horiz-adv-x="619" 
d="M390 590h-160l-144 160h190zM572 0h-208c-5 12 -12 35 -14 58c-35 -46 -96 -76 -158 -76c-99 0 -167 57 -167 158c0 123 91 179 324 181v8c0 40 -31 53 -82 53c-49 0 -98 -11 -142 -35l-68 132c55 43 137 68 255 68c126 0 249 -36 249 -221v-255c0 -24 2 -52 11 -71z
M294 132c22 0 38 9 55 24v78c-76 -4 -98 -26 -98 -61c0 -25 17 -41 43 -41z" />
    <glyph glyph-name="amacron" unicode="&#x101;" horiz-adv-x="619" 
d="M460 710v-120h-300v120h300zM572 0h-208c-5 12 -12 35 -14 58c-35 -46 -96 -76 -158 -76c-99 0 -167 57 -167 158c0 123 91 179 324 181v8c0 40 -31 53 -82 53c-49 0 -98 -11 -142 -35l-68 132c55 43 137 68 255 68c126 0 249 -36 249 -221v-255c0 -24 2 -52 11 -71z
M294 132c22 0 38 9 55 24v78c-76 -4 -98 -26 -98 -61c0 -25 17 -41 43 -41z" />
    <glyph glyph-name="aogonek" unicode="&#x105;" horiz-adv-x="619" 
d="M569 -120l38 -87c-21 -17 -49 -39 -125 -39c-86 0 -143 39 -143 115c0 58 31 99 99 131h-74c-5 12 -12 35 -14 58c-35 -46 -96 -76 -158 -76c-99 0 -167 57 -167 158c0 123 91 179 324 181v8c0 40 -31 53 -82 53c-49 0 -98 -11 -142 -35l-68 132c55 43 137 68 255 68
c126 0 249 -36 249 -221v-255c0 -24 2 -52 11 -71c-47 -22 -99 -58 -99 -100c0 -26 18 -38 40 -38c23 0 37 6 56 18zM294 132c22 0 38 9 55 24v78c-76 -4 -98 -26 -98 -61c0 -25 17 -41 43 -41z" />
    <glyph glyph-name="aring" unicode="&#xe5;" horiz-adv-x="619" 
d="M310 590c-76 0 -124 43 -124 111c0 72 48 117 124 117s124 -45 124 -117c0 -68 -48 -111 -124 -111zM310 749c-30 0 -49 -18 -49 -46c0 -27 19 -44 49 -44s49 17 49 44c0 28 -19 46 -49 46zM572 0h-208c-5 12 -12 35 -14 58c-35 -46 -96 -76 -158 -76
c-99 0 -167 57 -167 158c0 123 91 179 324 181v8c0 40 -31 53 -82 53c-49 0 -98 -11 -142 -35l-68 132c55 43 137 68 255 68c126 0 249 -36 249 -221v-255c0 -24 2 -52 11 -71zM294 132c22 0 38 9 55 24v78c-76 -4 -98 -26 -98 -61c0 -25 17 -41 43 -41z" />
    <glyph glyph-name="atilde" unicode="&#xe3;" horiz-adv-x="619" 
d="M224 630c-22 0 -30 -12 -33 -33h-86c3 94 40 153 120 153c65 0 133 -40 172 -40c21 0 30 12 33 33h86c-3 -94 -40 -153 -120 -153c-66 0 -134 40 -172 40zM572 0h-208c-5 12 -12 35 -14 58c-35 -46 -96 -76 -158 -76c-99 0 -167 57 -167 158c0 123 91 179 324 181v8
c0 40 -31 53 -82 53c-49 0 -98 -11 -142 -35l-68 132c55 43 137 68 255 68c126 0 249 -36 249 -221v-255c0 -24 2 -52 11 -71zM294 132c22 0 38 9 55 24v78c-76 -4 -98 -26 -98 -61c0 -25 17 -41 43 -41z" />
    <glyph glyph-name="ae" unicode="&#xe6;" horiz-adv-x="937" 
d="M910 298v-71h-332c22 -58 79 -65 135 -65c48 0 94 9 125 20l47 -160c-60 -28 -130 -36 -210 -36c-127 0 -217 34 -270 97c-45 -65 -125 -98 -213 -98c-99 0 -167 54 -167 155c0 123 91 179 324 181v8c0 40 -31 53 -82 53c-49 0 -98 -11 -142 -35l-68 132
c55 43 137 69 255 69c62 0 124 -9 171 -41c45 26 98 40 157 40c165 0 270 -90 270 -249zM638 393c-32 0 -57 -23 -65 -73h126c-6 50 -28 73 -61 73zM300 132c25 0 48 9 64 26c-8 23 -12 48 -14 76c-77 -4 -99 -26 -99 -61c0 -25 17 -41 49 -41z" />
    <glyph glyph-name="aeacute" unicode="&#x1fd;" horiz-adv-x="937" 
d="M693 750l-144 -160h-160l114 160h190zM910 298v-71h-332c22 -58 79 -65 135 -65c48 0 94 9 125 20l47 -160c-60 -28 -130 -36 -210 -36c-127 0 -217 34 -270 97c-45 -65 -125 -98 -213 -98c-99 0 -167 54 -167 155c0 123 91 179 324 181v8c0 40 -31 53 -82 53
c-49 0 -98 -11 -142 -35l-68 132c55 43 137 69 255 69c62 0 124 -9 171 -41c45 26 98 40 157 40c165 0 270 -90 270 -249zM638 393c-32 0 -57 -23 -65 -73h126c-6 50 -28 73 -61 73zM300 132c25 0 48 9 64 26c-8 23 -12 48 -14 76c-77 -4 -99 -26 -99 -61
c0 -25 17 -41 49 -41z" />
    <glyph glyph-name="cacute" unicode="&#x107;" horiz-adv-x="528" 
d="M221 590l114 160h190l-144 -160h-160zM25 265c0 171 111 282 291 282c85 0 152 -22 184 -44l-42 -173c-21 9 -58 21 -106 21c-56 0 -99 -33 -99 -86s38 -86 108 -86c46 0 78 11 104 19l45 -169c-40 -17 -98 -47 -194 -47c-185 0 -291 112 -291 283z" />
    <glyph glyph-name="ccaron" unicode="&#x10d;" horiz-adv-x="528" 
d="M202 590l-114 160h160l53 -68l53 68h160l-114 -160h-198zM361 179c46 0 78 11 104 19l45 -169c-40 -17 -98 -47 -194 -47c-185 0 -291 112 -291 283s111 282 291 282c85 0 152 -22 184 -44l-42 -173c-21 9 -58 21 -106 21c-56 0 -99 -33 -99 -86s38 -86 108 -86z" />
    <glyph glyph-name="ccedilla" unicode="&#xe7;" horiz-adv-x="528" 
d="M318 -50c65 0 103 -34 103 -91c0 -62 -64 -98 -162 -98c-54 0 -94 14 -137 43l43 67c36 -22 58 -31 84 -31c16 0 35 4 35 23c0 18 -14 23 -32 23c-12 0 -20 -2 -33 -5l-48 29l62 80c-133 29 -208 131 -208 275c0 171 111 282 291 282c85 0 152 -22 184 -44l-42 -173
c-21 9 -58 21 -106 21c-56 0 -99 -33 -99 -86s38 -86 108 -86c46 0 78 11 104 19l45 -169c-38 -16 -93 -45 -183 -47l-24 -33c6 1 10 1 15 1z" />
    <glyph glyph-name="ccircumflex" unicode="&#x109;" horiz-adv-x="528" 
d="M301 658l-53 -68h-160l114 160h198l114 -160h-160zM361 179c46 0 78 11 104 19l45 -169c-40 -17 -98 -47 -194 -47c-185 0 -291 112 -291 283s111 282 291 282c85 0 152 -22 184 -44l-42 -173c-21 9 -58 21 -106 21c-56 0 -99 -33 -99 -86s38 -86 108 -86z" />
    <glyph glyph-name="cdotaccent" unicode="&#x10b;" horiz-adv-x="528" 
d="M301 581c-73 0 -124 40 -124 103c0 64 51 105 124 105c74 0 124 -41 124 -105c0 -63 -50 -103 -124 -103zM25 265c0 171 111 282 291 282c85 0 152 -22 184 -44l-42 -173c-21 9 -58 21 -106 21c-56 0 -99 -33 -99 -86s38 -86 108 -86c46 0 78 11 104 19l45 -169
c-40 -17 -98 -47 -194 -47c-185 0 -291 112 -291 283z" />
    <glyph glyph-name="eth" unicode="&#xf0;" horiz-adv-x="653" 
d="M413 708c136 -91 210 -227 210 -403c0 -197 -115 -320 -297 -320c-163 0 -301 91 -301 270c0 181 145 247 248 247c33 0 61 -5 85 -16c-22 47 -54 86 -97 115l-127 -89l-47 67l93 65c-27 10 -57 19 -89 25l24 147c82 -13 155 -35 218 -64l92 64l47 -67zM326 171
c46 0 74 39 74 94c0 53 -28 87 -74 87s-73 -41 -73 -97c0 -55 26 -84 73 -84z" />
    <glyph glyph-name="dcaron" unicode="&#x10f;" horiz-adv-x="749" 
d="M404 490v260h214v-750h-196l-4 59c-33 -47 -84 -76 -157 -76c-132 0 -236 97 -236 283c0 187 102 282 236 282c63 0 110 -22 143 -58zM694 750h160l-47 -182h-130zM335 162c53 0 87 48 87 104c0 61 -34 103 -87 103s-82 -39 -82 -103c0 -63 29 -104 82 -104z" />
    <glyph glyph-name="dcroat" unicode="&#x111;" horiz-adv-x="675" 
d="M656 672v-82h-38v-590h-196l-4 59c-33 -47 -84 -76 -157 -76c-132 0 -236 97 -236 283c0 187 102 282 236 282c63 0 110 -22 143 -58v100h-161v82h161v78h214v-78h38zM335 162c53 0 87 48 87 104c0 61 -34 103 -87 103s-82 -39 -82 -103c0 -63 29 -104 82 -104z" />
    <glyph glyph-name="eacute" unicode="&#xe9;" horiz-adv-x="613" 
d="M541 750l-144 -160h-160l114 160h190zM586 298v-71h-332c22 -60 81 -65 132 -65c55 0 92 8 128 20l47 -160c-60 -28 -136 -40 -212 -40c-209 0 -324 103 -324 277c0 180 123 288 294 288c159 0 267 -90 267 -249zM314 393c-32 0 -57 -25 -65 -73h126c-6 50 -29 73 -61 73
z" />
    <glyph glyph-name="ebreve" unicode="&#x115;" horiz-adv-x="613" 
d="M317 585c-113 0 -183 55 -184 165h128c3 -42 27 -57 56 -57c30 0 54 15 56 57h128c-8 -110 -73 -165 -184 -165zM586 298v-71h-332c22 -60 81 -65 132 -65c55 0 92 8 128 20l47 -160c-60 -28 -136 -40 -212 -40c-209 0 -324 103 -324 277c0 180 123 288 294 288
c159 0 267 -90 267 -249zM314 393c-32 0 -57 -25 -65 -73h126c-6 50 -29 73 -61 73z" />
    <glyph glyph-name="ecaron" unicode="&#x11b;" horiz-adv-x="613" 
d="M218 590l-114 160h160l53 -68l53 68h160l-114 -160h-198zM586 298v-71h-332c22 -60 81 -65 132 -65c55 0 92 8 128 20l47 -160c-60 -28 -136 -40 -212 -40c-209 0 -324 103 -324 277c0 180 123 288 294 288c159 0 267 -90 267 -249zM314 393c-32 0 -57 -25 -65 -73h126
c-6 50 -29 73 -61 73z" />
    <glyph glyph-name="ecircumflex" unicode="&#xea;" horiz-adv-x="613" 
d="M317 658l-53 -68h-160l114 160h198l114 -160h-160zM586 298v-71h-332c22 -60 81 -65 132 -65c55 0 92 8 128 20l47 -160c-60 -28 -136 -40 -212 -40c-209 0 -324 103 -324 277c0 180 123 288 294 288c159 0 267 -90 267 -249zM314 393c-32 0 -57 -25 -65 -73h126
c-6 50 -29 73 -61 73z" />
    <glyph glyph-name="edieresis" unicode="&#xeb;" horiz-adv-x="613" 
d="M191 584c-59 0 -100 36 -100 96c0 61 41 102 100 102c60 0 100 -41 100 -102c0 -60 -40 -96 -100 -96zM442 584c-59 0 -100 36 -100 96c0 61 41 102 100 102c60 0 100 -41 100 -102c0 -60 -40 -96 -100 -96zM586 298v-71h-332c22 -60 81 -65 132 -65c55 0 92 8 128 20
l47 -160c-60 -28 -136 -40 -212 -40c-209 0 -324 103 -324 277c0 180 123 288 294 288c159 0 267 -90 267 -249zM314 393c-32 0 -57 -25 -65 -73h126c-6 50 -29 73 -61 73z" />
    <glyph glyph-name="edotaccent" unicode="&#x117;" horiz-adv-x="613" 
d="M317 581c-73 0 -124 40 -124 103c0 64 51 105 124 105c74 0 124 -41 124 -105c0 -63 -50 -103 -124 -103zM586 298v-71h-332c22 -60 81 -65 132 -65c55 0 92 8 128 20l47 -160c-60 -28 -136 -40 -212 -40c-209 0 -324 103 -324 277c0 180 123 288 294 288
c159 0 267 -90 267 -249zM314 393c-32 0 -57 -25 -65 -73h126c-6 50 -29 73 -61 73z" />
    <glyph glyph-name="egrave" unicode="&#xe8;" horiz-adv-x="613" 
d="M397 590h-160l-144 160h190zM586 298v-71h-332c22 -60 81 -65 132 -65c55 0 92 8 128 20l47 -160c-60 -28 -136 -40 -212 -40c-209 0 -324 103 -324 277c0 180 123 288 294 288c159 0 267 -90 267 -249zM314 393c-32 0 -57 -25 -65 -73h126c-6 50 -29 73 -61 73z" />
    <glyph glyph-name="emacron" unicode="&#x113;" horiz-adv-x="613" 
d="M467 710v-120h-300v120h300zM586 298v-71h-332c22 -60 81 -65 132 -65c55 0 92 8 128 20l47 -160c-60 -28 -136 -40 -212 -40c-209 0 -324 103 -324 277c0 180 123 288 294 288c159 0 267 -90 267 -249zM314 393c-32 0 -57 -25 -65 -73h126c-6 50 -29 73 -61 73z" />
    <glyph glyph-name="eogonek" unicode="&#x119;" horiz-adv-x="613" 
d="M586 298v-71h-332c22 -60 81 -65 132 -65c55 0 92 8 128 20l47 -160c-5 -2 -10 -5 -16 -7c-73 -33 -120 -76 -120 -115c0 -26 18 -38 40 -38c23 0 37 6 56 18l38 -87c-21 -17 -49 -39 -125 -39c-86 0 -143 36 -143 112c0 48 21 86 67 116h-9c-209 0 -324 103 -324 277
c0 180 123 288 294 288c159 0 267 -90 267 -249zM314 393c-32 0 -57 -25 -65 -73h126c-6 50 -29 73 -61 73z" />
    <glyph glyph-name="gbreve" unicode="&#x11f;" horiz-adv-x="626" 
d="M295 585c-113 0 -183 55 -184 165h128c3 -42 27 -57 56 -57c30 0 54 15 56 57h128c-8 -110 -73 -165 -184 -165zM448 129c132 0 170 -76 170 -144c0 -83 -57 -187 -349 -187c-158 0 -275 30 -275 104c0 55 62 70 116 77c-49 13 -96 41 -96 99c0 63 50 97 112 129
c-63 31 -100 83 -100 155c0 117 107 188 268 188c64 0 121 -11 166 -30l88 87l110 -109l-99 -64c11 -22 17 -46 17 -72c0 -123 -114 -189 -280 -189c-30 0 -59 2 -85 7c-7 -5 -12 -12 -12 -23c0 -20 17 -28 65 -28h184zM302 427c-34 0 -59 -25 -59 -65c0 -42 25 -68 59 -68
s56 26 56 68c0 40 -22 65 -56 65zM298 -103c70 0 107 14 107 39c0 20 -15 33 -56 33h-150c-5 -7 -9 -15 -9 -24c0 -25 25 -48 108 -48z" />
    <glyph glyph-name="gcircumflex" unicode="&#x11d;" horiz-adv-x="626" 
d="M295 658l-53 -68h-160l114 160h198l114 -160h-160zM448 129c132 0 170 -76 170 -144c0 -83 -57 -187 -349 -187c-158 0 -275 30 -275 104c0 55 62 70 116 77c-49 13 -96 41 -96 99c0 63 50 97 112 129c-63 31 -100 83 -100 155c0 117 107 188 268 188
c64 0 121 -11 166 -30l88 87l110 -109l-99 -64c11 -22 17 -46 17 -72c0 -123 -114 -189 -280 -189c-30 0 -59 2 -85 7c-7 -5 -12 -12 -12 -23c0 -20 17 -28 65 -28h184zM302 427c-34 0 -59 -25 -59 -65c0 -42 25 -68 59 -68s56 26 56 68c0 40 -22 65 -56 65zM298 -103
c70 0 107 14 107 39c0 20 -15 33 -56 33h-150c-5 -7 -9 -15 -9 -24c0 -25 25 -48 108 -48z" />
    <glyph glyph-name="uni0123" unicode="&#x123;" horiz-adv-x="626" 
d="M306 588c-45 0 -80 25 -80 83c0 61 46 131 106 178l55 -51c-22 -20 -44 -46 -56 -67c32 -8 56 -32 56 -68c0 -45 -37 -75 -81 -75zM448 129c132 0 170 -76 170 -144c0 -83 -57 -187 -349 -187c-158 0 -275 30 -275 104c0 55 62 70 116 77c-49 13 -96 41 -96 99
c0 63 50 97 112 129c-63 31 -100 83 -100 155c0 117 107 188 268 188c64 0 121 -11 166 -30l88 87l110 -109l-99 -64c11 -22 17 -46 17 -72c0 -123 -114 -189 -280 -189c-30 0 -59 2 -85 7c-7 -5 -12 -12 -12 -23c0 -20 17 -28 65 -28h184zM302 427c-34 0 -59 -25 -59 -65
c0 -42 25 -68 59 -68s56 26 56 68c0 40 -22 65 -56 65zM298 -103c70 0 107 14 107 39c0 20 -15 33 -56 33h-150c-5 -7 -9 -15 -9 -24c0 -25 25 -48 108 -48z" />
    <glyph glyph-name="gdotaccent" unicode="&#x121;" horiz-adv-x="626" 
d="M295 581c-73 0 -124 40 -124 103c0 64 51 105 124 105c74 0 124 -41 124 -105c0 -63 -50 -103 -124 -103zM448 129c132 0 170 -76 170 -144c0 -83 -57 -187 -349 -187c-158 0 -275 30 -275 104c0 55 62 70 116 77c-49 13 -96 41 -96 99c0 63 50 97 112 129
c-63 31 -100 83 -100 155c0 117 107 188 268 188c64 0 121 -11 166 -30l88 87l110 -109l-99 -64c11 -22 17 -46 17 -72c0 -123 -114 -189 -280 -189c-30 0 -59 2 -85 7c-7 -5 -12 -12 -12 -23c0 -20 17 -28 65 -28h184zM302 427c-34 0 -59 -25 -59 -65c0 -42 25 -68 59 -68
s56 26 56 68c0 40 -22 65 -56 65zM298 -103c70 0 107 14 107 39c0 20 -15 33 -56 33h-150c-5 -7 -9 -15 -9 -24c0 -25 25 -48 108 -48z" />
    <glyph glyph-name="hbar" unicode="&#x127;" horiz-adv-x="671" 
d="M450 547c126 0 164 -84 164 -191v-356h-212v282c0 54 -13 83 -58 83c-28 0 -55 -18 -75 -46v-319h-212v590h-38v82h38v78h212v-78h163v-82h-163v-146c31 57 85 103 181 103z" />
    <glyph glyph-name="hcircumflex" unicode="&#x125;" horiz-adv-x="671" 
d="M336 878l-54 -70h-162l136 144h160l136 -144h-162zM450 547c126 0 164 -84 164 -191v-356h-212v282c0 54 -13 83 -58 83c-28 0 -55 -18 -75 -46v-319h-212v750h212v-306c31 57 85 103 181 103z" />
    <glyph glyph-name="dotlessi" unicode="&#x131;" horiz-adv-x="362" 
d="M75 529h212v-529h-212v529z" />
    <glyph glyph-name="iacute" unicode="&#xed;" horiz-adv-x="362" 
d="M101 590l114 160h190l-144 -160h-160zM75 529h212v-529h-212v529z" />
    <glyph glyph-name="ibreve" unicode="&#x12d;" horiz-adv-x="362" 
d="M181 585c-113 0 -183 55 -184 165h128c3 -42 27 -57 56 -57c30 0 54 15 56 57h128c-8 -110 -73 -165 -184 -165zM75 529h212v-529h-212v529z" />
    <glyph glyph-name="icircumflex" unicode="&#xee;" horiz-adv-x="362" 
d="M181 658l-53 -68h-160l114 160h198l114 -160h-160zM75 0v529h212v-529h-212z" />
    <glyph glyph-name="idieresis" unicode="&#xef;" horiz-adv-x="362" 
d="M55 584c-59 0 -100 36 -100 96c0 61 41 102 100 102c60 0 100 -41 100 -102c0 -60 -40 -96 -100 -96zM306 584c-59 0 -100 36 -100 96c0 61 41 102 100 102c60 0 100 -41 100 -102c0 -60 -40 -96 -100 -96zM75 529h212v-529h-212v529z" />
    <glyph glyph-name="i.loclTRK" horiz-adv-x="362" 
d="M181 581c-73 0 -124 40 -124 103c0 64 51 105 124 105c74 0 124 -41 124 -105c0 -63 -50 -103 -124 -103zM75 529h212v-529h-212v529z" />
    <glyph glyph-name="igrave" unicode="&#xec;" horiz-adv-x="362" 
d="M-43 750h190l114 -160h-160zM75 529h212v-529h-212v529z" />
    <glyph glyph-name="ij" unicode="&#x133;" horiz-adv-x="724" 
d="M181 581c-73 0 -124 40 -124 103c0 64 51 105 124 105c74 0 124 -41 124 -105c0 -63 -50 -103 -124 -103zM543 581c-73 0 -124 40 -124 103c0 64 51 105 124 105c74 0 124 -41 124 -105c0 -63 -50 -103 -124 -103zM75 529h212v-529h-212v529zM322 -200v162
c20 -2 42 -3 55 -3c44 0 60 27 60 61v509h212v-530c0 -119 -58 -206 -224 -206c-40 0 -83 3 -103 7z" />
    <glyph glyph-name="imacron" unicode="&#x12b;" horiz-adv-x="362" 
d="M31 710h300v-120h-300v120zM75 529h212v-529h-212v529z" />
    <glyph glyph-name="iogonek" unicode="&#x12f;" horiz-adv-x="362" 
d="M181 581c-73 0 -124 40 -124 103c0 64 51 105 124 105c74 0 124 -41 124 -105c0 -63 -50 -103 -124 -103zM284 -120l38 -87c-21 -17 -49 -39 -125 -39c-86 0 -143 39 -143 115c0 58 31 99 99 131h-78v529h212v-529c-47 -22 -99 -58 -99 -100c0 -26 18 -38 40 -38
c23 0 37 6 56 18z" />
    <glyph glyph-name="itilde" unicode="&#x129;" horiz-adv-x="362" 
d="M267 590c-66 0 -134 40 -172 40c-22 0 -30 -12 -33 -33h-86c3 94 40 153 120 153c65 0 133 -40 172 -40c21 0 30 12 33 33h86c-3 -94 -40 -153 -120 -153zM75 529h212v-529h-212v529z" />
    <glyph glyph-name="uni0237" unicode="&#x237;" horiz-adv-x="362" 
d="M-40 -200v162c20 -2 42 -3 55 -3c44 0 60 27 60 61v509h212v-530c0 -119 -58 -206 -224 -206c-40 0 -83 3 -103 7z" />
    <glyph glyph-name="jcircumflex" unicode="&#x135;" horiz-adv-x="362" 
d="M181 658l-53 -68h-160l114 160h198l114 -160h-160zM75 20v509h212v-530c0 -119 -58 -206 -224 -206c-40 0 -83 3 -103 7v162c20 -2 42 -3 55 -3c44 0 60 27 60 61z" />
    <glyph glyph-name="uni0137" unicode="&#x137;" horiz-adv-x="645" 
d="M441 313l224 -313h-252l-112 160l-32 -36v-124h-212v750h212v-392l135 171h235zM323 -59c45 0 80 -25 80 -83c0 -61 -46 -131 -106 -178l-55 51c22 20 44 46 56 67c-32 8 -56 32 -56 68c0 45 37 75 81 75z" />
    <glyph glyph-name="kgreenlandic" unicode="&#x138;" horiz-adv-x="645" 
d="M413 0l-112 160l-32 -36v-124h-212v529h212v-171l135 171h235l-198 -216l224 -313h-252z" />
    <glyph glyph-name="lacute" unicode="&#x13a;" horiz-adv-x="326" 
d="M227 952h190l-174 -144h-160zM57 750h212v-750h-212v750z" />
    <glyph glyph-name="lcaron" unicode="&#x13e;" horiz-adv-x="400" 
d="M57 750h212v-750h-212v750zM345 750h160l-47 -182h-130z" />
    <glyph glyph-name="uni013C" unicode="&#x13c;" horiz-adv-x="326" 
d="M57 750h212v-750h-212v750zM163 -59c45 0 80 -25 80 -83c0 -61 -46 -131 -106 -178l-55 51c22 20 44 46 56 67c-32 8 -56 32 -56 68c0 45 37 75 81 75z" />
    <glyph glyph-name="ldot" unicode="&#x140;" horiz-adv-x="547" 
d="M57 750h212v-750h-212v750zM436 244c-75 0 -127 43 -127 116c0 72 52 122 127 122c76 0 128 -50 128 -122c0 -73 -52 -116 -128 -116z" />
    <glyph glyph-name="lslash" unicode="&#x142;" horiz-adv-x="326" 
d="M326 576v-139l-57 -43v-394h-212v233l-57 -43v140l57 43v377h212v-217z" />
    <glyph glyph-name="nacute" unicode="&#x144;" horiz-adv-x="671" 
d="M557 750l-144 -160h-160l114 160h190zM450 547c126 0 164 -84 164 -191v-356h-212v282c0 54 -13 83 -58 83c-29 0 -56 -20 -75 -51v-314h-212v529h212v-85c31 57 85 103 181 103z" />
    <glyph glyph-name="ncaron" unicode="&#x148;" horiz-adv-x="671" 
d="M234 590l-114 160h160l53 -68l53 68h160l-114 -160h-198zM450 547c126 0 164 -84 164 -191v-356h-212v282c0 54 -13 83 -58 83c-29 0 -56 -20 -75 -51v-314h-212v529h212v-85c31 57 85 103 181 103z" />
    <glyph glyph-name="uni0146" unicode="&#x146;" horiz-adv-x="671" 
d="M450 547c126 0 164 -84 164 -191v-356h-212v282c0 54 -13 83 -58 83c-29 0 -56 -20 -75 -51v-314h-212v529h212v-85c31 57 85 103 181 103zM336 -59c45 0 80 -25 80 -83c0 -61 -46 -131 -106 -178l-55 51c22 20 44 46 56 67c-32 8 -56 32 -56 68c0 45 37 75 81 75z" />
    <glyph glyph-name="eng" unicode="&#x14b;" horiz-adv-x="671" 
d="M450 547c126 0 164 -84 164 -191v-357c0 -119 -58 -206 -224 -206c-22 0 -45 1 -65 2v164h17c44 0 60 27 60 61v262c0 54 -13 83 -58 83c-29 0 -56 -20 -75 -51v-314h-212v529h212v-85c31 57 85 103 181 103z" />
    <glyph glyph-name="ntilde" unicode="&#xf1;" horiz-adv-x="671" 
d="M247 630c-22 0 -30 -12 -33 -33h-86c3 94 40 153 120 153c65 0 133 -40 172 -40c21 0 30 12 33 33h86c-3 -94 -40 -153 -120 -153c-66 0 -134 40 -172 40zM450 547c126 0 164 -84 164 -191v-356h-212v282c0 54 -13 83 -58 83c-29 0 -56 -20 -75 -51v-314h-212v529h212
v-85c31 57 85 103 181 103z" />
    <glyph glyph-name="oacute" unicode="&#xf3;" horiz-adv-x="653" 
d="M247 590l114 160h190l-144 -160h-160zM326 -18c-163 0 -301 104 -301 283c0 181 139 282 302 282s301 -101 301 -282c0 -179 -139 -283 -302 -283zM326 169c46 0 74 41 74 96c0 56 -28 95 -74 95s-73 -39 -73 -95c0 -55 26 -96 73 -96z" />
    <glyph glyph-name="obreve" unicode="&#x14f;" horiz-adv-x="653" 
d="M327 585c-113 0 -183 55 -184 165h128c3 -42 27 -57 56 -57c30 0 54 15 56 57h128c-8 -110 -73 -165 -184 -165zM326 -18c-163 0 -301 104 -301 283c0 181 139 282 302 282s301 -101 301 -282c0 -179 -139 -283 -302 -283zM326 169c46 0 74 41 74 96c0 56 -28 95 -74 95
s-73 -39 -73 -95c0 -55 26 -96 73 -96z" />
    <glyph glyph-name="ocircumflex" unicode="&#xf4;" horiz-adv-x="653" 
d="M327 658l-53 -68h-160l114 160h198l114 -160h-160zM327 547c163 0 301 -101 301 -282c0 -179 -139 -283 -302 -283s-301 104 -301 283c0 181 139 282 302 282zM326 169c46 0 74 41 74 96c0 56 -28 95 -74 95s-73 -39 -73 -95c0 -55 26 -96 73 -96z" />
    <glyph glyph-name="odieresis" unicode="&#xf6;" horiz-adv-x="653" 
d="M201 584c-59 0 -100 36 -100 96c0 61 41 102 100 102c60 0 100 -41 100 -102c0 -60 -40 -96 -100 -96zM452 584c-59 0 -100 36 -100 96c0 61 41 102 100 102c60 0 100 -41 100 -102c0 -60 -40 -96 -100 -96zM326 -18c-163 0 -301 104 -301 283c0 181 139 282 302 282
s301 -101 301 -282c0 -179 -139 -283 -302 -283zM326 169c46 0 74 41 74 96c0 56 -28 95 -74 95s-73 -39 -73 -95c0 -55 26 -96 73 -96z" />
    <glyph glyph-name="ograve" unicode="&#xf2;" horiz-adv-x="653" 
d="M103 750h190l114 -160h-160zM326 -18c-163 0 -301 104 -301 283c0 181 139 282 302 282s301 -101 301 -282c0 -179 -139 -283 -302 -283zM326 169c46 0 74 41 74 96c0 56 -28 95 -74 95s-73 -39 -73 -95c0 -55 26 -96 73 -96z" />
    <glyph glyph-name="ohungarumlaut" unicode="&#x151;" horiz-adv-x="653" 
d="M127 590l114 160h190l-144 -160h-160zM367 590l114 160h190l-144 -160h-160zM326 -18c-163 0 -301 104 -301 283c0 181 139 282 302 282s301 -101 301 -282c0 -179 -139 -283 -302 -283zM326 169c46 0 74 41 74 96c0 56 -28 95 -74 95s-73 -39 -73 -95
c0 -55 26 -96 73 -96z" />
    <glyph glyph-name="omacron" unicode="&#x14d;" horiz-adv-x="653" 
d="M177 710h300v-120h-300v120zM326 -18c-163 0 -301 104 -301 283c0 181 139 282 302 282s301 -101 301 -282c0 -179 -139 -283 -302 -283zM326 169c46 0 74 41 74 96c0 56 -28 95 -74 95s-73 -39 -73 -95c0 -55 26 -96 73 -96z" />
    <glyph glyph-name="oslash" unicode="&#xf8;" horiz-adv-x="653" 
d="M628 501l-61 -57c38 -45 61 -106 61 -179c0 -179 -139 -280 -302 -280c-72 0 -138 19 -191 56l-60 -56l-50 46l60 56c-37 46 -60 105 -60 178c0 181 139 282 302 282c71 0 138 -19 190 -56l61 56zM228 265c0 -15 1 -28 4 -41l156 146c-16 15 -37 24 -62 24
c-61 0 -98 -54 -98 -129zM425 265c0 15 -2 29 -4 42l-156 -145c15 -15 36 -23 61 -23c61 0 99 52 99 126z" />
    <glyph glyph-name="oslashacute" unicode="&#x1ff;" horiz-adv-x="653" 
d="M551 750l-144 -160h-160l114 160h190zM628 501l-61 -57c38 -45 61 -106 61 -179c0 -179 -139 -280 -302 -280c-72 0 -138 19 -191 56l-60 -56l-50 46l60 56c-37 46 -60 105 -60 178c0 181 139 282 302 282c71 0 138 -19 190 -56l61 56zM228 265c0 -15 1 -28 4 -41
l156 146c-16 15 -37 24 -62 24c-61 0 -98 -54 -98 -129zM425 265c0 15 -2 29 -4 42l-156 -145c15 -15 36 -23 61 -23c61 0 99 52 99 126z" />
    <glyph glyph-name="otilde" unicode="&#xf5;" horiz-adv-x="653" 
d="M413 590c-66 0 -134 40 -172 40c-22 0 -30 -12 -33 -33h-86c3 94 40 153 120 153c65 0 133 -40 172 -40c21 0 30 12 33 33h86c-3 -94 -40 -153 -120 -153zM326 -18c-163 0 -301 104 -301 283c0 181 139 282 302 282s301 -101 301 -282c0 -179 -139 -283 -302 -283z
M326 169c46 0 74 41 74 96c0 56 -28 95 -74 95s-73 -39 -73 -95c0 -55 26 -96 73 -96z" />
    <glyph glyph-name="oe" unicode="&#x153;" horiz-adv-x="968" 
d="M941 298v-71h-332c22 -58 79 -65 135 -65c48 0 94 9 125 20l47 -160c-60 -28 -130 -36 -200 -36c-93 0 -165 23 -216 67c-47 -44 -111 -68 -184 -68c-153 0 -291 101 -291 280c0 181 139 282 292 282c73 0 138 -24 184 -69c46 44 108 69 180 69c155 0 260 -90 260 -249z
M669 393c-32 0 -57 -23 -65 -73h126c-6 50 -28 73 -61 73zM326 171c46 0 74 39 74 94c0 56 -28 97 -74 97s-73 -41 -73 -97c0 -55 26 -94 73 -94z" />
    <glyph glyph-name="thorn" unicode="&#xfe;" horiz-adv-x="691" 
d="M430 546c132 0 236 -95 236 -281c0 -187 -102 -282 -236 -282c-75 0 -127 31 -161 80v-228h-212v915h212v-284c34 49 86 80 161 80zM356 159c53 0 82 42 82 106c0 63 -29 101 -82 101s-87 -45 -87 -101c0 -61 34 -106 87 -106z" />
    <glyph glyph-name="racute" unicode="&#x155;" horiz-adv-x="486" 
d="M386 750l-144 -160h-160l114 160h190zM269 394c27 83 92 144 177 144v-228c-97 3 -177 -21 -177 -150v-160h-212v529h212v-135z" />
    <glyph glyph-name="rcaron" unicode="&#x159;" horiz-adv-x="486" 
d="M63 590l-114 160h160l53 -68l53 68h160l-114 -160h-198zM269 394c27 83 92 144 177 144v-228c-97 3 -177 -21 -177 -150v-160h-212v529h212v-135z" />
    <glyph glyph-name="uni0157" unicode="&#x157;" horiz-adv-x="486" 
d="M269 394c27 83 92 144 177 144v-228c-97 3 -177 -21 -177 -150v-160h-212v529h212v-135zM162 -59c45 0 80 -25 80 -83c0 -61 -46 -131 -106 -178l-55 51c22 20 44 46 56 67c-32 8 -56 32 -56 68c0 45 37 75 81 75z" />
    <glyph glyph-name="sacute" unicode="&#x15b;" horiz-adv-x="531" 
d="M186 590l114 160h190l-144 -160h-160zM266 -18c-113 0 -198 28 -251 72l62 127c56 -24 109 -51 176 -51c26 0 41 7 41 23c0 23 -30 26 -79 36c-78 16 -183 48 -183 176c0 137 114 182 239 182c92 0 176 -24 224 -63l-64 -119c-57 25 -101 40 -149 40
c-29 0 -45 -6 -45 -22c0 -20 27 -24 72 -34c92 -20 201 -45 201 -170c0 -136 -91 -197 -244 -197z" />
    <glyph glyph-name="scaron" unicode="&#x161;" horiz-adv-x="531" 
d="M167 590l-114 160h160l53 -68l53 68h160l-114 -160h-198zM309 349c92 -20 201 -45 201 -170c0 -136 -91 -197 -244 -197c-113 0 -198 28 -251 72l62 127c56 -24 109 -51 176 -51c26 0 41 7 41 23c0 23 -30 26 -79 36c-78 16 -183 48 -183 176c0 137 114 182 239 182
c92 0 176 -24 224 -63l-64 -119c-57 25 -101 40 -149 40c-29 0 -45 -6 -45 -22c0 -20 27 -24 72 -34z" />
    <glyph glyph-name="scedilla" unicode="&#x15f;" horiz-adv-x="531" 
d="M510 179c0 -122 -73 -183 -198 -195l-24 -33c6 1 10 1 15 1c65 0 103 -34 103 -91c0 -62 -64 -98 -162 -98c-54 0 -94 14 -137 43l43 67c36 -22 58 -31 84 -31c16 0 35 4 35 23c0 18 -14 23 -32 23c-12 0 -20 -2 -33 -5l-48 29l56 72c-86 8 -153 33 -197 70l62 127
c56 -24 109 -51 176 -51c26 0 41 7 41 23c0 23 -30 26 -79 36c-78 16 -183 48 -183 176c0 137 114 182 239 182c92 0 176 -24 224 -63l-64 -119c-57 25 -101 40 -149 40c-29 0 -45 -6 -45 -22c0 -20 27 -24 72 -34c92 -20 201 -45 201 -170z" />
    <glyph glyph-name="scircumflex" unicode="&#x15d;" horiz-adv-x="531" 
d="M266 658l-53 -68h-160l114 160h198l114 -160h-160zM309 349c92 -20 201 -45 201 -170c0 -136 -91 -197 -244 -197c-113 0 -198 28 -251 72l62 127c56 -24 109 -51 176 -51c26 0 41 7 41 23c0 23 -30 26 -79 36c-78 16 -183 48 -183 176c0 137 114 182 239 182
c92 0 176 -24 224 -63l-64 -119c-57 25 -101 40 -149 40c-29 0 -45 -6 -45 -22c0 -20 27 -24 72 -34z" />
    <glyph glyph-name="uni0219" unicode="&#x219;" horiz-adv-x="531" 
d="M309 349c92 -20 201 -45 201 -170c0 -136 -91 -197 -244 -197c-113 0 -198 28 -251 72l62 127c56 -24 109 -51 176 -51c26 0 41 7 41 23c0 23 -30 26 -79 36c-78 16 -183 48 -183 176c0 137 114 182 239 182c92 0 176 -24 224 -63l-64 -119c-57 25 -101 40 -149 40
c-29 0 -45 -6 -45 -22c0 -20 27 -24 72 -34zM266 -59c45 0 80 -25 80 -83c0 -61 -46 -131 -106 -178l-55 51c22 20 44 46 56 67c-32 8 -56 32 -56 68c0 45 37 75 81 75z" />
    <glyph glyph-name="germandbls" unicode="&#xdf;" horiz-adv-x="669" 
d="M517 412c87 -30 127 -102 127 -187c0 -160 -94 -234 -272 -234c-19 0 -32 2 -41 3v185c3 -1 7 -2 21 -2c47 0 76 26 76 67c0 43 -30 66 -76 66h-21l-1 171h6c31 0 50 19 50 51s-19 51 -48 51c-41 0 -70 -41 -70 -109v-474h-212v448c0 201 95 320 292 320
c152 0 248 -92 248 -215c0 -58 -31 -111 -79 -141z" />
    <glyph glyph-name="tbar" unicode="&#x167;" horiz-adv-x="485" 
d="M444 169l3 -172c-19 -5 -96 -15 -153 -15c-189 0 -206 84 -206 205v34h-69v82h69v63h-74v163h74v110l212 36v-146h128v-163h-128v-63h132v-82h-132c1 -44 15 -58 60 -58c33 0 67 3 84 6z" />
    <glyph glyph-name="tcaron" unicode="&#x165;" horiz-adv-x="485" 
d="M352 750h160l-47 -182h-130zM360 163c33 0 67 3 84 6l3 -172c-19 -5 -96 -15 -153 -15c-189 0 -206 84 -206 205v179h-74v163h74v110l212 36v-146h128v-163h-128v-142c0 -46 14 -61 60 -61z" />
    <glyph glyph-name="uni0163" unicode="&#x163;" horiz-adv-x="485" 
d="M270 -48c65 0 103 -34 103 -91c0 -62 -64 -98 -162 -98c-54 0 -94 14 -137 43l43 67c36 -22 58 -31 84 -31c16 0 35 4 35 23c0 18 -14 23 -32 23c-12 0 -20 -2 -33 -5l-48 29l64 83c-89 28 -99 99 -99 192v179h-74v163h74v110l212 36v-146h128v-163h-128v-142
c0 -46 14 -61 60 -61c33 0 67 3 84 6l3 -172c-19 -5 -96 -15 -153 -15h-16l-23 -31c6 1 10 1 15 1z" />
    <glyph glyph-name="uni021B" unicode="&#x21b;" horiz-adv-x="485" 
d="M447 -3c-19 -5 -96 -15 -153 -15c-189 0 -206 84 -206 205v179h-74v163h74v110l212 36v-146h128v-163h-128v-142c0 -46 14 -61 60 -61c33 0 67 3 84 6zM233 -59c45 0 80 -25 80 -83c0 -61 -46 -131 -106 -178l-55 51c22 20 44 46 56 67c-32 8 -56 32 -56 68
c0 45 37 75 81 75z" />
    <glyph glyph-name="uacute" unicode="&#xfa;" horiz-adv-x="630" 
d="M234 590l114 160h190l-144 -160h-160zM314 -18c-162 0 -267 55 -267 230v317h212v-319c0 -31 13 -58 55 -58s57 27 57 58v319h212v-317c0 -175 -107 -230 -269 -230z" />
    <glyph glyph-name="ubreve" unicode="&#x16d;" horiz-adv-x="630" 
d="M314 585c-113 0 -183 55 -184 165h128c3 -42 27 -57 56 -57c30 0 54 15 56 57h128c-8 -110 -73 -165 -184 -165zM314 -18c-162 0 -267 55 -267 230v317h212v-319c0 -31 13 -58 55 -58s57 27 57 58v319h212v-317c0 -175 -107 -230 -269 -230z" />
    <glyph glyph-name="ucircumflex" unicode="&#xfb;" horiz-adv-x="630" 
d="M314 658l-53 -68h-160l114 160h198l114 -160h-160zM371 529h212v-317c0 -175 -107 -230 -269 -230s-267 55 -267 230v317h212v-319c0 -31 13 -58 55 -58s57 27 57 58v319z" />
    <glyph glyph-name="udieresis" unicode="&#xfc;" horiz-adv-x="630" 
d="M188 584c-59 0 -100 36 -100 96c0 61 41 102 100 102c60 0 100 -41 100 -102c0 -60 -40 -96 -100 -96zM439 584c-59 0 -100 36 -100 96c0 61 41 102 100 102c60 0 100 -41 100 -102c0 -60 -40 -96 -100 -96zM314 -18c-162 0 -267 55 -267 230v317h212v-319
c0 -31 13 -58 55 -58s57 27 57 58v319h212v-317c0 -175 -107 -230 -269 -230z" />
    <glyph glyph-name="ugrave" unicode="&#xf9;" horiz-adv-x="630" 
d="M90 750h190l114 -160h-160zM314 -18c-162 0 -267 55 -267 230v317h212v-319c0 -31 13 -58 55 -58s57 27 57 58v319h212v-317c0 -175 -107 -230 -269 -230z" />
    <glyph glyph-name="uhungarumlaut" unicode="&#x171;" horiz-adv-x="630" 
d="M114 590l114 160h190l-144 -160h-160zM354 590l114 160h190l-144 -160h-160zM314 -18c-162 0 -267 55 -267 230v317h212v-319c0 -31 13 -58 55 -58s57 27 57 58v319h212v-317c0 -175 -107 -230 -269 -230z" />
    <glyph glyph-name="umacron" unicode="&#x16b;" horiz-adv-x="630" 
d="M164 710h300v-120h-300v120zM314 -18c-162 0 -267 55 -267 230v317h212v-319c0 -31 13 -58 55 -58s57 27 57 58v319h212v-317c0 -175 -107 -230 -269 -230z" />
    <glyph glyph-name="uogonek" unicode="&#x173;" horiz-adv-x="630" 
d="M371 529h212v-317c0 -145 -74 -208 -192 -225c-35 -21 -65 -50 -65 -82c0 -26 18 -38 40 -38c23 0 37 6 56 18l38 -87c-21 -17 -49 -39 -125 -39c-86 0 -143 39 -143 115c0 46 20 82 63 111c-128 13 -208 74 -208 227v317h212v-319c0 -31 13 -58 55 -58s57 27 57 58v319z
" />
    <glyph glyph-name="uring" unicode="&#x16f;" horiz-adv-x="630" 
d="M314 590c-76 0 -124 43 -124 111c0 72 48 117 124 117s124 -45 124 -117c0 -68 -48 -111 -124 -111zM314 659c30 0 49 17 49 44c0 28 -19 46 -49 46s-49 -18 -49 -46c0 -27 19 -44 49 -44zM314 -18c-162 0 -267 55 -267 230v317h212v-319c0 -31 13 -58 55 -58
s57 27 57 58v319h212v-317c0 -175 -107 -230 -269 -230z" />
    <glyph glyph-name="utilde" unicode="&#x169;" horiz-adv-x="630" 
d="M400 590c-66 0 -134 40 -172 40c-22 0 -30 -12 -33 -33h-86c3 94 40 153 120 153c65 0 133 -40 172 -40c21 0 30 12 33 33h86c-3 -94 -40 -153 -120 -153zM314 -18c-162 0 -267 55 -267 230v317h212v-319c0 -31 13 -58 55 -58s57 27 57 58v319h212v-317
c0 -175 -107 -230 -269 -230z" />
    <glyph glyph-name="wacute" unicode="&#x1e83;" horiz-adv-x="877" 
d="M663 750l-144 -160h-160l114 160h190zM687 529h195l-177 -529h-190l-94 296l-83 -296h-190l-158 529h212l68 -283l76 283h182l82 -291z" />
    <glyph glyph-name="wcircumflex" unicode="&#x175;" horiz-adv-x="877" 
d="M439 658l-53 -68h-160l114 160h198l114 -160h-160zM687 529h195l-177 -529h-190l-94 296l-83 -296h-190l-158 529h212l68 -283l76 283h182l82 -291z" />
    <glyph glyph-name="wdieresis" unicode="&#x1e85;" horiz-adv-x="877" 
d="M313 584c-59 0 -100 36 -100 96c0 61 41 102 100 102c60 0 100 -41 100 -102c0 -60 -40 -96 -100 -96zM564 584c-59 0 -100 36 -100 96c0 61 41 102 100 102c60 0 100 -41 100 -102c0 -60 -40 -96 -100 -96zM687 529h195l-177 -529h-190l-94 296l-83 -296h-190l-158 529
h212l68 -283l76 283h182l82 -291z" />
    <glyph glyph-name="wgrave" unicode="&#x1e81;" horiz-adv-x="877" 
d="M519 590h-160l-144 160h190zM687 529h195l-177 -529h-190l-94 296l-83 -296h-190l-158 529h212l68 -283l76 283h182l82 -291z" />
    <glyph glyph-name="yacute" unicode="&#xfd;" horiz-adv-x="575" 
d="M514 750l-144 -160h-160l114 160h190zM390 529h200l-234 -549c-43 -101 -112 -169 -218 -169c-44 0 -77 6 -100 11l12 158s29 -4 63 -4c45 0 70 12 86 33l-214 520h214l98 -261z" />
    <glyph glyph-name="ycircumflex" unicode="&#x177;" horiz-adv-x="575" 
d="M290 658l-53 -68h-160l114 160h198l114 -160h-160zM390 529h200l-234 -549c-43 -101 -112 -169 -218 -169c-44 0 -77 6 -100 11l12 158s29 -4 63 -4c45 0 70 12 86 33l-214 520h214l98 -261z" />
    <glyph glyph-name="ydieresis" unicode="&#xff;" horiz-adv-x="575" 
d="M164 584c-59 0 -100 36 -100 96c0 61 41 102 100 102c60 0 100 -41 100 -102c0 -60 -40 -96 -100 -96zM415 584c-59 0 -100 36 -100 96c0 61 41 102 100 102c60 0 100 -41 100 -102c0 -60 -40 -96 -100 -96zM390 529h200l-234 -549c-43 -101 -112 -169 -218 -169
c-44 0 -77 6 -100 11l12 158s29 -4 63 -4c45 0 70 12 86 33l-214 520h214l98 -261z" />
    <glyph glyph-name="ygrave" unicode="&#x1ef3;" horiz-adv-x="575" 
d="M370 590h-160l-144 160h190zM390 529h200l-234 -549c-43 -101 -112 -169 -218 -169c-44 0 -77 6 -100 11l12 158s29 -4 63 -4c45 0 70 12 86 33l-214 520h214l98 -261z" />
    <glyph glyph-name="zacute" unicode="&#x17a;" horiz-adv-x="519" 
d="M484 750l-144 -160h-160l114 160h190zM277 148h219v-148h-474v148l212 233h-197v148h450v-148z" />
    <glyph glyph-name="zcaron" unicode="&#x17e;" horiz-adv-x="519" 
d="M161 590l-114 160h160l53 -68l53 68h160l-114 -160h-198zM277 148h219v-148h-474v148l212 233h-197v148h450v-148z" />
    <glyph glyph-name="zdotaccent" unicode="&#x17c;" horiz-adv-x="519" 
d="M260 581c-73 0 -124 40 -124 103c0 64 51 105 124 105c74 0 124 -41 124 -105c0 -63 -50 -103 -124 -103zM277 148h219v-148h-474v148l212 233h-197v148h450v-148z" />
    <glyph glyph-name="zero.linTab" horiz-adv-x="646" 
d="M322 -15c-201 0 -308 155 -308 370s107 370 308 370s310 -155 310 -370s-109 -370 -310 -370zM322 149c72 0 88 82 88 206s-16 206 -88 206s-85 -82 -85 -206s13 -206 85 -206z" />
    <glyph glyph-name="one.linTab" horiz-adv-x="646" 
d="M310 710h134v-710h-220v502l-132 -51v169z" />
    <glyph glyph-name="two.linTab" horiz-adv-x="646" 
d="M292 169h307v-169h-543v169c181 142 315 214 315 316c0 42 -23 70 -68 70c-52 0 -74 -36 -93 -97l-171 54c29 146 140 216 285 216c149 0 259 -76 259 -223c0 -190 -191 -282 -291 -336z" />
    <glyph glyph-name="three.linTab" horiz-adv-x="646" 
d="M428 368c85 -14 165 -58 165 -171c0 -142 -129 -215 -282 -214c-122 -1 -219 31 -260 53l43 161c55 -19 118 -42 178 -42c62 0 88 30 88 65c0 53 -59 74 -141 74h-45v127h30c106 0 150 31 150 77c0 38 -31 59 -79 59c-46 0 -113 -17 -160 -40l-40 156
c43 30 147 55 245 55c147 0 247 -61 247 -183c0 -92 -59 -152 -139 -177z" />
    <glyph glyph-name="four.linTab" horiz-adv-x="646" 
d="M646 305v-121h-98v-184h-220v184h-316v148l324 378h212v-405h98zM149 305h179v196z" />
    <glyph glyph-name="five.linTab" horiz-adv-x="646" 
d="M411 461c139 0 221 -76 221 -220c0 -187 -148 -259 -308 -259c-137 0 -234 49 -285 74l62 150c72 -34 141 -56 192 -56c63 0 107 32 107 97s-43 90 -90 90s-84 -34 -109 -57l-122 44l37 386h467v-162h-314l-14 -131c48 37 110 44 156 44z" />
    <glyph glyph-name="six.linTab" horiz-adv-x="646" 
d="M418 446c114 0 222 -60 222 -212c0 -162 -114 -252 -301 -252s-319 111 -319 336c0 229 100 407 369 407c69 0 131 -12 185 -31l-31 -157c-41 12 -85 22 -130 22c-98 0 -156 -49 -163 -171c43 34 96 58 168 58zM333 131c54 0 85 33 85 99c0 70 -36 92 -85 92
c-33 0 -59 -10 -84 -42v-30c0 -86 30 -119 84 -119z" />
    <glyph glyph-name="seven.linTab" horiz-adv-x="646" 
d="M54 710h534v-128c-92 -128 -197 -326 -222 -582h-242c41 239 147 427 236 546h-306v164z" />
    <glyph glyph-name="eight.linTab" horiz-adv-x="646" 
d="M480 400c85 -41 164 -93 164 -192c0 -146 -121 -223 -313 -223s-313 70 -313 211c0 85 76 132 150 156c-59 37 -105 89 -105 181c0 114 100 192 268 192s266 -74 266 -181c0 -73 -52 -119 -117 -144zM334 603c-41 0 -64 -23 -64 -60c0 -40 40 -67 94 -92
c20 24 36 52 36 83c0 44 -25 69 -66 69zM324 119c47 0 80 29 80 64c0 56 -53 83 -117 111c-29 -22 -44 -56 -44 -89c0 -53 34 -86 81 -86z" />
    <glyph glyph-name="nine.linTab" horiz-adv-x="646" 
d="M307 728c187 0 319 -111 319 -336c0 -229 -100 -407 -369 -407c-69 0 -131 12 -185 31l31 157c41 -12 85 -22 130 -22c98 0 156 49 163 171c-43 -34 -96 -58 -168 -58c-114 0 -222 60 -222 212c0 162 114 252 301 252zM313 388c33 0 59 10 84 42v30c0 86 -30 119 -84 119
s-85 -33 -85 -99c0 -70 36 -92 85 -92z" />
    <glyph glyph-name="colon.cap" horiz-adv-x="331" 
d="M165 394c-75 0 -127 43 -127 116c0 72 52 122 127 122c76 0 128 -50 128 -122c0 -73 -52 -116 -128 -116zM165 77c-75 0 -127 43 -127 116c0 72 52 122 127 122c76 0 128 -50 128 -122c0 -73 -52 -116 -128 -116z" />
    <glyph glyph-name="colonmonetary" unicode="&#x20a1;" horiz-adv-x="637" 
d="M604 30c-40 -18 -98 -41 -180 -45l-13 -89h-80l14 92c-32 4 -61 10 -88 20l-17 -112h-80l22 148c-94 62 -145 171 -145 311c0 181 90 311 244 354l15 102h80l-13 -88c13 1 26 2 40 2c17 0 34 -1 51 -3l13 89h80l-16 -105c24 -7 45 -15 63 -23l-37 -196
c-14 7 -33 14 -55 20l-45 -304c49 4 81 19 109 30zM270 360c0 -83 38 -136 107 -152l46 308c-84 -2 -153 -56 -153 -156z" />
    <glyph glyph-name="cent.bar" horiz-adv-x="521" 
d="M510 30c-31 -13 -72 -32 -132 -41v-93h-71v89c-179 4 -282 117 -282 285s107 273 282 277v89h71v-93c55 -7 98 -24 122 -40l-42 -169c-17 7 -45 17 -80 20v-169c37 2 64 11 87 18zM253 270c0 -37 19 -65 54 -78v155c-32 -12 -54 -39 -54 -77z" />
    <glyph glyph-name="colonmonetary.bar" horiz-adv-x="637" 
d="M604 30c-36 -17 -86 -37 -155 -43l-14 -91h-80l13 90c-15 1 -29 3 -43 5l-14 -95h-80l17 115c-137 51 -211 175 -211 344c0 208 118 348 317 368l13 88h80l-13 -87c15 -1 29 -3 43 -5l14 92h80l-17 -112c15 -5 28 -11 40 -16l-37 -196c-9 4 -20 9 -32 13l-44 -294
c36 6 62 18 85 27zM358 214c13 -5 27 -9 43 -10l46 311c-6 1 -12 1 -18 1c-9 0 -18 -1 -26 -2zM270 360c0 -33 6 -61 17 -84l30 201c-29 -27 -47 -66 -47 -117z" />
    <glyph glyph-name="dollar.bar" horiz-adv-x="612" 
d="M588 234c0 -162 -103 -241 -242 -251v-92h-71v92c-130 8 -206 54 -260 100l72 152c60 -35 120 -73 188 -77v96c-94 27 -237 62 -237 238c0 154 116 223 237 234v93h71v-92c111 -6 176 -42 224 -89l-75 -143c-56 30 -101 53 -149 58v-91c97 -29 242 -66 242 -228zM259 516
c0 -11 6 -20 16 -27v53c-10 -6 -16 -15 -16 -26zM346 176c6 6 9 14 9 23s-3 17 -9 23v-46z" />
    <glyph glyph-name="u1F16A" unicode="&#x1f16a;" horiz-adv-x="799" 
d="M341 198l74 323h27l-75 -323h-26zM713 261c11 -2 17 1 26 6l7 -22c-7 -7 -20 -12 -36 -10c-50 -2 -73 54 -73 142s23 144 73 144c16 0 29 -5 36 -10l-7 -22c-9 3 -15 6 -26 6c-28 0 -49 -28 -49 -117c0 -91 21 -119 49 -117zM143 515v-24h-35v-251h-24v251h-36v24h95z
M278 515h27l17 -275h-26l-12 196l-37 -196h-16l-37 193l-12 -193h-23l16 275h27l38 -196zM575 515h28l15 -275h-24l-13 193l-36 -193h-16l-38 196l-11 -196h-25l17 275h27l38 -196z" />
    <glyph glyph-name="copyright.cap" horiz-adv-x="360" 
d="M184 450c-69 0 -136 51 -136 137c0 87 67 138 136 138c70 0 138 -51 138 -138c0 -86 -68 -137 -138 -137zM184 470c56 0 114 38 114 117c0 81 -58 118 -114 118c-54 0 -112 -37 -112 -118c0 -79 58 -117 112 -117zM186 518c-35 0 -63 24 -63 70s28 71 63 71
c17 0 28 -5 38 -12l-9 -21c-7 5 -15 8 -27 8c-22 0 -39 -13 -39 -46s16 -46 39 -46c15 0 23 4 32 11l9 -20c-11 -10 -23 -15 -43 -15z" />
    <glyph glyph-name="registered.cap" horiz-adv-x="360" 
d="M184 725c70 0 138 -51 138 -138c0 -86 -68 -137 -138 -137c-69 0 -136 51 -136 137c0 87 67 138 136 138zM184 470c56 0 114 38 114 117c0 81 -58 118 -114 118c-54 0 -112 -37 -112 -118c0 -79 58 -117 112 -117zM237 613c0 -20 -12 -34 -29 -40l33 -49h-31l-27 46h-16
v-46h-26v128h48c28 0 48 -12 48 -39zM167 631v-44h17c14 0 25 8 25 24c0 14 -10 20 -25 20h-17z" />
    <glyph glyph-name="copyright.star" horiz-adv-x="803" 
d="M368 -15c-185 0 -368 136 -368 370s183 370 368 370c186 0 369 -136 369 -370s-183 -370 -369 -370zM368 25c157 0 322 110 322 330s-165 330 -322 330s-321 -110 -321 -330s164 -330 321 -330zM382 134c-114 0 -205 78 -205 227c0 150 92 228 205 228
c55 0 90 -15 123 -38l-14 -53c-29 21 -55 32 -105 32c-71 0 -144 -48 -144 -168s70 -169 144 -169c57 0 88 16 118 45l17 -54c-34 -30 -74 -50 -139 -50zM390 461l-21 -62l-63 -1l49 -41l-17 -62l52 37l53 -37l-17 62l50 41l-64 1z" />
    <glyph glyph-name="copyright.x" horiz-adv-x="360" 
d="M184 272c-69 0 -136 51 -136 137c0 87 67 138 136 138c70 0 138 -51 138 -138c0 -86 -68 -137 -138 -137zM184 292c56 0 114 38 114 117c0 81 -58 118 -114 118c-54 0 -112 -37 -112 -118c0 -79 58 -117 112 -117zM186 340c-35 0 -63 24 -63 70s28 71 63 71
c17 0 28 -5 38 -12l-9 -21c-7 5 -15 8 -27 8c-22 0 -39 -13 -39 -46s16 -46 39 -46c15 0 23 4 32 11l9 -20c-11 -10 -23 -15 -43 -15z" />
    <glyph glyph-name="registered.x" horiz-adv-x="360" 
d="M184 547c70 0 138 -51 138 -138c0 -86 -68 -137 -138 -137c-69 0 -136 51 -136 137c0 87 67 138 136 138zM184 292c56 0 114 38 114 117c0 81 -58 118 -114 118c-54 0 -112 -37 -112 -118c0 -79 58 -117 112 -117zM237 435c0 -20 -12 -34 -29 -40l33 -49h-31l-27 46h-16
v-46h-26v128h48c28 0 48 -12 48 -39zM167 453v-44h17c14 0 25 8 25 24c0 14 -10 20 -25 20h-17z" />
    <glyph glyph-name="trademark.x" horiz-adv-x="658" 
d="M249 529v-54h-68v-221h-64v221h-69v54h201zM610 254h-60l-24 192l-67 -192h-43l-66 191l-22 -191h-56l31 275h71l66 -186l66 186h73z" />
    <glyph glyph-name="uni0308" unicode="&#x308;" 
d="M-401 584c-59 0 -100 36 -100 96c0 61 41 102 100 102c60 0 100 -41 100 -102c0 -60 -40 -96 -100 -96zM-150 584c-59 0 -100 36 -100 96c0 61 41 102 100 102c60 0 100 -41 100 -102c0 -60 -40 -96 -100 -96z" />
    <glyph glyph-name="uni0307" unicode="&#x307;" 
d="M-174 581c-73 0 -124 40 -124 103c0 64 51 105 124 105c74 0 124 -41 124 -105c0 -63 -50 -103 -124 -103z" />
    <glyph glyph-name="gravecomb" unicode="&#x300;" 
d="M-354 750h190l114 -160h-160z" />
    <glyph glyph-name="acutecomb" unicode="&#x301;" 
d="M-354 590l114 160h190l-144 -160h-160z" />
    <glyph glyph-name="uni030B" unicode="&#x30b;" 
d="M-594 590l114 160h190l-144 -160h-160zM-354 590l114 160h190l-144 -160h-160z" />
    <glyph glyph-name="uni030C.alt" 
d="M-210 750h160l-47 -182h-130z" />
    <glyph glyph-name="uni0302" unicode="&#x302;" 
d="M-50 590h-160l-53 68l-53 -68h-160l114 160h198z" />
    <glyph glyph-name="uni030C" unicode="&#x30c;" 
d="M-210 750h160l-114 -160h-198l-114 160h160l53 -68z" />
    <glyph glyph-name="uni0306" unicode="&#x306;" 
d="M-234 585c-113 0 -183 55 -184 165h128c3 -42 27 -57 56 -57c30 0 54 15 56 57h128c-8 -110 -73 -165 -184 -165z" />
    <glyph glyph-name="uni030A" unicode="&#x30a;" 
d="M-174 590c-76 0 -124 43 -124 111c0 72 48 117 124 117s124 -45 124 -117c0 -68 -48 -111 -124 -111zM-174 659c30 0 49 17 49 44c0 28 -19 46 -49 46s-49 -18 -49 -46c0 -27 19 -44 49 -44z" />
    <glyph glyph-name="tildecomb" unicode="&#x303;" 
d="M-170 590c-66 0 -134 40 -172 40c-22 0 -30 -12 -33 -33h-86c3 94 40 153 120 153c65 0 133 -40 172 -40c21 0 30 12 33 33h86c-3 -94 -40 -153 -120 -153z" />
    <glyph glyph-name="uni0304" unicode="&#x304;" 
d="M-350 710h300v-120h-300v120z" />
    <glyph glyph-name="uni0312" unicode="&#x312;" 
d="M-106 731c32 -8 56 -32 56 -68c0 -45 -37 -75 -81 -75c-45 0 -80 25 -80 83c0 61 46 131 106 178l55 -51c-22 -20 -44 -46 -56 -67z" />
    <glyph glyph-name="uni0326" unicode="&#x326;" 
d="M-130 -59c45 0 80 -25 80 -83c0 -61 -46 -131 -106 -178l-55 51c22 20 44 46 56 67c-32 8 -56 32 -56 68c0 45 37 75 81 75z" />
    <glyph glyph-name="uni0327" unicode="&#x327;" 
d="M-212 -237c-54 0 -94 14 -137 43l43 67c36 -22 58 -31 84 -31c16 0 35 4 35 23c0 18 -14 23 -32 23c-12 0 -20 -2 -33 -5l-48 29l68 88h100l-36 -49c6 1 10 1 15 1c65 0 103 -34 103 -91c0 -62 -64 -98 -162 -98z" />
    <glyph glyph-name="uni0328" unicode="&#x328;" 
d="M-175 -246c-86 0 -143 39 -143 115c0 58 31 99 99 131h134c-47 -22 -99 -58 -99 -100c0 -26 18 -38 40 -38c23 0 37 6 56 18l38 -87c-21 -17 -49 -39 -125 -39z" />
    <glyph glyph-name="acute" unicode="&#xb4;" horiz-adv-x="600" 
d="M50 590l114 160h190l-144 -160h-160z" />
    <glyph glyph-name="breve" unicode="&#x2d8;" horiz-adv-x="600" 
d="M234 585c-113 0 -183 55 -184 165h128c3 -42 27 -57 56 -57c30 0 54 15 56 57h128c-8 -110 -73 -165 -184 -165z" />
    <glyph glyph-name="caron" unicode="&#x2c7;" horiz-adv-x="600" 
d="M316 750h160l-114 -160h-198l-114 160h160l53 -68z" />
    <glyph glyph-name="cedilla" unicode="&#xb8;" horiz-adv-x="600" 
d="M187 -237c-54 0 -94 14 -137 43l43 67c36 -22 58 -31 84 -31c16 0 35 4 35 23c0 18 -14 23 -32 23c-12 0 -20 -2 -33 -5l-48 29l68 88h100l-36 -49c6 1 10 1 15 1c65 0 103 -34 103 -91c0 -62 -64 -98 -162 -98z" />
    <glyph glyph-name="circumflex" unicode="&#x2c6;" horiz-adv-x="600" 
d="M476 590h-160l-53 68l-53 -68h-160l114 160h198z" />
    <glyph glyph-name="dieresis" unicode="&#xa8;" horiz-adv-x="600" 
d="M150 584c-59 0 -100 36 -100 96c0 61 41 102 100 102c60 0 100 -41 100 -102c0 -60 -40 -96 -100 -96zM401 584c-59 0 -100 36 -100 96c0 61 41 102 100 102c60 0 100 -41 100 -102c0 -60 -40 -96 -100 -96z" />
    <glyph glyph-name="dotaccent" unicode="&#x2d9;" horiz-adv-x="600" 
d="M174 581c-73 0 -124 40 -124 103c0 64 51 105 124 105c74 0 124 -41 124 -105c0 -63 -50 -103 -124 -103z" />
    <glyph glyph-name="grave" unicode="`" horiz-adv-x="600" 
d="M50 750h190l114 -160h-160z" />
    <glyph glyph-name="hungarumlaut" unicode="&#x2dd;" horiz-adv-x="600" 
d="M50 590l114 160h190l-144 -160h-160zM290 590l114 160h190l-144 -160h-160z" />
    <glyph glyph-name="macron" unicode="&#xaf;" horiz-adv-x="600" 
d="M50 710h300v-120h-300v120z" />
    <glyph glyph-name="ogonek" unicode="&#x2db;" horiz-adv-x="600" 
d="M193 -246c-86 0 -143 39 -143 115c0 58 31 99 99 131h134c-47 -22 -99 -58 -99 -100c0 -26 18 -38 40 -38c23 0 37 6 56 18l38 -87c-21 -17 -49 -39 -125 -39z" />
    <glyph glyph-name="ring" unicode="&#x2da;" horiz-adv-x="600" 
d="M174 590c-76 0 -124 43 -124 111c0 72 48 117 124 117s124 -45 124 -117c0 -68 -48 -111 -124 -111zM174 659c30 0 49 17 49 44c0 28 -19 46 -49 46s-49 -18 -49 -46c0 -27 19 -44 49 -44z" />
    <glyph glyph-name="tilde" unicode="&#x2dc;" horiz-adv-x="600" 
d="M341 590c-66 0 -134 40 -172 40c-22 0 -30 -12 -33 -33h-86c3 94 40 153 120 153c65 0 133 -40 172 -40c21 0 30 12 33 33h86c-3 -94 -40 -153 -120 -153z" />
    <glyph glyph-name="uni0308.case" 
d="M-366 760c-52 0 -87 31 -87 86c0 54 35 89 87 89c54 0 89 -35 89 -89c0 -55 -35 -86 -89 -86zM-133 760c-53 0 -89 31 -89 86c0 54 36 89 89 89c52 0 87 -35 87 -89c0 -55 -35 -86 -87 -86z" />
    <glyph glyph-name="uni0307.case" 
d="M-290 759c-62 0 -106 32 -106 86c0 55 44 92 106 92c63 0 106 -37 106 -92c0 -54 -43 -86 -106 -86z" />
    <glyph glyph-name="gravecomb.case" 
d="M-325 768l-174 144h190l144 -144h-160z" />
    <glyph glyph-name="acutecomb.case" 
d="M-265 912h190l-174 -144h-160z" />
    <glyph glyph-name="uni030B.case" 
d="M-443 912h190l-174 -144h-160zM-203 912h190l-174 -144h-160z" />
    <glyph glyph-name="uni0302.case" 
d="M-84 768h-162l-54 70l-54 -70h-162l136 144h160z" />
    <glyph glyph-name="uni030C.case" 
d="M-246 912h162l-136 -144h-160l-136 144h162l54 -70z" />
    <glyph glyph-name="uni0306.case" 
d="M-257 763c-113 0 -183 50 -184 149h128c3 -38 27 -51 56 -51c30 0 54 13 56 51h128c-8 -99 -73 -149 -184 -149z" />
    <glyph glyph-name="uni030A.case" 
d="M-250 770c-68 0 -110 38 -110 99c0 64 42 104 110 104s110 -40 110 -104c0 -61 -42 -99 -110 -99zM-250 825c31 0 51 17 51 45c0 29 -20 48 -51 48s-51 -19 -51 -48c0 -28 20 -45 51 -45z" />
    <glyph glyph-name="tildecomb.case" 
d="M-164 761c-66 0 -134 39 -172 39c-22 0 -30 -11 -33 -32h-86c3 92 40 151 120 151c65 0 133 -40 172 -40c21 0 30 12 33 33h86c-3 -93 -40 -151 -120 -151z" />
    <glyph glyph-name="uni0304.case" 
d="M-400 901h300v-120h-300v120z" />
    <glyph glyph-name="uni0326.case" 
d="M-157 -59c46 0 80 -25 80 -83c0 -61 -46 -131 -105 -178l-55 51c22 20 43 46 55 67c-31 7 -55 32 -55 68c0 45 36 75 80 75z" />
    <glyph glyph-name="uni0327.case" 
d="M-263 -237c-54 0 -94 14 -137 43l43 67c36 -22 58 -31 84 -31c16 0 35 4 35 23c0 18 -14 23 -32 23c-12 0 -20 -2 -33 -5l-48 29l68 88h100l-36 -49c6 1 10 1 15 1c65 0 103 -34 103 -91c0 -62 -64 -98 -162 -98z" />
    <glyph glyph-name="uni0328.case" 
d="M-296 -246c-86 0 -143 39 -143 115c0 58 31 99 99 131h134c-47 -22 -99 -58 -99 -100c0 -26 18 -38 40 -38c23 0 37 6 56 18l38 -87c-21 -17 -49 -39 -125 -39z" />
    <glyph glyph-name="bowl" horiz-adv-x="618" 
d="M255 -18c-132 0 -236 97 -236 283c0 187 102 282 236 282c155 0 212 -133 212 -282s-57 -283 -212 -283zM329 161c53 0 87 48 87 104c0 61 -34 103 -87 103s-82 -39 -82 -103c0 -63 29 -104 82 -104z" />
    </font>
</defs>
</svg>
