<?xml version="1.0" standalone="no"?>
<!DOCTYPE svg PUBLIC "-//W3C//DTD SVG 1.1//EN" "http://www.w3.org/Graphics/SVG/1.1/DTD/svg11.dtd" >
<svg xmlns="http://www.w3.org/2000/svg" xmlns:xlink="http://www.w3.org/1999/xlink" version="1.1">
<metadata>
Created by FontForge 20190801 at Thu May 23 12:49:37 2019
 By Jimmy Wärting
copyright missing
</metadata>
<defs>
<font id="SoDoSans-Bold" horiz-adv-x="0" >
  <font-face 
    font-family="SoDo Sans"
    font-weight="700"
    font-stretch="normal"
    units-per-em="1000"
    panose-1="0 0 8 0 0 0 0 0 0 0"
    ascent="800"
    descent="-200"
    x-height="518"
    cap-height="710"
    bbox="-543 -293 1420 959"
    underline-thickness="50"
    underline-position="-100"
    stemh="83"
    stemv="166"
    unicode-range="U+0020-1F16A"
  />
<missing-glyph horiz-adv-x="464" 
d="M380 750v-927h-294v927h294zM309 688h-153v-31h60v-34h-61v-31h154v31h-61v34h61v31zM248 568h-93v-96h154v31h-61v65zM216 537v-34h-31v34h31zM309 447h-154v-31h61v-34h-61v-31h93v65h61v31zM309 391h-31v-61h-123v-31h154v92zM309 278h-93v-52h32v22h30v-44h-93v74
h-30v-105h154v105zM309 118h-154v-105h154v105zM278 87v-43h-93v43h93zM309 -8h-154v-31h65l-65 -43v-31h154v31h-95l65 43h30v31z" />
    <glyph glyph-name=".notdef" horiz-adv-x="464" 
d="M380 750v-927h-294v927h294zM309 688h-153v-31h60v-34h-61v-31h154v31h-61v34h61v31zM248 568h-93v-96h154v31h-61v65zM216 537v-34h-31v34h31zM309 447h-154v-31h61v-34h-61v-31h93v65h61v31zM309 391h-31v-61h-123v-31h154v92zM309 278h-93v-52h32v22h30v-44h-93v74
h-30v-105h154v105zM309 118h-154v-105h154v105zM278 87v-43h-93v43h93zM309 -8h-154v-31h65l-65 -43v-31h154v31h-95l65 43h30v31z" />
    <glyph glyph-name="space" unicode=" " horiz-adv-x="205" 
 />
    <glyph glyph-name="uni2009" unicode="&#x2009;" horiz-adv-x="42" 
 />
    <glyph glyph-name="A" unicode="A" horiz-adv-x="714" 
d="M513 0l-50 156h-233l-50 -156h-169l250 710h193l249 -710h-190zM266 268h162l-81 251z" />
    <glyph glyph-name="B" unicode="B" horiz-adv-x="681" 
d="M502 363c87 -19 141 -67 141 -163c0 -131 -99 -200 -265 -200h-296v710h272c162 0 260 -62 260 -194c0 -86 -42 -132 -112 -153zM339 578h-85v-169h85c61 0 96 29 96 86c0 56 -35 83 -96 83zM361 132c60 0 99 32 99 89c0 56 -40 85 -99 85h-107v-174h107z" />
    <glyph glyph-name="C" unicode="C" horiz-adv-x="649" 
d="M395 -17c-214 0 -354 145 -354 372s142 372 352 372c91 0 161 -28 210 -60l-38 -155c-34 25 -84 48 -151 48c-101 0 -192 -70 -192 -205s83 -205 193 -205c78 0 126 26 164 55l39 -152c-47 -37 -118 -70 -223 -70z" />
    <glyph glyph-name="D" unicode="D" horiz-adv-x="735" 
d="M82 710h252c213 0 360 -113 360 -355s-146 -355 -360 -355h-252v710zM331 147c101 0 180 58 180 208c0 149 -80 208 -180 208h-77v-416h77z" />
    <glyph glyph-name="E" unicode="E" horiz-adv-x="556" 
d="M501 566h-247v-136h212v-130h-212v-156h247v-144h-419v710h419v-144z" />
    <glyph glyph-name="F" unicode="F" horiz-adv-x="539" 
d="M498 563h-244v-161h210v-135h-210v-267h-172v710h416v-147z" />
    <glyph glyph-name="G" unicode="G" horiz-adv-x="765" 
d="M407 392h327v-63c0 -246 -148 -346 -336 -346c-193 0 -357 140 -357 372s166 372 354 372c144 0 236 -57 299 -154l-134 -81c-34 49 -88 83 -154 83c-98 0 -184 -82 -184 -220c0 -141 85 -223 185 -223c86 0 153 41 168 137h-168v123z" />
    <glyph glyph-name="H" unicode="H" horiz-adv-x="757" 
d="M503 710h172v-710h-172v292h-249v-292h-172v710h172v-277h249v277z" />
    <glyph glyph-name="I" unicode="I" horiz-adv-x="335" 
d="M82 710h172v-710h-172v710z" />
    <glyph glyph-name="J" unicode="J" horiz-adv-x="449" 
d="M142 -9c-57 0 -100 10 -122 15l13 144c15 -2 39 -8 71 -8c70 0 96 41 96 127v441h172v-476c0 -184 -95 -243 -230 -243z" />
    <glyph glyph-name="K" unicode="K" horiz-adv-x="701" 
d="M478 0l-174 254l-50 -64v-190h-172v710h172v-306l222 306h193l-244 -320l265 -390h-212z" />
    <glyph glyph-name="L" unicode="L" horiz-adv-x="513" 
d="M254 147h214v-147h-386v710h172v-563z" />
    <glyph glyph-name="M" unicode="M" horiz-adv-x="995" 
d="M937 0h-167l-61 460l-161 -460h-117l-164 462l-53 -462h-155l81 710h188l168 -459l167 459h192z" />
    <glyph glyph-name="N" unicode="N" horiz-adv-x="759" 
d="M524 710h153v-710h-170l-272 438v-438h-153v710h177l265 -397v397z" />
    <glyph glyph-name="O" unicode="O" horiz-adv-x="802" 
d="M400 -17c-195 0 -359 148 -359 372s164 372 359 372c196 0 361 -148 361 -372s-165 -372 -361 -372zM400 144c91 0 179 68 179 211s-88 211 -179 211s-177 -68 -177 -211s86 -211 177 -211z" />
    <glyph glyph-name="P" unicode="P" horiz-adv-x="660" 
d="M355 710c172 0 274 -81 274 -244c0 -162 -101 -269 -274 -269h-101v-197h-172v710h273zM319 329c86 0 128 50 128 123c0 72 -43 115 -128 115h-65v-238h65z" />
    <glyph glyph-name="Q" unicode="Q" horiz-adv-x="802" 
d="M761 355c0 -103 -35 -191 -92 -255l83 -106l-133 -92l-84 106c-42 -16 -87 -25 -135 -25c-195 0 -359 148 -359 372s164 372 359 372c196 0 361 -148 361 -372zM223 355c0 -143 86 -211 177 -211s179 68 179 211s-88 211 -179 211s-177 -68 -177 -211z" />
    <glyph glyph-name="R" unicode="R" horiz-adv-x="693" 
d="M462 0l-151 244h-57v-244h-172v710h288c171 0 274 -75 274 -225c0 -113 -58 -192 -159 -225l176 -260h-199zM254 566v-205h82c83 0 124 37 124 106s-43 99 -124 99h-82z" />
    <glyph glyph-name="S" unicode="S" horiz-adv-x="586" 
d="M300 -17c-142 0 -225 52 -281 121l71 112c55 -49 115 -94 192 -94c57 0 90 26 90 65c0 38 -32 58 -77 77c-96 41 -247 76 -247 246c0 148 119 217 247 217c121 0 193 -41 242 -103l-74 -107c-50 40 -96 72 -157 72c-51 0 -85 -23 -85 -61c0 -35 32 -54 77 -72
c98 -42 256 -78 256 -243c0 -154 -110 -230 -254 -230z" />
    <glyph glyph-name="T" unicode="T" horiz-adv-x="579" 
d="M548 710v-147h-173v-563h-172v563h-172v147h517z" />
    <glyph glyph-name="U" unicode="U" horiz-adv-x="725" 
d="M361 -17c-166 0 -288 86 -288 274v453h172v-427c-1 -92 40 -143 116 -143c77 0 119 51 119 143v427h172v-453c0 -188 -120 -274 -291 -274z" />
    <glyph glyph-name="V" unicode="V" horiz-adv-x="672" 
d="M490 710h172l-233 -710h-186l-232 710h189l144 -488z" />
    <glyph glyph-name="W" unicode="W" horiz-adv-x="1119" 
d="M937 710h172l-242 -710h-154l-153 465l-154 -465h-155l-240 710h189l144 -461l149 461h151l149 -461z" />
    <glyph glyph-name="X" unicode="X" horiz-adv-x="670" 
d="M658 710l-221 -360l219 -350h-195l-140 224l-135 -224h-180l226 366l-215 344h194l141 -224l125 224h181z" />
    <glyph glyph-name="Y" unicode="Y" horiz-adv-x="636" 
d="M637 710l-233 -438v-272h-176v272l-232 438h194l135 -267l136 267h176z" />
    <glyph glyph-name="Z" unicode="Z" horiz-adv-x="593" 
d="M48 147l287 416h-270v147h475v-147l-295 -416h306v-147h-503v147z" />
    <glyph glyph-name="a" unicode="a" horiz-adv-x="598" 
d="M541 0h-163c-5 12 -12 33 -14 58c-36 -44 -98 -75 -162 -75c-95 0 -166 49 -166 153c0 123 102 179 328 182v13c0 49 -33 72 -92 72c-58 0 -105 -20 -145 -50l-62 103c46 44 126 79 236 79c117 0 229 -39 229 -208v-256c0 -24 3 -52 11 -71zM273 105c37 0 68 17 91 44v91
c-100 -4 -151 -30 -151 -82c0 -33 22 -53 60 -53z" />
    <glyph glyph-name="b" unicode="b" horiz-adv-x="660" 
d="M389 535c133 0 235 -97 235 -275s-103 -277 -235 -277c-79 0 -133 34 -166 88v-71h-154v750h167v-284c34 43 83 69 153 69zM336 126c71 0 111 53 111 134s-40 133 -111 133c-70 0 -113 -57 -113 -133c-1 -73 43 -134 113 -134z" />
    <glyph glyph-name="c" unicode="c" horiz-adv-x="525" 
d="M36 260c0 164 108 275 277 275c82 0 146 -24 179 -49l-39 -137c-24 16 -64 33 -117 33c-73 0 -123 -52 -123 -122c0 -71 49 -123 130 -123c53 0 89 16 118 33l42 -132c-35 -20 -92 -55 -189 -55c-178 0 -278 112 -278 277z" />
    <glyph glyph-name="d" unicode="d" horiz-adv-x="660" 
d="M424 750h167v-750h-154l-3 67c-33 -51 -86 -83 -163 -83c-132 0 -235 98 -235 276c0 179 102 276 235 276c70 0 119 -26 153 -69v283zM324 126c70 0 114 61 113 134c0 76 -43 134 -113 134c-71 0 -111 -53 -111 -134c0 -80 40 -134 111 -134z" />
    <glyph glyph-name="e" unicode="e" horiz-adv-x="601" 
d="M567 287v-59h-354c17 -80 84 -102 150 -102c60 0 102 17 140 41l48 -122c-53 -36 -126 -62 -215 -62c-189 0 -300 105 -300 273c0 170 116 279 275 279c152 0 256 -94 256 -248zM309 409c-49 0 -86 -34 -97 -98h187c-8 65 -42 98 -90 98z" />
    <glyph glyph-name="f" unicode="f" horiz-adv-x="418" 
d="M339 631c-48 0 -67 -18 -67 -59v-54h111v-130h-111v-388h-166v388h-75v130h75v72c0 107 56 173 200 173c33 0 66 -2 85 -6v-129c-17 2 -35 3 -52 3z" />
    <glyph glyph-name="g" unicode="g" horiz-adv-x="599" 
d="M406 108c125 0 174 -62 174 -137c0 -84 -63 -176 -315 -176c-148 0 -257 30 -257 108c0 55 52 78 98 89c-38 14 -73 41 -73 92c0 58 45 90 98 120c-57 32 -90 83 -90 150c0 111 99 183 244 183c59 0 111 -11 152 -32l89 83l87 -87l-96 -66c14 -23 22 -51 22 -81
c0 -116 -104 -185 -253 -185c-29 0 -55 3 -80 8c-14 -9 -24 -20 -24 -35c0 -20 16 -31 68 -32zM291 435c-46 0 -81 -30 -81 -81c0 -53 35 -84 81 -84s78 31 78 84c0 51 -32 81 -78 81zM286 -117c81 0 130 18 130 53c0 28 -19 42 -78 43l-152 1c-13 -12 -22 -25 -22 -42
c0 -32 30 -55 122 -55z" />
    <glyph glyph-name="h" unicode="h" horiz-adv-x="652" 
d="M416 535c121 0 166 -75 166 -185v-350h-165v293c0 68 -22 100 -79 100c-41 0 -78 -27 -103 -67v-326h-166v750h166v-310c35 55 93 95 181 95z" />
    <glyph glyph-name="i" unicode="i" horiz-adv-x="336" 
d="M168 592c-59 0 -101 34 -101 85c0 53 42 88 101 88c60 0 101 -35 101 -88c0 -51 -41 -85 -101 -85zM85 518h166v-518h-166v518z" />
    <glyph glyph-name="j" unicode="j" horiz-adv-x="336" 
d="M168 592c-59 0 -101 34 -101 85c0 53 42 88 101 88c60 0 101 -35 101 -88c0 -51 -41 -85 -101 -85zM-35 -201v129c18 -1 36 -2 49 -2c52 0 71 27 71 71v521h166v-539c0 -107 -56 -186 -197 -186c-35 0 -69 3 -89 6z" />
    <glyph glyph-name="k" unicode="k" horiz-adv-x="601" 
d="M413 0l-138 183l-40 -43v-140h-166v750h166v-430l166 198h186l-202 -217l225 -301h-197z" />
    <glyph glyph-name="l" unicode="l" horiz-adv-x="304" 
d="M69 750h166v-750h-166v750z" />
    <glyph glyph-name="m" unicode="m" horiz-adv-x="983" 
d="M748 535c121 0 166 -75 166 -185v-350h-165v293c0 68 -23 100 -79 100c-43 0 -76 -31 -97 -75v-318h-166v293c0 68 -22 100 -78 100c-41 0 -73 -28 -94 -69v-324h-166v518h166v-74c32 53 87 91 172 91c91 0 139 -43 158 -112c30 64 87 112 183 112z" />
    <glyph glyph-name="n" unicode="n" horiz-adv-x="652" 
d="M416 535c121 0 166 -75 166 -185v-350h-165v293c0 68 -22 100 -79 100c-43 0 -80 -30 -103 -75v-318h-166v518h166v-78c35 55 93 95 181 95z" />
    <glyph glyph-name="o" unicode="o" horiz-adv-x="640" 
d="M320 -17c-156 0 -284 106 -284 277c0 172 129 275 284 275c156 0 285 -103 285 -275c0 -171 -130 -277 -285 -277zM320 131c63 0 106 51 106 129s-43 128 -106 128s-106 -50 -106 -128s42 -129 106 -129z" />
    <glyph glyph-name="p" unicode="p" horiz-adv-x="671" 
d="M400 537c132 0 236 -99 236 -277s-102 -276 -236 -276c-78 0 -132 34 -165 87v-248h-166v689h154v-84c32 66 89 109 177 109zM347 127c71 0 112 52 112 133s-41 134 -112 134c-70 0 -113 -61 -113 -134c1 -76 43 -133 113 -133z" />
    <glyph glyph-name="q" unicode="q" horiz-adv-x="672" 
d="M450 512h152v-689h-166v248c-33 -53 -86 -86 -165 -86c-133 0 -235 97 -235 276c0 178 103 276 235 276c88 0 144 -41 176 -105zM324 127c70 0 113 58 113 134c1 73 -43 133 -113 133c-71 0 -111 -53 -111 -133c0 -81 40 -134 111 -134z" />
    <glyph glyph-name="r" unicode="r" horiz-adv-x="452" 
d="M235 397c27 76 93 130 175 130v-176c-89 0 -170 -30 -175 -162v-189h-166v518h166v-121z" />
    <glyph glyph-name="s" unicode="s" horiz-adv-x="508" 
d="M258 -17c-113 0 -187 37 -233 79l58 104c48 -32 101 -62 166 -62c36 0 58 14 58 40c0 31 -29 40 -91 56c-78 19 -171 51 -171 167c0 121 101 168 214 168c91 0 163 -27 204 -68l-60 -96c-46 27 -87 48 -136 48c-36 0 -59 -13 -59 -37c0 -31 36 -41 89 -54
c89 -23 180 -51 180 -163c0 -123 -87 -182 -219 -182z" />
    <glyph glyph-name="t" unicode="t" horiz-adv-x="451" 
d="M411 131l3 -134c-19 -5 -78 -14 -131 -14c-156 0 -186 67 -186 183v223h-76v129h76v118l166 30v-148h134v-129h-134v-195c0 -56 24 -69 73 -69c28 0 58 3 75 6z" />
    <glyph glyph-name="u" unicode="u" horiz-adv-x="610" 
d="M304 -17c-148 0 -246 57 -246 226v309h165v-311c0 -53 24 -88 81 -88c58 0 83 35 83 88v311h166v-309c0 -169 -100 -226 -249 -226z" />
    <glyph glyph-name="v" unicode="v" horiz-adv-x="568" 
d="M391 518h168l-192 -518h-174l-188 518h170l108 -341z" />
    <glyph glyph-name="w" unicode="w" horiz-adv-x="859" 
d="M693 518h156l-174 -518h-151l-109 332l-99 -332h-151l-160 518h169l86 -322l94 322h148l98 -327z" />
    <glyph glyph-name="x" unicode="x" horiz-adv-x="572" 
d="M568 518l-187 -266l180 -252h-181l-106 148l-103 -148h-167l186 266l-180 252h182l107 -150l101 150h168z" />
    <glyph glyph-name="y" unicode="y" horiz-adv-x="559" 
d="M396 518h160l-233 -567c-36 -89 -96 -149 -194 -149c-40 0 -70 6 -91 11l10 126c4 -2 29 -6 62 -6c61 0 83 24 101 74l-209 511h172l114 -300z" />
    <glyph glyph-name="z" unicode="z" horiz-adv-x="496" 
d="M225 119h244v-119h-443v119l235 280h-222v119h421v-119z" />
    <glyph glyph-name="zero" unicode="0" horiz-adv-x="746" 
d="M372 -17c-194 0 -326 151 -326 371c0 219 132 371 326 371c195 0 328 -152 328 -371c0 -220 -133 -371 -328 -371zM372 120c98 0 146 92 146 234c0 141 -48 234 -146 234c-97 0 -144 -93 -144 -234c0 -142 47 -234 144 -234z" />
    <glyph glyph-name="one" unicode="1" horiz-adv-x="461" 
d="M237 710h107v-710h-173v541l-116 -46v138z" />
    <glyph glyph-name="two" unicode="2" horiz-adv-x="645" 
d="M251 136h327v-136h-518v136c173 139 328 239 328 360c0 58 -33 91 -89 91c-63 0 -96 -43 -119 -106l-133 49c29 122 127 197 268 197c144 0 242 -80 242 -218c0 -193 -199 -305 -306 -373z" />
    <glyph glyph-name="three" unicode="3" horiz-adv-x="586" 
d="M372 367c86 -15 162 -60 162 -172c0 -140 -124 -212 -264 -211c-120 -1 -207 35 -246 59l41 129c47 -21 109 -49 176 -49c68 0 111 33 111 87c0 65 -61 95 -162 95h-46v106h37c114 0 159 45 159 101c0 50 -37 77 -93 77c-55 0 -116 -21 -162 -49l-40 121
c44 35 135 66 232 66c138 0 231 -63 231 -182c0 -91 -56 -153 -136 -178z" />
    <glyph glyph-name="four" unicode="4" horiz-adv-x="661" 
d="M633 293v-103h-107v-190h-172v190h-325v118l331 402h166v-417h107zM148 293h206v243z" />
    <glyph glyph-name="five" unicode="5" horiz-adv-x="647" 
d="M388 456c132 0 215 -75 215 -218c0 -175 -132 -255 -290 -255c-136 0 -224 53 -270 80l54 121c58 -31 129 -66 197 -66c77 0 128 43 128 121c0 76 -48 110 -108 110c-65 0 -106 -41 -132 -66l-97 37l39 390h432v-132h-310l-19 -173c40 32 98 51 161 51z" />
    <glyph glyph-name="six" unicode="6" horiz-adv-x="652" 
d="M403 443c116 0 218 -68 218 -214c0 -153 -107 -246 -279 -246c-181 0 -296 118 -296 333c0 239 114 409 354 409c58 0 106 -10 149 -24l-20 -128c-34 10 -70 18 -109 18c-114 0 -188 -75 -195 -222c42 45 101 74 178 74zM337 108c68 0 108 42 108 117
c0 77 -45 111 -105 111c-48 0 -88 -22 -116 -76c0 -96 37 -152 113 -152z" />
    <glyph glyph-name="seven" unicode="7" horiz-adv-x="577" 
d="M41 710h504v-101c-86 -123 -212 -346 -244 -609h-188c42 251 162 455 248 577h-320v133z" />
    <glyph glyph-name="eight" unicode="8" horiz-adv-x="648" 
d="M445 395c87 -40 170 -91 170 -195c0 -135 -112 -215 -292 -215s-290 74 -290 205c0 93 81 143 155 169c-60 37 -109 88 -109 178c0 112 94 188 247 188c152 0 245 -73 245 -177c0 -78 -58 -126 -126 -153zM327 621c-50 0 -85 -29 -85 -77c0 -52 51 -82 115 -111
c30 27 57 63 57 105c0 53 -38 83 -87 83zM320 99c62 0 108 36 108 85c0 67 -69 96 -146 129c-46 -23 -73 -65 -73 -112c1 -64 50 -102 111 -102z" />
    <glyph glyph-name="nine" unicode="9" horiz-adv-x="652" 
d="M311 727c180 0 296 -118 296 -333c0 -239 -114 -409 -354 -409c-58 0 -107 10 -150 24l20 128c34 -10 70 -18 110 -18c114 0 187 75 194 221c-42 -44 -100 -73 -177 -73c-117 0 -218 68 -218 214c0 153 106 246 279 246zM313 374c48 0 88 22 115 74v1
c0 97 -36 153 -113 153c-67 0 -108 -42 -108 -117c0 -77 45 -111 106 -111z" />
    <glyph glyph-name="uni00B9" unicode="&#xb9;" horiz-adv-x="257" 
d="M132 710h66v-380h-108v280l-63 -24v82z" />
    <glyph glyph-name="uni00B2" unicode="&#xb2;" horiz-adv-x="355" 
d="M151 414h167v-84h-284v84c95 75 171 120 171 177c0 26 -15 42 -41 42c-30 0 -44 -21 -56 -53l-83 29c15 72 72 111 150 111s134 -43 134 -119c0 -103 -103 -155 -158 -187z" />
    <glyph glyph-name="uni00B3" unicode="&#xb3;" horiz-adv-x="317" 
d="M204 527c46 -7 87 -31 87 -91c0 -76 -68 -113 -147 -114c-65 -1 -115 17 -136 30l23 80c28 -11 62 -24 95 -24s51 15 51 38c0 30 -31 44 -79 44h-25v65h19c58 0 80 19 80 45c0 23 -17 35 -44 35c-26 0 -61 -10 -86 -24l-22 76c24 18 77 33 129 33c76 0 128 -33 128 -98
c0 -48 -30 -81 -73 -95z" />
    <glyph glyph-name="onequarter" unicode="&#xbc;" horiz-adv-x="763" 
d="M563 725h105l-511 -725h-105zM90 330v280l-63 -24v82l105 42h66v-380h-108zM748 162v-63h-55v-99h-108v99h-171v73l175 208h104v-218h55zM486 162h99v113z" />
    <glyph glyph-name="onehalf" unicode="&#xbd;" horiz-adv-x="793" 
d="M563 725h105l-511 -725h-105zM90 330v280l-63 -24v82l105 42h66v-380h-108zM589 84h167v-84h-284v84c95 75 171 120 171 177c0 26 -15 42 -41 42c-30 0 -44 -21 -56 -53l-83 29c15 72 72 111 150 111s134 -43 134 -119c0 -103 -103 -155 -158 -187z" />
    <glyph glyph-name="threequarters" unicode="&#xbe;" horiz-adv-x="811" 
d="M611 725h105l-511 -725h-105zM126 408c33 0 51 15 51 38c0 30 -31 44 -79 44h-25v65h19c58 0 80 19 80 45c0 23 -17 35 -44 35c-26 0 -61 -10 -86 -24l-22 76c24 18 77 33 129 33c76 0 128 -33 128 -98c0 -48 -30 -81 -73 -95c46 -7 87 -31 87 -91
c0 -76 -68 -113 -147 -114c-65 -1 -115 17 -136 30l23 80c28 -11 62 -24 95 -24zM796 162v-63h-55v-99h-108v99h-171v73l175 208h104v-218h55zM534 162h99v113z" />
    <glyph glyph-name="uni2153" unicode="&#x2153;" horiz-adv-x="769" 
d="M563 725h105l-511 -725h-105zM90 330v280l-63 -24v82l105 42h66v-380h-108zM657 197c46 -7 87 -31 87 -91c0 -76 -68 -113 -147 -114c-65 -1 -115 17 -136 30l23 80c28 -11 62 -24 95 -24s51 15 51 38c0 30 -31 44 -79 44h-25v65h19c58 0 80 19 80 45c0 23 -17 35 -44 35
c-26 0 -61 -10 -86 -24l-22 76c24 18 77 33 129 33c76 0 128 -33 128 -98c0 -48 -30 -81 -73 -95z" />
    <glyph glyph-name="uni2154" unicode="&#x2154;" horiz-adv-x="868" 
d="M661 725h105l-511 -725h-105zM318 414v-84h-284v84c95 75 171 120 171 177c0 26 -15 42 -41 42c-30 0 -44 -21 -56 -53l-83 29c15 72 72 111 150 111s134 -43 134 -119c0 -103 -103 -155 -158 -187h167zM755 197c46 -7 87 -31 87 -91c0 -76 -68 -113 -147 -114
c-65 -1 -115 17 -136 30l23 80c28 -11 62 -24 95 -24s51 15 51 38c0 30 -31 44 -79 44h-25v65h19c58 0 80 19 80 45c0 23 -17 35 -44 35c-26 0 -61 -10 -86 -24l-22 76c24 18 77 33 129 33c76 0 128 -33 128 -98c0 -48 -30 -81 -73 -95z" />
    <glyph glyph-name="oneeighth" unicode="&#x215b;" horiz-adv-x="777" 
d="M563 725h105l-511 -725h-105zM90 330v280l-63 -24v82l105 42h66v-380h-108zM674 212c47 -21 90 -49 90 -102c0 -77 -63 -118 -162 -118c-100 0 -163 38 -163 112c0 47 43 73 82 86c-32 20 -58 48 -58 96c0 60 52 102 139 102s138 -40 138 -96c0 -40 -30 -66 -66 -80z
M600 326c-25 0 -42 -14 -42 -35c0 -25 27 -40 61 -55c13 14 25 31 25 50c0 25 -18 40 -44 40zM602 60c30 0 52 15 52 38c0 33 -35 48 -74 64c-21 -12 -32 -32 -32 -53c0 -30 24 -49 54 -49z" />
    <glyph glyph-name="threeeighths" unicode="&#x215c;" horiz-adv-x="825" 
d="M611 725h105l-511 -725h-105zM126 408c33 0 51 15 51 38c0 30 -31 44 -79 44h-25v65h19c58 0 80 19 80 45c0 23 -17 35 -44 35c-26 0 -61 -10 -86 -24l-22 76c24 18 77 33 129 33c76 0 128 -33 128 -98c0 -48 -30 -81 -73 -95c46 -7 87 -31 87 -91
c0 -76 -68 -113 -147 -114c-65 -1 -115 17 -136 30l23 80c28 -11 62 -24 95 -24zM722 212c47 -21 90 -49 90 -102c0 -77 -63 -118 -162 -118c-100 0 -163 38 -163 112c0 47 43 73 82 86c-32 20 -58 48 -58 96c0 60 52 102 139 102s138 -40 138 -96c0 -40 -30 -66 -66 -80z
M648 326c-25 0 -42 -14 -42 -35c0 -25 27 -40 61 -55c13 14 25 31 25 50c0 25 -18 40 -44 40zM650 60c30 0 52 15 52 38c0 33 -35 48 -74 64c-21 -12 -32 -32 -32 -53c0 -30 24 -49 54 -49z" />
    <glyph glyph-name="fiveeighths" unicode="&#x215d;" horiz-adv-x="856" 
d="M641 725h105l-511 -725h-105zM154 406c37 0 62 19 62 56c0 36 -24 51 -52 51c-30 0 -50 -19 -63 -31l-61 22l22 208h241v-81h-166l-9 -78c24 18 56 25 84 25c73 0 117 -41 117 -118c0 -97 -76 -138 -161 -138c-73 0 -123 27 -149 41l32 74c35 -17 73 -31 103 -31z
M752 212c47 -21 90 -49 90 -102c0 -77 -63 -118 -162 -118c-100 0 -163 38 -163 112c0 47 43 73 82 86c-32 20 -58 48 -58 96c0 60 52 102 139 102s138 -40 138 -96c0 -40 -30 -66 -66 -80zM678 326c-25 0 -42 -14 -42 -35c0 -25 27 -40 61 -55c13 14 25 31 25 50
c0 25 -18 40 -44 40zM680 60c30 0 52 15 52 38c0 33 -35 48 -74 64c-21 -12 -32 -32 -32 -53c0 -30 24 -49 54 -49z" />
    <glyph glyph-name="seveneighths" unicode="&#x215e;" horiz-adv-x="759" 
d="M544 725h105l-511 -725h-105zM53 330c24 130 82 233 129 298h-166v82h279v-63c-47 -67 -108 -178 -123 -317h-119zM655 212c47 -21 90 -49 90 -102c0 -77 -63 -118 -162 -118c-100 0 -163 38 -163 112c0 47 43 73 82 86c-32 20 -58 48 -58 96c0 60 52 102 139 102
s138 -40 138 -96c0 -40 -30 -66 -66 -80zM581 326c-25 0 -42 -14 -42 -35c0 -25 27 -40 61 -55c13 14 25 31 25 50c0 25 -18 40 -44 40zM583 60c30 0 52 15 52 38c0 33 -35 48 -74 64c-21 -12 -32 -32 -32 -53c0 -30 24 -49 54 -49z" />
    <glyph glyph-name="underscore" unicode="_" horiz-adv-x="539" 
d="M9 -84h521v-140h-521v140z" />
    <glyph glyph-name="hyphen" unicode="-" horiz-adv-x="604" 
d="M84 359h436v-140h-436v140z" />
    <glyph glyph-name="endash" unicode="&#x2013;" horiz-adv-x="682" 
d="M84 219v140h514v-140h-514z" />
    <glyph glyph-name="emdash" unicode="&#x2014;" horiz-adv-x="1012" 
d="M84 219v140h844v-140h-844z" />
    <glyph glyph-name="parenleft" unicode="(" horiz-adv-x="404" 
d="M220 -231c-61 61 -176 228 -176 484s115 423 176 484l140 -61c-76 -117 -142 -237 -142 -423s66 -306 142 -423z" />
    <glyph glyph-name="parenright" unicode=")" horiz-adv-x="404" 
d="M184 -231l-140 61c75 117 142 237 142 423s-67 306 -142 423l140 61c61 -61 176 -228 176 -484s-115 -423 -176 -484z" />
    <glyph glyph-name="bracketleft" unicode="[" horiz-adv-x="448" 
d="M84 710h320v-147h-147v-620h147v-142h-320v909z" />
    <glyph glyph-name="bracketright" unicode="]" horiz-adv-x="448" 
d="M363 710v-909h-319v142h147v620h-147v147h319z" />
    <glyph glyph-name="braceleft" unicode="{" horiz-adv-x="476" 
d="M298 392c0 -73 -36 -113 -101 -123c65 -10 101 -47 101 -116v-125c0 -37 17 -55 55 -55h82v-147h-182c-80 0 -127 40 -127 122v188c0 41 -18 60 -48 64l-50 7v122l50 8c30 4 48 23 48 64v187c0 81 47 122 127 122h182v-147h-86c-34 0 -51 -18 -51 -55v-116z" />
    <glyph glyph-name="braceright" unicode="}" horiz-adv-x="493" 
d="M399 337l50 -8v-122l-50 -7c-30 -4 -48 -23 -48 -64v-188c0 -82 -47 -122 -127 -122h-182v147h82c38 0 55 18 55 55v125c0 69 36 106 101 116c-65 10 -101 50 -101 123v116c0 37 -17 55 -51 55h-86v147h182c80 0 127 -41 127 -122v-187c0 -41 18 -60 48 -64z" />
    <glyph glyph-name="numbersign" unicode="#" horiz-adv-x="724" 
d="M723 442h-146l-43 -155h138v-108h-167l-50 -180h-124l50 180h-146l-50 -180h-123l49 180h-102v108h132l42 155h-123v108h153l44 160h125l-44 -160h145l44 160h124l-44 -160h116v-108zM410 287l43 155h-145l-43 -155h145z" />
    <glyph glyph-name="percent" unicode="%" horiz-adv-x="988" 
d="M688 725h105l-511 -725h-105zM210 322c-109 0 -187 80 -187 198s78 198 187 198s187 -80 187 -198s-78 -198 -187 -198zM210 403c50 0 73 45 73 117s-23 117 -73 117s-73 -45 -73 -117s23 -117 73 -117zM776 -8c-110 0 -188 80 -188 198s78 198 187 198
c110 0 187 -80 187 -198s-77 -198 -186 -198zM775 73c50 0 74 45 74 117s-24 117 -74 117c-49 0 -72 -45 -72 -117s23 -117 72 -117z" />
    <glyph glyph-name="perthousand" unicode="&#x2030;" horiz-adv-x="1445" 
d="M688 725h105l-511 -725h-105zM210 322c-109 0 -187 80 -187 198s78 198 187 198s187 -80 187 -198s-78 -198 -187 -198zM210 403c50 0 73 45 73 117s-23 117 -73 117s-73 -45 -73 -117s23 -117 73 -117zM776 -8c-110 0 -188 80 -188 198s78 198 187 198
c110 0 187 -80 187 -198s-77 -198 -186 -198zM1234 -8c-110 0 -188 80 -188 198s78 198 187 198s187 -80 187 -198s-78 -198 -186 -198zM775 73c50 0 74 45 74 117s-24 117 -74 117c-49 0 -72 -45 -72 -117s23 -117 72 -117zM1233 73c50 0 73 45 73 117s-23 117 -73 117
s-73 -45 -73 -117s23 -117 73 -117z" />
    <glyph glyph-name="ampersand" unicode="&#x26;" horiz-adv-x="787" 
d="M784 0h-214l-83 85c-57 -53 -130 -102 -244 -102c-130 0 -204 72 -204 180c0 120 86 169 178 198c-40 46 -73 98 -73 171c0 113 91 195 227 195c120 0 208 -67 208 -173c0 -93 -62 -155 -143 -192l87 -91c36 38 77 83 104 123l94 -74c-35 -39 -73 -83 -119 -131zM378 617
c-41 0 -74 -30 -74 -76c0 -49 30 -80 64 -113c49 28 78 72 78 119c0 40 -26 70 -68 70zM299 114c44 0 79 21 110 50l-122 123c-40 -21 -71 -51 -71 -98c0 -43 32 -75 83 -75z" />
    <glyph glyph-name="section" unicode="&#xa7;" horiz-adv-x="594" 
d="M507 137c38 -29 63 -68 63 -123c0 -138 -122 -206 -261 -206c-150 0 -247 58 -297 114l66 106c55 -48 129 -87 207 -87c56 0 103 24 103 68c0 103 -348 68 -348 274c0 59 28 96 68 121c-32 28 -53 65 -53 115c0 138 120 202 246 202c123 0 190 -36 236 -91l-69 -97
c-50 40 -95 64 -157 64c-49 0 -83 -24 -83 -62c0 -99 329 -74 329 -280c0 -50 -20 -89 -50 -118zM190 301c0 -54 111 -71 213 -110c9 10 13 21 13 35c0 56 -106 77 -203 117c-14 -10 -23 -25 -23 -42z" />
    <glyph glyph-name="paragraph" unicode="&#xb6;" horiz-adv-x="842" 
d="M318 199c-149 0 -274 93 -274 255c0 164 125 256 274 256h463v-875h-166v735h-131v-735h-166v364z" />
    <glyph glyph-name="uni2116" unicode="&#x2116;" horiz-adv-x="1322" 
d="M1016 181c-154 0 -285 96 -285 271c0 177 132 273 285 273c154 0 285 -96 285 -273c0 -175 -132 -271 -285 -271zM521 310v400h149v-710h-170l-274 440v-440h-149v710h177zM1016 584c-61 0 -106 -51 -106 -132c0 -80 44 -130 106 -130c60 0 106 50 106 130
c0 81 -46 132 -106 132zM765 0v121h501v-121h-501z" />
    <glyph glyph-name="quotesingle" unicode="'" horiz-adv-x="269" 
d="M46 710h176l-17 -329h-142z" />
    <glyph glyph-name="quotedbl" unicode="&#x22;" horiz-adv-x="521" 
d="M46 710h176l-17 -329h-142zM299 710h176l-17 -329h-142z" />
    <glyph glyph-name="quoteleft" unicode="&#x2018;" horiz-adv-x="323" 
d="M161 541c45 -6 77 -36 77 -84c0 -54 -42 -90 -97 -90c-51 0 -95 32 -95 101c0 104 99 209 183 259l47 -59c-37 -29 -91 -80 -115 -127z" />
    <glyph glyph-name="quoteright" unicode="&#x2019;" horiz-adv-x="323" 
d="M182 727c51 0 94 -32 94 -101c0 -104 -98 -209 -182 -259l-48 59c37 29 92 80 116 127c-45 6 -77 36 -77 84c0 54 42 90 97 90z" />
    <glyph glyph-name="quotedblleft" unicode="&#x201c;" horiz-adv-x="565" 
d="M276 669c-37 -30 -91 -80 -115 -127c45 -6 77 -37 77 -84c0 -54 -42 -90 -97 -90c-51 0 -95 32 -95 101c0 103 99 209 183 259zM403 542c45 -6 77 -37 77 -84c0 -54 -42 -90 -97 -90c-51 0 -94 32 -94 101c0 103 98 209 182 259l48 -59c-37 -30 -91 -80 -116 -127z" />
    <glyph glyph-name="quotedblright" unicode="&#x201d;" horiz-adv-x="560" 
d="M176 727c52 0 95 -32 95 -101c0 -104 -98 -209 -182 -259l-48 59c37 29 92 80 115 127c-45 6 -77 36 -77 84c0 54 42 90 97 90zM419 727c51 0 94 -32 94 -101c0 -104 -98 -209 -182 -259l-48 59c37 29 92 80 116 127c-45 6 -78 36 -78 84c0 54 42 90 98 90z" />
    <glyph glyph-name="quotesinglbase" unicode="&#x201a;" horiz-adv-x="323" 
d="M182 171c51 0 94 -32 94 -101c0 -104 -98 -209 -182 -259l-48 59c37 29 92 80 116 127c-45 6 -77 37 -77 84c0 54 42 90 97 90z" />
    <glyph glyph-name="quotedblbase" unicode="&#x201e;" horiz-adv-x="560" 
d="M172 171c51 0 94 -32 94 -101c0 -104 -98 -209 -182 -259l-48 59c37 29 92 80 116 127c-45 6 -78 37 -78 84c0 54 42 90 98 90zM414 171c51 0 94 -32 94 -101c0 -104 -98 -209 -182 -259l-48 59c37 29 92 80 116 127c-45 6 -77 37 -77 84c0 54 42 90 97 90z" />
    <glyph glyph-name="guilsinglleft" unicode="&#x2039;" horiz-adv-x="416" 
d="M44 265l162 264h166l-162 -264l162 -265h-166z" />
    <glyph glyph-name="guilsinglright" unicode="&#x203a;" horiz-adv-x="414" 
d="M371 265l-162 -265h-167l162 265l-162 264h167z" />
    <glyph glyph-name="guillemotleft" unicode="&#xab;" horiz-adv-x="774" 
d="M44 265l162 264h166l-162 -264l162 -265h-166zM379 265l162 264h166l-162 -264l162 -265h-166z" />
    <glyph glyph-name="guillemotright" unicode="&#xbb;" horiz-adv-x="774" 
d="M395 265l-162 -265h-166l162 265l-162 264h166zM730 265l-162 -265h-166l162 265l-162 264h166z" />
    <glyph glyph-name="asterisk" unicode="*" horiz-adv-x="540" 
d="M270 450l-71 -122l-110 80l97 102l-140 29l43 130l128 -62l-15 143h136l-16 -143l130 60l42 -131l-141 -26l96 -105l-111 -79z" />
    <glyph glyph-name="dagger" unicode="&#x2020;" horiz-adv-x="513" 
d="M489 529v-140h-154v-197l-24 -302h-124l-24 302v197h-154v140h154v181h172v-181h154z" />
    <glyph glyph-name="daggerdbl" unicode="&#x2021;" horiz-adv-x="648" 
d="M400 389l-7 -89l7 -89h164v-140h-154v-181h-172v181h-154v140h164l8 89l-8 89h-164v140h154v181h172v-181h154v-140h-164z" />
    <glyph glyph-name="period" unicode="." horiz-adv-x="300" 
d="M150 -7c-61 0 -104 36 -104 95s43 99 104 99s103 -40 103 -99s-42 -95 -103 -95z" />
    <glyph glyph-name="comma" unicode="," horiz-adv-x="323" 
d="M182 171c51 0 94 -32 94 -101c0 -104 -98 -209 -182 -259l-48 59c37 29 92 80 116 127c-45 6 -77 37 -77 84c0 54 42 90 97 90z" />
    <glyph glyph-name="colon" unicode=":" horiz-adv-x="300" 
d="M150 343c-61 0 -104 35 -104 94s43 100 104 100s103 -41 103 -100s-42 -94 -103 -94zM150 -7c-61 0 -104 36 -104 95s43 99 104 99s103 -40 103 -99s-42 -95 -103 -95z" />
    <glyph glyph-name="semicolon" unicode=";" horiz-adv-x="323" 
d="M150 292c-61 0 -104 36 -104 95s43 99 104 99s103 -40 103 -99s-42 -95 -103 -95zM155 171c51 0 94 -32 94 -101c0 -104 -98 -209 -182 -259l-48 59c37 29 92 80 116 127c-45 6 -77 37 -77 84c0 54 42 90 97 90z" />
    <glyph glyph-name="ellipsis" unicode="&#x2026;" horiz-adv-x="962" 
d="M150 -7c-61 0 -104 36 -104 95s43 99 104 99s103 -40 103 -99s-42 -95 -103 -95zM481 -7c-61 0 -104 36 -104 95s43 99 104 99s103 -40 103 -99s-42 -95 -103 -95zM812 -7c-61 0 -104 36 -104 95s43 99 104 99s103 -40 103 -99s-42 -95 -103 -95z" />
    <glyph glyph-name="exclam" unicode="!" horiz-adv-x="300" 
d="M105 277c-14 137 -59 261 -59 347c0 60 46 99 104 99c60 0 103 -39 103 -99c0 -86 -43 -209 -57 -347l-2 -31h-87zM150 -7c-61 0 -104 36 -104 95s43 99 104 99s103 -40 103 -99s-42 -95 -103 -95z" />
    <glyph glyph-name="exclamdown" unicode="&#xa1;" horiz-adv-x="308" 
d="M158 546c61 0 103 -36 103 -95s-42 -99 -103 -99s-104 40 -104 99s43 95 104 95zM203 262c14 -137 58 -261 58 -347c0 -60 -45 -99 -103 -99c-60 0 -103 39 -103 99c0 86 43 209 57 347l2 31h87z" />
    <glyph glyph-name="question" unicode="?" horiz-adv-x="471" 
d="M150 232c-7 204 135 194 135 296c0 42 -31 68 -81 68c-53 0 -103 -28 -140 -70l-56 97c35 50 107 104 226 104c105 0 225 -41 225 -170c0 -179 -172 -143 -179 -325h-130zM216 -6c-61 0 -104 36 -104 95s43 99 104 99s103 -40 103 -99s-42 -95 -103 -95z" />
    <glyph glyph-name="questiondown" unicode="&#xbf;" horiz-adv-x="471" 
d="M251 536c61 0 103 -36 103 -95s-42 -99 -103 -99s-104 40 -104 99s43 95 104 95zM317 297c7 -203 -136 -194 -136 -296c0 -41 31 -67 82 -67c53 0 103 28 140 69l56 -96c-35 -50 -107 -104 -226 -104c-105 0 -225 41 -225 170c0 179 172 143 179 324h130z" />
    <glyph glyph-name="slash" unicode="/" horiz-adv-x="572" 
d="M9 -108l389 833h173l-389 -833h-173z" />
    <glyph glyph-name="backslash" unicode="\" horiz-adv-x="550" 
d="M9 725h173l389 -833h-173z" />
    <glyph glyph-name="fraction" unicode="&#x2044;" horiz-adv-x="206" 
d="M306 725h105l-511 -725h-105z" />
    <glyph glyph-name="bar" unicode="|" horiz-adv-x="335" 
d="M84 900h166v-1150h-166v1150z" />
    <glyph glyph-name="brokenbar" unicode="&#xa6;" horiz-adv-x="280" 
d="M57 900h166v-513h-166v513zM57 264h166v-514h-166v514z" />
    <glyph glyph-name="periodcentered" unicode="&#xb7;" horiz-adv-x="376" 
d="M187 245c-60 0 -103 36 -103 95s43 99 103 99c62 0 104 -40 104 -99s-42 -95 -104 -95z" />
    <glyph glyph-name="bullet" unicode="&#x2022;" horiz-adv-x="417" 
d="M207 211c-79 0 -136 46 -136 125c0 77 57 131 136 131c81 0 137 -54 137 -131c0 -79 -56 -125 -137 -125z" />
    <glyph glyph-name="minute" unicode="&#x2032;" horiz-adv-x="252" 
d="M38 710h177l-34 -334h-143v334z" />
    <glyph glyph-name="second" unicode="&#x2033;" horiz-adv-x="514" 
d="M38 710h177l-34 -334h-143v334zM300 710h176l-34 -334h-142v334z" />
    <glyph glyph-name="plus" unicode="+" horiz-adv-x="654" 
d="M570 381v-121h-181v-180h-124v180h-181v121h181v181h124v-181h181z" />
    <glyph glyph-name="minus" unicode="&#x2212;" horiz-adv-x="654" 
d="M84 381h486v-121h-486v121z" />
    <glyph glyph-name="plusminus" unicode="&#xb1;" horiz-adv-x="609" 
d="M367 442h180v-121h-180v-138h-124v138h-181v121h181v139h124v-139zM62 0v121h485v-121h-485z" />
    <glyph glyph-name="divide" unicode="&#xf7;" horiz-adv-x="609" 
d="M305 427c-48 0 -81 28 -81 74s33 77 81 77c47 0 81 -31 81 -77s-34 -74 -81 -74zM62 381h485v-121h-485v121zM305 63c-48 0 -81 28 -81 74s33 77 81 77c47 0 81 -31 81 -77s-34 -74 -81 -74z" />
    <glyph glyph-name="multiply" unicode="&#xd7;" horiz-adv-x="574" 
d="M502 450l-129 -129l128 -129l-85 -86l-129 129l-129 -129l-85 86l129 129l-130 129l86 85l129 -129l129 129z" />
    <glyph glyph-name="equal" unicode="=" horiz-adv-x="665" 
d="M84 507h497v-121h-497v121zM84 259h497v-121h-497v121z" />
    <glyph glyph-name="less" unicode="&#x3c;" horiz-adv-x="619" 
d="M44 268v150l490 178v-123l-376 -130l376 -130v-123z" />
    <glyph glyph-name="greater" unicode="&#x3e;" horiz-adv-x="610" 
d="M562 268l-491 -178v123l376 130l-376 130v123l491 -178v-150z" />
    <glyph glyph-name="lessequal" unicode="&#x2264;" horiz-adv-x="600" 
d="M550 638v-126l-368 -101l368 -101v-126l-491 152v149zM59 0v121h491v-121h-491z" />
    <glyph glyph-name="greaterequal" unicode="&#x2265;" horiz-adv-x="600" 
d="M50 638l491 -153v-149l-491 -152v126l368 101l-368 101v126zM50 0v121h491v-121h-491z" />
    <glyph glyph-name="approxequal" unicode="&#x2248;" horiz-adv-x="642" 
d="M448 371c-96 0 -175 57 -251 57s-135 -30 -135 -30v122c0 -1 44 30 135 30s178 -58 251 -58s132 30 132 30v-121s-36 -30 -132 -30zM448 122c-96 0 -175 57 -251 57s-135 -30 -135 -30v122c0 -1 44 30 135 30s178 -58 251 -58s132 30 132 30v-121s-36 -30 -132 -30z" />
    <glyph glyph-name="notequal" unicode="&#x2260;" horiz-adv-x="644" 
d="M570 386h-149l-62 -127h211v-121h-271l-56 -114h-133l56 114h-92v121h151l63 127h-214v121h273l56 114h134l-56 -114h89v-121z" />
    <glyph glyph-name="logicalnot" unicode="&#xac;" horiz-adv-x="618" 
d="M50 397h518v-294h-124v173h-394v121z" />
    <glyph glyph-name="dollar" unicode="$" horiz-adv-x="567" 
d="M549 213c0 -130 -79 -205 -191 -225v-92h-143v93c-95 16 -157 60 -201 115l71 112c55 -49 115 -94 191 -94c58 0 90 26 90 65c0 38 -32 58 -77 77c-96 41 -247 76 -247 246c0 118 77 186 173 209v95h143v-92c81 -13 134 -49 174 -98l-74 -107c-51 40 -96 72 -158 72
c-50 0 -85 -23 -85 -61c0 -35 33 -54 78 -72c98 -42 256 -78 256 -243z" />
    <glyph glyph-name="cent" unicode="&#xa2;" horiz-adv-x="520" 
d="M503 39c-28 -16 -69 -40 -133 -50v-93h-130v96c-131 28 -204 131 -204 271c0 139 78 238 204 265v96h130v-93c55 -8 97 -26 122 -45l-39 -134c-24 16 -64 32 -117 32c-73 0 -123 -50 -123 -121s49 -123 130 -123c53 0 89 16 118 33z" />
    <glyph glyph-name="sterling" unicode="&#xa3;" horiz-adv-x="476" 
d="M280 218c-8 -46 -36 -76 -71 -97h250v-121h-449v121h15c67 0 119 27 128 97h-134v82h124c-35 79 -134 111 -134 236c0 138 120 189 225 189c120 0 192 -49 228 -98l-59 -98c-36 46 -86 70 -133 70c-56 0 -93 -30 -93 -88c0 -85 76 -121 99 -211h133v-82h-129z" />
    <glyph glyph-name="currency" unicode="&#xa4;" horiz-adv-x="642" 
d="M587 260c0 -58 -16 -108 -42 -147l78 -63l-91 -91l-66 81c-42 -24 -92 -37 -145 -37s-103 13 -145 37l-67 -81l-90 91l78 64c-26 39 -41 88 -41 146c0 59 16 108 42 148l-79 65l90 90l67 -82c42 25 93 38 146 38s102 -13 144 -37l66 81l91 -90l-79 -64
c27 -40 43 -90 43 -149zM321 131c61 0 107 50 107 129c0 81 -46 132 -107 132s-106 -51 -106 -132c0 -79 44 -129 106 -129z" />
    <glyph glyph-name="yen" unicode="&#xa5;" horiz-adv-x="638" 
d="M637 710l-203 -383h127v-62h-156v-79h156v-62h-156v-124h-172v124h-157v62h157v79h-157v62h127l-202 383h189l139 -271l139 271h169z" />
    <glyph glyph-name="uni20A9" unicode="&#x20a9;" horiz-adv-x="1110" 
d="M1102 710l-75 -226h73v-64h-95l-49 -148h122v-64h-144l-69 -208h-155l-67 208h-176l-68 -208h-155l-69 208h-143v64h122l-50 148h-94v64h73l-75 226h183l69 -226h165l72 226h137l72 -226h164l69 226h163zM280 420l45 -148h32l47 148h-124zM488 272h134l-48 148h-38z
M805 272l46 148h-124l47 -148h31z" />
    <glyph glyph-name="Euro" unicode="&#x20ac;" horiz-adv-x="739" 
d="M654 177l30 -146c-47 -27 -113 -48 -205 -48c-185 0 -312 103 -347 271h-99l16 62h74c-1 13 -1 26 -1 39s0 26 1 39h-68l16 62h61c37 168 167 271 347 271c78 0 144 -17 191 -41l-29 -141c-34 19 -80 28 -142 28c-76 0 -145 -40 -177 -117h249l-16 -62h-248
c-1 -11 -2 -23 -2 -35c0 -15 1 -29 3 -43h233l-17 -62h-200c30 -73 94 -111 176 -111c70 0 115 12 154 34z" />
    <glyph glyph-name="fhook" unicode="&#x192;" horiz-adv-x="419" 
d="M363 635c-40 0 -64 -16 -69 -57l-7 -58h114l-17 -143h-115l-46 -378c-14 -111 -77 -170 -218 -170c-37 0 -73 3 -91 7l16 126c17 -2 38 -3 60 -3c41 0 64 16 69 57l45 361h-76l18 143h76l9 75c14 111 77 169 218 169c36 0 72 -3 91 -6l-16 -127c-18 2 -38 4 -61 4z" />
    <glyph glyph-name="copyright" unicode="&#xa9;" horiz-adv-x="803" 
d="M368 -15c-185 0 -368 136 -368 370s183 370 368 370c186 0 369 -136 369 -370s-183 -370 -369 -370zM368 25c157 0 322 110 322 330s-165 330 -322 330s-321 -110 -321 -330s164 -330 321 -330zM382 134c-114 0 -205 78 -205 227c0 150 92 228 205 228
c55 0 90 -15 123 -38l-14 -53c-29 21 -55 32 -105 32c-71 0 -144 -48 -144 -168s70 -169 144 -169c57 0 88 16 118 45l17 -54c-34 -30 -74 -50 -139 -50z" />
    <glyph glyph-name="registered" unicode="&#xae;" horiz-adv-x="833" 
d="M416 -15c-185 0 -368 136 -368 370s183 370 368 370c186 0 369 -136 369 -370s-183 -370 -369 -370zM416 38c151 0 310 105 310 317s-159 317 -310 317s-309 -105 -309 -317s158 -317 309 -317zM293 146v419h126c86 0 151 -33 151 -122c0 -73 -42 -114 -105 -127
l114 -170h-63l-110 166h-61v-166h-52zM418 355c57 -1 94 26 94 84c0 57 -38 82 -94 82h-73v-166h73z" />
    <glyph glyph-name="trademark" unicode="&#x2122;" horiz-adv-x="658" 
d="M249 710v-54h-68v-221h-64v221h-69v54h201zM610 435h-60l-24 192l-67 -192h-43l-66 191l-22 -191h-56l31 275h71l66 -186l66 186h73z" />
    <glyph glyph-name="degree" unicode="&#xb0;" horiz-adv-x="418" 
d="M209 337c-110 0 -189 74 -189 191c0 116 79 190 189 190c109 0 188 -74 188 -190c0 -117 -79 -191 -188 -191zM209 401c60 0 103 47 103 127c0 79 -43 126 -103 126c-61 0 -104 -47 -104 -126c0 -80 43 -127 104 -127z" />
    <glyph glyph-name="uni2117" unicode="&#x2117;" horiz-adv-x="803" 
d="M368 725c186 0 369 -136 369 -370s-183 -370 -369 -370c-185 0 -368 136 -368 370s183 370 368 370zM368 25c157 0 322 110 322 330s-165 330 -322 330s-321 -110 -321 -330s164 -330 321 -330zM375 532c75 0 127 -33 127 -108c0 -77 -54 -120 -128 -120h-64v-127h-53
v355h118zM364 343c47 -1 80 25 80 75s-30 68 -79 68h-55v-143h54z" />
    <glyph glyph-name="at" unicode="@" horiz-adv-x="1032" 
d="M759 463l-56 -235c-16 -66 5 -95 51 -95c59 0 133 58 133 201c0 197 -161 299 -339 299c-212 0 -384 -156 -384 -387c0 -233 151 -362 361 -362c104 0 194 30 259 83l45 -75c-79 -62 -186 -101 -307 -101c-286 0 -474 165 -474 453s227 481 502 481
c236 0 438 -145 438 -389c0 -209 -138 -295 -246 -295c-83 0 -129 38 -139 91c-31 -55 -77 -91 -146 -91c-95 0 -159 69 -152 204c8 147 105 230 201 230c72 0 114 -31 133 -79l17 67h103zM506 152c58 0 95 56 103 120c9 55 -20 95 -71 95c-58 0 -98 -54 -103 -122
c-5 -61 21 -93 71 -93z" />
    <glyph glyph-name="zero.den" horiz-adv-x="407" 
d="M203 -8c-106 0 -180 79 -180 198c0 120 74 199 180 199s181 -79 181 -199c0 -119 -75 -198 -181 -198zM203 76c47 0 67 45 67 114c0 70 -20 115 -67 115c-46 0 -65 -45 -65 -115c0 -69 19 -114 65 -114z" />
    <glyph glyph-name="one.den" horiz-adv-x="257" 
d="M132 380h66v-380h-108v280l-63 -24v82z" />
    <glyph glyph-name="two.den" horiz-adv-x="355" 
d="M151 84h167v-84h-284v84c95 75 171 120 171 177c0 26 -15 42 -41 42c-30 0 -44 -21 -56 -53l-83 29c15 72 72 111 150 111s134 -43 134 -119c0 -103 -103 -155 -158 -187z" />
    <glyph glyph-name="three.den" horiz-adv-x="317" 
d="M204 197c46 -7 87 -31 87 -91c0 -76 -68 -113 -147 -114c-65 -1 -115 17 -136 30l23 80c28 -11 62 -24 95 -24s51 15 51 38c0 30 -31 44 -79 44h-25v65h19c58 0 80 19 80 45c0 23 -17 35 -44 35c-26 0 -61 -10 -86 -24l-22 76c24 18 77 33 129 33c76 0 128 -33 128 -98
c0 -48 -30 -81 -73 -95z" />
    <glyph glyph-name="four.den" horiz-adv-x="363" 
d="M348 162v-63h-55v-99h-108v99h-171v73l175 208h104v-218h55zM86 162h99v113z" />
    <glyph glyph-name="five.den" horiz-adv-x="347" 
d="M212 248c73 0 117 -41 117 -118c0 -97 -76 -138 -161 -138c-73 0 -123 27 -149 41l32 74c35 -17 73 -31 103 -31c37 0 62 19 62 56c0 36 -24 51 -52 51c-30 0 -50 -19 -63 -31l-61 22l22 208h241v-81h-166l-9 -78c24 18 56 25 84 25z" />
    <glyph glyph-name="six.den" horiz-adv-x="365" 
d="M227 239c61 0 116 -34 116 -113c0 -85 -58 -134 -155 -134c-98 0 -165 61 -165 179c0 126 58 219 195 219c33 0 63 -6 89 -15l-14 -78c-20 5 -41 10 -64 10c-54 0 -90 -32 -95 -102c23 20 53 34 93 34zM185 68c32 0 50 19 50 55c0 38 -22 52 -49 52c-21 0 -38 -8 -52 -30
v-7c0 -48 18 -70 51 -70z" />
    <glyph glyph-name="seven.den" horiz-adv-x="312" 
d="M16 380h279v-63c-47 -67 -108 -178 -123 -317h-119c24 130 82 233 129 298h-166v82z" />
    <glyph glyph-name="eight.den" horiz-adv-x="353" 
d="M249 212c47 -21 90 -49 90 -102c0 -77 -63 -118 -162 -118c-100 0 -163 38 -163 112c0 47 43 73 82 86c-32 20 -58 48 -58 96c0 60 52 102 139 102s138 -40 138 -96c0 -40 -30 -66 -66 -80zM175 326c-25 0 -42 -14 -42 -35c0 -25 27 -40 61 -55c13 14 25 31 25 50
c0 25 -18 40 -44 40zM177 60c30 0 52 15 52 38c0 33 -35 48 -74 64c-21 -12 -32 -32 -32 -53c0 -30 24 -49 54 -49z" />
    <glyph glyph-name="nine.den" horiz-adv-x="365" 
d="M182 388c98 0 165 -61 165 -179c0 -126 -58 -219 -195 -219c-33 0 -63 6 -89 15l14 78c20 -5 41 -10 64 -10c54 0 90 32 95 102c-23 -20 -53 -34 -93 -34c-61 0 -117 34 -117 113c0 85 59 134 156 134zM184 205c21 0 38 8 52 31v6c0 48 -18 70 -51 70
c-32 0 -50 -19 -50 -55c0 -38 22 -52 49 -52z" />
    <glyph glyph-name="zero.num" horiz-adv-x="407" 
d="M203 322c-106 0 -180 79 -180 198c0 120 74 199 180 199s181 -79 181 -199c0 -119 -75 -198 -181 -198zM203 406c47 0 67 45 67 114c0 70 -20 115 -67 115c-46 0 -65 -45 -65 -115c0 -69 19 -114 65 -114z" />
    <glyph glyph-name="one.num" horiz-adv-x="257" 
d="M132 710h66v-380h-108v280l-63 -24v82z" />
    <glyph glyph-name="two.num" horiz-adv-x="355" 
d="M151 414h167v-84h-284v84c95 75 171 120 171 177c0 26 -15 42 -41 42c-30 0 -44 -21 -56 -53l-83 29c15 72 72 111 150 111s134 -43 134 -119c0 -103 -103 -155 -158 -187z" />
    <glyph glyph-name="three.num" horiz-adv-x="317" 
d="M204 527c46 -7 87 -31 87 -91c0 -76 -68 -113 -147 -114c-65 -1 -115 17 -136 30l23 80c28 -11 62 -24 95 -24s51 15 51 38c0 30 -31 44 -79 44h-25v65h19c58 0 80 19 80 45c0 23 -17 35 -44 35c-26 0 -61 -10 -86 -24l-22 76c24 18 77 33 129 33c76 0 128 -33 128 -98
c0 -48 -30 -81 -73 -95z" />
    <glyph glyph-name="four.num" horiz-adv-x="363" 
d="M348 492v-63h-55v-99h-108v99h-171v73l175 208h104v-218h55zM86 492h99v113z" />
    <glyph glyph-name="five.num" horiz-adv-x="347" 
d="M212 578c73 0 117 -41 117 -118c0 -97 -76 -138 -161 -138c-73 0 -123 27 -149 41l32 74c35 -17 73 -31 103 -31c37 0 62 19 62 56c0 36 -24 51 -52 51c-30 0 -50 -19 -63 -31l-61 22l22 208h241v-81h-166l-9 -78c24 18 56 25 84 25z" />
    <glyph glyph-name="six.num" horiz-adv-x="365" 
d="M227 569c61 0 116 -34 116 -113c0 -85 -58 -134 -155 -134c-98 0 -165 61 -165 179c0 126 58 219 195 219c33 0 63 -6 89 -15l-14 -78c-20 5 -41 10 -64 10c-54 0 -90 -32 -95 -102c23 20 53 34 93 34zM185 398c32 0 50 19 50 55c0 38 -22 52 -49 52
c-21 0 -38 -8 -52 -30v-7c0 -48 18 -70 51 -70z" />
    <glyph glyph-name="seven.num" horiz-adv-x="312" 
d="M16 710h279v-63c-47 -67 -108 -178 -123 -317h-119c24 130 82 233 129 298h-166v82z" />
    <glyph glyph-name="eight.num" horiz-adv-x="353" 
d="M249 542c47 -21 90 -49 90 -102c0 -77 -63 -118 -162 -118c-100 0 -163 38 -163 112c0 47 43 73 82 86c-32 20 -58 48 -58 96c0 60 52 102 139 102s138 -40 138 -96c0 -40 -30 -66 -66 -80zM175 656c-25 0 -42 -14 -42 -35c0 -25 27 -40 61 -55c13 14 25 31 25 50
c0 25 -18 40 -44 40zM177 390c30 0 52 15 52 38c0 33 -35 48 -74 64c-21 -12 -32 -32 -32 -53c0 -30 24 -49 54 -49z" />
    <glyph glyph-name="nine.num" horiz-adv-x="365" 
d="M182 718c98 0 165 -61 165 -179c0 -126 -58 -219 -195 -219c-33 0 -63 6 -89 15l14 78c20 -5 41 -10 64 -10c54 0 90 32 95 102c-23 -20 -53 -34 -93 -34c-61 0 -117 34 -117 113c0 85 59 134 156 134zM184 535c21 0 38 8 52 31v6c0 48 -18 70 -51 70
c-32 0 -50 -19 -50 -55c0 -38 22 -52 49 -52z" />
    <glyph glyph-name="zero.sub" horiz-adv-x="407" 
d="M203 -68c-106 0 -180 79 -180 198c0 120 74 199 180 199s181 -79 181 -199c0 -119 -75 -198 -181 -198zM203 16c47 0 67 45 67 114c0 70 -20 115 -67 115c-46 0 -65 -45 -65 -115c0 -69 19 -114 65 -114z" />
    <glyph glyph-name="one.sub" horiz-adv-x="257" 
d="M132 320h66v-380h-108v280l-63 -24v82z" />
    <glyph glyph-name="two.sub" horiz-adv-x="355" 
d="M151 24h167v-84h-284v84c95 75 171 120 171 177c0 26 -15 42 -41 42c-30 0 -44 -21 -56 -53l-83 29c15 72 72 111 150 111s134 -43 134 -119c0 -103 -103 -155 -158 -187z" />
    <glyph glyph-name="three.sub" horiz-adv-x="317" 
d="M204 137c46 -7 87 -31 87 -91c0 -76 -68 -113 -147 -114c-65 -1 -115 17 -136 30l23 80c28 -11 62 -24 95 -24s51 15 51 38c0 30 -31 44 -79 44h-25v65h19c58 0 80 19 80 45c0 23 -17 35 -44 35c-26 0 -61 -10 -86 -24l-22 76c24 18 77 33 129 33c76 0 128 -33 128 -98
c0 -48 -30 -81 -73 -95z" />
    <glyph glyph-name="four.sub" horiz-adv-x="363" 
d="M348 102v-63h-55v-99h-108v99h-171v73l175 208h104v-218h55zM86 102h99v113z" />
    <glyph glyph-name="five.sub" horiz-adv-x="347" 
d="M212 188c73 0 117 -41 117 -118c0 -97 -76 -138 -161 -138c-73 0 -123 27 -149 41l32 74c35 -17 73 -31 103 -31c37 0 62 19 62 56c0 36 -24 51 -52 51c-30 0 -50 -19 -63 -31l-61 22l22 208h241v-81h-166l-9 -78c24 18 56 25 84 25z" />
    <glyph glyph-name="six.sub" horiz-adv-x="365" 
d="M227 179c61 0 116 -34 116 -113c0 -85 -58 -134 -155 -134c-98 0 -165 61 -165 179c0 126 58 219 195 219c33 0 63 -6 89 -15l-14 -78c-20 5 -41 10 -64 10c-54 0 -90 -32 -95 -102c23 20 53 34 93 34zM185 8c32 0 50 19 50 55c0 38 -22 52 -49 52c-21 0 -38 -8 -52 -30
v-7c0 -48 18 -70 51 -70z" />
    <glyph glyph-name="seven.sub" horiz-adv-x="312" 
d="M16 320h279v-63c-47 -67 -108 -178 -123 -317h-119c24 130 82 233 129 298h-166v82z" />
    <glyph glyph-name="eight.sub" horiz-adv-x="353" 
d="M249 152c47 -21 90 -49 90 -102c0 -77 -63 -118 -162 -118c-100 0 -163 38 -163 112c0 47 43 73 82 86c-32 20 -58 48 -58 96c0 60 52 102 139 102s138 -40 138 -96c0 -40 -30 -66 -66 -80zM175 266c-25 0 -42 -14 -42 -35c0 -25 27 -40 61 -55c13 14 25 31 25 50
c0 25 -18 40 -44 40zM177 0c30 0 52 15 52 38c0 33 -35 48 -74 64c-21 -12 -32 -32 -32 -53c0 -30 24 -49 54 -49z" />
    <glyph glyph-name="nine.sub" horiz-adv-x="365" 
d="M182 328c98 0 165 -61 165 -179c0 -126 -58 -219 -195 -219c-33 0 -63 6 -89 15l14 78c20 -5 41 -10 64 -10c54 0 90 32 95 102c-23 -20 -53 -34 -93 -34c-61 0 -117 34 -117 113c0 85 59 134 156 134zM184 145c21 0 38 8 52 31v6c0 48 -18 70 -51 70
c-32 0 -50 -19 -50 -55c0 -38 22 -52 49 -52z" />
    <glyph glyph-name="zero.sup" horiz-adv-x="407" 
d="M203 382c-106 0 -180 79 -180 198c0 120 74 199 180 199s181 -79 181 -199c0 -119 -75 -198 -181 -198zM203 466c47 0 67 45 67 114c0 70 -20 115 -67 115c-46 0 -65 -45 -65 -115c0 -69 19 -114 65 -114z" />
    <glyph glyph-name="one.sup" horiz-adv-x="257" 
d="M132 770h66v-380h-108v280l-63 -24v82z" />
    <glyph glyph-name="two.sup" horiz-adv-x="355" 
d="M151 474h167v-84h-284v84c95 75 171 120 171 177c0 26 -15 42 -41 42c-30 0 -44 -21 -56 -53l-83 29c15 72 72 111 150 111s134 -43 134 -119c0 -103 -103 -155 -158 -187z" />
    <glyph glyph-name="three.sup" horiz-adv-x="317" 
d="M204 587c46 -7 87 -31 87 -91c0 -76 -68 -113 -147 -114c-65 -1 -115 17 -136 30l23 80c28 -11 62 -24 95 -24s51 15 51 38c0 30 -31 44 -79 44h-25v65h19c58 0 80 19 80 45c0 23 -17 35 -44 35c-26 0 -61 -10 -86 -24l-22 76c24 18 77 33 129 33c76 0 128 -33 128 -98
c0 -48 -30 -81 -73 -95z" />
    <glyph glyph-name="four.sup" horiz-adv-x="363" 
d="M348 552v-63h-55v-99h-108v99h-171v73l175 208h104v-218h55zM86 552h99v113z" />
    <glyph glyph-name="five.sup" horiz-adv-x="347" 
d="M212 638c73 0 117 -41 117 -118c0 -97 -76 -138 -161 -138c-73 0 -123 27 -149 41l32 74c35 -17 73 -31 103 -31c37 0 62 19 62 56c0 36 -24 51 -52 51c-30 0 -50 -19 -63 -31l-61 22l22 208h241v-81h-166l-9 -78c24 18 56 25 84 25z" />
    <glyph glyph-name="six.sup" horiz-adv-x="365" 
d="M227 629c61 0 116 -34 116 -113c0 -85 -58 -134 -155 -134c-98 0 -165 61 -165 179c0 126 58 219 195 219c33 0 63 -6 89 -15l-14 -78c-20 5 -41 10 -64 10c-54 0 -90 -32 -95 -102c23 20 53 34 93 34zM185 458c32 0 50 19 50 55c0 38 -22 52 -49 52
c-21 0 -38 -8 -52 -30v-7c0 -48 18 -70 51 -70z" />
    <glyph glyph-name="seven.sup" horiz-adv-x="312" 
d="M16 770h279v-63c-47 -67 -108 -178 -123 -317h-119c24 130 82 233 129 298h-166v82z" />
    <glyph glyph-name="eight.sup" horiz-adv-x="353" 
d="M249 602c47 -21 90 -49 90 -102c0 -77 -63 -118 -162 -118c-100 0 -163 38 -163 112c0 47 43 73 82 86c-32 20 -58 48 -58 96c0 60 52 102 139 102s138 -40 138 -96c0 -40 -30 -66 -66 -80zM175 716c-25 0 -42 -14 -42 -35c0 -25 27 -40 61 -55c13 14 25 31 25 50
c0 25 -18 40 -44 40zM177 450c30 0 52 15 52 38c0 33 -35 48 -74 64c-21 -12 -32 -32 -32 -53c0 -30 24 -49 54 -49z" />
    <glyph glyph-name="nine.sup" horiz-adv-x="365" 
d="M177 778c98 0 165 -61 165 -179c0 -126 -58 -219 -195 -219c-33 0 -63 6 -89 15l14 78c20 -5 41 -10 64 -10c54 0 90 32 95 102c-23 -20 -53 -34 -93 -34c-60 0 -116 34 -116 113c0 85 58 134 155 134zM179 595c21 0 38 8 52 30v7c0 48 -18 70 -51 70
c-32 0 -50 -19 -50 -55c0 -38 22 -52 49 -52z" />
    <glyph glyph-name="Aacute" unicode="&#xc1;" horiz-adv-x="714" 
d="M590 900l-167 -133h-133l146 133h154zM513 0l-50 156h-233l-50 -156h-169l250 710h193l249 -710h-190zM266 268h162l-81 251z" />
    <glyph glyph-name="Abreve" unicode="&#x102;" horiz-adv-x="714" 
d="M357 763c-103 0 -165 49 -168 137h103c6 -39 30 -56 65 -56c36 0 61 17 65 56h103c-8 -88 -66 -137 -168 -137zM513 0l-50 156h-233l-50 -156h-169l250 710h193l249 -710h-190zM266 268h162l-81 251z" />
    <glyph glyph-name="Acircumflex" unicode="&#xc2;" horiz-adv-x="714" 
d="M357 842l-64 -75h-131l127 133h135l128 -133h-131zM513 0l-50 156h-233l-50 -156h-169l250 710h193l249 -710h-190zM266 268h162l-81 251z" />
    <glyph glyph-name="Adieresis" unicode="&#xc4;" horiz-adv-x="714" 
d="M251 766c-43 0 -72 26 -72 72c0 45 29 75 72 75c45 0 74 -30 74 -75c0 -46 -29 -72 -74 -72zM464 766c-43 0 -73 26 -73 72c0 45 30 75 73 75s73 -30 73 -75c0 -46 -30 -72 -73 -72zM513 0l-50 156h-233l-50 -156h-169l250 710h193l249 -710h-190zM266 268h162l-81 251z
" />
    <glyph glyph-name="Agrave" unicode="&#xc0;" horiz-adv-x="714" 
d="M423 767h-132l-167 133h154zM513 0l-50 156h-233l-50 -156h-169l250 710h193l249 -710h-190zM266 268h162l-81 251z" />
    <glyph glyph-name="Amacron" unicode="&#x100;" horiz-adv-x="714" 
d="M503 880v-98h-292v98h292zM513 0l-50 156h-233l-50 -156h-169l250 710h193l249 -710h-190zM266 268h162l-81 251z" />
    <glyph glyph-name="Aogonek" unicode="&#x104;" horiz-adv-x="714" 
d="M705 -113l39 -76c-25 -23 -58 -44 -123 -44c-82 0 -134 42 -134 112c0 51 27 90 86 121h-60l-50 156h-233l-50 -156h-169l250 710h193l249 -710c-52 -20 -97 -55 -97 -95c0 -26 17 -39 40 -39s38 6 59 21zM266 268h162l-81 251z" />
    <glyph glyph-name="Aring" unicode="&#xc5;" horiz-adv-x="714" 
d="M357 766c-62 0 -103 37 -103 94c0 60 41 99 103 99c63 0 103 -40 103 -99c0 -57 -40 -94 -103 -94zM357 908c-29 0 -48 -19 -48 -47c0 -27 19 -44 48 -44s48 17 48 44c0 28 -19 47 -48 47zM513 0l-50 156h-233l-50 -156h-169l250 710h193l249 -710h-190zM266 268h162
l-81 251z" />
    <glyph glyph-name="Atilde" unicode="&#xc3;" horiz-adv-x="714" 
d="M276 805c-22 0 -31 -13 -33 -37h-72c4 83 36 135 107 135c60 0 121 -42 160 -42c21 0 30 14 33 37h71c-4 -83 -36 -135 -106 -135c-60 0 -123 42 -160 42zM513 0l-50 156h-233l-50 -156h-169l250 710h193l249 -710h-190zM266 268h162l-81 251z" />
    <glyph glyph-name="AE" unicode="&#xc6;" horiz-adv-x="964" 
d="M909 566h-247v-136h212v-130h-212v-156h247v-144h-419v156h-233l-88 -156h-169l398 710h511v-144zM320 268h170v303z" />
    <glyph glyph-name="AEacute" unicode="&#x1fc;" horiz-adv-x="964" 
d="M773 900l-167 -133h-133l146 133h154zM909 566h-247v-136h212v-130h-212v-156h247v-144h-419v156h-233l-88 -156h-169l398 710h511v-144zM320 268h170v303z" />
    <glyph glyph-name="Cacute" unicode="&#x106;" horiz-adv-x="649" 
d="M453 900h154l-167 -133h-133zM395 -17c-214 0 -354 145 -354 372s142 372 352 372c91 0 161 -28 210 -60l-38 -155c-34 25 -84 48 -151 48c-101 0 -192 -70 -192 -205s83 -205 193 -205c78 0 126 26 164 55l39 -152c-47 -37 -118 -70 -223 -70z" />
    <glyph glyph-name="Ccaron" unicode="&#x10c;" horiz-adv-x="649" 
d="M306 767l-128 133h131l64 -76l64 76h132l-128 -133h-135zM579 205l39 -152c-47 -37 -118 -70 -223 -70c-214 0 -354 145 -354 372s142 372 352 372c91 0 161 -28 210 -60l-38 -155c-34 25 -84 48 -151 48c-101 0 -192 -70 -192 -205s83 -205 193 -205c78 0 126 26 164 55
z" />
    <glyph glyph-name="Ccedilla" unicode="&#xc7;" horiz-adv-x="649" 
d="M416 -48c59 0 94 -31 94 -84c0 -61 -58 -98 -152 -98c-50 0 -92 14 -130 41l37 59c34 -21 60 -31 86 -31c22 0 41 8 41 28c0 19 -13 27 -36 27c-14 0 -24 -3 -37 -6l-43 27l59 72c-180 25 -294 163 -294 368c0 227 142 372 352 372c91 0 161 -28 210 -60l-38 -155
c-34 25 -84 48 -151 48c-101 0 -192 -70 -192 -205s83 -205 193 -205c78 0 126 26 164 55l39 -152c-44 -34 -108 -65 -201 -70l-27 -33c7 1 15 2 26 2z" />
    <glyph glyph-name="Ccircumflex" unicode="&#x108;" horiz-adv-x="649" 
d="M373 842l-64 -75h-131l127 133h135l128 -133h-131zM579 205l39 -152c-47 -37 -118 -70 -223 -70c-214 0 -354 145 -354 372s142 372 352 372c91 0 161 -28 210 -60l-38 -155c-34 25 -84 48 -151 48c-101 0 -192 -70 -192 -205s83 -205 193 -205c78 0 126 26 164 55z" />
    <glyph glyph-name="Cdotaccent" unicode="&#x10a;" horiz-adv-x="649" 
d="M373 768c-50 0 -86 27 -86 73c0 45 36 77 86 77c52 0 87 -32 87 -77c0 -46 -35 -73 -87 -73zM395 -17c-214 0 -354 145 -354 372s142 372 352 372c91 0 161 -28 210 -60l-38 -155c-34 25 -84 48 -151 48c-101 0 -192 -70 -192 -205s83 -205 193 -205c78 0 126 26 164 55
l39 -152c-47 -37 -118 -70 -223 -70z" />
    <glyph glyph-name="Eth" unicode="&#xd0;" horiz-adv-x="735" 
d="M334 710c213 0 360 -113 360 -355s-146 -355 -360 -355h-252v296h-82v119h82v295h252zM331 147c101 0 180 58 180 208c0 149 -80 208 -180 208h-77v-148h140v-119h-140v-149h77z" />
    <glyph glyph-name="Dcaron" unicode="&#x10e;" horiz-adv-x="735" 
d="M300 767l-128 133h131l64 -76l64 76h132l-128 -133h-135zM334 710c213 0 360 -113 360 -355s-146 -355 -360 -355h-252v710h252zM331 147c101 0 180 58 180 208c0 149 -80 208 -180 208h-77v-416h77z" />
    <glyph glyph-name="Dcroat" unicode="&#x110;" horiz-adv-x="735" 
d="M334 710c213 0 360 -113 360 -355s-146 -355 -360 -355h-252v296h-82v119h82v295h252zM331 147c101 0 180 58 180 208c0 149 -80 208 -180 208h-77v-148h140v-119h-140v-149h77z" />
    <glyph glyph-name="Eacute" unicode="&#xc9;" horiz-adv-x="556" 
d="M526 900l-167 -133h-133l146 133h154zM501 710v-144h-247v-136h212v-130h-212v-156h247v-144h-419v710h419z" />
    <glyph glyph-name="Ebreve" unicode="&#x114;" horiz-adv-x="556" 
d="M293 763c-103 0 -165 49 -168 137h103c6 -39 30 -56 65 -56c36 0 61 17 65 56h103c-8 -88 -66 -137 -168 -137zM501 566h-247v-136h212v-130h-212v-156h247v-144h-419v710h419v-144z" />
    <glyph glyph-name="Ecaron" unicode="&#x11a;" horiz-adv-x="556" 
d="M226 767l-128 133h131l64 -76l64 76h132l-128 -133h-135zM501 566h-247v-136h212v-130h-212v-156h247v-144h-419v710h419v-144z" />
    <glyph glyph-name="Ecircumflex" unicode="&#xca;" horiz-adv-x="556" 
d="M293 842l-64 -75h-131l127 133h135l128 -133h-131zM501 566h-247v-136h212v-130h-212v-156h247v-144h-419v710h419v-144z" />
    <glyph glyph-name="Edieresis" unicode="&#xcb;" horiz-adv-x="556" 
d="M187 766c-43 0 -72 26 -72 72c0 45 29 75 72 75c45 0 74 -30 74 -75c0 -46 -29 -72 -74 -72zM400 766c-43 0 -73 26 -73 72c0 45 30 75 73 75s73 -30 73 -75c0 -46 -30 -72 -73 -72zM501 566h-247v-136h212v-130h-212v-156h247v-144h-419v710h419v-144z" />
    <glyph glyph-name="Edotaccent" unicode="&#x116;" horiz-adv-x="556" 
d="M293 768c-50 0 -86 27 -86 73c0 45 36 77 86 77c52 0 87 -32 87 -77c0 -46 -35 -73 -87 -73zM501 566h-247v-136h212v-130h-212v-156h247v-144h-419v710h419v-144z" />
    <glyph glyph-name="Egrave" unicode="&#xc8;" horiz-adv-x="556" 
d="M359 767h-132l-167 133h154zM501 566h-247v-136h212v-130h-212v-156h247v-144h-419v710h419v-144z" />
    <glyph glyph-name="Emacron" unicode="&#x112;" horiz-adv-x="556" 
d="M439 880v-98h-292v98h292zM501 566h-247v-136h212v-130h-212v-156h247v-144h-419v710h419v-144z" />
    <glyph glyph-name="Eogonek" unicode="&#x118;" horiz-adv-x="556" 
d="M503 -113l39 -76c-25 -23 -58 -44 -123 -44c-82 0 -134 42 -134 112c0 51 27 90 86 121h-289v710h419v-144h-247v-136h212v-130h-212v-156h247v-144c-52 -20 -97 -55 -97 -95c0 -26 17 -39 40 -39s38 6 59 21z" />
    <glyph glyph-name="Gbreve" unicode="&#x11e;" horiz-adv-x="765" 
d="M390 763c-103 0 -165 49 -168 137h103c6 -39 30 -56 65 -56c36 0 61 17 65 56h103c-8 -88 -66 -137 -168 -137zM407 392h327v-63c0 -246 -148 -346 -336 -346c-193 0 -357 140 -357 372s166 372 354 372c144 0 236 -57 299 -154l-134 -81c-34 49 -88 83 -154 83
c-98 0 -184 -82 -184 -220c0 -141 85 -223 185 -223c86 0 153 41 168 137h-168v123z" />
    <glyph glyph-name="Gcircumflex" unicode="&#x11c;" horiz-adv-x="765" 
d="M390 842l-64 -75h-131l127 133h135l128 -133h-131zM407 392h327v-63c0 -246 -148 -346 -336 -346c-193 0 -357 140 -357 372s166 372 354 372c144 0 236 -57 299 -154l-134 -81c-34 49 -88 83 -154 83c-98 0 -184 -82 -184 -220c0 -141 85 -223 185 -223
c86 0 153 41 168 137h-168v123z" />
    <glyph glyph-name="uni0122" unicode="&#x122;" horiz-adv-x="765" 
d="M407 392h327v-63c0 -246 -148 -346 -336 -346c-193 0 -357 140 -357 372s166 372 354 372c144 0 236 -57 299 -154l-134 -81c-34 49 -88 83 -154 83c-98 0 -184 -82 -184 -220c0 -141 85 -223 185 -223c86 0 153 41 168 137h-168v123zM390 -58c39 0 68 -21 68 -71
c0 -58 -40 -121 -91 -164l-46 43c22 21 42 47 52 69c-30 6 -51 27 -51 59c0 38 31 64 68 64z" />
    <glyph glyph-name="Gdotaccent" unicode="&#x120;" horiz-adv-x="765" 
d="M389 768c-50 0 -86 27 -86 73c0 45 36 77 86 77c52 0 87 -32 87 -77c0 -46 -35 -73 -87 -73zM407 392h327v-63c0 -246 -148 -346 -336 -346c-193 0 -357 140 -357 372s166 372 354 372c144 0 236 -57 299 -154l-134 -81c-34 49 -88 83 -154 83c-98 0 -184 -82 -184 -220
c0 -141 85 -223 185 -223c86 0 153 41 168 137h-168v123z" />
    <glyph glyph-name="Hbar" unicode="&#x126;" horiz-adv-x="742" 
d="M742 611v-116h-75v-495h-172v255h-249v-255h-172v495h-74v116h74v99h172v-99h249v99h172v-99h75zM495 395v100h-249v-100h249z" />
    <glyph glyph-name="Hcircumflex" unicode="&#x124;" horiz-adv-x="757" 
d="M379 842l-64 -75h-131l127 133h135l128 -133h-131zM503 710h172v-710h-172v292h-249v-292h-172v710h172v-277h249v277z" />
    <glyph glyph-name="IJ" unicode="&#x132;" horiz-adv-x="784" 
d="M82 710h172v-710h-172v710zM477 -9c-57 0 -100 10 -122 15l13 144c15 -2 39 -8 71 -8c70 0 96 41 96 127v441h172v-476c0 -184 -95 -243 -230 -243z" />
    <glyph glyph-name="Iacute" unicode="&#xcd;" horiz-adv-x="335" 
d="M247 900h154l-167 -133h-133zM82 710h172v-710h-172v710z" />
    <glyph glyph-name="Ibreve" unicode="&#x12c;" horiz-adv-x="335" 
d="M168 763c-103 0 -165 49 -168 137h103c6 -39 30 -56 65 -56c36 0 61 17 65 56h103c-8 -88 -66 -137 -168 -137zM82 710h172v-710h-172v710z" />
    <glyph glyph-name="Icircumflex" unicode="&#xce;" horiz-adv-x="335" 
d="M168 842l-64 -75h-131l127 133h135l128 -133h-131zM82 0v710h172v-710h-172z" />
    <glyph glyph-name="Idieresis" unicode="&#xcf;" horiz-adv-x="335" 
d="M61 766c-43 0 -72 26 -72 72c0 45 29 75 72 75c45 0 74 -30 74 -75c0 -46 -29 -72 -74 -72zM274 766c-43 0 -73 26 -73 72c0 45 30 75 73 75s73 -30 73 -75c0 -46 -30 -72 -73 -72zM82 710h172v-710h-172v710z" />
    <glyph glyph-name="Idotaccent" unicode="&#x130;" horiz-adv-x="335" 
d="M167 768c-50 0 -86 27 -86 73c0 45 36 77 86 77c52 0 87 -32 87 -77c0 -46 -35 -73 -87 -73zM82 710h172v-710h-172v710z" />
    <glyph glyph-name="Igrave" unicode="&#xcc;" horiz-adv-x="335" 
d="M101 767l-167 133h154l145 -133h-132zM82 710h172v-710h-172v710z" />
    <glyph glyph-name="Imacron" unicode="&#x12a;" horiz-adv-x="335" 
d="M22 880h292v-98h-292v98zM82 710h172v-710h-172v710z" />
    <glyph glyph-name="Iogonek" unicode="&#x12e;" horiz-adv-x="335" 
d="M256 -113l39 -76c-25 -23 -58 -44 -123 -44c-82 0 -134 42 -134 112c0 51 27 90 86 121h-42v710h172v-710c-52 -20 -97 -55 -97 -95c0 -26 17 -39 40 -39s38 6 59 21z" />
    <glyph glyph-name="Itilde" unicode="&#x128;" horiz-adv-x="335" 
d="M247 763c-60 0 -123 42 -160 42c-22 0 -31 -13 -33 -37h-72c4 83 36 135 107 135c60 0 121 -42 160 -42c21 0 30 14 33 37h71c-4 -83 -36 -135 -106 -135zM82 710h172v-710h-172v710z" />
    <glyph glyph-name="Jcircumflex" unicode="&#x134;" horiz-adv-x="449" 
d="M286 842l-64 -75h-131l127 133h135l128 -133h-131zM200 269v441h172v-476c0 -184 -95 -243 -230 -243c-57 0 -100 10 -122 15l13 144c15 -2 39 -8 71 -8c70 0 96 41 96 127z" />
    <glyph glyph-name="uni0136" unicode="&#x136;" horiz-adv-x="701" 
d="M425 390l265 -390h-212l-174 254l-50 -64v-190h-172v710h172v-306l222 306h193zM350 -58c39 0 68 -21 68 -71c0 -58 -40 -121 -91 -164l-46 43c22 21 42 47 52 69c-30 6 -51 27 -51 59c0 38 31 64 68 64z" />
    <glyph glyph-name="Lacute" unicode="&#x139;" horiz-adv-x="513" 
d="M399 900l-167 -133h-133l146 133h154zM254 147h214v-147h-386v710h172v-563z" />
    <glyph glyph-name="Lcaron" unicode="&#x13d;" horiz-adv-x="513" 
d="M469 750l-41 -174h-104l16 174h129zM254 710v-563h214v-147h-386v710h172z" />
    <glyph glyph-name="uni013B" unicode="&#x13b;" horiz-adv-x="513" 
d="M254 147h214v-147h-386v710h172v-563zM266 -58c39 0 68 -21 68 -71c0 -58 -40 -121 -91 -164l-46 43c22 21 42 47 52 69c-30 6 -51 27 -51 59c0 38 31 64 68 64z" />
    <glyph glyph-name="Ldot" unicode="&#x13f;" horiz-adv-x="513" 
d="M254 710v-563h214v-147h-386v710h172zM424 473c61 0 104 -40 104 -99s-43 -95 -104 -95s-103 36 -103 95s42 99 103 99z" />
    <glyph glyph-name="Lslash" unicode="&#x141;" horiz-adv-x="513" 
d="M254 147h214v-147h-386v223l-82 -67v126l82 67v361h172v-221l137 112v-127l-137 -111v-216z" />
    <glyph glyph-name="Nacute" unicode="&#x143;" horiz-adv-x="759" 
d="M614 900l-167 -133h-133l146 133h154zM524 710h153v-710h-170l-272 438v-438h-153v710h177l265 -397v397z" />
    <glyph glyph-name="Ncaron" unicode="&#x147;" horiz-adv-x="759" 
d="M313 767l-128 133h131l64 -76l64 76h132l-128 -133h-135zM524 710h153v-710h-170l-272 438v-438h-153v710h177l265 -397v397z" />
    <glyph glyph-name="uni0145" unicode="&#x145;" horiz-adv-x="759" 
d="M524 710h153v-710h-170l-272 438v-438h-153v710h177l265 -397v397zM380 -58c39 0 68 -21 68 -71c0 -58 -40 -121 -91 -164l-46 43c22 21 42 47 52 69c-30 6 -51 27 -51 59c0 38 31 64 68 64z" />
    <glyph glyph-name="Eng" unicode="&#x14a;" horiz-adv-x="759" 
d="M524 710h153v-711c0 -159 -89 -211 -203 -211c-61 0 -96 9 -116 14l11 127c15 -2 36 -7 66 -7c58 0 84 30 88 88l-288 434v-444h-153v710h177l265 -397v397z" />
    <glyph glyph-name="Ntilde" unicode="&#xd1;" horiz-adv-x="759" 
d="M299 805c-22 0 -31 -13 -33 -37h-72c4 83 36 135 107 135c60 0 121 -42 160 -42c21 0 30 14 33 37h71c-4 -83 -36 -135 -106 -135c-60 0 -123 42 -160 42zM524 710h153v-710h-170l-272 438v-438h-153v710h177l265 -397v397z" />
    <glyph glyph-name="Oacute" unicode="&#xd3;" horiz-adv-x="802" 
d="M481 900h154l-167 -133h-133zM400 -17c-195 0 -359 148 -359 372s164 372 359 372c196 0 361 -148 361 -372s-165 -372 -361 -372zM400 144c91 0 179 68 179 211s-88 211 -179 211s-177 -68 -177 -211s86 -211 177 -211z" />
    <glyph glyph-name="Obreve" unicode="&#x14e;" horiz-adv-x="802" 
d="M401 763c-103 0 -165 49 -168 137h103c6 -39 30 -56 65 -56c36 0 61 17 65 56h103c-8 -88 -66 -137 -168 -137zM400 -17c-195 0 -359 148 -359 372s164 372 359 372c196 0 361 -148 361 -372s-165 -372 -361 -372zM400 144c91 0 179 68 179 211s-88 211 -179 211
s-177 -68 -177 -211s86 -211 177 -211z" />
    <glyph glyph-name="Ocircumflex" unicode="&#xd4;" horiz-adv-x="802" 
d="M401 842l-64 -75h-131l127 133h135l128 -133h-131zM400 727c196 0 361 -148 361 -372s-165 -372 -361 -372c-195 0 -359 148 -359 372s164 372 359 372zM400 144c91 0 179 68 179 211s-88 211 -179 211s-177 -68 -177 -211s86 -211 177 -211z" />
    <glyph glyph-name="Odieresis" unicode="&#xd6;" horiz-adv-x="802" 
d="M295 766c-43 0 -72 26 -72 72c0 45 29 75 72 75c45 0 74 -30 74 -75c0 -46 -29 -72 -74 -72zM508 766c-43 0 -73 26 -73 72c0 45 30 75 73 75s73 -30 73 -75c0 -46 -30 -72 -73 -72zM400 -17c-195 0 -359 148 -359 372s164 372 359 372c196 0 361 -148 361 -372
s-165 -372 -361 -372zM400 144c91 0 179 68 179 211s-88 211 -179 211s-177 -68 -177 -211s86 -211 177 -211z" />
    <glyph glyph-name="Ograve" unicode="&#xd2;" horiz-adv-x="802" 
d="M335 767l-167 133h154l145 -133h-132zM400 -17c-195 0 -359 148 -359 372s164 372 359 372c196 0 361 -148 361 -372s-165 -372 -361 -372zM400 144c91 0 179 68 179 211s-88 211 -179 211s-177 -68 -177 -211s86 -211 177 -211z" />
    <glyph glyph-name="Ohungarumlaut" unicode="&#x150;" horiz-adv-x="802" 
d="M371 900h157l-170 -133h-132zM591 900h157l-170 -133h-132zM400 -17c-195 0 -359 148 -359 372s164 372 359 372c196 0 361 -148 361 -372s-165 -372 -361 -372zM400 144c91 0 179 68 179 211s-88 211 -179 211s-177 -68 -177 -211s86 -211 177 -211z" />
    <glyph glyph-name="Omacron" unicode="&#x14c;" horiz-adv-x="802" 
d="M255 880h292v-98h-292v98zM400 -17c-195 0 -359 148 -359 372s164 372 359 372c196 0 361 -148 361 -372s-165 -372 -361 -372zM400 144c91 0 179 68 179 211s-88 211 -179 211s-177 -68 -177 -211s86 -211 177 -211z" />
    <glyph glyph-name="Oslash" unicode="&#xd8;" horiz-adv-x="802" 
d="M761 655l-71 -73c45 -60 71 -137 71 -227c0 -224 -165 -370 -361 -370c-82 0 -158 26 -219 72l-70 -72l-70 70l70 73c-44 60 -70 137 -70 227c0 224 164 370 359 370c82 0 159 -26 221 -72l70 72zM215 355c0 -40 6 -74 17 -103l279 287c-32 26 -71 38 -111 38
c-95 0 -185 -72 -185 -222zM588 355c0 40 -7 74 -18 103l-279 -287c32 -25 70 -37 109 -37c96 0 188 71 188 221z" />
    <glyph glyph-name="Oslashacute" unicode="&#x1fe;" horiz-adv-x="802" 
d="M635 900l-167 -133h-133l146 133h154zM761 655l-71 -73c45 -60 71 -137 71 -227c0 -224 -165 -370 -361 -370c-82 0 -158 26 -219 72l-70 -72l-70 70l70 73c-44 60 -70 137 -70 227c0 224 164 370 359 370c82 0 159 -26 221 -72l70 72zM215 355c0 -40 6 -74 17 -103
l279 287c-32 26 -71 38 -111 38c-95 0 -185 -72 -185 -222zM588 355c0 40 -7 74 -18 103l-279 -287c32 -25 70 -37 109 -37c96 0 188 71 188 221z" />
    <glyph glyph-name="Otilde" unicode="&#xd5;" horiz-adv-x="802" 
d="M480 763c-60 0 -123 42 -160 42c-22 0 -31 -13 -33 -37h-72c4 83 36 135 107 135c60 0 121 -42 160 -42c21 0 30 14 33 37h71c-4 -83 -36 -135 -106 -135zM400 -17c-195 0 -359 148 -359 372s164 372 359 372c196 0 361 -148 361 -372s-165 -372 -361 -372zM400 144
c91 0 179 68 179 211s-88 211 -179 211s-177 -68 -177 -211s86 -211 177 -211z" />
    <glyph glyph-name="OE" unicode="&#x152;" horiz-adv-x="1054" 
d="M998 566h-247v-136h213v-130h-213v-156h247v-144h-419v32c-52 -31 -113 -47 -179 -47c-195 0 -359 146 -359 370s164 370 359 370c66 0 127 -16 179 -47v32h419v-144zM400 144c91 0 179 68 179 211s-88 211 -179 211s-177 -68 -177 -211s86 -211 177 -211z" />
    <glyph glyph-name="Thorn" unicode="&#xde;" horiz-adv-x="660" 
d="M355 618c172 0 274 -81 274 -244c0 -162 -101 -269 -274 -269h-101v-105h-172v710h172v-92h101zM319 237c86 0 128 50 128 123c0 72 -43 115 -128 115h-65v-238h65z" />
    <glyph glyph-name="Racute" unicode="&#x154;" horiz-adv-x="693" 
d="M567 900l-167 -133h-133l146 133h154zM462 0l-151 244h-57v-244h-172v710h288c171 0 274 -75 274 -225c0 -113 -58 -192 -159 -225l176 -260h-199zM254 566v-205h82c83 0 124 37 124 106s-43 99 -124 99h-82z" />
    <glyph glyph-name="Rcaron" unicode="&#x158;" horiz-adv-x="693" 
d="M266 767l-128 133h131l64 -76l64 76h132l-128 -133h-135zM462 0l-151 244h-57v-244h-172v710h288c171 0 274 -75 274 -225c0 -113 -58 -192 -159 -225l176 -260h-199zM254 566v-205h82c83 0 124 37 124 106s-43 99 -124 99h-82z" />
    <glyph glyph-name="uni0156" unicode="&#x156;" horiz-adv-x="693" 
d="M485 260l176 -260h-199l-151 244h-57v-244h-172v710h288c171 0 274 -75 274 -225c0 -113 -58 -192 -159 -225zM254 566v-205h82c83 0 124 37 124 106s-43 99 -124 99h-82zM346 -58c39 0 68 -21 68 -71c0 -58 -40 -121 -91 -164l-46 43c22 21 42 47 52 69
c-30 6 -51 27 -51 59c0 38 31 64 68 64z" />
    <glyph glyph-name="Sacute" unicode="&#x15a;" horiz-adv-x="586" 
d="M372 900h154l-167 -133h-133zM300 -17c-142 0 -225 52 -281 121l71 112c55 -49 115 -94 192 -94c57 0 90 26 90 65c0 38 -32 58 -77 77c-96 41 -247 76 -247 246c0 148 119 217 247 217c121 0 193 -41 242 -103l-74 -107c-50 40 -96 72 -157 72c-51 0 -85 -23 -85 -61
c0 -35 32 -54 77 -72c98 -42 256 -78 256 -243c0 -154 -110 -230 -254 -230z" />
    <glyph glyph-name="Scaron" unicode="&#x160;" horiz-adv-x="586" 
d="M225 767l-128 133h131l64 -76l64 76h132l-128 -133h-135zM298 456c98 -42 256 -78 256 -243c0 -154 -110 -230 -254 -230c-142 0 -225 52 -281 121l71 112c55 -49 115 -94 192 -94c57 0 90 26 90 65c0 38 -32 58 -77 77c-96 41 -247 76 -247 246c0 148 119 217 247 217
c121 0 193 -41 242 -103l-74 -107c-50 40 -96 72 -157 72c-51 0 -85 -23 -85 -61c0 -35 32 -54 77 -72z" />
    <glyph glyph-name="Scedilla" unicode="&#x15e;" horiz-adv-x="586" 
d="M554 213c0 -144 -96 -220 -226 -229l-27 -34c7 1 15 2 26 2c59 0 94 -31 94 -84c0 -61 -58 -98 -152 -98c-50 0 -92 14 -130 41l37 59c34 -21 60 -31 86 -31c22 0 41 8 41 28c0 19 -13 27 -36 27c-14 0 -24 -3 -37 -6l-43 27l58 71c-109 12 -178 59 -226 118l71 112
c55 -49 115 -94 192 -94c57 0 90 26 90 65c0 38 -32 58 -77 77c-96 41 -247 76 -247 246c0 148 119 217 247 217c121 0 193 -41 242 -103l-74 -107c-50 40 -96 72 -157 72c-51 0 -85 -23 -85 -61c0 -35 32 -54 77 -72c98 -42 256 -78 256 -243z" />
    <glyph glyph-name="Scircumflex" unicode="&#x15c;" horiz-adv-x="586" 
d="M292 842l-64 -75h-131l127 133h135l128 -133h-131zM298 456c98 -42 256 -78 256 -243c0 -154 -110 -230 -254 -230c-142 0 -225 52 -281 121l71 112c55 -49 115 -94 192 -94c57 0 90 26 90 65c0 38 -32 58 -77 77c-96 41 -247 76 -247 246c0 148 119 217 247 217
c121 0 193 -41 242 -103l-74 -107c-50 40 -96 72 -157 72c-51 0 -85 -23 -85 -61c0 -35 32 -54 77 -72z" />
    <glyph glyph-name="uni0218" unicode="&#x218;" horiz-adv-x="586" 
d="M298 456c98 -42 256 -78 256 -243c0 -154 -110 -230 -254 -230c-142 0 -225 52 -281 121l71 112c55 -49 115 -94 192 -94c57 0 90 26 90 65c0 38 -32 58 -77 77c-96 41 -247 76 -247 246c0 148 119 217 247 217c121 0 193 -41 242 -103l-74 -107c-50 40 -96 72 -157 72
c-51 0 -85 -23 -85 -61c0 -35 32 -54 77 -72zM292 -58c39 0 68 -21 68 -71c0 -58 -40 -121 -91 -164l-46 43c22 21 42 47 52 69c-30 6 -51 27 -51 59c0 38 31 64 68 64z" />
    <glyph glyph-name="uni1E9E" unicode="&#x1e9e;" horiz-adv-x="1171" 
d="M300 -17c-142 0 -225 52 -281 121l71 112c55 -49 115 -94 192 -94c57 0 90 26 90 65c0 38 -32 58 -77 77c-96 41 -247 76 -247 246c0 148 119 217 247 217c121 0 193 -41 242 -103l-74 -107c-50 40 -96 72 -157 72c-51 0 -85 -23 -85 -61c0 -35 32 -54 77 -72
c98 -42 256 -78 256 -243c0 -154 -110 -230 -254 -230zM886 -17c-142 0 -225 52 -281 121l71 112c55 -49 115 -94 192 -94c57 0 90 26 90 65c0 38 -32 58 -77 77c-96 41 -247 76 -247 246c0 148 119 217 247 217c121 0 193 -41 242 -103l-74 -107c-50 40 -96 72 -157 72
c-51 0 -85 -23 -85 -61c0 -35 32 -54 77 -72c98 -42 256 -78 256 -243c0 -154 -110 -230 -254 -230z" />
    <glyph glyph-name="Tbar" unicode="&#x166;" horiz-adv-x="566" 
d="M541 563h-172v-186h131v-119h-131v-258h-172v258h-144v119h144v186h-172v147h516v-147z" />
    <glyph glyph-name="Tcaron" unicode="&#x164;" horiz-adv-x="579" 
d="M222 767l-128 133h131l64 -76l64 76h132l-128 -133h-135zM548 710v-147h-173v-563h-172v563h-172v147h517z" />
    <glyph glyph-name="uni0162" unicode="&#x162;" horiz-adv-x="579" 
d="M375 0h-36l-40 -50c7 1 15 2 26 2c59 0 94 -31 94 -84c0 -61 -58 -98 -152 -98c-50 0 -92 14 -130 41l37 59c34 -21 60 -31 86 -31c22 0 41 8 41 28c0 19 -13 27 -36 27c-14 0 -24 -3 -37 -6l-43 27l69 85h-51v563h-172v147h517v-147h-173v-563z" />
    <glyph glyph-name="uni021A" unicode="&#x21a;" horiz-adv-x="579" 
d="M548 710v-147h-173v-563h-172v563h-172v147h517zM290 -58c39 0 68 -21 68 -71c0 -58 -40 -121 -91 -164l-46 43c22 21 42 47 52 69c-30 6 -51 27 -51 59c0 38 31 64 68 64z" />
    <glyph glyph-name="Uacute" unicode="&#xda;" horiz-adv-x="725" 
d="M442 900h154l-167 -133h-133zM361 -17c-166 0 -288 86 -288 274v453h172v-427c-1 -92 40 -143 116 -143c77 0 119 51 119 143v427h172v-453c0 -188 -120 -274 -291 -274z" />
    <glyph glyph-name="Ubreve" unicode="&#x16c;" horiz-adv-x="725" 
d="M363 763c-103 0 -165 49 -168 137h103c6 -39 30 -56 65 -56c36 0 61 17 65 56h103c-8 -88 -66 -137 -168 -137zM361 -17c-166 0 -288 86 -288 274v453h172v-427c-1 -92 40 -143 116 -143c77 0 119 51 119 143v427h172v-453c0 -188 -120 -274 -291 -274z" />
    <glyph glyph-name="Ucircumflex" unicode="&#xdb;" horiz-adv-x="725" 
d="M363 842l-64 -75h-131l127 133h135l128 -133h-131zM480 710h172v-453c0 -188 -120 -274 -291 -274c-166 0 -288 86 -288 274v453h172v-427c-1 -92 40 -143 116 -143c77 0 119 51 119 143v427z" />
    <glyph glyph-name="Udieresis" unicode="&#xdc;" horiz-adv-x="725" 
d="M257 766c-43 0 -72 26 -72 72c0 45 29 75 72 75c45 0 74 -30 74 -75c0 -46 -29 -72 -74 -72zM470 766c-43 0 -73 26 -73 72c0 45 30 75 73 75s73 -30 73 -75c0 -46 -30 -72 -73 -72zM361 -17c-166 0 -288 86 -288 274v453h172v-427c-1 -92 40 -143 116 -143
c77 0 119 51 119 143v427h172v-453c0 -188 -120 -274 -291 -274z" />
    <glyph glyph-name="Ugrave" unicode="&#xd9;" horiz-adv-x="725" 
d="M297 767l-167 133h154l145 -133h-132zM361 -17c-166 0 -288 86 -288 274v453h172v-427c-1 -92 40 -143 116 -143c77 0 119 51 119 143v427h172v-453c0 -188 -120 -274 -291 -274z" />
    <glyph glyph-name="Uhungarumlaut" unicode="&#x170;" horiz-adv-x="725" 
d="M333 900h157l-170 -133h-132zM553 900h157l-170 -133h-132zM361 -17c-166 0 -288 86 -288 274v453h172v-427c-1 -92 40 -143 116 -143c77 0 119 51 119 143v427h172v-453c0 -188 -120 -274 -291 -274z" />
    <glyph glyph-name="Umacron" unicode="&#x16a;" horiz-adv-x="725" 
d="M217 880h292v-98h-292v98zM361 -17c-166 0 -288 86 -288 274v453h172v-427c-1 -92 40 -143 116 -143c77 0 119 51 119 143v427h172v-453c0 -188 -120 -274 -291 -274z" />
    <glyph glyph-name="Uogonek" unicode="&#x172;" horiz-adv-x="725" 
d="M480 710h172v-453c0 -158 -84 -243 -212 -267c-48 -21 -87 -54 -87 -91c0 -26 17 -39 40 -39s38 6 59 21l39 -76c-25 -23 -58 -44 -123 -44c-82 0 -134 42 -134 112c0 47 23 84 72 113c-137 18 -233 104 -233 271v453h172v-427c-1 -92 40 -143 116 -143
c77 0 119 51 119 143v427z" />
    <glyph glyph-name="Uring" unicode="&#x16e;" horiz-adv-x="725" 
d="M363 766c-62 0 -103 37 -103 94c0 60 41 99 103 99c63 0 103 -40 103 -99c0 -57 -40 -94 -103 -94zM363 817c29 0 48 17 48 44c0 28 -19 47 -48 47s-48 -19 -48 -47c0 -27 19 -44 48 -44zM361 -17c-166 0 -288 86 -288 274v453h172v-427c-1 -92 40 -143 116 -143
c77 0 119 51 119 143v427h172v-453c0 -188 -120 -274 -291 -274z" />
    <glyph glyph-name="Utilde" unicode="&#x168;" horiz-adv-x="725" 
d="M442 763c-60 0 -123 42 -160 42c-22 0 -31 -13 -33 -37h-72c4 83 36 135 107 135c60 0 121 -42 160 -42c21 0 30 14 33 37h71c-4 -83 -36 -135 -106 -135zM361 -17c-166 0 -288 86 -288 274v453h172v-427c-1 -92 40 -143 116 -143c77 0 119 51 119 143v427h172v-453
c0 -188 -120 -274 -291 -274z" />
    <glyph glyph-name="Wacute" unicode="&#x1e82;" horiz-adv-x="1119" 
d="M799 900l-167 -133h-133l146 133h154zM937 710h172l-242 -710h-154l-153 465l-154 -465h-155l-240 710h189l144 -461l149 461h151l149 -461z" />
    <glyph glyph-name="Wcircumflex" unicode="&#x174;" horiz-adv-x="1119" 
d="M566 842l-64 -75h-131l127 133h135l128 -133h-131zM937 710h172l-242 -710h-154l-153 465l-154 -465h-155l-240 710h189l144 -461l149 461h151l149 -461z" />
    <glyph glyph-name="Wdieresis" unicode="&#x1e84;" horiz-adv-x="1119" 
d="M459 766c-43 0 -72 26 -72 72c0 45 29 75 72 75c45 0 74 -30 74 -75c0 -46 -29 -72 -74 -72zM672 766c-43 0 -73 26 -73 72c0 45 30 75 73 75s73 -30 73 -75c0 -46 -30 -72 -73 -72zM937 710h172l-242 -710h-154l-153 465l-154 -465h-155l-240 710h189l144 -461l149 461
h151l149 -461z" />
    <glyph glyph-name="Wgrave" unicode="&#x1e80;" horiz-adv-x="1119" 
d="M631 767h-132l-167 133h154zM937 710h172l-242 -710h-154l-153 465l-154 -465h-155l-240 710h189l144 -461l149 461h151l149 -461z" />
    <glyph glyph-name="Yacute" unicode="&#xdd;" horiz-adv-x="636" 
d="M552 900l-167 -133h-133l146 133h154zM637 710l-233 -438v-272h-176v272l-232 438h194l135 -267l136 267h176z" />
    <glyph glyph-name="Ycircumflex" unicode="&#x176;" horiz-adv-x="636" 
d="M319 842l-64 -75h-131l127 133h135l128 -133h-131zM637 710l-233 -438v-272h-176v272l-232 438h194l135 -267l136 267h176z" />
    <glyph glyph-name="Ydieresis" unicode="&#x178;" horiz-adv-x="636" 
d="M212 766c-43 0 -72 26 -72 72c0 45 29 75 72 75c45 0 74 -30 74 -75c0 -46 -29 -72 -74 -72zM425 766c-43 0 -73 26 -73 72c0 45 30 75 73 75s73 -30 73 -75c0 -46 -30 -72 -73 -72zM637 710l-233 -438v-272h-176v272l-232 438h194l135 -267l136 267h176z" />
    <glyph glyph-name="Ygrave" unicode="&#x1ef2;" horiz-adv-x="636" 
d="M384 767h-132l-167 133h154zM637 710l-233 -438v-272h-176v272l-232 438h194l135 -267l136 267h176z" />
    <glyph glyph-name="Zacute" unicode="&#x179;" horiz-adv-x="593" 
d="M381 900h154l-167 -133h-133zM48 147l287 416h-270v147h475v-147l-295 -416h306v-147h-503v147z" />
    <glyph glyph-name="Zcaron" unicode="&#x17d;" horiz-adv-x="593" 
d="M235 767l-128 133h131l64 -76l64 76h132l-128 -133h-135zM245 147h306v-147h-503v147l287 416h-270v147h475v-147z" />
    <glyph glyph-name="Zdotaccent" unicode="&#x17b;" horiz-adv-x="593" 
d="M302 768c-50 0 -86 27 -86 73c0 45 36 77 86 77c52 0 87 -32 87 -77c0 -46 -35 -73 -87 -73zM48 147l287 416h-270v147h475v-147l-295 -416h306v-147h-503v147z" />
    <glyph glyph-name="Q.alt" horiz-adv-x="802" 
d="M761 355c0 -104 -35 -191 -93 -255l84 -106l-133 -92l-84 106c-42 -16 -87 -25 -135 -25c-195 0 -359 148 -359 372s164 372 359 372c196 0 361 -148 361 -372zM400 144c9 0 18 1 27 2l-11 14l133 92l7 -9c14 30 23 68 23 112c0 143 -88 211 -179 211s-177 -68 -177 -211
s86 -211 177 -211z" />
    <glyph glyph-name="aacute" unicode="&#xe1;" horiz-adv-x="598" 
d="M496 739l-133 -157h-128l109 157h152zM541 0h-163c-5 12 -12 33 -14 58c-36 -44 -98 -75 -162 -75c-95 0 -166 49 -166 153c0 123 102 179 328 182v13c0 49 -33 72 -92 72c-58 0 -105 -20 -145 -50l-62 103c46 44 126 79 236 79c117 0 229 -39 229 -208v-256
c0 -24 3 -52 11 -71zM273 105c37 0 68 17 91 44v91c-100 -4 -151 -30 -151 -82c0 -33 22 -53 60 -53z" />
    <glyph glyph-name="abreve" unicode="&#x103;" horiz-adv-x="598" 
d="M300 578c-104 0 -166 53 -168 161h103c4 -52 29 -72 65 -72s61 20 64 72h103c-7 -108 -66 -161 -167 -161zM541 0h-163c-5 12 -12 33 -14 58c-36 -44 -98 -75 -162 -75c-95 0 -166 49 -166 153c0 123 102 179 328 182v13c0 49 -33 72 -92 72c-58 0 -105 -20 -145 -50
l-62 103c46 44 126 79 236 79c117 0 229 -39 229 -208v-256c0 -24 3 -52 11 -71zM273 105c37 0 68 17 91 44v91c-100 -4 -151 -30 -151 -82c0 -33 22 -53 60 -53z" />
    <glyph glyph-name="acircumflex" unicode="&#xe2;" horiz-adv-x="598" 
d="M300 662l-61 -80h-129l109 157h160l110 -157h-129zM541 0h-163c-5 12 -12 33 -14 58c-36 -44 -98 -75 -162 -75c-95 0 -166 49 -166 153c0 123 102 179 328 182v13c0 49 -33 72 -92 72c-58 0 -105 -20 -145 -50l-62 103c46 44 126 79 236 79c117 0 229 -39 229 -208v-256
c0 -24 3 -52 11 -71zM273 105c37 0 68 17 91 44v91c-100 -4 -151 -30 -151 -82c0 -33 22 -53 60 -53z" />
    <glyph glyph-name="adieresis" unicode="&#xe4;" horiz-adv-x="598" 
d="M184 581c-48 0 -82 31 -82 80c0 51 34 85 82 85c49 0 83 -34 83 -85c0 -49 -34 -80 -83 -80zM415 581c-48 0 -83 31 -83 80c0 51 35 85 83 85c49 0 82 -34 82 -85c0 -49 -33 -80 -82 -80zM541 0h-163c-5 12 -12 33 -14 58c-36 -44 -98 -75 -162 -75
c-95 0 -166 49 -166 153c0 123 102 179 328 182v13c0 49 -33 72 -92 72c-58 0 -105 -20 -145 -50l-62 103c46 44 126 79 236 79c117 0 229 -39 229 -208v-256c0 -24 3 -52 11 -71zM273 105c37 0 68 17 91 44v91c-100 -4 -151 -30 -151 -82c0 -33 22 -53 60 -53z" />
    <glyph glyph-name="agrave" unicode="&#xe0;" horiz-adv-x="598" 
d="M364 582h-128l-133 157h152zM541 0h-163c-5 12 -12 33 -14 58c-36 -44 -98 -75 -162 -75c-95 0 -166 49 -166 153c0 123 102 179 328 182v13c0 49 -33 72 -92 72c-58 0 -105 -20 -145 -50l-62 103c46 44 126 79 236 79c117 0 229 -39 229 -208v-256c0 -24 3 -52 11 -71z
M273 105c37 0 68 17 91 44v91c-100 -4 -151 -30 -151 -82c0 -33 22 -53 60 -53z" />
    <glyph glyph-name="amacron" unicode="&#x101;" horiz-adv-x="598" 
d="M441 695v-97h-282v97h282zM541 0h-163c-5 12 -12 33 -14 58c-36 -44 -98 -75 -162 -75c-95 0 -166 49 -166 153c0 123 102 179 328 182v13c0 49 -33 72 -92 72c-58 0 -105 -20 -145 -50l-62 103c46 44 126 79 236 79c117 0 229 -39 229 -208v-256c0 -24 3 -52 11 -71z
M273 105c37 0 68 17 91 44v91c-100 -4 -151 -30 -151 -82c0 -33 22 -53 60 -53z" />
    <glyph glyph-name="aogonek" unicode="&#x105;" horiz-adv-x="598" 
d="M543 -113l40 -76c-25 -23 -58 -44 -123 -44c-83 0 -134 42 -134 112c0 51 27 90 85 121h-33c-5 12 -12 33 -14 58c-36 -44 -98 -75 -162 -75c-95 0 -166 49 -166 153c0 123 102 179 328 182v13c0 49 -33 72 -92 72c-58 0 -105 -20 -145 -50l-62 103c46 44 126 79 236 79
c117 0 229 -39 229 -208v-256c0 -24 3 -52 11 -71c-51 -20 -97 -55 -97 -95c0 -26 17 -39 41 -39c23 0 38 6 58 21zM273 105c37 0 68 17 91 44v91c-100 -4 -151 -30 -151 -82c0 -33 22 -53 60 -53z" />
    <glyph glyph-name="aring" unicode="&#xe5;" horiz-adv-x="598" 
d="M300 584c-69 0 -114 41 -114 103c0 65 45 109 114 109c68 0 113 -44 113 -109c0 -62 -45 -103 -113 -103zM299 736c-29 0 -48 -19 -48 -47c0 -27 19 -45 48 -45c30 0 49 18 49 45c0 28 -19 47 -49 47zM541 0h-163c-5 12 -12 33 -14 58c-36 -44 -98 -75 -162 -75
c-95 0 -166 49 -166 153c0 123 102 179 328 182v13c0 49 -33 72 -92 72c-58 0 -105 -20 -145 -50l-62 103c46 44 126 79 236 79c117 0 229 -39 229 -208v-256c0 -24 3 -52 11 -71zM273 105c37 0 68 17 91 44v91c-100 -4 -151 -30 -151 -82c0 -33 22 -53 60 -53z" />
    <glyph glyph-name="atilde" unicode="&#xe3;" horiz-adv-x="598" 
d="M218 631c-22 0 -31 -14 -33 -38h-72c3 84 36 137 107 137c61 0 122 -42 161 -42c21 0 31 13 34 37h71c-3 -84 -36 -137 -107 -137c-60 0 -123 43 -161 43zM541 0h-163c-5 12 -12 33 -14 58c-36 -44 -98 -75 -162 -75c-95 0 -166 49 -166 153c0 123 102 179 328 182v13
c0 49 -33 72 -92 72c-58 0 -105 -20 -145 -50l-62 103c46 44 126 79 236 79c117 0 229 -39 229 -208v-256c0 -24 3 -52 11 -71zM273 105c37 0 68 17 91 44v91c-100 -4 -151 -30 -151 -82c0 -33 22 -53 60 -53z" />
    <glyph glyph-name="ae" unicode="&#xe6;" horiz-adv-x="927" 
d="M894 287v-59h-354c17 -79 82 -102 150 -102c59 0 105 17 140 41l48 -122c-53 -36 -122 -59 -214 -59c-117 0 -200 38 -249 102c-43 -67 -122 -103 -210 -103c-98 0 -169 47 -169 151c0 123 102 179 328 182v13c0 49 -33 72 -92 72c-58 0 -105 -20 -145 -50l-62 103
c46 44 126 80 236 80c65 0 129 -12 172 -52c45 32 101 51 163 51c156 0 258 -94 258 -248zM634 409c-47 0 -84 -33 -95 -98h187c-8 65 -42 98 -92 98zM277 105c42 0 79 19 102 51c-8 26 -13 54 -15 84c-100 -3 -151 -30 -151 -82c0 -33 22 -53 64 -53z" />
    <glyph glyph-name="aeacute" unicode="&#x1fd;" horiz-adv-x="927" 
d="M661 739l-133 -157h-128l109 157h152zM894 287v-59h-354c17 -79 82 -102 150 -102c59 0 105 17 140 41l48 -122c-53 -36 -122 -59 -214 -59c-117 0 -200 38 -249 102c-43 -67 -122 -103 -210 -103c-98 0 -169 47 -169 151c0 123 102 179 328 182v13c0 49 -33 72 -92 72
c-58 0 -105 -20 -145 -50l-62 103c46 44 126 80 236 80c65 0 129 -12 172 -52c45 32 101 51 163 51c156 0 258 -94 258 -248zM634 409c-47 0 -84 -33 -95 -98h187c-8 65 -42 98 -92 98zM277 105c42 0 79 19 102 51c-8 26 -13 54 -15 84c-100 -3 -151 -30 -151 -82
c0 -33 22 -53 64 -53z" />
    <glyph glyph-name="cacute" unicode="&#x107;" horiz-adv-x="525" 
d="M236 582l109 157h152l-133 -157h-128zM36 260c0 164 108 275 277 275c82 0 146 -24 179 -49l-39 -137c-24 16 -64 33 -117 33c-73 0 -123 -52 -123 -122c0 -71 49 -123 130 -123c53 0 89 16 118 33l42 -132c-35 -20 -92 -55 -189 -55c-178 0 -278 112 -278 277z" />
    <glyph glyph-name="ccaron" unicode="&#x10d;" horiz-adv-x="525" 
d="M221 582l-110 157h129l60 -80l61 80h129l-110 -157h-159zM461 170l42 -132c-35 -20 -92 -55 -189 -55c-178 0 -278 112 -278 277c0 164 108 275 277 275c82 0 146 -24 179 -49l-39 -137c-24 16 -64 33 -117 33c-73 0 -123 -52 -123 -122c0 -71 49 -123 130 -123
c53 0 89 16 118 33z" />
    <glyph glyph-name="ccedilla" unicode="&#xe7;" horiz-adv-x="525" 
d="M322 -49c60 0 95 -34 95 -84c0 -61 -59 -98 -153 -98c-50 0 -91 14 -130 41l38 59c33 -21 59 -31 85 -31c22 0 42 8 42 28c0 19 -14 27 -37 27c-14 0 -23 -3 -36 -6l-44 27l61 76c-133 26 -207 128 -207 270c0 164 108 275 277 275c82 0 146 -24 179 -49l-39 -137
c-24 16 -64 33 -117 33c-73 0 -123 -52 -123 -122c0 -71 49 -123 130 -123c53 0 89 16 118 33l42 -132c-34 -19 -88 -53 -180 -55l-27 -34c7 1 15 2 26 2z" />
    <glyph glyph-name="ccircumflex" unicode="&#x109;" horiz-adv-x="525" 
d="M301 662l-61 -80h-129l109 157h160l110 -157h-129zM461 170l42 -132c-35 -20 -92 -55 -189 -55c-178 0 -278 112 -278 277c0 164 108 275 277 275c82 0 146 -24 179 -49l-39 -137c-24 16 -64 33 -117 33c-73 0 -123 -52 -123 -122c0 -71 49 -123 130 -123
c53 0 89 16 118 33z" />
    <glyph glyph-name="cdotaccent" unicode="&#x10b;" horiz-adv-x="525" 
d="M301 592c-59 0 -101 34 -101 85c0 53 42 88 101 88c60 0 101 -35 101 -88c0 -51 -41 -85 -101 -85zM36 260c0 164 108 275 277 275c82 0 146 -24 179 -49l-39 -137c-24 16 -64 33 -117 33c-73 0 -123 -52 -123 -122c0 -71 49 -123 130 -123c53 0 89 16 118 33l42 -132
c-35 -20 -92 -55 -189 -55c-178 0 -278 112 -278 277z" />
    <glyph glyph-name="eth" unicode="&#xf0;" horiz-adv-x="639" 
d="M408 690c124 -88 193 -222 193 -390c0 -201 -114 -315 -281 -315c-156 0 -284 98 -284 268c0 171 131 254 251 254c37 0 70 -7 97 -22c-24 49 -59 90 -105 121l-135 -88l-43 66l98 63c-28 11 -60 20 -94 26l20 122c78 -11 148 -32 208 -61l95 61l42 -65zM320 132
c56 0 97 40 105 117h-1c6 87 -35 140 -99 140c-69 0 -111 -58 -111 -136c0 -77 42 -121 106 -121z" />
    <glyph glyph-name="dcaron" unicode="&#x10f;" horiz-adv-x="711" 
d="M424 467v283h167v-750h-154l-3 67c-33 -51 -86 -83 -163 -83c-132 0 -235 98 -235 276c0 179 102 276 235 276c70 0 119 -26 153 -69zM677 750h129l-41 -174h-104zM324 126c70 0 114 61 113 134c0 76 -43 134 -113 134c-71 0 -111 -53 -111 -134c0 -80 40 -134 111 -134z
" />
    <glyph glyph-name="dcroat" unicode="&#x111;" horiz-adv-x="660" 
d="M648 660v-79h-57v-581h-154l-3 67c-33 -51 -86 -83 -163 -83c-132 0 -235 98 -235 276c0 179 102 276 235 276c70 0 119 -26 153 -69v114h-181v79h181v90h167v-90h57zM324 126c70 0 114 61 113 134c0 76 -43 134 -113 134c-71 0 -111 -53 -111 -134
c0 -80 40 -134 111 -134z" />
    <glyph glyph-name="eacute" unicode="&#xe9;" horiz-adv-x="601" 
d="M508 739l-133 -157h-128l109 157h152zM567 287v-59h-354c17 -80 84 -102 150 -102c60 0 102 17 140 41l48 -122c-53 -36 -126 -62 -215 -62c-189 0 -300 105 -300 273c0 170 116 279 275 279c152 0 256 -94 256 -248zM309 409c-49 0 -86 -34 -97 -98h187
c-8 65 -42 98 -90 98z" />
    <glyph glyph-name="ebreve" unicode="&#x115;" horiz-adv-x="601" 
d="M312 578c-104 0 -166 53 -168 161h103c4 -52 29 -72 65 -72s61 20 64 72h103c-7 -108 -66 -161 -167 -161zM567 287v-59h-354c17 -80 84 -102 150 -102c60 0 102 17 140 41l48 -122c-53 -36 -126 -62 -215 -62c-189 0 -300 105 -300 273c0 170 116 279 275 279
c152 0 256 -94 256 -248zM309 409c-49 0 -86 -34 -97 -98h187c-8 65 -42 98 -90 98z" />
    <glyph glyph-name="ecaron" unicode="&#x11b;" horiz-adv-x="601" 
d="M232 582l-110 157h129l60 -80l61 80h129l-110 -157h-159zM567 287v-59h-354c17 -80 84 -102 150 -102c60 0 102 17 140 41l48 -122c-53 -36 -126 -62 -215 -62c-189 0 -300 105 -300 273c0 170 116 279 275 279c152 0 256 -94 256 -248zM309 409c-49 0 -86 -34 -97 -98
h187c-8 65 -42 98 -90 98z" />
    <glyph glyph-name="ecircumflex" unicode="&#xea;" horiz-adv-x="601" 
d="M312 662l-61 -80h-129l109 157h160l110 -157h-129zM567 287v-59h-354c17 -80 84 -102 150 -102c60 0 102 17 140 41l48 -122c-53 -36 -126 -62 -215 -62c-189 0 -300 105 -300 273c0 170 116 279 275 279c152 0 256 -94 256 -248zM309 409c-49 0 -86 -34 -97 -98h187
c-8 65 -42 98 -90 98z" />
    <glyph glyph-name="edieresis" unicode="&#xeb;" horiz-adv-x="601" 
d="M196 581c-48 0 -82 31 -82 80c0 51 34 85 82 85c49 0 83 -34 83 -85c0 -49 -34 -80 -83 -80zM427 581c-48 0 -83 31 -83 80c0 51 35 85 83 85c49 0 82 -34 82 -85c0 -49 -33 -80 -82 -80zM567 287v-59h-354c17 -80 84 -102 150 -102c60 0 102 17 140 41l48 -122
c-53 -36 -126 -62 -215 -62c-189 0 -300 105 -300 273c0 170 116 279 275 279c152 0 256 -94 256 -248zM309 409c-49 0 -86 -34 -97 -98h187c-8 65 -42 98 -90 98z" />
    <glyph glyph-name="edotaccent" unicode="&#x117;" horiz-adv-x="601" 
d="M312 592c-59 0 -101 34 -101 85c0 53 42 88 101 88c60 0 101 -35 101 -88c0 -51 -41 -85 -101 -85zM567 287v-59h-354c17 -80 84 -102 150 -102c60 0 102 17 140 41l48 -122c-53 -36 -126 -62 -215 -62c-189 0 -300 105 -300 273c0 170 116 279 275 279
c152 0 256 -94 256 -248zM309 409c-49 0 -86 -34 -97 -98h187c-8 65 -42 98 -90 98z" />
    <glyph glyph-name="egrave" unicode="&#xe8;" horiz-adv-x="601" 
d="M376 582h-128l-133 157h152zM567 287v-59h-354c17 -80 84 -102 150 -102c60 0 102 17 140 41l48 -122c-53 -36 -126 -62 -215 -62c-189 0 -300 105 -300 273c0 170 116 279 275 279c152 0 256 -94 256 -248zM309 409c-49 0 -86 -34 -97 -98h187c-8 65 -42 98 -90 98z" />
    <glyph glyph-name="emacron" unicode="&#x113;" horiz-adv-x="601" 
d="M453 695v-97h-282v97h282zM567 287v-59h-354c17 -80 84 -102 150 -102c60 0 102 17 140 41l48 -122c-53 -36 -126 -62 -215 -62c-189 0 -300 105 -300 273c0 170 116 279 275 279c152 0 256 -94 256 -248zM309 409c-49 0 -86 -34 -97 -98h187c-8 65 -42 98 -90 98z" />
    <glyph glyph-name="eogonek" unicode="&#x119;" horiz-adv-x="601" 
d="M567 287v-59h-354c17 -80 84 -102 150 -102c60 0 102 17 140 41l48 -122l-14 -9c-65 -42 -127 -86 -127 -132c0 -26 18 -38 41 -38c22 0 40 7 58 21l40 -76c-25 -23 -58 -44 -123 -44c-83 0 -135 41 -135 110c0 44 22 77 53 106h-8c-189 0 -300 105 -300 273
c0 170 116 279 275 279c152 0 256 -94 256 -248zM309 409c-49 0 -86 -34 -97 -98h187c-8 65 -42 98 -90 98z" />
    <glyph glyph-name="gbreve" unicode="&#x11f;" horiz-adv-x="599" 
d="M287 578c-104 0 -166 53 -168 161h103c4 -52 29 -72 65 -72s61 20 64 72h103c-7 -108 -66 -161 -167 -161zM406 108c125 0 174 -62 174 -137c0 -84 -63 -176 -315 -176c-148 0 -257 30 -257 108c0 55 52 78 98 89c-38 14 -73 41 -73 92c0 58 45 90 98 120
c-57 32 -90 83 -90 150c0 111 99 183 244 183c59 0 111 -11 152 -32l89 83l87 -87l-96 -66c14 -23 22 -51 22 -81c0 -116 -104 -185 -253 -185c-29 0 -55 3 -80 8c-14 -9 -24 -20 -24 -35c0 -20 16 -31 68 -32zM291 435c-46 0 -81 -30 -81 -81c0 -53 35 -84 81 -84
s78 31 78 84c0 51 -32 81 -78 81zM286 -117c81 0 130 18 130 53c0 28 -19 42 -78 43l-152 1c-13 -12 -22 -25 -22 -42c0 -32 30 -55 122 -55z" />
    <glyph glyph-name="gcircumflex" unicode="&#x11d;" horiz-adv-x="599" 
d="M287 662l-61 -80h-129l109 157h160l110 -157h-129zM406 108c125 0 174 -62 174 -137c0 -84 -63 -176 -315 -176c-148 0 -257 30 -257 108c0 55 52 78 98 89c-38 14 -73 41 -73 92c0 58 45 90 98 120c-57 32 -90 83 -90 150c0 111 99 183 244 183c59 0 111 -11 152 -32
l89 83l87 -87l-96 -66c14 -23 22 -51 22 -81c0 -116 -104 -185 -253 -185c-29 0 -55 3 -80 8c-14 -9 -24 -20 -24 -35c0 -20 16 -31 68 -32zM291 435c-46 0 -81 -30 -81 -81c0 -53 35 -84 81 -84s78 31 78 84c0 51 -32 81 -78 81zM286 -117c81 0 130 18 130 53
c0 28 -19 42 -78 43l-152 1c-13 -12 -22 -25 -22 -42c0 -32 30 -55 122 -55z" />
    <glyph glyph-name="uni0123" unicode="&#x123;" horiz-adv-x="599" 
d="M293 579c-38 0 -68 21 -68 71c0 58 41 121 92 164l46 -42c-22 -21 -42 -47 -52 -70c30 -5 50 -27 50 -59c0 -38 -31 -64 -68 -64zM406 108c125 0 174 -62 174 -137c0 -84 -63 -176 -315 -176c-148 0 -257 30 -257 108c0 55 52 78 98 89c-38 14 -73 41 -73 92
c0 58 45 90 98 120c-57 32 -90 83 -90 150c0 111 99 183 244 183c59 0 111 -11 152 -32l89 83l87 -87l-96 -66c14 -23 22 -51 22 -81c0 -116 -104 -185 -253 -185c-29 0 -55 3 -80 8c-14 -9 -24 -20 -24 -35c0 -20 16 -31 68 -32zM291 435c-46 0 -81 -30 -81 -81
c0 -53 35 -84 81 -84s78 31 78 84c0 51 -32 81 -78 81zM286 -117c81 0 130 18 130 53c0 28 -19 42 -78 43l-152 1c-13 -12 -22 -25 -22 -42c0 -32 30 -55 122 -55z" />
    <glyph glyph-name="gdotaccent" unicode="&#x121;" horiz-adv-x="599" 
d="M287 592c-59 0 -101 34 -101 85c0 53 42 88 101 88c60 0 101 -35 101 -88c0 -51 -41 -85 -101 -85zM406 108c125 0 174 -62 174 -137c0 -84 -63 -176 -315 -176c-148 0 -257 30 -257 108c0 55 52 78 98 89c-38 14 -73 41 -73 92c0 58 45 90 98 120c-57 32 -90 83 -90 150
c0 111 99 183 244 183c59 0 111 -11 152 -32l89 83l87 -87l-96 -66c14 -23 22 -51 22 -81c0 -116 -104 -185 -253 -185c-29 0 -55 3 -80 8c-14 -9 -24 -20 -24 -35c0 -20 16 -31 68 -32zM291 435c-46 0 -81 -30 -81 -81c0 -53 35 -84 81 -84s78 31 78 84c0 51 -32 81 -78 81
zM286 -117c81 0 130 18 130 53c0 28 -19 42 -78 43l-152 1c-13 -12 -22 -25 -22 -42c0 -32 30 -55 122 -55z" />
    <glyph glyph-name="hbar" unicode="&#x127;" horiz-adv-x="652" 
d="M416 535c121 0 166 -75 166 -185v-350h-165v293c0 68 -22 100 -79 100c-41 0 -78 -27 -103 -67v-326h-166v581h-57v79h57v90h166v-90h182v-79h-182v-141c35 55 93 95 181 95z" />
    <glyph glyph-name="hcircumflex" unicode="&#x125;" horiz-adv-x="652" 
d="M326 882l-64 -75h-131l127 133h135l128 -133h-131zM416 535c121 0 166 -75 166 -185v-350h-165v293c0 68 -22 100 -79 100c-41 0 -78 -27 -103 -67v-326h-166v750h166v-310c35 55 93 95 181 95z" />
    <glyph glyph-name="dotlessi" unicode="&#x131;" horiz-adv-x="336" 
d="M85 518h166v-518h-166v518z" />
    <glyph glyph-name="iacute" unicode="&#xed;" horiz-adv-x="336" 
d="M104 582l109 157h152l-133 -157h-128zM85 518h166v-518h-166v518z" />
    <glyph glyph-name="ibreve" unicode="&#x12d;" horiz-adv-x="336" 
d="M168 578c-104 0 -166 53 -168 161h103c4 -52 29 -72 65 -72s61 20 64 72h103c-7 -108 -66 -161 -167 -161zM85 518h166v-518h-166v518z" />
    <glyph glyph-name="icircumflex" unicode="&#xee;" horiz-adv-x="336" 
d="M169 662l-61 -80h-129l109 157h160l110 -157h-129zM85 0v518h166v-518h-166z" />
    <glyph glyph-name="idieresis" unicode="&#xef;" horiz-adv-x="336" 
d="M52 581c-48 0 -82 31 -82 80c0 51 34 85 82 85c49 0 83 -34 83 -85c0 -49 -34 -80 -83 -80zM283 581c-48 0 -83 31 -83 80c0 51 35 85 83 85c49 0 82 -34 82 -85c0 -49 -33 -80 -82 -80zM85 518h166v-518h-166v518z" />
    <glyph glyph-name="i.loclTRK" horiz-adv-x="336" 
d="M168 592c-59 0 -101 34 -101 85c0 53 42 88 101 88c60 0 101 -35 101 -88c0 -51 -41 -85 -101 -85zM85 518h166v-518h-166v518z" />
    <glyph glyph-name="igrave" unicode="&#xec;" horiz-adv-x="336" 
d="M-29 739h152l109 -157h-128zM85 518h166v-518h-166v518z" />
    <glyph glyph-name="ij" unicode="&#x133;" horiz-adv-x="672" 
d="M168 592c-59 0 -101 34 -101 85c0 53 42 88 101 88c60 0 101 -35 101 -88c0 -51 -41 -85 -101 -85zM504 592c-59 0 -101 34 -101 85c0 53 42 88 101 88c60 0 101 -35 101 -88c0 -51 -41 -85 -101 -85zM85 518h166v-518h-166v518zM302 -201v129c17 -1 35 -2 48 -2
c52 0 71 27 71 71v521h166v-539c0 -107 -56 -186 -197 -186c-35 0 -69 3 -88 6z" />
    <glyph glyph-name="imacron" unicode="&#x12b;" horiz-adv-x="336" 
d="M27 695h282v-97h-282v97zM85 518h166v-518h-166v518z" />
    <glyph glyph-name="iogonek" unicode="&#x12f;" horiz-adv-x="336" 
d="M168 592c-59 0 -101 34 -101 85c0 53 42 88 101 88c60 0 101 -35 101 -88c0 -51 -41 -85 -101 -85zM253 -113l40 -76c-25 -23 -58 -44 -123 -44c-83 0 -134 42 -134 112c0 51 27 90 85 121h-36v518h166v-518c-51 -20 -97 -55 -97 -95c0 -26 17 -39 41 -39
c23 0 38 6 58 21z" />
    <glyph glyph-name="itilde" unicode="&#x129;" horiz-adv-x="336" 
d="M248 588c-60 0 -123 43 -161 43c-22 0 -31 -14 -33 -38h-72c3 84 36 137 107 137c61 0 122 -42 161 -42c21 0 31 13 34 37h71c-3 -84 -36 -137 -107 -137zM85 518h166v-518h-166v518z" />
    <glyph glyph-name="uni0237" unicode="&#x237;" horiz-adv-x="336" 
d="M-35 -201v129c18 -1 36 -2 49 -2c52 0 71 27 71 71v521h166v-539c0 -107 -56 -186 -197 -186c-35 0 -69 3 -89 6z" />
    <glyph glyph-name="jcircumflex" unicode="&#x135;" horiz-adv-x="336" 
d="M169 662l-61 -80h-129l109 157h160l110 -157h-129zM85 -3v521h166v-539c0 -107 -56 -186 -197 -186c-35 0 -69 3 -89 6v129c18 -1 36 -2 49 -2c52 0 71 27 71 71z" />
    <glyph glyph-name="uni0137" unicode="&#x137;" horiz-adv-x="601" 
d="M385 301l225 -301h-197l-138 183l-40 -43v-140h-166v750h166v-430l166 198h186zM301 -54c38 0 68 -21 68 -72c0 -57 -41 -120 -92 -163l-46 42c21 21 42 47 52 70c-30 5 -51 28 -51 59c0 38 32 64 69 64z" />
    <glyph glyph-name="kgreenlandic" unicode="&#x138;" horiz-adv-x="601" 
d="M413 0l-138 183l-40 -43v-140h-166v518h166v-198l166 198h186l-202 -217l225 -301h-197z" />
    <glyph glyph-name="lacute" unicode="&#x13a;" horiz-adv-x="304" 
d="M231 940h154l-167 -133h-133zM69 750h166v-750h-166v750z" />
    <glyph glyph-name="lcaron" unicode="&#x13e;" horiz-adv-x="355" 
d="M69 750h166v-750h-166v750zM321 750h129l-41 -174h-104z" />
    <glyph glyph-name="uni013C" unicode="&#x13c;" horiz-adv-x="304" 
d="M69 750h166v-750h-166v750zM152 -54c38 0 68 -21 68 -72c0 -57 -41 -120 -92 -163l-46 42c21 21 42 47 52 70c-30 5 -51 28 -51 59c0 38 32 64 69 64z" />
    <glyph glyph-name="ldot" unicode="&#x140;" horiz-adv-x="444" 
d="M69 750h166v-750h-166v750zM374 270c-61 0 -103 36 -103 95s42 99 103 99s103 -40 103 -99s-42 -95 -103 -95z" />
    <glyph glyph-name="lslash" unicode="&#x142;" horiz-adv-x="304" 
d="M304 561v-117l-69 -50v-394h-166v274l-69 -50v118l69 50v358h166v-239z" />
    <glyph glyph-name="nacute" unicode="&#x144;" horiz-adv-x="652" 
d="M521 739l-133 -157h-128l109 157h152zM416 535c121 0 166 -75 166 -185v-350h-165v293c0 68 -22 100 -79 100c-43 0 -80 -30 -103 -75v-318h-166v518h166v-78c35 55 93 95 181 95z" />
    <glyph glyph-name="ncaron" unicode="&#x148;" horiz-adv-x="652" 
d="M245 582l-110 157h129l60 -80l61 80h129l-110 -157h-159zM416 535c121 0 166 -75 166 -185v-350h-165v293c0 68 -22 100 -79 100c-43 0 -80 -30 -103 -75v-318h-166v518h166v-78c35 55 93 95 181 95z" />
    <glyph glyph-name="uni0146" unicode="&#x146;" horiz-adv-x="652" 
d="M416 535c121 0 166 -75 166 -185v-350h-165v293c0 68 -22 100 -79 100c-43 0 -80 -30 -103 -75v-318h-166v518h166v-78c35 55 93 95 181 95zM326 -54c38 0 68 -21 68 -72c0 -57 -41 -120 -92 -163l-46 42c21 21 42 47 52 70c-30 5 -51 28 -51 59c0 38 32 64 69 64z" />
    <glyph glyph-name="eng" unicode="&#x14b;" horiz-adv-x="652" 
d="M416 534c121 0 166 -75 166 -185v-370c0 -107 -56 -186 -196 -186c-24 0 -46 1 -65 3v130h25c51 0 71 27 71 71v295c0 67 -22 100 -79 100c-43 0 -80 -30 -103 -75v-317h-166v518h166v-79c35 55 93 95 181 95z" />
    <glyph glyph-name="ntilde" unicode="&#xf1;" horiz-adv-x="652" 
d="M243 631c-22 0 -31 -14 -33 -38h-72c3 84 36 137 107 137c61 0 122 -42 161 -42c21 0 31 13 34 37h71c-3 -84 -36 -137 -107 -137c-60 0 -123 43 -161 43zM416 535c121 0 166 -75 166 -185v-350h-165v293c0 68 -22 100 -79 100c-43 0 -80 -30 -103 -75v-318h-166v518h166
v-78c35 55 93 95 181 95z" />
    <glyph glyph-name="oacute" unicode="&#xf3;" horiz-adv-x="640" 
d="M256 582l109 157h152l-133 -157h-128zM320 -17c-156 0 -284 106 -284 277c0 172 129 275 284 275c156 0 285 -103 285 -275c0 -171 -130 -277 -285 -277zM320 131c63 0 106 51 106 129s-43 128 -106 128s-106 -50 -106 -128s42 -129 106 -129z" />
    <glyph glyph-name="obreve" unicode="&#x14f;" horiz-adv-x="640" 
d="M321 578c-104 0 -166 53 -168 161h103c4 -52 29 -72 65 -72s61 20 64 72h103c-7 -108 -66 -161 -167 -161zM320 -17c-156 0 -284 106 -284 277c0 172 129 275 284 275c156 0 285 -103 285 -275c0 -171 -130 -277 -285 -277zM320 131c63 0 106 51 106 129
s-43 128 -106 128s-106 -50 -106 -128s42 -129 106 -129z" />
    <glyph glyph-name="ocircumflex" unicode="&#xf4;" horiz-adv-x="640" 
d="M321 662l-61 -80h-129l109 157h160l110 -157h-129zM320 535c156 0 285 -103 285 -275c0 -171 -130 -277 -285 -277c-156 0 -284 106 -284 277c0 172 129 275 284 275zM320 131c63 0 106 51 106 129s-43 128 -106 128s-106 -50 -106 -128s42 -129 106 -129z" />
    <glyph glyph-name="odieresis" unicode="&#xf6;" horiz-adv-x="640" 
d="M205 581c-48 0 -82 31 -82 80c0 51 34 85 82 85c49 0 83 -34 83 -85c0 -49 -34 -80 -83 -80zM436 581c-48 0 -83 31 -83 80c0 51 35 85 83 85c49 0 82 -34 82 -85c0 -49 -33 -80 -82 -80zM320 -17c-156 0 -284 106 -284 277c0 172 129 275 284 275
c156 0 285 -103 285 -275c0 -171 -130 -277 -285 -277zM320 131c63 0 106 51 106 129s-43 128 -106 128s-106 -50 -106 -128s42 -129 106 -129z" />
    <glyph glyph-name="ograve" unicode="&#xf2;" horiz-adv-x="640" 
d="M124 739h152l109 -157h-128zM320 -17c-156 0 -284 106 -284 277c0 172 129 275 284 275c156 0 285 -103 285 -275c0 -171 -130 -277 -285 -277zM320 131c63 0 106 51 106 129s-43 128 -106 128s-106 -50 -106 -128s42 -129 106 -129z" />
    <glyph glyph-name="ohungarumlaut" unicode="&#x151;" horiz-adv-x="640" 
d="M148 582l111 157h154l-136 -157h-129zM365 582l111 157h153l-136 -157h-128zM320 -17c-156 0 -284 106 -284 277c0 172 129 275 284 275c156 0 285 -103 285 -275c0 -171 -130 -277 -285 -277zM320 131c63 0 106 51 106 129s-43 128 -106 128s-106 -50 -106 -128
s42 -129 106 -129z" />
    <glyph glyph-name="omacron" unicode="&#x14d;" horiz-adv-x="640" 
d="M180 695h282v-97h-282v97zM320 -17c-156 0 -284 106 -284 277c0 172 129 275 284 275c156 0 285 -103 285 -275c0 -171 -130 -277 -285 -277zM320 131c63 0 106 51 106 129s-43 128 -106 128s-106 -50 -106 -128s42 -129 106 -129z" />
    <glyph glyph-name="oslash" unicode="&#xf8;" horiz-adv-x="640" 
d="M605 486l-56 -54c35 -45 56 -103 56 -172c0 -171 -130 -275 -285 -275c-66 0 -128 19 -176 54l-56 -54l-52 50l55 54c-34 44 -55 102 -55 171c0 172 129 275 284 275c66 0 128 -19 177 -53l56 54zM198 260c0 -22 3 -42 8 -60l189 182c-20 18 -46 27 -75 27
c-73 0 -122 -59 -122 -149zM442 260c0 22 -3 42 -8 60l-188 -182c19 -17 45 -26 74 -26c73 0 122 58 122 148z" />
    <glyph glyph-name="oslashacute" unicode="&#x1ff;" horiz-adv-x="640" 
d="M517 739l-133 -157h-128l109 157h152zM605 486l-56 -54c35 -45 56 -103 56 -172c0 -171 -130 -275 -285 -275c-66 0 -128 19 -176 54l-56 -54l-52 50l55 54c-34 44 -55 102 -55 171c0 172 129 275 284 275c66 0 128 -19 177 -53l56 54zM198 260c0 -22 3 -42 8 -60
l189 182c-20 18 -46 27 -75 27c-73 0 -122 -59 -122 -149zM442 260c0 22 -3 42 -8 60l-188 -182c19 -17 45 -26 74 -26c73 0 122 58 122 148z" />
    <glyph glyph-name="otilde" unicode="&#xf5;" horiz-adv-x="640" 
d="M400 588c-60 0 -123 43 -161 43c-22 0 -31 -14 -33 -38h-72c3 84 36 137 107 137c61 0 122 -42 161 -42c21 0 31 13 34 37h71c-3 -84 -36 -137 -107 -137zM320 -17c-156 0 -284 106 -284 277c0 172 129 275 284 275c156 0 285 -103 285 -275c0 -171 -130 -277 -285 -277z
M320 131c63 0 106 51 106 129s-43 128 -106 128s-106 -50 -106 -128s42 -129 106 -129z" />
    <glyph glyph-name="oe" unicode="&#x153;" horiz-adv-x="979" 
d="M945 287v-59h-354c17 -79 82 -102 151 -102c58 0 104 17 139 41l49 -122c-53 -36 -123 -59 -208 -59c-94 0 -167 28 -216 80c-47 -52 -115 -81 -193 -81c-149 0 -277 104 -277 275c0 172 129 275 278 275c78 0 146 -29 193 -81c45 52 111 81 187 81
c149 0 251 -94 251 -248zM686 409c-48 0 -85 -33 -96 -98h187c-8 65 -42 98 -91 98zM320 132c63 0 106 50 106 128s-43 129 -106 129s-106 -51 -106 -129s42 -128 106 -128z" />
    <glyph glyph-name="thorn" unicode="&#xfe;" horiz-adv-x="671" 
d="M400 535c132 0 236 -98 236 -275c0 -179 -102 -276 -236 -276c-78 0 -132 33 -165 86v-247h-166v927h166v-301c33 53 87 86 165 86zM347 124c71 0 112 54 112 136c0 80 -41 131 -112 131c-70 0 -113 -59 -113 -131c1 -77 43 -136 113 -136z" />
    <glyph glyph-name="racute" unicode="&#x155;" horiz-adv-x="452" 
d="M348 739l-133 -157h-128l109 157h152zM235 397c27 76 93 130 175 130v-176c-89 0 -170 -30 -175 -162v-189h-166v518h166v-121z" />
    <glyph glyph-name="rcaron" unicode="&#x159;" horiz-adv-x="452" 
d="M72 582l-110 157h129l60 -80l61 80h129l-110 -157h-159zM235 397c27 76 93 130 175 130v-176c-89 0 -170 -30 -175 -162v-189h-166v518h166v-121z" />
    <glyph glyph-name="uni0157" unicode="&#x157;" horiz-adv-x="452" 
d="M235 397c27 76 93 130 175 130v-176c-89 0 -170 -30 -175 -162v-189h-166v518h166v-121zM152 -54c38 0 68 -21 68 -72c0 -57 -41 -120 -92 -163l-46 42c21 21 42 47 52 70c-30 5 -51 28 -51 59c0 38 32 64 69 64z" />
    <glyph glyph-name="sacute" unicode="&#x15b;" horiz-adv-x="508" 
d="M190 582l109 157h152l-133 -157h-128zM258 -17c-113 0 -187 37 -233 79l58 104c48 -32 101 -62 166 -62c36 0 58 14 58 40c0 31 -29 40 -91 56c-78 19 -171 51 -171 167c0 121 101 168 214 168c91 0 163 -27 204 -68l-60 -96c-46 27 -87 48 -136 48
c-36 0 -59 -13 -59 -37c0 -31 36 -41 89 -54c89 -23 180 -51 180 -163c0 -123 -87 -182 -219 -182z" />
    <glyph glyph-name="scaron" unicode="&#x161;" horiz-adv-x="508" 
d="M175 582l-110 157h129l60 -80l61 80h129l-110 -157h-159zM297 328c89 -23 180 -51 180 -163c0 -123 -87 -182 -219 -182c-113 0 -187 37 -233 79l58 104c48 -32 101 -62 166 -62c36 0 58 14 58 40c0 31 -29 40 -91 56c-78 19 -171 51 -171 167c0 121 101 168 214 168
c91 0 163 -27 204 -68l-60 -96c-46 27 -87 48 -136 48c-36 0 -59 -13 -59 -37c0 -31 36 -41 89 -54z" />
    <glyph glyph-name="scedilla" unicode="&#x15f;" horiz-adv-x="508" 
d="M477 165c0 -113 -73 -172 -188 -181l-27 -34c7 1 15 2 26 2c60 0 95 -34 95 -84c0 -61 -59 -98 -153 -98c-50 0 -91 14 -130 41l38 59c33 -21 59 -31 85 -31c22 0 42 8 42 28c0 19 -14 27 -37 27c-14 0 -23 -3 -36 -6l-44 27l58 71c-85 9 -143 41 -181 76l58 104
c48 -32 101 -62 166 -62c36 0 58 14 58 40c0 31 -29 40 -91 56c-78 19 -171 51 -171 167c0 121 101 168 214 168c91 0 163 -27 204 -68l-60 -96c-46 27 -87 48 -136 48c-36 0 -59 -13 -59 -37c0 -31 36 -41 89 -54c89 -23 180 -51 180 -163z" />
    <glyph glyph-name="scircumflex" unicode="&#x15d;" horiz-adv-x="508" 
d="M255 662l-61 -80h-129l109 157h160l110 -157h-129zM297 328c89 -23 180 -51 180 -163c0 -123 -87 -182 -219 -182c-113 0 -187 37 -233 79l58 104c48 -32 101 -62 166 -62c36 0 58 14 58 40c0 31 -29 40 -91 56c-78 19 -171 51 -171 167c0 121 101 168 214 168
c91 0 163 -27 204 -68l-60 -96c-46 27 -87 48 -136 48c-36 0 -59 -13 -59 -37c0 -31 36 -41 89 -54z" />
    <glyph glyph-name="uni0219" unicode="&#x219;" horiz-adv-x="508" 
d="M297 328c89 -23 180 -51 180 -163c0 -123 -87 -182 -219 -182c-113 0 -187 37 -233 79l58 104c48 -32 101 -62 166 -62c36 0 58 14 58 40c0 31 -29 40 -91 56c-78 19 -171 51 -171 167c0 121 101 168 214 168c91 0 163 -27 204 -68l-60 -96c-46 27 -87 48 -136 48
c-36 0 -59 -13 -59 -37c0 -31 36 -41 89 -54zM255 -54c38 0 68 -21 68 -72c0 -57 -41 -120 -92 -163l-46 42c21 21 42 47 52 70c-30 5 -51 28 -51 59c0 38 32 64 69 64z" />
    <glyph glyph-name="germandbls" unicode="&#xdf;" horiz-adv-x="654" 
d="M478 416c90 -27 137 -99 137 -192c0 -159 -91 -233 -259 -233c-18 0 -30 2 -39 3v145c6 -1 10 -2 24 -2c65 0 105 36 105 101c0 63 -45 98 -108 98h-18v135h5c44 1 74 29 74 74c0 44 -29 74 -72 74c-55 0 -92 -50 -92 -135v-484h-166v466c0 188 89 298 267 298
c138 0 228 -87 228 -202c0 -64 -33 -117 -86 -146z" />
    <glyph glyph-name="tbar" unicode="&#x167;" horiz-adv-x="451" 
d="M411 131l3 -134c-19 -5 -78 -14 -131 -14c-156 0 -186 67 -186 183v54h-73v81h73v88h-76v129h76v118l166 30v-148h134v-129h-134v-88h136v-81h-136v-26c0 -56 24 -69 73 -69c28 0 58 3 75 6z" />
    <glyph glyph-name="tcaron" unicode="&#x165;" horiz-adv-x="451" 
d="M328 750h129l-41 -174h-104zM336 125c28 0 58 3 75 6l3 -134c-19 -5 -78 -14 -131 -14c-156 0 -186 67 -186 183v223h-76v129h76v118l166 30v-148h134v-129h-134v-195c0 -56 24 -69 73 -69z" />
    <glyph glyph-name="uni0163" unicode="&#x163;" horiz-adv-x="451" 
d="M269 -48c60 0 95 -34 95 -84c0 -61 -59 -98 -153 -98c-50 0 -91 14 -130 41l38 59c33 -21 59 -31 85 -31c22 0 42 8 42 28c0 19 -14 27 -37 27c-14 0 -23 -3 -36 -6l-44 27l64 79c-78 23 -96 83 -96 172v223h-76v129h76v118l166 30v-148h134v-129h-134v-195
c0 -56 24 -69 73 -69c28 0 58 3 75 6l3 -134c-19 -5 -78 -14 -131 -14h-13l-27 -33c7 1 15 2 26 2z" />
    <glyph glyph-name="uni021B" unicode="&#x21b;" horiz-adv-x="451" 
d="M414 -3c-19 -5 -78 -14 -131 -14c-156 0 -186 67 -186 183v223h-76v129h76v118l166 30v-148h134v-129h-134v-195c0 -56 24 -69 73 -69c28 0 58 3 75 6zM236 -54c38 0 68 -21 68 -72c0 -57 -41 -120 -92 -163l-46 42c21 21 42 47 52 70c-30 5 -51 28 -51 59
c0 38 32 64 69 64z" />
    <glyph glyph-name="uacute" unicode="&#xfa;" horiz-adv-x="610" 
d="M240 582l109 157h152l-133 -157h-128zM304 -17c-148 0 -246 57 -246 226v309h165v-311c0 -53 24 -88 81 -88c58 0 83 35 83 88v311h166v-309c0 -169 -100 -226 -249 -226z" />
    <glyph glyph-name="ubreve" unicode="&#x16d;" horiz-adv-x="610" 
d="M305 578c-104 0 -166 53 -168 161h103c4 -52 29 -72 65 -72s61 20 64 72h103c-7 -108 -66 -161 -167 -161zM304 -17c-148 0 -246 57 -246 226v309h165v-311c0 -53 24 -88 81 -88c58 0 83 35 83 88v311h166v-309c0 -169 -100 -226 -249 -226z" />
    <glyph glyph-name="ucircumflex" unicode="&#xfb;" horiz-adv-x="610" 
d="M305 662l-61 -80h-129l109 157h160l110 -157h-129zM387 518h166v-309c0 -169 -100 -226 -249 -226c-148 0 -246 57 -246 226v309h165v-311c0 -53 24 -88 81 -88c58 0 83 35 83 88v311z" />
    <glyph glyph-name="udieresis" unicode="&#xfc;" horiz-adv-x="610" 
d="M189 581c-48 0 -82 31 -82 80c0 51 34 85 82 85c49 0 83 -34 83 -85c0 -49 -34 -80 -83 -80zM420 581c-48 0 -83 31 -83 80c0 51 35 85 83 85c49 0 82 -34 82 -85c0 -49 -33 -80 -82 -80zM304 -17c-148 0 -246 57 -246 226v309h165v-311c0 -53 24 -88 81 -88
c58 0 83 35 83 88v311h166v-309c0 -169 -100 -226 -249 -226z" />
    <glyph glyph-name="ugrave" unicode="&#xf9;" horiz-adv-x="610" 
d="M108 739h152l109 -157h-128zM304 -17c-148 0 -246 57 -246 226v309h165v-311c0 -53 24 -88 81 -88c58 0 83 35 83 88v311h166v-309c0 -169 -100 -226 -249 -226z" />
    <glyph glyph-name="uhungarumlaut" unicode="&#x171;" horiz-adv-x="610" 
d="M132 582l111 157h154l-136 -157h-129zM349 582l111 157h153l-136 -157h-128zM304 -17c-148 0 -246 57 -246 226v309h165v-311c0 -53 24 -88 81 -88c58 0 83 35 83 88v311h166v-309c0 -169 -100 -226 -249 -226z" />
    <glyph glyph-name="umacron" unicode="&#x16b;" horiz-adv-x="610" 
d="M164 695h282v-97h-282v97zM304 -17c-148 0 -246 57 -246 226v309h165v-311c0 -53 24 -88 81 -88c58 0 83 35 83 88v311h166v-309c0 -169 -100 -226 -249 -226z" />
    <glyph glyph-name="uogonek" unicode="&#x173;" horiz-adv-x="610" 
d="M387 518h166v-309c0 -146 -75 -208 -191 -223c-35 -20 -62 -48 -62 -78c0 -26 17 -39 41 -39c23 0 38 6 58 21l40 -76c-25 -23 -58 -44 -123 -44c-83 0 -134 42 -134 112c0 43 19 77 59 105c-112 16 -183 78 -183 222v309h165v-311c0 -53 24 -88 81 -88c58 0 83 35 83 88
v311z" />
    <glyph glyph-name="uring" unicode="&#x16f;" horiz-adv-x="610" 
d="M305 584c-69 0 -114 41 -114 103c0 65 45 109 114 109c68 0 113 -44 113 -109c0 -62 -45 -103 -113 -103zM304 644c30 0 49 18 49 45c0 28 -19 47 -49 47c-29 0 -48 -19 -48 -47c0 -27 19 -45 48 -45zM304 -17c-148 0 -246 57 -246 226v309h165v-311c0 -53 24 -88 81 -88
c58 0 83 35 83 88v311h166v-309c0 -169 -100 -226 -249 -226z" />
    <glyph glyph-name="utilde" unicode="&#x169;" horiz-adv-x="610" 
d="M384 588c-60 0 -123 43 -161 43c-22 0 -31 -14 -33 -38h-72c3 84 36 137 107 137c61 0 122 -42 161 -42c21 0 31 13 34 37h71c-3 -84 -36 -137 -107 -137zM304 -17c-148 0 -246 57 -246 226v309h165v-311c0 -53 24 -88 81 -88c58 0 83 35 83 88v311h166v-309
c0 -169 -100 -226 -249 -226z" />
    <glyph glyph-name="wacute" unicode="&#x1e83;" horiz-adv-x="859" 
d="M626 739l-133 -157h-128l109 157h152zM693 518h156l-174 -518h-151l-109 332l-99 -332h-151l-160 518h169l86 -322l94 322h148l98 -327z" />
    <glyph glyph-name="wcircumflex" unicode="&#x175;" horiz-adv-x="859" 
d="M430 662l-61 -80h-129l109 157h160l110 -157h-129zM693 518h156l-174 -518h-151l-109 332l-99 -332h-151l-160 518h169l86 -322l94 322h148l98 -327z" />
    <glyph glyph-name="wdieresis" unicode="&#x1e85;" horiz-adv-x="859" 
d="M314 581c-48 0 -82 31 -82 80c0 51 34 85 82 85c49 0 83 -34 83 -85c0 -49 -34 -80 -83 -80zM545 581c-48 0 -83 31 -83 80c0 51 35 85 83 85c49 0 82 -34 82 -85c0 -49 -33 -80 -82 -80zM693 518h156l-174 -518h-151l-109 332l-99 -332h-151l-160 518h169l86 -322
l94 322h148l98 -327z" />
    <glyph glyph-name="wgrave" unicode="&#x1e81;" horiz-adv-x="859" 
d="M494 582h-128l-133 157h152zM693 518h156l-174 -518h-151l-109 332l-99 -332h-151l-160 518h169l86 -322l94 322h148l98 -327z" />
    <glyph glyph-name="yacute" unicode="&#xfd;" horiz-adv-x="559" 
d="M478 739l-133 -157h-128l109 157h152zM396 518h160l-233 -567c-36 -89 -96 -149 -194 -149c-40 0 -70 6 -91 11l10 126c4 -2 29 -6 62 -6c61 0 83 24 101 74l-209 511h172l114 -300z" />
    <glyph glyph-name="ycircumflex" unicode="&#x177;" horiz-adv-x="559" 
d="M282 662l-61 -80h-129l109 157h160l110 -157h-129zM396 518h160l-233 -567c-36 -89 -96 -149 -194 -149c-40 0 -70 6 -91 11l10 126c4 -2 29 -6 62 -6c61 0 83 24 101 74l-209 511h172l114 -300z" />
    <glyph glyph-name="ydieresis" unicode="&#xff;" horiz-adv-x="559" 
d="M165 581c-48 0 -82 31 -82 80c0 51 34 85 82 85c49 0 83 -34 83 -85c0 -49 -34 -80 -83 -80zM396 581c-48 0 -83 31 -83 80c0 51 35 85 83 85c49 0 82 -34 82 -85c0 -49 -33 -80 -82 -80zM396 518h160l-233 -567c-36 -89 -96 -149 -194 -149c-40 0 -70 6 -91 11l10 126
c4 -2 29 -6 62 -6c61 0 83 24 101 74l-209 511h172l114 -300z" />
    <glyph glyph-name="ygrave" unicode="&#x1ef3;" horiz-adv-x="559" 
d="M345 582h-128l-133 157h152zM396 518h160l-233 -567c-36 -89 -96 -149 -194 -149c-40 0 -70 6 -91 11l10 126c4 -2 29 -6 62 -6c61 0 83 24 101 74l-209 511h172l114 -300z" />
    <glyph glyph-name="zacute" unicode="&#x17a;" horiz-adv-x="496" 
d="M445 739l-133 -157h-128l109 157h152zM225 119h244v-119h-443v119l235 280h-222v119h421v-119z" />
    <glyph glyph-name="zcaron" unicode="&#x17e;" horiz-adv-x="496" 
d="M169 582l-110 157h129l60 -80l61 80h129l-110 -157h-159zM225 119h244v-119h-443v119l235 280h-222v119h421v-119z" />
    <glyph glyph-name="zdotaccent" unicode="&#x17c;" horiz-adv-x="496" 
d="M248 592c-59 0 -101 34 -101 85c0 53 42 88 101 88c60 0 101 -35 101 -88c0 -51 -41 -85 -101 -85zM225 119h244v-119h-443v119l235 280h-222v119h421v-119z" />
    <glyph glyph-name="zero.linTab" horiz-adv-x="646" 
d="M322 -15c-191 0 -290 160 -290 370s99 370 290 370c192 0 292 -160 292 -370s-100 -370 -292 -370zM322 116c83 0 116 93 116 239s-33 239 -116 239s-114 -93 -114 -239s31 -239 114 -239z" />
    <glyph glyph-name="one.linTab" horiz-adv-x="646" 
d="M324 710h107v-710h-173v542l-145 -58v138z" />
    <glyph glyph-name="two.linTab" horiz-adv-x="646" 
d="M256 136h327v-136h-518v136c173 139 328 239 328 360c0 58 -34 91 -89 91c-63 0 -96 -43 -119 -106l-133 49c28 122 127 197 268 197c144 0 242 -80 242 -218c0 -193 -199 -305 -306 -373z" />
    <glyph glyph-name="three.linTab" horiz-adv-x="646" 
d="M410 367c87 -15 162 -60 162 -172c0 -140 -124 -212 -264 -211c-120 -1 -207 35 -246 59l41 129c47 -21 110 -49 176 -49c68 0 111 33 111 87c0 65 -60 95 -162 95h-46v106h37c114 0 159 45 159 101c0 50 -36 77 -93 77c-55 0 -116 -21 -161 -49l-41 121
c44 35 136 66 233 66c137 0 230 -63 230 -182c0 -90 -55 -153 -136 -178z" />
    <glyph glyph-name="four.linTab" horiz-adv-x="646" 
d="M626 293v-103h-108v-190h-172v190h-324v118l331 402h165v-417h108zM140 293h206v241z" />
    <glyph glyph-name="five.linTab" horiz-adv-x="646" 
d="M388 456c132 0 215 -75 215 -218c0 -175 -132 -255 -290 -255c-136 0 -224 53 -270 80l54 121c58 -31 129 -66 197 -66c77 0 128 43 128 121c0 76 -48 110 -108 110c-65 0 -106 -41 -132 -66l-97 37l39 390h432v-132h-310l-19 -173c40 32 98 51 161 51z" />
    <glyph glyph-name="six.linTab" horiz-adv-x="646" 
d="M399 443c117 0 218 -68 218 -214c0 -153 -106 -246 -279 -246c-180 0 -295 118 -295 333c0 239 113 409 354 409c57 0 106 -10 149 -24l-20 -128c-34 10 -70 18 -110 18c-113 0 -187 -75 -194 -221c42 44 100 73 177 73zM334 108c67 0 108 42 108 117
c0 77 -45 111 -105 111c-48 0 -88 -22 -116 -75c0 -97 37 -153 113 -153z" />
    <glyph glyph-name="seven.linTab" horiz-adv-x="646" 
d="M74 710h504v-101c-86 -123 -212 -346 -244 -609h-188c42 251 162 455 249 577h-321v133z" />
    <glyph glyph-name="eight.linTab" horiz-adv-x="646" 
d="M449 395c87 -40 170 -91 170 -195c0 -135 -112 -215 -292 -215s-290 74 -290 205c0 93 81 143 155 169c-60 37 -109 88 -109 178c0 112 94 188 247 188c152 0 245 -73 245 -177c0 -78 -58 -126 -126 -153zM331 621c-50 0 -85 -29 -85 -77c0 -52 51 -82 115 -111
c30 27 57 63 57 105c0 53 -38 83 -87 83zM324 99c62 0 108 36 108 85c0 67 -69 96 -146 129c-46 -23 -73 -65 -73 -112c1 -64 50 -102 111 -102z" />
    <glyph glyph-name="nine.linTab" horiz-adv-x="646" 
d="M308 727c180 0 295 -118 295 -333c0 -239 -113 -409 -354 -409c-57 0 -106 10 -149 24l20 128c34 -10 70 -18 110 -18c113 0 187 75 194 221c-42 -44 -100 -73 -177 -73c-117 0 -218 68 -218 214c0 153 106 246 279 246zM309 374c48 0 88 22 116 75
c0 97 -37 153 -113 153c-67 0 -108 -42 -108 -117c0 -77 45 -111 105 -111z" />
    <glyph glyph-name="colon.cap" horiz-adv-x="300" 
d="M150 432c-61 0 -104 36 -104 95s43 100 104 100s103 -41 103 -100s-42 -95 -103 -95zM150 83c-61 0 -104 36 -104 95s43 99 104 99s103 -40 103 -99s-42 -95 -103 -95z" />
    <glyph glyph-name="colonmonetary" unicode="&#x20a1;" horiz-adv-x="649" 
d="M618 53c-42 -33 -104 -62 -192 -67l-13 -90h-78l14 91c-33 4 -63 10 -90 20l-17 -111h-78l23 148c-92 62 -146 170 -146 311c0 186 95 315 245 356l14 100h78l-13 -87c9 1 19 1 28 1c23 0 44 -2 65 -5l13 91h78l-16 -109c27 -10 50 -22 70 -35l-38 -153
c-15 11 -34 22 -56 31l-57 -390c57 7 95 29 127 53zM222 358c0 -117 63 -186 152 -201l60 404c-7 1 -13 1 -20 1c-101 0 -192 -69 -192 -204z" />
    <glyph glyph-name="cent.bar" horiz-adv-x="520" 
d="M503 39c-29 -17 -73 -43 -142 -51v-92h-73v90c-162 10 -252 121 -252 277s97 261 252 271v90h73v-92c59 -7 105 -26 131 -46l-39 -134c-20 13 -51 27 -92 31v-242c43 3 74 17 100 32zM213 263c0 -53 27 -96 75 -114v227c-46 -17 -75 -59 -75 -113z" />
    <glyph glyph-name="colonmonetary.bar" horiz-adv-x="649" 
d="M618 53c-38 -30 -93 -56 -168 -65l-14 -92h-77l13 90c-21 1 -42 3 -63 7l-14 -97h-78l18 121c-121 54 -194 174 -194 338c0 207 118 344 299 367l13 89h78l-13 -87c22 -1 43 -4 63 -8l14 95h77l-18 -118c18 -8 35 -17 49 -26l-38 -153c-10 7 -21 14 -34 21l-56 -376
c45 9 77 28 104 49zM335 167c19 -7 40 -12 62 -13l60 405c-13 2 -28 3 -43 3c-7 0 -13 0 -20 -1zM222 358c0 -59 16 -105 43 -139l47 316c-53 -32 -90 -91 -90 -177z" />
    <glyph glyph-name="dollar.bar" horiz-adv-x="586" 
d="M554 213c0 -142 -94 -218 -221 -229v-88h-73v88c-118 9 -190 58 -241 120l71 112c50 -44 103 -85 170 -93v155c-94 37 -212 82 -212 232c0 134 98 204 212 215v89h73v-88c98 -8 160 -47 204 -102l-74 -107c-42 34 -82 62 -130 70v-145c97 -38 221 -83 221 -229zM221 528
c0 -24 15 -40 39 -54v107c-24 -10 -39 -28 -39 -53zM333 131c25 11 39 31 39 56c0 26 -15 44 -39 58v-114z" />
    <glyph glyph-name="u1F16A" unicode="&#x1f16a;" horiz-adv-x="799" 
d="M341 198l74 323h27l-75 -323h-26zM713 261c11 -2 17 1 26 6l7 -22c-7 -7 -20 -12 -36 -10c-50 -2 -73 54 -73 142s23 144 73 144c16 0 29 -5 36 -10l-7 -22c-9 3 -15 6 -26 6c-28 0 -49 -28 -49 -117c0 -91 21 -119 49 -117zM143 515v-24h-35v-251h-24v251h-36v24h95z
M278 515h27l17 -275h-26l-12 196l-37 -196h-16l-37 193l-12 -193h-23l16 275h27l38 -196zM575 515h28l15 -275h-24l-13 193l-36 -193h-16l-38 196l-11 -196h-25l17 275h27l38 -196z" />
    <glyph glyph-name="copyright.cap" horiz-adv-x="360" 
d="M184 450c-69 0 -136 51 -136 137c0 87 67 138 136 138c70 0 138 -51 138 -138c0 -86 -68 -137 -138 -137zM184 470c56 0 114 38 114 117c0 81 -58 118 -114 118c-54 0 -112 -37 -112 -118c0 -79 58 -117 112 -117zM186 518c-35 0 -63 24 -63 70s28 71 63 71
c17 0 28 -5 38 -12l-9 -21c-7 5 -15 8 -27 8c-22 0 -39 -13 -39 -46s16 -46 39 -46c15 0 23 4 32 11l9 -20c-11 -10 -23 -15 -43 -15z" />
    <glyph glyph-name="registered.cap" horiz-adv-x="360" 
d="M184 725c70 0 138 -51 138 -138c0 -86 -68 -137 -138 -137c-69 0 -136 51 -136 137c0 87 67 138 136 138zM184 470c56 0 114 38 114 117c0 81 -58 118 -114 118c-54 0 -112 -37 -112 -118c0 -79 58 -117 112 -117zM237 613c0 -20 -12 -34 -29 -40l33 -49h-31l-27 46h-16
v-46h-26v128h48c28 0 48 -12 48 -39zM167 631v-44h17c14 0 25 8 25 24c0 14 -10 20 -25 20h-17z" />
    <glyph glyph-name="copyright.star" horiz-adv-x="803" 
d="M368 -15c-185 0 -368 136 -368 370s183 370 368 370c186 0 369 -136 369 -370s-183 -370 -369 -370zM368 25c157 0 322 110 322 330s-165 330 -322 330s-321 -110 -321 -330s164 -330 321 -330zM382 134c-114 0 -205 78 -205 227c0 150 92 228 205 228
c55 0 90 -15 123 -38l-14 -53c-29 21 -55 32 -105 32c-71 0 -144 -48 -144 -168s70 -169 144 -169c57 0 88 16 118 45l17 -54c-34 -30 -74 -50 -139 -50zM390 461l-21 -62l-63 -1l49 -41l-17 -62l52 37l53 -37l-17 62l50 41l-64 1z" />
    <glyph glyph-name="copyright.x" horiz-adv-x="360" 
d="M184 260c-69 0 -136 51 -136 137c0 87 67 138 136 138c70 0 138 -51 138 -138c0 -86 -68 -137 -138 -137zM184 280c56 0 114 38 114 117c0 81 -58 118 -114 118c-54 0 -112 -37 -112 -118c0 -79 58 -117 112 -117zM186 328c-35 0 -63 24 -63 70s28 71 63 71
c17 0 28 -5 38 -12l-9 -21c-7 5 -15 8 -27 8c-22 0 -39 -13 -39 -46s16 -46 39 -46c15 0 23 4 32 11l9 -20c-11 -10 -23 -15 -43 -15z" />
    <glyph glyph-name="registered.x" horiz-adv-x="360" 
d="M184 535c70 0 138 -51 138 -138c0 -86 -68 -137 -138 -137c-69 0 -136 51 -136 137c0 87 67 138 136 138zM184 280c56 0 114 38 114 117c0 81 -58 118 -114 118c-54 0 -112 -37 -112 -118c0 -79 58 -117 112 -117zM237 423c0 -20 -12 -34 -29 -40l33 -49h-31l-27 46h-16
v-46h-26v128h48c28 0 48 -12 48 -39zM167 441v-44h17c14 0 25 8 25 24c0 14 -10 20 -25 20h-17z" />
    <glyph glyph-name="trademark.x" horiz-adv-x="658" 
d="M249 518v-54h-68v-221h-64v221h-69v54h201zM610 243h-60l-24 192l-67 -192h-43l-66 191l-22 -191h-56l31 275h71l66 -186l66 186h73z" />
    <glyph glyph-name="uni0308" unicode="&#x308;" 
d="M-363 581c-48 0 -82 31 -82 80c0 51 34 85 82 85c49 0 83 -34 83 -85c0 -49 -34 -80 -83 -80zM-132 581c-48 0 -83 31 -83 80c0 51 35 85 83 85c49 0 82 -34 82 -85c0 -49 -33 -80 -82 -80z" />
    <glyph glyph-name="uni0307" unicode="&#x307;" 
d="M-151 592c-59 0 -101 34 -101 85c0 53 42 88 101 88c60 0 101 -35 101 -88c0 -51 -41 -85 -101 -85z" />
    <glyph glyph-name="gravecomb" unicode="&#x300;" 
d="M-311 739h152l109 -157h-128z" />
    <glyph glyph-name="acutecomb" unicode="&#x301;" 
d="M-311 582l109 157h152l-133 -157h-128z" />
    <glyph glyph-name="uni030B" unicode="&#x30b;" 
d="M-531 582l111 157h154l-136 -157h-129zM-314 582l111 157h153l-136 -157h-128z" />
    <glyph glyph-name="uni030C.alt" 
d="M-179 750h129l-41 -174h-104z" />
    <glyph glyph-name="uni0302" unicode="&#x302;" 
d="M-50 582h-129l-60 80l-61 -80h-129l109 157h160z" />
    <glyph glyph-name="uni030C" unicode="&#x30c;" 
d="M-179 739h129l-110 -157h-159l-110 157h129l60 -80z" />
    <glyph glyph-name="uni0306" unicode="&#x306;" 
d="M-217 578c-104 0 -166 53 -168 161h103c4 -52 29 -72 65 -72s61 20 64 72h103c-7 -108 -66 -161 -167 -161z" />
    <glyph glyph-name="uni030A" unicode="&#x30a;" 
d="M-163 584c-69 0 -114 41 -114 103c0 65 45 109 114 109c68 0 113 -44 113 -109c0 -62 -45 -103 -113 -103zM-164 644c30 0 49 18 49 45c0 28 -19 47 -49 47c-29 0 -48 -19 -48 -47c0 -27 19 -45 48 -45z" />
    <glyph glyph-name="tildecomb" unicode="&#x303;" 
d="M-157 588c-60 0 -123 43 -161 43c-22 0 -31 -14 -33 -38h-72c3 84 36 137 107 137c61 0 122 -42 161 -42c21 0 31 13 34 37h71c-3 -84 -36 -137 -107 -137z" />
    <glyph glyph-name="uni0304" unicode="&#x304;" 
d="M-332 695h282v-97h-282v97z" />
    <glyph glyph-name="uni0312" unicode="&#x312;" 
d="M-102 702c30 -5 50 -27 50 -59c0 -38 -31 -64 -68 -64c-38 0 -68 21 -68 71c0 58 40 121 92 164l46 -42c-22 -21 -42 -47 -52 -70z" />
    <glyph glyph-name="uni0326" unicode="&#x326;" 
d="M-118 -54c38 0 68 -21 68 -72c0 -57 -41 -120 -92 -163l-46 42c21 21 42 47 52 70c-30 5 -51 28 -51 59c0 38 32 64 69 64z" />
    <glyph glyph-name="uni0327" unicode="&#x327;" 
d="M-203 -230c-50 0 -91 14 -130 41l38 59c33 -21 59 -31 85 -31c22 0 42 8 42 28c0 19 -14 27 -37 27c-14 0 -23 -3 -36 -6l-44 27l69 85h85l-40 -50c7 1 15 2 26 2c60 0 95 -34 95 -84c0 -61 -59 -98 -153 -98z" />
    <glyph glyph-name="uni0328" unicode="&#x328;" 
d="M-173 -233c-83 0 -134 42 -134 112c0 56 32 97 101 129l114 -8c-51 -20 -97 -55 -97 -95c0 -26 17 -39 41 -39c23 0 38 6 58 21l40 -76c-25 -23 -58 -44 -123 -44z" />
    <glyph glyph-name="acute" unicode="&#xb4;" horiz-adv-x="600" 
d="M50 582l108 157h152l-132 -157h-128z" />
    <glyph glyph-name="breve" unicode="&#x2d8;" horiz-adv-x="600" 
d="M237 578c-104 0 -165 53 -167 161h103c4 -52 29 -72 64 -72c37 0 62 20 65 72h103c-7 -108 -66 -161 -168 -161z" />
    <glyph glyph-name="caron" unicode="&#x2c7;" horiz-adv-x="600" 
d="M318 739h129l-110 -157h-159l-110 157h129l61 -80z" />
    <glyph glyph-name="cedilla" unicode="&#xb8;" horiz-adv-x="600" 
d="M201 -230c-50 0 -92 14 -130 41l37 59c33 -21 60 -31 86 -31c22 0 41 8 41 28c0 19 -14 27 -36 27c-14 0 -24 -3 -37 -6l-43 27l69 85h85l-41 -50c8 1 16 2 26 2c60 0 95 -34 95 -84c0 -61 -58 -98 -152 -98z" />
    <glyph glyph-name="circumflex" unicode="&#x2c6;" horiz-adv-x="600" 
d="M447 582h-129l-60 80l-61 -80h-129l109 157h161z" />
    <glyph glyph-name="dieresis" unicode="&#xa8;" horiz-adv-x="600" 
d="M151 581c-49 0 -83 31 -83 80c0 51 34 85 83 85s82 -34 82 -85c0 -49 -33 -80 -82 -80zM381 581c-48 0 -82 31 -82 80c0 51 34 85 82 85c49 0 82 -34 82 -85c0 -49 -33 -80 -82 -80z" />
    <glyph glyph-name="dotaccent" unicode="&#x2d9;" horiz-adv-x="600" 
d="M169 592c-59 0 -101 34 -101 85c0 53 42 88 101 88c60 0 101 -35 101 -88c0 -51 -41 -85 -101 -85z" />
    <glyph glyph-name="grave" unicode="`" horiz-adv-x="600" 
d="M77 739h152l109 -157h-128z" />
    <glyph glyph-name="hungarumlaut" unicode="&#x2dd;" horiz-adv-x="600" 
d="M68 582l111 157h154l-136 -157h-129zM285 582l111 157h154l-137 -157h-128z" />
    <glyph glyph-name="macron" unicode="&#xaf;" horiz-adv-x="600" 
d="M68 695h282v-97h-282v97z" />
    <glyph glyph-name="ogonek" unicode="&#x2db;" horiz-adv-x="600" 
d="M210 -233c-82 0 -134 42 -134 112c0 56 32 97 102 129l114 -8c-52 -20 -97 -55 -97 -95c0 -26 17 -39 40 -39s38 6 59 21l39 -76c-25 -23 -58 -44 -123 -44z" />
    <glyph glyph-name="ring" unicode="&#x2da;" horiz-adv-x="600" 
d="M182 584c-69 0 -114 41 -114 103c0 65 45 109 114 109c68 0 113 -44 113 -109c0 -62 -45 -103 -113 -103zM182 644c29 0 48 18 48 45c0 28 -19 47 -48 47c-30 0 -49 -19 -49 -47c0 -27 19 -45 49 -45z" />
    <glyph glyph-name="tilde" unicode="&#x2dc;" horiz-adv-x="600" 
d="M334 588c-60 0 -123 43 -160 43c-23 0 -31 -14 -34 -38h-72c4 84 36 137 108 137c60 0 121 -42 160 -42c21 0 31 13 34 37h72c-4 -84 -37 -137 -108 -137z" />
    <glyph glyph-name="uni0308.case" 
d="M-367 766c-43 0 -72 26 -72 72c0 45 29 75 72 75c45 0 74 -30 74 -75c0 -46 -29 -72 -74 -72zM-154 766c-43 0 -73 26 -73 72c0 45 30 75 73 75s73 -30 73 -75c0 -46 -30 -72 -73 -72z" />
    <glyph glyph-name="uni0307.case" 
d="M-281 768c-50 0 -86 27 -86 73c0 45 36 77 86 77c52 0 87 -32 87 -77c0 -46 -35 -73 -87 -73z" />
    <glyph glyph-name="gravecomb.case" 
d="M-329 767l-167 133h154l145 -133h-132z" />
    <glyph glyph-name="acutecomb.case" 
d="M-245 900h154l-167 -133h-133z" />
    <glyph glyph-name="uni030B.case" 
d="M-398 900h157l-170 -133h-132zM-178 900h157l-170 -133h-132z" />
    <glyph glyph-name="uni0302.case" 
d="M-93 767h-131l-64 75l-64 -75h-131l127 133h135z" />
    <glyph glyph-name="uni030C.case" 
d="M-241 900h132l-128 -133h-135l-128 133h131l64 -76z" />
    <glyph glyph-name="uni0306.case" 
d="M-256 763c-103 0 -165 49 -168 137h103c6 -39 30 -56 65 -56c36 0 61 17 65 56h103c-8 -88 -66 -137 -168 -137z" />
    <glyph glyph-name="uni030A.case" 
d="M-250 766c-62 0 -103 37 -103 94c0 60 41 99 103 99c63 0 103 -40 103 -99c0 -57 -40 -94 -103 -94zM-250 817c29 0 48 17 48 44c0 28 -19 47 -48 47s-48 -19 -48 -47c0 -27 19 -44 48 -44z" />
    <glyph glyph-name="tildecomb.case" 
d="M-170 763c-60 0 -123 42 -160 42c-22 0 -31 -13 -33 -37h-72c4 83 36 135 107 135c60 0 121 -42 160 -42c21 0 30 14 33 37h71c-4 -83 -36 -135 -106 -135z" />
    <glyph glyph-name="uni0304.case" 
d="M-396 880h292v-98h-292v98z" />
    <glyph glyph-name="uni0326.case" 
d="M-147 -58c39 0 68 -21 68 -71c0 -58 -40 -121 -91 -164l-46 43c22 21 42 47 52 69c-30 6 -51 27 -51 59c0 38 31 64 68 64z" />
    <glyph glyph-name="uni0327.case" 
d="M-263 -230c-50 0 -92 14 -130 41l37 59c34 -21 60 -31 86 -31c22 0 41 8 41 28c0 19 -13 27 -36 27c-14 0 -24 -3 -37 -6l-43 27l69 85h85l-40 -50c7 1 15 2 26 2c59 0 94 -31 94 -84c0 -61 -58 -98 -152 -98z" />
    <glyph glyph-name="uni0328.case" 
d="M-290 -233c-82 0 -134 42 -134 112c0 56 32 97 102 129l114 -8c-52 -20 -97 -55 -97 -95c0 -26 17 -39 40 -39s38 6 59 21l39 -76c-25 -23 -58 -44 -123 -44z" />
    <glyph glyph-name="bowl" horiz-adv-x="618" 
d="M248 -17c-132 0 -235 99 -235 277s102 275 235 275c153 0 211 -126 211 -275c0 -151 -58 -277 -211 -277zM302 126c69 0 113 61 113 134c-1 76 -44 133 -113 133c-71 0 -112 -52 -112 -133s41 -134 112 -134z" />
    </font>
</defs>
</svg>
