<?xml version="1.0" standalone="no"?>
<!DOCTYPE svg PUBLIC "-//W3C//DTD SVG 1.1//EN" "http://www.w3.org/Graphics/SVG/1.1/DTD/svg11.dtd" >
<svg xmlns="http://www.w3.org/2000/svg" xmlns:xlink="http://www.w3.org/1999/xlink" version="1.1">
<metadata>
Created by FontForge 20190801 at Thu May 23 12:49:35 2019
 By Jimmy Wärting
copyright missing
</metadata>
<defs>
<font id="SoDoSans-Regular" horiz-adv-x="0" >
  <font-face 
    font-family="SoDo Sans"
    font-weight="400"
    font-stretch="normal"
    units-per-em="1000"
    panose-1="0 0 5 0 0 0 0 0 0 0"
    ascent="800"
    descent="-200"
    x-height="502"
    cap-height="710"
    bbox="-493 -251 1291 937"
    underline-thickness="50"
    underline-position="-100"
    stemh="68"
    stemv="97"
    unicode-range="U+0020-1F16A"
  />
<missing-glyph horiz-adv-x="473" 
d="M388 750v-946h-300v946h300zM315 687h-156v-32h61v-35h-62v-31h157v31h-62v35h62v32zM253 565h-95v-99h157v32h-62v67zM220 532v-34h-31v34h31zM315 441h-157v-32h62v-35h-62v-31h95v66h62v32zM315 384h-31v-63h-126v-32h157v95zM315 268h-95v-52h33v21h31v-44h-95v75
h-31v-106h157v106zM315 105h-157v-107h157v107zM284 74v-45h-95v45h95zM315 -24h-157v-31h66l-66 -45v-31h157v31h-96l66 45h30v31z" />
    <glyph glyph-name=".notdef" horiz-adv-x="473" 
d="M388 750v-946h-300v946h300zM315 687h-156v-32h61v-35h-62v-31h157v31h-62v35h62v32zM253 565h-95v-99h157v32h-62v67zM220 532v-34h-31v34h31zM315 441h-157v-32h62v-35h-62v-31h95v66h62v32zM315 384h-31v-63h-126v-32h157v95zM315 268h-95v-52h33v21h31v-44h-95v75
h-31v-106h157v106zM315 105h-157v-107h157v107zM284 74v-45h-95v45h95zM315 -24h-157v-31h66l-66 -45v-31h157v31h-96l66 45h30v31z" />
    <glyph glyph-name="space" unicode=" " horiz-adv-x="233" 
 />
    <glyph glyph-name="uni2009" unicode="&#x2009;" horiz-adv-x="42" 
 />
    <glyph glyph-name="A" unicode="A" horiz-adv-x="668" 
d="M532 0l-68 202h-266l-69 -202h-101l252 710h109l251 -710h-108zM225 279h213l-106 312z" />
    <glyph glyph-name="B" unicode="B" horiz-adv-x="621" 
d="M422 365c85 -17 148 -64 148 -166c0 -133 -98 -199 -235 -199h-242v710h212c127 0 230 -53 230 -184c0 -86 -46 -137 -113 -161zM290 627h-97v-227h97c80 0 137 28 137 112c0 85 -57 115 -137 115zM323 83c79 0 137 35 137 118s-61 120 -137 120h-130v-238h130z" />
    <glyph glyph-name="C" unicode="C" horiz-adv-x="668" 
d="M382 -15c-182 0 -335 140 -335 370s149 370 330 370c113 0 184 -33 240 -81l-41 -89c-41 43 -102 76 -185 76c-120 0 -240 -92 -240 -276s121 -276 242 -276c97 0 159 39 206 91l41 -83c-55 -61 -134 -102 -258 -102z" />
    <glyph glyph-name="D" unicode="D" horiz-adv-x="690" 
d="M93 710h203c202 0 347 -122 347 -355c0 -232 -144 -355 -347 -355h-203v710zM289 85c133 0 244 68 244 270c0 200 -113 270 -244 270h-96v-540h96z" />
    <glyph glyph-name="E" unicode="E" horiz-adv-x="521" 
d="M471 625h-278v-216h238v-83h-238v-241h278v-85h-378v710h378v-85z" />
    <glyph glyph-name="F" unicode="F" horiz-adv-x="490" 
d="M463 625h-270v-226h227v-83h-227v-316h-100v710h370v-85z" />
    <glyph glyph-name="G" unicode="G" horiz-adv-x="747" 
d="M405 362h313v-33c0 -246 -144 -344 -323 -344c-191 0 -348 147 -348 370s162 370 348 370c132 0 215 -47 279 -125l-70 -68c-47 59 -116 102 -208 102c-118 0 -243 -94 -243 -279s124 -279 243 -279c110 0 202 50 227 200h-218v86z" />
    <glyph glyph-name="H" unicode="H" horiz-adv-x="741" 
d="M548 710h100v-710h-100v323h-355v-323h-100v710h100v-302h355v302z" />
    <glyph glyph-name="I" unicode="I" horiz-adv-x="286" 
d="M93 710h100v-710h-100v710z" />
    <glyph glyph-name="J" unicode="J" horiz-adv-x="419" 
d="M119 -8c-48 0 -74 6 -90 9l7 90c13 -1 37 -5 76 -5c82 0 114 41 114 157v467h100v-485c0 -174 -75 -233 -207 -233z" />
    <glyph glyph-name="K" unicode="K" horiz-adv-x="634" 
d="M488 0l-217 310l-78 -98v-212h-100v710h100v-357l280 357h120l-254 -318l272 -392h-123z" />
    <glyph glyph-name="L" unicode="L" horiz-adv-x="486" 
d="M193 85h248v-85h-348v710h100v-625z" />
    <glyph glyph-name="M" unicode="M" horiz-adv-x="961" 
d="M888 0h-101l-68 532l-207 -532h-66l-213 535l-64 -535h-96l88 710h98l222 -549l220 549h99z" />
    <glyph glyph-name="N" unicode="N" horiz-adv-x="747" 
d="M556 710h98v-710h-101l-362 549v-549h-98v710h105l358 -524v524z" />
    <glyph glyph-name="O" unicode="O" horiz-adv-x="803" 
d="M401 -15c-186 0 -354 148 -354 370s168 370 354 370c187 0 355 -148 355 -370s-168 -370 -355 -370zM401 77c122 0 249 92 249 278s-127 278 -249 278s-248 -92 -248 -278s126 -278 248 -278z" />
    <glyph glyph-name="P" unicode="P" horiz-adv-x="605" 
d="M302 710c149 0 258 -71 258 -233c0 -161 -108 -250 -258 -250h-109v-227h-100v710h209zM287 306c104 0 163 59 163 162c0 102 -60 160 -163 160h-94v-322h94z" />
    <glyph glyph-name="Q" unicode="Q" horiz-adv-x="803" 
d="M756 355c0 -117 -47 -214 -119 -279l84 -106l-79 -56l-85 107c-48 -23 -101 -36 -156 -36c-186 0 -354 148 -354 370s168 370 354 370c187 0 355 -148 355 -370zM401 77c32 0 65 6 96 19l-78 98l80 57l78 -99c44 46 73 114 73 203c0 186 -127 278 -249 278
s-248 -92 -248 -278s126 -278 248 -278z" />
    <glyph glyph-name="R" unicode="R" horiz-adv-x="637" 
d="M472 0l-181 276h-98v-276h-100v710h224c149 0 258 -58 258 -208c0 -121 -70 -194 -175 -217l192 -285h-120zM193 625v-269h118c95 0 153 42 153 135c0 94 -60 134 -153 134h-118z" />
    <glyph glyph-name="S" unicode="S" horiz-adv-x="546" 
d="M274 -15c-121 0 -199 54 -248 150l69 53c43 -68 97 -120 181 -120c74 0 121 42 121 102c0 51 -33 83 -78 110c-98 61 -256 99 -256 256c0 119 90 189 210 189c101 0 172 -45 215 -121l-72 -54c-32 50 -72 92 -142 92c-65 0 -110 -38 -110 -95c0 -47 30 -77 73 -103
c100 -62 267 -99 267 -261c0 -127 -98 -198 -230 -198z" />
    <glyph glyph-name="T" unicode="T" horiz-adv-x="544" 
d="M510 710v-85h-188v-625h-100v625h-188v85h476z" />
    <glyph glyph-name="U" unicode="U" horiz-adv-x="705" 
d="M350 -15c-166 0 -267 99 -267 284v441h101l-2 -435c-1 -130 71 -197 168 -197c101 0 170 67 170 197v435h102v-441c0 -185 -101 -284 -272 -284z" />
    <glyph glyph-name="V" unicode="V" horiz-adv-x="640" 
d="M515 710h106l-255 -710h-93l-254 710h110l192 -560z" />
    <glyph glyph-name="W" unicode="W" horiz-adv-x="1070" 
d="M946 710h105l-242 -710h-88l-186 554l-187 -554h-88l-241 710h110l177 -546l186 546h90l186 -546z" />
    <glyph glyph-name="X" unicode="X" horiz-adv-x="629" 
d="M605 710l-227 -361l224 -349h-119l-177 274l-172 -274h-114l229 363l-223 347h120l177 -276l167 276h115z" />
    <glyph glyph-name="Y" unicode="Y" horiz-adv-x="602" 
d="M588 710l-233 -424v-286h-110v288l-232 422h121l170 -318l169 318h115z" />
    <glyph glyph-name="Z" unicode="Z" horiz-adv-x="574" 
d="M62 91l321 529h-302v90h429v-90l-325 -529h329v-91h-452v91z" />
    <glyph glyph-name="a" unicode="a" horiz-adv-x="566" 
d="M495 0h-96c-5 12 -10 29 -11 59c-39 -43 -103 -74 -171 -74c-90 0 -165 37 -165 144c0 124 117 180 336 186v20c0 62 -37 98 -108 99s-116 -32 -150 -71l-53 57c32 47 110 98 207 98c104 0 200 -44 200 -189v-258c0 -24 4 -52 11 -71zM242 63c61 0 114 31 146 80v105
c-136 -2 -231 -35 -231 -113c0 -45 29 -72 85 -72z" />
    <glyph glyph-name="b" unicode="b" horiz-adv-x="637" 
d="M351 518c132 0 235 -101 235 -267s-103 -266 -235 -266c-86 0 -142 38 -174 99v-84h-90v750h97v-320c33 54 87 88 167 88zM329 73c98 0 156 71 156 178s-58 179 -156 179c-95 0 -151 -80 -152 -179c-1 -98 57 -178 152 -178z" />
    <glyph glyph-name="c" unicode="c" horiz-adv-x="520" 
d="M52 251c0 154 105 267 257 267c76 0 137 -27 170 -57l-35 -82c-26 25 -72 49 -132 49c-98 0 -158 -79 -158 -177s64 -177 161 -177c65 0 107 23 141 53l37 -75c-28 -24 -83 -67 -183 -67c-166 0 -258 113 -258 266z" />
    <glyph glyph-name="d" unicode="d" horiz-adv-x="637" 
d="M454 750h96v-750h-89l-1 84c-32 -61 -87 -99 -173 -99c-132 0 -235 100 -235 266s103 267 235 267c80 0 134 -34 167 -90v322zM308 73c96 0 153 80 153 178c-1 99 -57 179 -153 179c-98 0 -156 -72 -156 -179s58 -178 156 -178z" />
    <glyph glyph-name="e" unicode="e" horiz-adv-x="583" 
d="M538 270v-40h-383c9 -105 82 -157 172 -157c70 0 118 28 160 72l50 -65c-42 -48 -113 -95 -220 -95c-161 0 -265 106 -265 266c0 156 105 267 248 267c141 0 238 -100 238 -248zM300 432c-72 0 -128 -46 -143 -134h279c-10 85 -62 134 -136 134z" />
    <glyph glyph-name="f" unicode="f" horiz-adv-x="357" 
d="M301 673c-63 0 -87 -26 -87 -84v-87h123v-81h-123v-421h-97v421h-85v81h85v100c0 90 55 154 166 154c20 0 40 -2 58 -5v-79c-14 1 -25 1 -40 1z" />
    <glyph glyph-name="g" unicode="g" horiz-adv-x="558" 
d="M343 78c115 0 179 -41 179 -127c0 -87 -71 -159 -263 -159c-133 0 -229 28 -229 114c0 54 42 86 79 105c-25 13 -47 37 -47 81c0 51 37 80 77 108c-46 32 -74 81 -74 141c0 104 86 177 207 177c50 0 94 -12 129 -33l91 75l53 -56l-92 -67c20 -27 31 -60 31 -96
c0 -105 -90 -179 -212 -179c-27 0 -52 4 -75 11c-22 -16 -41 -33 -41 -54c0 -20 16 -36 73 -38zM275 446c-64 0 -114 -37 -114 -105c0 -69 50 -107 114 -107s111 38 111 107c0 68 -47 105 -111 105zM267 -139c99 0 166 25 166 76c0 39 -26 55 -111 57l-150 3
c-28 -17 -47 -39 -47 -69c0 -42 37 -67 142 -67z" />
    <glyph glyph-name="h" unicode="h" horiz-adv-x="622" 
d="M365 518c113 0 170 -61 170 -177v-341h-96v310c0 87 -36 125 -110 125c-63 0 -115 -42 -145 -98v-337h-97v750h97v-315c42 53 107 83 181 83z" />
    <glyph glyph-name="i" unicode="i" horiz-adv-x="298" 
d="M149 609c-38 0 -66 24 -66 59c0 36 28 61 66 61c39 0 67 -25 67 -61c0 -35 -28 -59 -67 -59zM101 502h96v-502h-96v502z" />
    <glyph glyph-name="j" unicode="j" horiz-adv-x="298" 
d="M149 609c-38 0 -66 24 -66 59c0 36 28 61 66 61c39 0 67 -25 67 -61c0 -35 -28 -59 -67 -59zM-26 -203v81c13 -1 24 -2 39 -2c63 0 88 28 88 87v539h96v-553c0 -89 -54 -155 -156 -155c-28 0 -49 1 -67 3z" />
    <glyph glyph-name="k" unicode="k" horiz-adv-x="534" 
d="M414 0l-177 217l-53 -54v-163h-97v750h97v-482l213 234h113l-209 -218l227 -284h-114z" />
    <glyph glyph-name="l" unicode="l" horiz-adv-x="271" 
d="M87 750h97v-750h-97v750z" />
    <glyph glyph-name="m" unicode="m" horiz-adv-x="957" 
d="M699 518c114 0 171 -61 171 -177v-341h-97v310c0 87 -36 125 -109 125c-66 0 -113 -46 -139 -107v-328h-96v310c0 87 -36 125 -110 125c-63 0 -108 -42 -135 -98v-337h-97v502h97v-64c39 52 99 80 171 80c85 0 138 -34 159 -100c38 64 104 100 185 100z" />
    <glyph glyph-name="n" unicode="n" horiz-adv-x="622" 
d="M365 518c113 0 170 -61 170 -177v-341h-96v310c0 87 -36 125 -110 125c-64 0 -116 -43 -145 -100v-335h-97v502h97v-67c42 53 107 83 181 83z" />
    <glyph glyph-name="o" unicode="o" horiz-adv-x="621" 
d="M310 -15c-143 0 -258 108 -258 266c0 159 115 267 259 267c143 0 259 -108 259 -267c0 -158 -116 -266 -260 -266zM310 73c90 0 156 67 156 178c0 112 -66 179 -156 179c-89 0 -154 -67 -154 -179c0 -111 65 -178 154 -178z" />
    <glyph glyph-name="p" unicode="p" horiz-adv-x="642" 
d="M356 518c132 0 235 -101 235 -267s-103 -266 -235 -266c-84 0 -140 37 -172 96v-277h-97v698h90v-94c31 68 88 110 179 110zM334 72c98 0 156 72 156 179s-58 179 -156 179c-95 0 -153 -80 -152 -179c1 -98 57 -179 152 -179z" />
    <glyph glyph-name="q" unicode="q" horiz-adv-x="642" 
d="M466 502h89v-698h-96v280c-32 -61 -88 -99 -172 -99c-132 0 -235 100 -235 266s103 267 235 267c91 0 147 -42 178 -110zM308 72c96 0 152 81 153 179c0 99 -57 179 -153 179c-98 0 -156 -72 -156 -179s58 -179 156 -179z" />
    <glyph glyph-name="r" unicode="r" horiz-adv-x="401" 
d="M184 401c29 66 95 110 173 110v-98c-79 -6 -161 -45 -173 -181v-232h-97v502h97v-101z" />
    <glyph glyph-name="s" unicode="s" horiz-adv-x="472" 
d="M247 -15c-114 0 -171 49 -207 88l53 70c35 -43 88 -78 150 -78c50 0 84 24 84 66c0 43 -28 61 -108 85c-78 23 -154 57 -154 155c0 97 82 147 175 147c90 0 144 -33 175 -76l-54 -61c-29 29 -66 59 -116 59c-48 0 -81 -23 -81 -60c0 -47 50 -65 115 -83
c85 -28 148 -61 148 -152c0 -106 -81 -160 -180 -160z" />
    <glyph glyph-name="t" unicode="t" horiz-adv-x="399" 
d="M361 75l3 -78c-19 -5 -51 -12 -98 -12c-105 0 -155 42 -155 150v288h-80v79h80v130l96 20v-150h143v-79h-143v-275c0 -69 38 -80 93 -80c20 0 45 3 61 7z" />
    <glyph glyph-name="u" unicode="u" horiz-adv-x="581" 
d="M290 -15c-129 0 -216 58 -216 219v298h96v-300c0 -84 40 -132 120 -132c81 0 120 48 120 132v300h97v-298c0 -161 -88 -219 -217 -219z" />
    <glyph glyph-name="v" unicode="v" horiz-adv-x="535" 
d="M401 502h103l-190 -502h-97l-188 502h104l134 -381z" />
    <glyph glyph-name="w" unicode="w" horiz-adv-x="831" 
d="M703 502h97l-169 -502h-94l-130 383l-123 -383h-94l-161 502h102l115 -378l120 378h97l123 -377z" />
    <glyph glyph-name="x" unicode="x" horiz-adv-x="542" 
d="M512 502l-183 -255l180 -247h-110l-133 183l-129 -183h-105l182 255l-180 247h109l134 -184l128 184h107z" />
    <glyph glyph-name="y" unicode="y" horiz-adv-x="534" 
d="M404 502h100l-230 -594c-27 -70 -72 -120 -159 -120c-33 0 -59 6 -78 11l8 77c11 -3 29 -8 61 -8c47 0 73 17 93 72l27 74l-198 488h108l138 -356z" />
    <glyph glyph-name="z" unicode="z" horiz-adv-x="460" 
d="M148 75h281v-75h-398v76l272 351h-260v75h376v-75z" />
    <glyph glyph-name="zero" unicode="0" horiz-adv-x="717" 
d="M358 -15c-183 0 -302 159 -302 370s119 370 302 370c184 0 304 -159 304 -370s-120 -370 -304 -370zM358 74c123 0 196 113 196 281s-73 281 -196 281s-196 -113 -196 -281s73 -281 196 -281z" />
    <glyph glyph-name="one" unicode="1" horiz-adv-x="431" 
d="M222 710h66v-710h-101v602l-122 -55v91z" />
    <glyph glyph-name="two" unicode="2" horiz-adv-x="623" 
d="M193 87h355v-87h-481v87c160 135 347 277 347 425c0 82 -49 123 -120 123c-81 0 -130 -55 -158 -120l-77 41c28 86 107 169 243 169s217 -85 217 -210c0 -194 -206 -338 -326 -428z" />
    <glyph glyph-name="three" unicode="3" horiz-adv-x="559" 
d="M335 365c91 -14 160 -62 160 -173c0 -136 -117 -207 -237 -207c-118 0 -190 41 -225 69l37 80c36 -25 97 -59 174 -59c76 0 145 38 145 119c0 84 -62 128 -194 128h-48v74h48c127 0 173 66 173 136c0 69 -45 105 -114 105s-120 -28 -164 -63l-41 68c45 44 118 83 214 83
c122 0 205 -66 205 -180c0 -89 -50 -156 -133 -180z" />
    <glyph glyph-name="four" unicode="4" horiz-adv-x="625" 
d="M597 275v-77h-122v-198h-101v198h-337v74l342 438h96v-435h122zM131 275h243v310z" />
    <glyph glyph-name="five" unicode="5" horiz-adv-x="613" 
d="M352 449c123 0 209 -73 209 -216c0 -156 -109 -248 -264 -248c-136 0 -210 58 -249 88l44 79c37 -28 110 -81 204 -81c98 0 158 58 158 155c0 93 -54 142 -134 142c-93 0 -140 -52 -167 -81l-60 28l44 395h378v-87h-303l-27 -235c33 30 87 61 167 61z" />
    <glyph glyph-name="six" unicode="6" horiz-adv-x="605" 
d="M351 440c121 0 212 -81 212 -219s-95 -236 -246 -236c-170 0 -261 128 -261 328c0 253 134 412 332 412c40 0 69 -6 95 -14l-3 -84c-23 7 -48 13 -79 13c-139 0 -238 -120 -242 -306c39 67 106 106 192 106zM315 72c87 0 142 57 142 145c0 89 -58 140 -135 140
c-75 0 -141 -49 -158 -141c14 -83 62 -144 151 -144z" />
    <glyph glyph-name="seven" unicode="7" horiz-adv-x="555" 
d="M58 710h460v-61c-78 -116 -235 -375 -276 -649h-109c47 269 185 498 268 623h-343v87z" />
    <glyph glyph-name="eight" unicode="8" horiz-adv-x="628" 
d="M399 386c88 -39 172 -88 172 -197c0 -121 -97 -204 -259 -204s-255 79 -255 196c0 106 82 162 157 192c-63 35 -112 84 -112 169c0 110 86 183 215 183c130 0 215 -72 215 -171c0 -84 -63 -139 -133 -168zM316 647c-62 0 -117 -36 -117 -100c0 -69 64 -103 138 -135
c49 27 98 69 98 131c0 68 -57 104 -119 104zM315 69c83 0 150 46 150 116c0 83 -91 114 -182 154c-72 -24 -124 -76 -124 -143c1 -81 73 -127 156 -127z" />
    <glyph glyph-name="nine" unicode="9" horiz-adv-x="605" 
d="M288 725c170 0 261 -128 261 -327c0 -254 -134 -413 -332 -413c-40 0 -68 6 -95 14l3 84c23 -7 48 -13 79 -13c140 0 239 120 242 306c-39 -66 -106 -106 -192 -106c-121 0 -212 82 -212 219c0 138 95 236 246 236zM283 353c75 0 141 48 159 138c-14 85 -62 147 -152 147
c-87 0 -142 -57 -142 -145s58 -140 135 -140z" />
    <glyph glyph-name="uni00B9" unicode="&#xb9;" horiz-adv-x="227" 
d="M122 710h42v-380h-67v311l-64 -27v57z" />
    <glyph glyph-name="uni00B2" unicode="&#xb2;" horiz-adv-x="343" 
d="M116 385h185v-55h-264v55c89 74 183 142 183 216c0 39 -25 61 -59 61c-40 0 -64 -28 -78 -63l-51 24c15 53 61 96 134 96c75 0 121 -45 121 -115c0 -104 -109 -175 -171 -219z" />
    <glyph glyph-name="uni00B3" unicode="&#xb3;" horiz-adv-x="294" 
d="M180 526c48 -8 86 -33 86 -93c0 -73 -65 -110 -132 -111c-64 -1 -105 21 -124 35l20 52c21 -13 54 -31 93 -31s72 20 72 58c0 42 -32 64 -98 64h-25v45h23c66 0 90 32 90 66s-22 52 -56 52c-35 0 -65 -15 -88 -32l-22 46c24 22 67 42 118 42c68 0 114 -35 114 -97
c0 -47 -27 -82 -71 -96z" />
    <glyph glyph-name="onequarter" unicode="&#xbc;" horiz-adv-x="674" 
d="M533 725h72l-511 -725h-72zM97 330v311l-64 -27v57l89 39h42v-380h-67zM658 151v-47h-63v-104h-66v104h-179v48l181 228h64v-229h63zM405 151h124v154z" />
    <glyph glyph-name="onehalf" unicode="&#xbd;" horiz-adv-x="725" 
d="M533 725h72l-511 -725h-72zM97 330v311l-64 -27v57l89 39h42v-380h-67zM498 55h185v-55h-264v55c89 74 183 142 183 216c0 39 -25 61 -59 61c-40 0 -64 -28 -78 -63l-51 24c15 53 61 96 134 96c75 0 121 -45 121 -115c0 -104 -109 -175 -171 -219z" />
    <glyph glyph-name="threequarters" unicode="&#xbe;" horiz-adv-x="724" 
d="M584 725h72l-511 -725h-72zM123 378c39 0 72 20 72 58c0 42 -32 64 -98 64h-25v45h23c66 0 90 32 90 66s-22 52 -56 52c-35 0 -65 -15 -88 -32l-22 46c24 22 67 42 118 42c68 0 114 -35 114 -97c0 -47 -27 -82 -71 -96c48 -8 86 -33 86 -93c0 -73 -65 -110 -132 -111
c-64 -1 -105 21 -124 35l20 52c21 -13 54 -31 93 -31zM709 151v-47h-63v-104h-66v104h-179v48l181 228h64v-229h63zM456 151h124v154z" />
    <glyph glyph-name="uni2153" unicode="&#x2153;" horiz-adv-x="684" 
d="M533 725h72l-511 -725h-72zM97 330v311l-64 -27v57l89 39h42v-380h-67zM570 196c48 -8 86 -33 86 -93c0 -73 -65 -110 -132 -111c-64 -1 -105 21 -124 35l20 52c21 -13 54 -31 93 -31s72 20 72 58c0 42 -32 64 -98 64h-25v45h23c66 0 90 32 90 66s-22 52 -56 52
c-35 0 -65 -15 -88 -32l-22 46c24 22 67 42 118 42c68 0 114 -35 114 -97c0 -47 -27 -82 -71 -96z" />
    <glyph glyph-name="uni2154" unicode="&#x2154;" horiz-adv-x="799" 
d="M649 725h72l-511 -725h-72zM301 385v-55h-264v55c89 74 183 142 183 216c0 39 -25 61 -59 61c-40 0 -64 -28 -78 -63l-51 24c15 53 61 96 134 96c75 0 121 -45 121 -115c0 -104 -109 -175 -171 -219h185zM686 196c48 -8 86 -33 86 -93c0 -73 -65 -110 -132 -111
c-64 -1 -105 21 -124 35l20 52c21 -13 54 -31 93 -31s72 20 72 58c0 42 -32 64 -98 64h-25v45h23c66 0 90 32 90 66s-22 52 -56 52c-35 0 -65 -15 -88 -32l-22 46c24 22 67 42 118 42c68 0 114 -35 114 -97c0 -47 -27 -82 -71 -96z" />
    <glyph glyph-name="oneeighth" unicode="&#x215b;" horiz-adv-x="705" 
d="M533 725h72l-511 -725h-72zM97 330v311l-64 -27v57l89 39h42v-380h-67zM587 208c47 -21 91 -48 91 -105c0 -67 -54 -111 -144 -111c-89 0 -143 42 -143 107c0 54 45 83 85 98c-34 19 -61 45 -61 92c0 60 48 99 122 99c73 0 120 -39 120 -93c0 -43 -33 -72 -70 -87z
M536 342c-31 0 -58 -19 -58 -50c0 -34 32 -51 71 -68c23 14 45 36 45 65c0 34 -27 53 -58 53zM535 43c40 0 73 22 73 56c0 41 -45 58 -91 78c-35 -13 -59 -39 -59 -71c1 -40 37 -63 77 -63z" />
    <glyph glyph-name="threeeighths" unicode="&#x215c;" horiz-adv-x="755" 
d="M584 725h72l-511 -725h-72zM123 378c39 0 72 20 72 58c0 42 -32 64 -98 64h-25v45h23c66 0 90 32 90 66s-22 52 -56 52c-35 0 -65 -15 -88 -32l-22 46c24 22 67 42 118 42c68 0 114 -35 114 -97c0 -47 -27 -82 -71 -96c48 -8 86 -33 86 -93c0 -73 -65 -110 -132 -111
c-64 -1 -105 21 -124 35l20 52c21 -13 54 -31 93 -31zM638 208c47 -21 91 -48 91 -105c0 -67 -54 -111 -144 -111c-89 0 -143 42 -143 107c0 54 45 83 85 98c-34 19 -61 45 -61 92c0 60 48 99 122 99c73 0 120 -39 120 -93c0 -43 -33 -72 -70 -87zM587 342
c-31 0 -58 -19 -58 -50c0 -34 32 -51 71 -68c23 14 45 36 45 65c0 34 -27 53 -58 53zM586 43c40 0 73 22 73 56c0 41 -45 58 -91 78c-35 -13 -59 -39 -59 -71c1 -40 37 -63 77 -63z" />
    <glyph glyph-name="fiveeighths" unicode="&#x215d;" horiz-adv-x="792" 
d="M621 725h72l-511 -725h-72zM157 377c48 0 79 29 79 77s-28 70 -68 70c-44 0 -69 -25 -83 -39l-38 16l23 210h211v-54h-163l-13 -115c19 16 48 31 88 31c68 0 113 -39 113 -116c0 -87 -63 -135 -147 -135c-72 0 -114 30 -137 47l26 49c24 -15 63 -41 109 -41zM675 208
c47 -21 91 -48 91 -105c0 -67 -54 -111 -144 -111c-89 0 -143 42 -143 107c0 54 45 83 85 98c-34 19 -61 45 -61 92c0 60 48 99 122 99c73 0 120 -39 120 -93c0 -43 -33 -72 -70 -87zM624 342c-31 0 -58 -19 -58 -50c0 -34 32 -51 71 -68c23 14 45 36 45 65
c0 34 -27 53 -58 53zM623 43c40 0 73 22 73 56c0 41 -45 58 -91 78c-35 -13 -59 -39 -59 -71c1 -40 37 -63 77 -63z" />
    <glyph glyph-name="seveneighths" unicode="&#x215e;" horiz-adv-x="689" 
d="M518 725h72l-511 -725h-72zM60 330c24 142 94 258 139 325h-180v55h255v-40c-43 -63 -122 -195 -142 -340h-72zM572 208c47 -21 91 -48 91 -105c0 -67 -54 -111 -144 -111c-89 0 -143 42 -143 107c0 54 45 83 85 98c-34 19 -61 45 -61 92c0 60 48 99 122 99
c73 0 120 -39 120 -93c0 -43 -33 -72 -70 -87zM521 342c-31 0 -58 -19 -58 -50c0 -34 32 -51 71 -68c23 14 45 36 45 65c0 34 -27 53 -58 53zM520 43c40 0 73 22 73 56c0 41 -45 58 -91 78c-35 -13 -59 -39 -59 -71c1 -40 37 -63 77 -63z" />
    <glyph glyph-name="underscore" unicode="_" horiz-adv-x="542" 
d="M23 -84h496v-83h-496v83z" />
    <glyph glyph-name="hyphen" unicode="-" horiz-adv-x="607" 
d="M100 323h409v-82h-409v82z" />
    <glyph glyph-name="endash" unicode="&#x2013;" horiz-adv-x="647" 
d="M100 241v82h448v-82h-448z" />
    <glyph glyph-name="emdash" unicode="&#x2014;" horiz-adv-x="979" 
d="M100 241v82h779v-82h-779z" />
    <glyph glyph-name="parenleft" unicode="(" horiz-adv-x="376" 
d="M243 -222c-71 61 -189 217 -189 475s118 414 189 475l80 -38c-75 -89 -167 -223 -167 -437s92 -348 167 -437z" />
    <glyph glyph-name="parenright" unicode=")" horiz-adv-x="376" 
d="M134 -222l-80 38c74 89 166 223 166 437s-92 348 -166 437l80 38c70 -61 189 -217 189 -475s-119 -414 -189 -475z" />
    <glyph glyph-name="bracketleft" unicode="[" horiz-adv-x="416" 
d="M100 710h262v-85h-161v-741h161v-83h-262v909z" />
    <glyph glyph-name="bracketright" unicode="]" horiz-adv-x="416" 
d="M316 710v-909h-262v83h161v741h-161v85h262z" />
    <glyph glyph-name="braceleft" unicode="{" horiz-adv-x="403" 
d="M219 366c0 -59 -24 -94 -76 -103c52 -10 76 -43 76 -101v-198c0 -40 19 -65 62 -65h75v-85h-129c-70 0 -109 36 -109 108v237c0 41 -18 61 -48 64l-55 3v73l55 3c30 3 48 23 48 64v236c0 71 39 108 109 108h129v-85h-77c-41 0 -60 -25 -60 -65v-194z" />
    <glyph glyph-name="braceright" unicode="}" horiz-adv-x="448" 
d="M338 302l55 -3v-73l-55 -3c-30 -3 -48 -23 -48 -64v-237c0 -72 -39 -108 -109 -108h-129v85h75c44 0 62 25 62 65v198c0 58 24 91 76 101c-52 9 -76 44 -76 103v194c0 40 -18 65 -59 65h-78v85h129c70 0 109 -37 109 -108v-236c0 -41 18 -61 48 -64z" />
    <glyph glyph-name="numbersign" unicode="#" horiz-adv-x="733" 
d="M713 459h-154l-52 -189h155v-74h-176l-54 -197h-83l54 197h-177l-55 -197h-81l54 197h-121v74h141l52 189h-142v74h162l49 177h83l-49 -177h177l49 177h83l-49 -177h134v-74zM424 270l52 189h-178l-52 -189h178z" />
    <glyph glyph-name="percent" unicode="%" horiz-adv-x="903" 
d="M672 725h72l-511 -725h-72zM201 322c-103 0 -174 83 -174 198s71 198 173 198c103 0 174 -83 174 -198s-71 -198 -173 -198zM200 375c63 0 103 59 103 145s-40 145 -103 145s-102 -59 -102 -145s39 -145 102 -145zM698 -8c-102 0 -173 83 -173 198s71 198 173 198
s173 -83 173 -198s-71 -198 -173 -198zM698 45c63 0 102 59 102 145s-39 145 -102 145s-103 -59 -103 -145s40 -145 103 -145z" />
    <glyph glyph-name="perthousand" unicode="&#x2030;" horiz-adv-x="1323" 
d="M672 725h72l-511 -725h-72zM201 322c-103 0 -174 83 -174 198s71 198 173 198c103 0 174 -83 174 -198s-71 -198 -173 -198zM200 375c63 0 103 59 103 145s-40 145 -103 145s-102 -59 -102 -145s39 -145 102 -145zM698 -8c-102 0 -173 83 -173 198s71 198 173 198
s173 -83 173 -198s-71 -198 -173 -198zM1118 -8c-103 0 -174 83 -174 198s71 198 174 198c102 0 173 -83 173 -198s-71 -198 -173 -198zM698 45c63 0 102 59 102 145s-39 145 -102 145s-103 -59 -103 -145s40 -145 103 -145zM1118 45c63 0 102 59 102 145s-39 145 -102 145
s-103 -59 -103 -145s40 -145 103 -145z" />
    <glyph glyph-name="ampersand" unicode="&#x26;" horiz-adv-x="755" 
d="M725 0h-133l-95 98c-61 -63 -132 -113 -235 -113c-135 0 -203 76 -203 179c0 123 92 175 175 204c-38 39 -79 96 -79 174c0 111 81 183 194 183c106 0 181 -68 181 -166c0 -105 -71 -168 -150 -203l123 -127c31 42 78 105 99 150l70 -41c-22 -41 -53 -99 -112 -168z
M349 651c-54 0 -100 -35 -100 -100c0 -61 43 -104 83 -145c60 29 109 78 109 149c0 58 -37 96 -92 96zM280 72c68 0 117 33 163 82l-158 162c-63 -27 -115 -62 -115 -143c0 -59 39 -101 110 -101z" />
    <glyph glyph-name="section" unicode="&#xa7;" horiz-adv-x="550" 
d="M459 102c26 -29 42 -64 42 -111c0 -124 -106 -187 -225 -187c-140 0 -219 75 -255 138l42 60c44 -66 112 -119 199 -119c71 0 131 37 131 106c0 149 -337 128 -337 330c0 51 24 85 58 109c-27 28 -44 63 -44 108c0 114 92 178 206 178c108 0 172 -45 207 -103l-44 -55
c-41 49 -89 84 -158 84c-63 0 -109 -39 -109 -94c0 -138 327 -127 327 -340c0 -43 -16 -77 -40 -104zM146 331c0 -91 151 -116 257 -183c6 13 10 27 10 44c0 96 -144 128 -245 193c-14 -15 -22 -34 -22 -54z" />
    <glyph glyph-name="paragraph" unicode="&#xb6;" horiz-adv-x="706" 
d="M287 276c-127 0 -233 79 -233 217c0 139 106 217 233 217h322v-875h-97v792h-128v-792h-97v441z" />
    <glyph glyph-name="uni2116" unicode="&#x2116;" horiz-adv-x="1293" 
d="M980 192c-138 0 -258 98 -258 266c0 170 120 267 258 267c140 0 260 -97 260 -267c0 -168 -121 -266 -260 -266zM565 182v528h89v-710h-100l-366 550v-550h-89v710h105zM980 642c-82 0 -154 -66 -154 -184c0 -116 71 -183 154 -183s156 67 156 183
c0 118 -73 184 -156 184zM742 0v74h476v-74h-476z" />
    <glyph glyph-name="quotesingle" unicode="'" horiz-adv-x="223" 
d="M59 710h104l-11 -256h-82z" />
    <glyph glyph-name="quotedbl" unicode="&#x22;" horiz-adv-x="403" 
d="M59 710h104l-11 -256h-82zM240 710h104l-11 -256h-82z" />
    <glyph glyph-name="quoteleft" unicode="&#x2018;" horiz-adv-x="280" 
d="M221 688c-35 -30 -77 -74 -91 -118c33 -4 56 -27 56 -59c0 -36 -27 -60 -63 -60s-64 24 -64 75c0 82 73 160 132 199z" />
    <glyph glyph-name="quoteright" unicode="&#x2019;" horiz-adv-x="280" 
d="M158 725c35 0 63 -23 63 -75c0 -82 -72 -159 -131 -199l-31 38c35 30 77 74 92 119c-34 3 -56 25 -56 58c0 35 27 59 63 59z" />
    <glyph glyph-name="quotedblleft" unicode="&#x201c;" horiz-adv-x="466" 
d="M59 526c0 83 73 160 132 199l30 -37c-35 -30 -77 -74 -91 -118c33 -4 56 -26 56 -59c0 -36 -27 -60 -63 -60s-64 24 -64 75zM407 688c-35 -30 -77 -74 -92 -118c34 -4 57 -26 57 -59c0 -36 -28 -60 -64 -60c-35 0 -63 24 -63 75c0 83 73 160 131 199z" />
    <glyph glyph-name="quotedblright" unicode="&#x201d;" horiz-adv-x="452" 
d="M144 725c35 0 64 -23 64 -75c0 -82 -73 -159 -132 -199l-31 37c35 31 78 75 92 119c-33 4 -56 26 -56 59c0 35 27 59 63 59zM330 725c35 0 63 -23 63 -75c0 -82 -73 -159 -131 -199l-31 37c35 31 77 75 92 119c-34 4 -57 26 -57 59c0 35 28 59 64 59z" />
    <glyph glyph-name="quotesinglbase" unicode="&#x201a;" horiz-adv-x="280" 
d="M158 115c35 0 63 -23 63 -74c0 -83 -72 -160 -131 -200l-31 38c35 30 77 74 92 119c-34 3 -56 25 -56 58c0 36 27 59 63 59z" />
    <glyph glyph-name="quotedblbase" unicode="&#x201e;" horiz-adv-x="452" 
d="M132 115c35 0 64 -23 64 -74c0 -83 -73 -160 -132 -200l-31 38c35 30 78 74 92 118c-33 4 -56 26 -56 59c0 36 27 59 63 59zM318 115c35 0 63 -23 63 -74c0 -83 -73 -160 -131 -200l-31 38c35 30 77 74 92 118c-34 4 -57 26 -57 59c0 36 28 59 64 59z" />
    <glyph glyph-name="guilsinglleft" unicode="&#x2039;" horiz-adv-x="367" 
d="M54 265l162 264h98l-162 -264l162 -265h-98z" />
    <glyph glyph-name="guilsinglright" unicode="&#x203a;" horiz-adv-x="366" 
d="M313 265l-162 -265h-99l162 265l-162 264h99z" />
    <glyph glyph-name="guillemotleft" unicode="&#xab;" horiz-adv-x="774" 
d="M54 265l162 264h98l-162 -264l162 -265h-98zM389 265l162 264h98l-162 -264l162 -265h-98z" />
    <glyph glyph-name="guillemotright" unicode="&#xbb;" horiz-adv-x="774" 
d="M386 265l-162 -265h-99l162 265l-162 264h99zM721 265l-162 -265h-99l162 265l-162 264h99z" />
    <glyph glyph-name="asterisk" unicode="*" horiz-adv-x="524" 
d="M260 500l-86 -131l-66 49l102 117l-151 40l27 79l144 -61l-11 157h83l-10 -157l148 53l24 -79l-153 -33l96 -122l-67 -48z" />
    <glyph glyph-name="dagger" unicode="&#x2020;" horiz-adv-x="468" 
d="M437 529v-83h-157v-254l-16 -302h-68l-17 302v254h-156v83h156v181h101v-181h157z" />
    <glyph glyph-name="daggerdbl" unicode="&#x2021;" horiz-adv-x="612" 
d="M356 446l-11 -146l11 -146h157v-83h-156v-181h-102v181h-155v83h156l12 146l-12 146h-156v83h155v181h102v-181h156v-83h-157z" />
    <glyph glyph-name="period" unicode="." horiz-adv-x="254" 
d="M127 -4c-39 0 -68 23 -68 63c0 39 29 65 68 65s67 -26 67 -65c0 -40 -28 -63 -67 -63z" />
    <glyph glyph-name="comma" unicode="," horiz-adv-x="280" 
d="M158 115c35 0 63 -23 63 -74c0 -83 -72 -160 -131 -200l-31 38c35 30 77 74 92 119c-34 3 -56 25 -56 58c0 36 27 59 63 59z" />
    <glyph glyph-name="colon" unicode=":" horiz-adv-x="254" 
d="M127 393c-39 0 -68 24 -68 63s29 65 68 65s67 -26 67 -65s-28 -63 -67 -63zM127 -4c-39 0 -68 23 -68 63c0 39 29 65 68 65s67 -26 67 -65c0 -40 -28 -63 -67 -63z" />
    <glyph glyph-name="semicolon" unicode=";" horiz-adv-x="280" 
d="M127 295c-39 0 -68 23 -68 63c0 39 29 65 68 65s67 -26 67 -65c0 -40 -28 -63 -67 -63zM131 115c35 0 63 -23 63 -74c0 -83 -72 -160 -131 -200l-31 38c35 30 77 74 92 119c-34 3 -56 25 -56 58c0 36 27 59 63 59z" />
    <glyph glyph-name="ellipsis" unicode="&#x2026;" horiz-adv-x="916" 
d="M127 -4c-39 0 -68 23 -68 63c0 39 29 65 68 65s67 -26 67 -65c0 -40 -28 -63 -67 -63zM457 -4c-38 0 -67 23 -67 63c0 39 29 65 67 65c40 0 68 -26 68 -65c0 -40 -28 -63 -68 -63zM788 -4c-38 0 -67 23 -67 63c0 39 29 65 67 65c40 0 68 -26 68 -65
c0 -40 -28 -63 -68 -63z" />
    <glyph glyph-name="exclam" unicode="!" horiz-adv-x="241" 
d="M92 262c-8 129 -33 313 -33 396c0 40 25 66 62 66s61 -26 61 -66c0 -83 -24 -266 -33 -396l-1 -52h-54zM120 -4c-38 0 -67 23 -67 63c0 39 29 65 67 65c40 0 68 -26 68 -65c0 -40 -28 -63 -68 -63z" />
    <glyph glyph-name="exclamdown" unicode="&#xa1;" horiz-adv-x="261" 
d="M141 543c38 0 67 -23 67 -62s-29 -66 -67 -66c-40 0 -68 27 -68 66s28 62 68 62zM169 277c8 -128 33 -313 33 -396c0 -40 -25 -66 -61 -66c-38 0 -62 26 -62 66c0 83 24 267 33 396l1 52h54z" />
    <glyph glyph-name="question" unicode="?" horiz-adv-x="451" 
d="M162 202c-3 241 153 215 153 350c0 56 -44 95 -108 95s-114 -32 -150 -87l-37 56c33 56 96 109 204 109c101 0 192 -53 192 -158c0 -181 -171 -138 -174 -365h-80zM203 -3c-38 0 -67 24 -67 63s29 66 67 66c39 0 67 -27 67 -66s-28 -63 -67 -63z" />
    <glyph glyph-name="questiondown" unicode="&#xbf;" horiz-adv-x="451" 
d="M234 519c38 0 67 -24 67 -63s-29 -65 -67 -65c-40 0 -68 26 -68 65s28 63 68 63zM274 314c4 -241 -152 -214 -152 -349c0 -57 43 -96 108 -96c63 0 113 32 150 87l36 -56c-32 -56 -95 -109 -203 -109c-101 0 -193 53 -193 158c0 181 171 138 175 365h79z" />
    <glyph glyph-name="slash" unicode="/" horiz-adv-x="532" 
d="M23 -108l389 833h102l-389 -833h-102z" />
    <glyph glyph-name="backslash" unicode="\" horiz-adv-x="520" 
d="M23 725h102l389 -833h-102z" />
    <glyph glyph-name="fraction" unicode="&#x2044;" horiz-adv-x="173" 
d="M306 725h72l-511 -725h-72z" />
    <glyph glyph-name="bar" unicode="|" horiz-adv-x="297" 
d="M100 900h97v-1150h-97v1150z" />
    <glyph glyph-name="brokenbar" unicode="&#xa6;" horiz-adv-x="211" 
d="M57 900h97v-513h-97v513zM57 264h97v-514h-97v514z" />
    <glyph glyph-name="periodcentered" unicode="&#xb7;" horiz-adv-x="334" 
d="M167 248c-38 0 -67 23 -67 63c0 39 29 65 67 65c39 0 68 -26 68 -65c0 -40 -29 -63 -68 -63z" />
    <glyph glyph-name="bullet" unicode="&#x2022;" horiz-adv-x="361" 
d="M180 217c-51 0 -89 31 -89 83c0 51 38 86 89 86s89 -35 89 -86c0 -52 -38 -83 -89 -83z" />
    <glyph glyph-name="minute" unicode="&#x2032;" horiz-adv-x="181" 
d="M38 710h106l-22 -267h-84v267z" />
    <glyph glyph-name="second" unicode="&#x2033;" horiz-adv-x="396" 
d="M38 710h106l-22 -267h-84v267zM254 710h106l-22 -267h-84v267z" />
    <glyph glyph-name="plus" unicode="+" horiz-adv-x="636" 
d="M536 358v-74h-181v-177h-75v177h-180v74h180v177h75v-177h181z" />
    <glyph glyph-name="minus" unicode="&#x2212;" horiz-adv-x="636" 
d="M100 358h436v-74h-436v74z" />
    <glyph glyph-name="plusminus" unicode="&#xb1;" horiz-adv-x="560" 
d="M318 390h180v-73h-180v-156h-76v156h-180v73h180v155h76v-155zM62 0v72h436v-72h-436z" />
    <glyph glyph-name="divide" unicode="&#xf7;" horiz-adv-x="560" 
d="M281 424c-33 0 -56 20 -56 52s23 53 56 53c31 0 55 -21 55 -53s-24 -52 -55 -52zM62 358h436v-74h-436v74zM281 113c-33 0 -56 19 -56 51s23 54 56 54c31 0 55 -22 55 -54s-24 -51 -55 -51z" />
    <glyph glyph-name="multiply" unicode="&#xd7;" horiz-adv-x="542" 
d="M452 449l-129 -128l128 -128l-51 -52l-129 129l-129 -129l-51 51l129 129l-129 129l51 51l129 -129l129 129z" />
    <glyph glyph-name="equal" unicode="=" horiz-adv-x="663" 
d="M100 484h464v-72h-464v72zM100 238h464v-73h-464v73z" />
    <glyph glyph-name="less" unicode="&#x3c;" horiz-adv-x="603" 
d="M54 298v90l450 161v-76l-376 -130l376 -130v-76z" />
    <glyph glyph-name="greater" unicode="&#x3e;" horiz-adv-x="599" 
d="M536 298l-450 -161v76l376 130l-376 130v76l450 -161v-90z" />
    <glyph glyph-name="lessequal" unicode="&#x2264;" horiz-adv-x="555" 
d="M505 571v-77l-372 -114l372 -115v-78l-450 146v91zM55 0v72h450v-72h-450z" />
    <glyph glyph-name="greaterequal" unicode="&#x2265;" horiz-adv-x="555" 
d="M50 571l450 -147v-91l-450 -146v78l372 115l-372 114v77zM50 0v72h450v-72h-450z" />
    <glyph glyph-name="approxequal" unicode="&#x2248;" horiz-adv-x="642" 
d="M448 418c-96 0 -175 54 -251 54s-135 -30 -135 -30v75c0 -1 44 30 135 30s178 -55 251 -55s132 30 132 30v-74s-36 -30 -132 -30zM448 169c-96 0 -175 54 -251 54s-135 -30 -135 -30v75c0 -1 44 30 135 30s178 -55 251 -55s132 30 132 30v-74s-36 -30 -132 -30z" />
    <glyph glyph-name="notequal" unicode="&#x2260;" horiz-adv-x="648" 
d="M556 412h-144l-93 -174h237v-73h-276l-64 -120h-80l64 120h-109v73h148l92 174h-240v72h278l64 120h81l-64 -120h106v-72z" />
    <glyph glyph-name="logicalnot" unicode="&#xac;" horiz-adv-x="618" 
d="M50 397h518v-231h-74v157h-444v74z" />
    <glyph glyph-name="dollar" unicode="$" horiz-adv-x="546" 
d="M504 183c0 -114 -79 -183 -191 -196v-82h-76v82c-100 10 -167 62 -211 148l69 53c36 -57 80 -103 142 -116v252c-86 44 -174 95 -174 212c0 107 72 174 174 187v82h76v-83c80 -10 138 -52 175 -118l-72 -54c-26 40 -56 75 -103 87v-233c91 -45 191 -96 191 -221zM164 547
c0 -47 30 -77 73 -103v193c-44 -11 -73 -45 -73 -90zM313 72c52 12 84 49 84 98c0 51 -33 83 -78 110c-2 1 -4 2 -6 4v-212z" />
    <glyph glyph-name="cent" unicode="&#xa2;" horiz-adv-x="519" 
d="M493 52c-26 -22 -74 -60 -158 -66v-90h-76v93c-134 21 -207 126 -207 263c0 136 82 240 207 262v93h76v-90c64 -5 115 -30 144 -56l-35 -82c-23 22 -60 43 -109 48v-352c54 4 91 25 121 53zM154 252c0 -78 40 -144 105 -168v335c-66 -22 -105 -88 -105 -167z" />
    <glyph glyph-name="sterling" unicode="&#xa3;" horiz-adv-x="463" 
d="M252 208c-5 -67 -41 -110 -84 -136h255v-72h-399v72h15c47 0 118 20 123 136h-116v54h112c-24 107 -135 145 -135 281c0 128 92 182 194 182c107 0 171 -44 208 -100l-45 -58c-33 47 -83 81 -146 81c-65 0 -109 -36 -109 -107c0 -117 105 -150 124 -279h125v-54h-122z
" />
    <glyph glyph-name="currency" unicode="&#xa4;" horiz-adv-x="626" 
d="M571 253c0 -65 -19 -120 -49 -162l67 -60l-53 -54l-59 66c-45 -36 -103 -56 -164 -56s-119 20 -163 56l-60 -66l-54 54l68 61c-29 42 -47 97 -47 161c0 65 18 120 48 163l-69 60l54 54l59 -66c45 36 103 56 164 56s119 -19 164 -56l59 66l53 -54l-67 -59
c30 -43 49 -98 49 -164zM313 70c83 0 156 67 156 183c0 118 -73 184 -156 184s-154 -66 -154 -184c0 -116 71 -183 154 -183z" />
    <glyph glyph-name="yen" unicode="&#xa5;" horiz-adv-x="598" 
d="M581 710l-218 -396h154v-48h-168v-81h168v-48h-168v-137h-100v137h-169v48h169v81h-169v48h155l-218 396h110l178 -325l177 325h99z" />
    <glyph glyph-name="uni20A9" unicode="&#x20a9;" horiz-adv-x="1063" 
d="M1043 710l-84 -256h59v-52h-76l-37 -113h111v-52h-128l-77 -237h-90l-80 237h-221l-80 -237h-89l-77 237h-126v52h109l-37 113h-75v52h58l-83 256h110l79 -256h200l85 256h85l85 -256h201l79 256h99zM531 566l-38 -112h76zM225 402l35 -113h95l37 113h-167zM437 289h187
l-38 113h-110zM814 289l35 113h-167l38 -113h94zM306 141l32 96h-62zM768 143l30 94h-61z" />
    <glyph glyph-name="Euro" unicode="&#x20ac;" horiz-adv-x="725" 
d="M657 134l18 -90c-53 -36 -120 -59 -211 -59c-163 0 -291 97 -331 259h-107l12 57h85c-2 17 -3 35 -3 54c0 17 1 33 2 49h-84l11 56h83c38 166 170 265 332 265c79 0 142 -18 192 -47l-18 -87c-43 27 -94 40 -162 40c-100 0 -196 -60 -232 -171h318l-10 -56h-321
c-2 -15 -3 -31 -3 -47c0 -20 1 -38 4 -56h299l-12 -57h-273c38 -105 129 -162 230 -162c77 0 132 18 181 52z" />
    <glyph glyph-name="fhook" unicode="&#x192;" horiz-adv-x="383" 
d="M333 684c-46 0 -78 -22 -85 -82l-12 -96h129l-11 -83h-128l-52 -426c-13 -100 -72 -145 -176 -145c-32 0 -58 3 -75 7l11 73c14 -2 31 -4 59 -4c45 0 77 21 85 80l51 415h-88l10 83h89l13 108c12 100 72 145 174 145c32 0 58 -3 75 -6l-10 -73c-15 2 -32 4 -59 4z" />
    <glyph glyph-name="copyright" unicode="&#xa9;" horiz-adv-x="803" 
d="M368 -15c-185 0 -368 136 -368 370s183 370 368 370c186 0 369 -136 369 -370s-183 -370 -369 -370zM368 25c157 0 322 110 322 330s-165 330 -322 330s-321 -110 -321 -330s164 -330 321 -330zM382 134c-114 0 -205 78 -205 227c0 150 92 228 205 228
c55 0 90 -15 123 -38l-14 -53c-29 21 -55 32 -105 32c-71 0 -144 -48 -144 -168s70 -169 144 -169c57 0 88 16 118 45l17 -54c-34 -30 -74 -50 -139 -50z" />
    <glyph glyph-name="registered" unicode="&#xae;" horiz-adv-x="833" 
d="M416 -15c-185 0 -368 136 -368 370s183 370 368 370c186 0 369 -136 369 -370s-183 -370 -369 -370zM416 38c151 0 310 105 310 317s-159 317 -310 317s-309 -105 -309 -317s158 -317 309 -317zM293 146v419h126c86 0 151 -33 151 -122c0 -73 -42 -114 -105 -127
l114 -170h-63l-110 166h-61v-166h-52zM418 355c57 -1 94 26 94 84c0 57 -38 82 -94 82h-73v-166h73z" />
    <glyph glyph-name="trademark" unicode="&#x2122;" horiz-adv-x="658" 
d="M249 710v-54h-68v-221h-64v221h-69v54h201zM610 435h-60l-24 192l-67 -192h-43l-66 191l-22 -191h-56l31 275h71l66 -186l66 186h73z" />
    <glyph glyph-name="degree" unicode="&#xb0;" horiz-adv-x="395" 
d="M198 360c-103 0 -178 69 -178 179c0 109 75 179 178 179s176 -70 176 -179c0 -110 -73 -179 -176 -179zM198 402c69 0 122 51 122 137s-53 137 -122 137c-70 0 -123 -51 -123 -137s53 -137 123 -137z" />
    <glyph glyph-name="uni2117" unicode="&#x2117;" horiz-adv-x="803" 
d="M368 725c186 0 369 -136 369 -370s-183 -370 -369 -370c-185 0 -368 136 -368 370s183 370 368 370zM368 25c157 0 322 110 322 330s-165 330 -322 330s-321 -110 -321 -330s164 -330 321 -330zM375 532c75 0 127 -33 127 -108c0 -77 -54 -120 -128 -120h-64v-127h-53
v355h118zM364 343c47 -1 80 25 80 75s-30 68 -79 68h-55v-143h54z" />
    <glyph glyph-name="at" unicode="@" horiz-adv-x="1030" 
d="M749 471l-59 -256c-18 -78 1 -118 61 -118c73 0 162 68 162 233c0 222 -174 331 -368 331c-226 0 -417 -159 -417 -416s184 -395 392 -395c102 0 198 32 270 93l32 -52c-81 -66 -188 -105 -303 -105c-263 0 -466 169 -466 458s224 481 492 481c238 0 434 -146 434 -394
c0 -211 -135 -297 -230 -297c-82 0 -123 37 -129 91c-35 -56 -85 -90 -149 -90c-101 0 -163 64 -162 193c1 154 104 255 214 255c74 0 121 -36 140 -90l19 78h67zM493 106c85 0 140 92 145 190c5 67 -34 117 -100 117c-81 0 -145 -87 -145 -185c-1 -81 33 -122 100 -122z
" />
    <glyph glyph-name="zero.den" horiz-adv-x="388" 
d="M194 -8c-100 0 -167 83 -167 198s67 198 167 198c99 0 167 -83 167 -198s-68 -198 -167 -198zM194 48c61 0 96 57 96 142s-35 142 -96 142s-96 -57 -96 -142s35 -142 96 -142z" />
    <glyph glyph-name="one.den" horiz-adv-x="227" 
d="M122 380h42v-380h-67v311l-64 -27v57z" />
    <glyph glyph-name="two.den" horiz-adv-x="343" 
d="M116 55h185v-55h-264v55c89 74 183 142 183 216c0 39 -25 61 -59 61c-40 0 -64 -28 -78 -63l-51 24c15 53 61 96 134 96c75 0 121 -45 121 -115c0 -104 -109 -175 -171 -219z" />
    <glyph glyph-name="three.den" horiz-adv-x="294" 
d="M180 196c48 -8 86 -33 86 -93c0 -73 -65 -110 -132 -111c-64 -1 -105 21 -124 35l20 52c21 -13 54 -31 93 -31s72 20 72 58c0 42 -32 64 -98 64h-25v45h23c66 0 90 32 90 66s-22 52 -56 52c-35 0 -65 -15 -88 -32l-22 46c24 22 67 42 118 42c68 0 114 -35 114 -97
c0 -47 -27 -82 -71 -96z" />
    <glyph glyph-name="four.den" horiz-adv-x="341" 
d="M326 151v-47h-63v-104h-66v104h-179v48l181 228h64v-229h63zM73 151h124v154z" />
    <glyph glyph-name="five.den" horiz-adv-x="331" 
d="M193 243c68 0 113 -39 113 -116c0 -87 -63 -135 -147 -135c-72 0 -114 30 -137 47l26 49c24 -15 63 -41 109 -41c48 0 79 29 79 77s-28 70 -68 70c-44 0 -69 -25 -83 -39l-38 16l23 210h211v-54h-163l-13 -115c19 16 48 31 88 31z" />
    <glyph glyph-name="six.den" horiz-adv-x="330" 
d="M199 236c64 0 114 -40 114 -115c0 -76 -52 -129 -137 -129c-93 0 -145 67 -145 176c0 134 67 221 181 221c24 0 43 -4 59 -9l-3 -53c-15 5 -30 8 -48 8c-70 0 -120 -57 -122 -150c22 32 56 51 101 51zM175 46c43 0 70 28 70 73s-29 69 -68 69c-35 0 -66 -21 -78 -65
c6 -45 31 -77 76 -77z" />
    <glyph glyph-name="seven.den" horiz-adv-x="292" 
d="M19 380h255v-40c-43 -63 -122 -195 -142 -340h-72c24 142 94 258 139 325h-180v55z" />
    <glyph glyph-name="eight.den" horiz-adv-x="339" 
d="M222 208c47 -21 91 -48 91 -105c0 -67 -54 -111 -144 -111c-89 0 -143 42 -143 107c0 54 45 83 85 98c-34 19 -61 45 -61 92c0 60 48 99 122 99c73 0 120 -39 120 -93c0 -43 -33 -72 -70 -87zM171 342c-31 0 -58 -19 -58 -50c0 -34 32 -51 71 -68c23 14 45 36 45 65
c0 34 -27 53 -58 53zM170 43c40 0 73 22 73 56c0 41 -45 58 -91 78c-35 -13 -59 -39 -59 -71c1 -40 37 -63 77 -63z" />
    <glyph glyph-name="nine.den" horiz-adv-x="330" 
d="M155 388c93 0 145 -67 145 -176c0 -134 -67 -221 -181 -221c-24 0 -43 4 -59 9l3 53c15 -5 30 -8 48 -8c70 0 118 57 121 148c-22 -31 -56 -49 -100 -49c-64 0 -114 41 -114 115c0 77 52 129 137 129zM154 192c34 0 65 21 77 62c-5 47 -29 80 -75 80
c-43 0 -70 -28 -70 -73s29 -69 68 -69z" />
    <glyph glyph-name="zero.num" horiz-adv-x="388" 
d="M194 322c-100 0 -167 83 -167 198s67 198 167 198c99 0 167 -83 167 -198s-68 -198 -167 -198zM194 378c61 0 96 57 96 142s-35 142 -96 142s-96 -57 -96 -142s35 -142 96 -142z" />
    <glyph glyph-name="one.num" horiz-adv-x="227" 
d="M122 710h42v-380h-67v311l-64 -27v57z" />
    <glyph glyph-name="two.num" horiz-adv-x="343" 
d="M116 385h185v-55h-264v55c89 74 183 142 183 216c0 39 -25 61 -59 61c-40 0 -64 -28 -78 -63l-51 24c15 53 61 96 134 96c75 0 121 -45 121 -115c0 -104 -109 -175 -171 -219z" />
    <glyph glyph-name="three.num" horiz-adv-x="294" 
d="M180 526c48 -8 86 -33 86 -93c0 -73 -65 -110 -132 -111c-64 -1 -105 21 -124 35l20 52c21 -13 54 -31 93 -31s72 20 72 58c0 42 -32 64 -98 64h-25v45h23c66 0 90 32 90 66s-22 52 -56 52c-35 0 -65 -15 -88 -32l-22 46c24 22 67 42 118 42c68 0 114 -35 114 -97
c0 -47 -27 -82 -71 -96z" />
    <glyph glyph-name="four.num" horiz-adv-x="341" 
d="M326 481v-47h-63v-104h-66v104h-179v48l181 228h64v-229h63zM73 481h124v154z" />
    <glyph glyph-name="five.num" horiz-adv-x="331" 
d="M193 573c68 0 113 -39 113 -116c0 -87 -63 -135 -147 -135c-72 0 -114 30 -137 47l26 49c24 -15 63 -41 109 -41c48 0 79 29 79 77s-28 70 -68 70c-44 0 -69 -25 -83 -39l-38 16l23 210h211v-54h-163l-13 -115c19 16 48 31 88 31z" />
    <glyph glyph-name="six.num" horiz-adv-x="330" 
d="M199 566c64 0 114 -40 114 -115c0 -76 -52 -129 -137 -129c-93 0 -145 67 -145 176c0 134 67 221 181 221c24 0 43 -4 59 -9l-3 -53c-15 5 -30 8 -48 8c-70 0 -120 -57 -122 -150c22 32 56 51 101 51zM175 376c43 0 70 28 70 73s-29 69 -68 69c-35 0 -66 -21 -78 -65
c6 -45 31 -77 76 -77z" />
    <glyph glyph-name="seven.num" horiz-adv-x="292" 
d="M19 710h255v-40c-43 -63 -122 -195 -142 -340h-72c24 142 94 258 139 325h-180v55z" />
    <glyph glyph-name="eight.num" horiz-adv-x="339" 
d="M222 538c47 -21 91 -48 91 -105c0 -67 -54 -111 -144 -111c-89 0 -143 42 -143 107c0 54 45 83 85 98c-34 19 -61 45 -61 92c0 60 48 99 122 99c73 0 120 -39 120 -93c0 -43 -33 -72 -70 -87zM171 672c-31 0 -58 -19 -58 -50c0 -34 32 -51 71 -68c23 14 45 36 45 65
c0 34 -27 53 -58 53zM170 373c40 0 73 22 73 56c0 41 -45 58 -91 78c-35 -13 -59 -39 -59 -71c1 -40 37 -63 77 -63z" />
    <glyph glyph-name="nine.num" horiz-adv-x="330" 
d="M155 718c93 0 145 -67 145 -176c0 -134 -67 -221 -181 -221c-24 0 -43 4 -59 9l3 53c15 -5 30 -8 48 -8c70 0 118 57 121 148c-22 -31 -56 -49 -100 -49c-64 0 -114 41 -114 115c0 77 52 129 137 129zM154 522c34 0 65 21 77 62c-5 47 -29 80 -75 80
c-43 0 -70 -28 -70 -73s29 -69 68 -69z" />
    <glyph glyph-name="zero.sub" horiz-adv-x="388" 
d="M194 -68c-100 0 -167 83 -167 198s67 198 167 198c99 0 167 -83 167 -198s-68 -198 -167 -198zM194 -12c61 0 96 57 96 142s-35 142 -96 142s-96 -57 -96 -142s35 -142 96 -142z" />
    <glyph glyph-name="one.sub" horiz-adv-x="227" 
d="M122 320h42v-380h-67v311l-64 -27v57z" />
    <glyph glyph-name="two.sub" horiz-adv-x="343" 
d="M116 -5h185v-55h-264v55c89 74 183 142 183 216c0 39 -25 61 -59 61c-40 0 -64 -28 -78 -63l-51 24c15 53 61 96 134 96c75 0 121 -45 121 -115c0 -104 -109 -175 -171 -219z" />
    <glyph glyph-name="three.sub" horiz-adv-x="294" 
d="M180 136c48 -8 86 -33 86 -93c0 -73 -65 -110 -132 -111c-64 -1 -105 20 -124 35l20 52c21 -13 54 -31 93 -31s72 20 72 58c0 42 -32 64 -98 64h-25v45h23c66 0 90 32 90 66s-22 52 -56 52c-35 0 -65 -15 -88 -32l-22 46c24 22 67 42 118 42c68 0 114 -35 114 -97
c0 -47 -27 -82 -71 -96z" />
    <glyph glyph-name="four.sub" horiz-adv-x="341" 
d="M326 91v-47h-63v-104h-66v104h-179v48l181 228h64v-229h63zM73 91h124v154z" />
    <glyph glyph-name="five.sub" horiz-adv-x="331" 
d="M193 183c68 0 113 -39 113 -116c0 -87 -63 -135 -147 -135c-72 0 -114 30 -137 47l26 49c24 -15 63 -41 109 -41c48 0 79 29 79 77s-28 70 -68 70c-44 0 -69 -25 -83 -39l-38 16l23 210h211v-54h-163l-13 -115c19 16 48 31 88 31z" />
    <glyph glyph-name="six.sub" horiz-adv-x="330" 
d="M199 176c64 0 114 -40 114 -115c0 -77 -52 -129 -137 -129c-93 0 -145 67 -145 176c0 134 67 221 181 221c24 0 43 -4 59 -9l-3 -53c-15 5 -30 8 -48 8c-70 0 -120 -57 -122 -150c22 32 56 51 101 51zM175 -14c43 0 70 28 70 73s-29 69 -68 69c-35 0 -66 -21 -78 -65
c6 -45 31 -77 76 -77z" />
    <glyph glyph-name="seven.sub" horiz-adv-x="292" 
d="M19 320h255v-40c-43 -63 -122 -195 -142 -340h-72c24 142 94 258 139 325h-180v55z" />
    <glyph glyph-name="eight.sub" horiz-adv-x="339" 
d="M222 148c47 -21 91 -48 91 -105c0 -67 -54 -111 -144 -111c-89 0 -143 41 -143 107c0 54 45 83 85 98c-34 19 -61 45 -61 92c0 60 48 99 122 99c73 0 120 -39 120 -93c0 -43 -33 -72 -70 -87zM171 282c-31 0 -58 -19 -58 -50c0 -34 32 -51 71 -68c23 14 45 36 45 65
c0 34 -27 53 -58 53zM170 -17c40 0 73 22 73 56c0 41 -45 58 -91 78c-35 -13 -59 -39 -59 -71c1 -40 37 -63 77 -63z" />
    <glyph glyph-name="nine.sub" horiz-adv-x="330" 
d="M155 328c93 0 145 -67 145 -176c0 -134 -67 -221 -181 -221c-24 0 -43 4 -59 9l3 53c15 -5 30 -8 48 -8c70 0 118 57 121 148c-22 -31 -56 -49 -100 -49c-64 0 -114 41 -114 115c0 77 52 129 137 129zM154 132c34 0 65 21 77 62c-5 47 -29 80 -75 80
c-43 0 -70 -28 -70 -73s29 -69 68 -69z" />
    <glyph glyph-name="zero.sup" horiz-adv-x="388" 
d="M194 382c-100 0 -167 83 -167 198s67 198 167 198c99 0 167 -83 167 -198s-68 -198 -167 -198zM194 438c61 0 96 57 96 142s-35 142 -96 142s-96 -57 -96 -142s35 -142 96 -142z" />
    <glyph glyph-name="one.sup" horiz-adv-x="227" 
d="M122 770h42v-380h-67v311l-64 -27v57z" />
    <glyph glyph-name="two.sup" horiz-adv-x="343" 
d="M116 445h185v-55h-264v55c89 74 183 142 183 216c0 39 -25 61 -59 61c-40 0 -64 -28 -78 -63l-51 24c15 53 61 96 134 96c75 0 121 -45 121 -115c0 -104 -109 -175 -171 -219z" />
    <glyph glyph-name="three.sup" horiz-adv-x="294" 
d="M180 586c48 -8 86 -33 86 -93c0 -73 -65 -110 -132 -111c-64 -1 -105 21 -124 35l20 52c21 -13 54 -31 93 -31s72 20 72 58c0 42 -32 64 -98 64h-25v45h23c66 0 90 32 90 66s-22 52 -56 52c-35 0 -65 -15 -88 -32l-22 46c24 22 67 42 118 42c68 0 114 -35 114 -97
c0 -47 -27 -82 -71 -96z" />
    <glyph glyph-name="four.sup" horiz-adv-x="341" 
d="M326 541v-47h-63v-104h-66v104h-179v48l181 228h64v-229h63zM73 541h124v154z" />
    <glyph glyph-name="five.sup" horiz-adv-x="331" 
d="M193 633c68 0 113 -39 113 -116c0 -87 -63 -135 -147 -135c-72 0 -114 30 -137 47l26 49c24 -15 63 -41 109 -41c48 0 79 29 79 77s-28 70 -68 70c-44 0 -69 -25 -83 -39l-38 16l23 210h211v-54h-163l-13 -115c19 16 48 31 88 31z" />
    <glyph glyph-name="six.sup" horiz-adv-x="330" 
d="M199 626c64 0 114 -40 114 -115c0 -76 -52 -129 -137 -129c-93 0 -145 67 -145 176c0 134 67 221 181 221c24 0 43 -4 59 -9l-3 -53c-15 5 -30 8 -48 8c-70 0 -120 -57 -122 -150c22 32 56 51 101 51zM175 436c43 0 70 28 70 73s-29 69 -68 69c-35 0 -66 -21 -78 -65
c6 -45 31 -77 76 -77z" />
    <glyph glyph-name="seven.sup" horiz-adv-x="292" 
d="M19 770h255v-40c-43 -63 -122 -195 -142 -340h-72c24 142 94 258 139 325h-180v55z" />
    <glyph glyph-name="eight.sup" horiz-adv-x="339" 
d="M222 598c47 -21 91 -48 91 -105c0 -67 -54 -111 -144 -111c-89 0 -143 42 -143 107c0 54 45 83 85 98c-34 19 -61 45 -61 92c0 60 48 99 122 99c73 0 120 -39 120 -93c0 -43 -33 -72 -70 -87zM171 732c-31 0 -58 -19 -58 -50c0 -34 32 -51 71 -68c23 14 45 36 45 65
c0 34 -27 53 -58 53zM170 433c40 0 73 22 73 56c0 41 -45 58 -91 78c-35 -13 -59 -39 -59 -71c1 -40 37 -63 77 -63z" />
    <glyph glyph-name="nine.sup" horiz-adv-x="330" 
d="M154 778c93 0 145 -67 145 -176c0 -134 -67 -221 -181 -221c-24 0 -43 4 -59 9l3 53c15 -5 30 -8 49 -8c70 0 119 57 121 150c-22 -32 -56 -51 -101 -51c-64 0 -114 41 -114 115c0 77 52 129 137 129zM153 582c35 0 66 21 78 65c-6 45 -31 77 -76 77
c-43 0 -70 -28 -70 -73s29 -69 68 -69z" />
    <glyph glyph-name="Aacute" unicode="&#xc1;" horiz-adv-x="668" 
d="M538 883l-157 -117h-92l148 117h101zM532 0l-68 202h-266l-69 -202h-101l252 710h109l251 -710h-108zM225 279h213l-106 312z" />
    <glyph glyph-name="Abreve" unicode="&#x102;" horiz-adv-x="668" 
d="M335 764c-89 0 -139 47 -145 119h67c8 -41 34 -65 78 -65s70 24 78 65h66c-8 -72 -56 -119 -144 -119zM532 0l-68 202h-266l-69 -202h-101l252 710h109l251 -710h-108zM225 279h213l-106 312z" />
    <glyph glyph-name="Acircumflex" unicode="&#xc2;" horiz-adv-x="668" 
d="M334 846l-79 -80h-85l116 117h96l116 -117h-86zM532 0l-68 202h-266l-69 -202h-101l252 710h109l251 -710h-108zM225 279h213l-106 312z" />
    <glyph glyph-name="Adieresis" unicode="&#xc4;" horiz-adv-x="668" 
d="M243 775c-30 0 -50 20 -50 52c0 31 20 53 50 53s51 -22 51 -53c0 -32 -21 -52 -51 -52zM427 775c-30 0 -52 20 -52 52c0 31 22 53 52 53c29 0 50 -22 50 -53c0 -32 -21 -52 -50 -52zM532 0l-68 202h-266l-69 -202h-101l252 710h109l251 -710h-108zM225 279h213l-106 312z
" />
    <glyph glyph-name="Agrave" unicode="&#xc0;" horiz-adv-x="668" 
d="M379 766h-91l-157 117h101zM532 0l-68 202h-266l-69 -202h-101l252 710h109l251 -710h-108zM225 279h213l-106 312z" />
    <glyph glyph-name="Amacron" unicode="&#x100;" horiz-adv-x="668" 
d="M473 849v-64h-278v64h278zM532 0l-68 202h-266l-69 -202h-101l252 710h109l251 -710h-108zM225 279h213l-106 312z" />
    <glyph glyph-name="Aogonek" unicode="&#x104;" horiz-adv-x="668" 
d="M649 -102l42 -60c-30 -33 -71 -51 -119 -51c-78 0 -120 47 -120 106c0 48 24 84 78 114l-66 195h-266l-69 -202h-101l252 710h109l251 -710h1c-58 -17 -95 -50 -95 -88c0 -25 15 -41 41 -41c24 0 41 8 62 27zM225 279h213l-106 312z" />
    <glyph glyph-name="Aring" unicode="&#xc5;" horiz-adv-x="668" 
d="M335 759c-55 0 -94 37 -94 88c0 53 39 90 94 90c54 0 92 -38 92 -91c0 -50 -39 -87 -92 -87zM334 892c-26 0 -45 -19 -45 -45c0 -25 20 -43 45 -43c26 0 45 18 45 43c0 26 -19 45 -45 45zM532 0l-68 202h-266l-69 -202h-101l252 710h109l251 -710h-108zM225 279h213
l-106 312z" />
    <glyph glyph-name="Atilde" unicode="&#xc3;" horiz-adv-x="668" 
d="M262 813c-22 0 -32 -17 -34 -44h-50c4 68 29 111 87 111c54 0 103 -46 141 -46c21 0 32 17 34 43h50c-5 -68 -30 -110 -87 -110c-51 0 -105 46 -141 46zM532 0l-68 202h-266l-69 -202h-101l252 710h109l251 -710h-108zM225 279h213l-106 312z" />
    <glyph glyph-name="AE" unicode="&#xc6;" horiz-adv-x="923" 
d="M873 625h-278v-216h238v-83h-238v-241h278v-85h-378v202h-266l-128 -202h-101l454 710h419v-85zM277 279h218v345z" />
    <glyph glyph-name="AEacute" unicode="&#x1fc;" horiz-adv-x="923" 
d="M733 883l-157 -117h-92l148 117h101zM873 625h-278v-216h238v-83h-238v-241h278v-85h-378v202h-266l-128 -202h-101l454 710h419v-85zM277 279h218v345z" />
    <glyph glyph-name="Cacute" unicode="&#x106;" horiz-adv-x="668" 
d="M482 883h101l-157 -117h-92zM382 -15c-182 0 -335 140 -335 370s149 370 330 370c113 0 184 -33 240 -81l-41 -89c-41 43 -102 76 -185 76c-120 0 -240 -92 -240 -276s121 -276 242 -276c97 0 159 39 206 91l41 -83c-55 -61 -134 -102 -258 -102z" />
    <glyph glyph-name="Ccaron" unicode="&#x10c;" horiz-adv-x="668" 
d="M331 766l-116 117h85l79 -80l79 80h86l-116 -117h-97zM599 170l41 -83c-55 -61 -134 -102 -258 -102c-182 0 -335 140 -335 370s149 370 330 370c113 0 184 -33 240 -81l-41 -89c-41 43 -102 76 -185 76c-120 0 -240 -92 -240 -276s121 -276 242 -276c97 0 159 39 206 91
z" />
    <glyph glyph-name="Ccedilla" unicode="&#xc7;" horiz-adv-x="668" 
d="M640 87c-51 -57 -124 -97 -235 -101l-33 -39c9 3 23 6 42 6c53 0 82 -27 82 -75c0 -60 -50 -97 -138 -97c-44 0 -87 14 -119 39l30 47c28 -21 60 -33 86 -33c32 0 52 14 52 36c0 21 -13 33 -43 33c-17 0 -28 -3 -41 -8l-37 23l59 69c-165 18 -298 154 -298 368
c0 230 149 370 330 370c113 0 184 -33 240 -81l-41 -89c-41 43 -102 76 -185 76c-120 0 -240 -92 -240 -276s121 -276 242 -276c97 0 159 39 206 91z" />
    <glyph glyph-name="Ccircumflex" unicode="&#x108;" horiz-adv-x="668" 
d="M380 846l-79 -80h-85l116 117h96l116 -117h-86zM599 170l41 -83c-55 -61 -134 -102 -258 -102c-182 0 -335 140 -335 370s149 370 330 370c113 0 184 -33 240 -81l-41 -89c-41 43 -102 76 -185 76c-120 0 -240 -92 -240 -276s121 -276 242 -276c97 0 159 39 206 91z" />
    <glyph glyph-name="Cdotaccent" unicode="&#x10a;" horiz-adv-x="668" 
d="M380 782c-33 0 -58 20 -58 52c0 31 25 54 58 54c34 0 58 -23 58 -54c0 -32 -24 -52 -58 -52zM382 -15c-182 0 -335 140 -335 370s149 370 330 370c113 0 184 -33 240 -81l-41 -89c-41 43 -102 76 -185 76c-120 0 -240 -92 -240 -276s121 -276 242 -276
c97 0 159 39 206 91l41 -83c-55 -61 -134 -102 -258 -102z" />
    <glyph glyph-name="Eth" unicode="&#xd0;" horiz-adv-x="690" 
d="M296 710c202 0 347 -122 347 -355c0 -232 -144 -355 -347 -355h-203v316h-93v85h93v309h203zM289 85c133 0 244 68 244 270c0 200 -113 270 -244 270h-96v-224h198v-85h-198v-231h96z" />
    <glyph glyph-name="Dcaron" unicode="&#x10e;" horiz-adv-x="690" 
d="M297 766l-116 117h85l79 -80l79 80h86l-116 -117h-97zM296 710c202 0 347 -122 347 -355c0 -232 -144 -355 -347 -355h-203v710h203zM289 85c133 0 244 68 244 270c0 200 -113 270 -244 270h-96v-540h96z" />
    <glyph glyph-name="Dcroat" unicode="&#x110;" horiz-adv-x="690" 
d="M296 710c202 0 347 -122 347 -355c0 -232 -144 -355 -347 -355h-203v316h-93v85h93v309h203zM289 85c133 0 244 68 244 270c0 200 -113 270 -244 270h-96v-224h198v-85h-198v-231h96z" />
    <glyph glyph-name="Eacute" unicode="&#xc9;" horiz-adv-x="521" 
d="M487 883l-157 -117h-92l148 117h101zM471 710v-85h-278v-216h238v-83h-238v-241h278v-85h-378v710h378z" />
    <glyph glyph-name="Ebreve" unicode="&#x114;" horiz-adv-x="521" 
d="M285 764c-89 0 -139 47 -145 119h67c8 -41 34 -65 78 -65s70 24 78 65h66c-8 -72 -56 -119 -144 -119zM471 625h-278v-216h238v-83h-238v-241h278v-85h-378v710h378v-85z" />
    <glyph glyph-name="Ecaron" unicode="&#x11a;" horiz-adv-x="521" 
d="M236 766l-116 117h85l79 -80l79 80h86l-116 -117h-97zM471 625h-278v-216h238v-83h-238v-241h278v-85h-378v710h378v-85z" />
    <glyph glyph-name="Ecircumflex" unicode="&#xca;" horiz-adv-x="521" 
d="M284 846l-79 -80h-85l116 117h96l116 -117h-86zM471 625h-278v-216h238v-83h-238v-241h278v-85h-378v710h378v-85z" />
    <glyph glyph-name="Edieresis" unicode="&#xcb;" horiz-adv-x="521" 
d="M193 775c-30 0 -50 20 -50 52c0 31 20 53 50 53s51 -22 51 -53c0 -32 -21 -52 -51 -52zM377 775c-30 0 -52 20 -52 52c0 31 22 53 52 53c29 0 50 -22 50 -53c0 -32 -21 -52 -50 -52zM471 625h-278v-216h238v-83h-238v-241h278v-85h-378v710h378v-85z" />
    <glyph glyph-name="Edotaccent" unicode="&#x116;" horiz-adv-x="521" 
d="M284 782c-33 0 -58 20 -58 52c0 31 25 54 58 54c34 0 58 -23 58 -54c0 -32 -24 -52 -58 -52zM471 625h-278v-216h238v-83h-238v-241h278v-85h-378v710h378v-85z" />
    <glyph glyph-name="Egrave" unicode="&#xc8;" horiz-adv-x="521" 
d="M329 766h-91l-157 117h101zM471 625h-278v-216h238v-83h-238v-241h278v-85h-378v710h378v-85z" />
    <glyph glyph-name="Emacron" unicode="&#x112;" horiz-adv-x="521" 
d="M423 849v-64h-278v64h278zM471 625h-278v-216h238v-83h-238v-241h278v-85h-378v710h378v-85z" />
    <glyph glyph-name="Eogonek" unicode="&#x118;" horiz-adv-x="521" 
d="M479 -102l42 -60c-30 -33 -71 -51 -119 -51c-78 0 -120 47 -120 106c0 44 21 79 66 107h-255v710h378v-85h-278v-216h238v-83h-238v-241h278v-85c-58 -17 -95 -50 -95 -88c0 -25 15 -41 41 -41c24 0 41 8 62 27z" />
    <glyph glyph-name="Gbreve" unicode="&#x11e;" horiz-adv-x="747" 
d="M391 764c-89 0 -139 47 -145 119h67c8 -41 34 -65 78 -65s70 24 78 65h66c-8 -72 -56 -119 -144 -119zM405 362h313v-33c0 -246 -144 -344 -323 -344c-191 0 -348 147 -348 370s162 370 348 370c132 0 215 -47 279 -125l-70 -68c-47 59 -116 102 -208 102
c-118 0 -243 -94 -243 -279s124 -279 243 -279c110 0 202 50 227 200h-218v86z" />
    <glyph glyph-name="Gcircumflex" unicode="&#x11c;" horiz-adv-x="747" 
d="M390 846l-79 -80h-85l116 117h96l116 -117h-86zM405 362h313v-33c0 -246 -144 -344 -323 -344c-191 0 -348 147 -348 370s162 370 348 370c132 0 215 -47 279 -125l-70 -68c-47 59 -116 102 -208 102c-118 0 -243 -94 -243 -279s124 -279 243 -279c110 0 202 50 227 200
h-218v86z" />
    <glyph glyph-name="uni0122" unicode="&#x122;" horiz-adv-x="747" 
d="M405 362h313v-33c0 -246 -144 -344 -323 -344c-191 0 -348 147 -348 370s162 370 348 370c132 0 215 -47 279 -125l-70 -68c-47 59 -116 102 -208 102c-118 0 -243 -94 -243 -279s124 -279 243 -279c110 0 202 50 227 200h-218v86zM393 -56c29 0 50 -15 50 -54
c0 -52 -32 -104 -70 -141l-32 29c19 22 37 48 44 73c-26 3 -42 20 -42 45c0 29 23 48 50 48z" />
    <glyph glyph-name="Gdotaccent" unicode="&#x120;" horiz-adv-x="747" 
d="M391 782c-33 0 -58 20 -58 52c0 31 25 54 58 54c34 0 58 -23 58 -54c0 -32 -24 -52 -58 -52zM405 362h313v-33c0 -246 -144 -344 -323 -344c-191 0 -348 147 -348 370s162 370 348 370c132 0 215 -47 279 -125l-70 -68c-47 59 -116 102 -208 102
c-118 0 -243 -94 -243 -279s124 -279 243 -279c110 0 202 50 227 200h-218v86z" />
    <glyph glyph-name="Hbar" unicode="&#x126;" horiz-adv-x="739" 
d="M739 577v-78h-92v-499h-100v322h-355v-322h-100v499h-92v78h92v133h100v-133h355v133h100v-133h92zM547 403v96h-355v-96h355z" />
    <glyph glyph-name="Hcircumflex" unicode="&#x124;" horiz-adv-x="741" 
d="M371 846l-79 -80h-85l116 117h96l116 -117h-86zM548 710h100v-710h-100v323h-355v-323h-100v710h100v-302h355v302z" />
    <glyph glyph-name="IJ" unicode="&#x132;" horiz-adv-x="705" 
d="M93 710h100v-710h-100v710zM405 -8c-48 0 -74 6 -90 9l7 90c13 -1 37 -5 76 -5c82 0 114 41 114 157v467h100v-485c0 -174 -75 -233 -207 -233z" />
    <glyph glyph-name="Iacute" unicode="&#xcd;" horiz-adv-x="286" 
d="M246 883h101l-157 -117h-92zM93 710h100v-710h-100v710z" />
    <glyph glyph-name="Ibreve" unicode="&#x12c;" horiz-adv-x="286" 
d="M144 764c-89 0 -139 47 -145 119h67c8 -41 34 -65 78 -65s70 24 78 65h66c-8 -72 -56 -119 -144 -119zM93 710h100v-710h-100v710z" />
    <glyph glyph-name="Icircumflex" unicode="&#xce;" horiz-adv-x="286" 
d="M191 883l116 -117h-86l-78 80l-79 -80h-85l116 117h96zM93 0v710h100v-710h-100z" />
    <glyph glyph-name="Idieresis" unicode="&#xcf;" horiz-adv-x="286" 
d="M52 775c-30 0 -50 20 -50 52c0 31 20 53 50 53s51 -22 51 -53c0 -32 -21 -52 -51 -52zM236 775c-30 0 -52 20 -52 52c0 31 22 53 52 53c29 0 50 -22 50 -53c0 -32 -21 -52 -50 -52zM93 710h100v-710h-100v710z" />
    <glyph glyph-name="Idotaccent" unicode="&#x130;" horiz-adv-x="286" 
d="M144 782c-33 0 -58 20 -58 52c0 31 25 54 58 54c34 0 58 -23 58 -54c0 -32 -24 -52 -58 -52zM93 710h100v-710h-100v710z" />
    <glyph glyph-name="Igrave" unicode="&#xcc;" horiz-adv-x="286" 
d="M98 766l-157 117h101l147 -117h-91zM93 710h100v-710h-100v710z" />
    <glyph glyph-name="Imacron" unicode="&#x12a;" horiz-adv-x="286" 
d="M5 849h278v-64h-278v64zM93 710h100v-710h-100v710z" />
    <glyph glyph-name="Iogonek" unicode="&#x12e;" horiz-adv-x="286" 
d="M202 -102l42 -60c-30 -33 -71 -51 -119 -51c-78 0 -121 47 -121 106c0 51 28 89 89 119v698h100v-710h1c-58 -17 -95 -50 -95 -88c0 -25 15 -41 41 -41c24 0 41 8 62 27z" />
    <glyph glyph-name="Itilde" unicode="&#x128;" horiz-adv-x="286" 
d="M213 767c-51 0 -105 46 -141 46c-22 0 -32 -17 -34 -44h-50c4 68 29 111 87 111c54 0 103 -46 141 -46c21 0 32 17 34 43h50c-5 -68 -30 -110 -87 -110zM93 710h100v-710h-100v710z" />
    <glyph glyph-name="Jcircumflex" unicode="&#x134;" horiz-adv-x="419" 
d="M323 883l116 -117h-86l-78 80l-79 -80h-85l116 117h96zM226 243v467h100v-485c0 -174 -75 -233 -207 -233c-48 0 -74 6 -90 9l7 90c13 -1 37 -5 76 -5c82 0 114 41 114 157z" />
    <glyph glyph-name="uni0136" unicode="&#x136;" horiz-adv-x="634" 
d="M339 392l272 -392h-123l-217 310l-78 -98v-212h-100v710h100v-357l280 357h120zM318 -56c29 0 50 -15 50 -54c0 -52 -32 -104 -70 -141l-32 29c19 22 37 48 44 73c-26 3 -42 20 -42 45c0 29 23 48 50 48z" />
    <glyph glyph-name="Lacute" unicode="&#x139;" horiz-adv-x="486" 
d="M347 883l-157 -117h-92l148 117h101zM193 85h248v-85h-348v710h100v-625z" />
    <glyph glyph-name="Lcaron" unicode="&#x13d;" horiz-adv-x="486" 
d="M378 750l-32 -162h-66l15 162h83zM193 85h248v-85h-348v710h100v-625z" />
    <glyph glyph-name="uni013B" unicode="&#x13b;" horiz-adv-x="486" 
d="M193 85h248v-85h-348v710h100v-625zM267 -56c29 0 50 -15 50 -54c0 -52 -32 -104 -70 -141l-32 29c19 22 37 48 44 73c-26 3 -42 20 -42 45c0 29 23 48 50 48z" />
    <glyph glyph-name="Ldot" unicode="&#x13f;" horiz-adv-x="486" 
d="M193 710v-625h248v-85h-348v710h100zM386 303c-39 0 -68 23 -68 62s29 66 68 66s67 -27 67 -66s-28 -62 -67 -62z" />
    <glyph glyph-name="Lslash" unicode="&#x141;" horiz-adv-x="486" 
d="M193 85h248v-85h-348v259l-93 -71v86l93 71v365h100v-289l181 138v-86l-181 -138v-250z" />
    <glyph glyph-name="Nacute" unicode="&#x143;" horiz-adv-x="747" 
d="M578 883l-157 -117h-92l148 117h101zM556 710h98v-710h-101l-362 549v-549h-98v710h105l358 -524v524z" />
    <glyph glyph-name="Ncaron" unicode="&#x147;" horiz-adv-x="747" 
d="M326 766l-116 117h85l79 -80l79 80h86l-116 -117h-97zM556 710h98v-710h-101l-362 549v-549h-98v710h105l358 -524v524z" />
    <glyph glyph-name="uni0145" unicode="&#x145;" horiz-adv-x="747" 
d="M556 710h98v-710h-101l-362 549v-549h-98v710h105l358 -524v524zM376 -56c29 0 50 -15 50 -54c0 -52 -32 -104 -70 -141l-32 29c19 22 37 48 44 73c-26 3 -42 20 -42 45c0 29 23 48 50 48z" />
    <glyph glyph-name="Eng" unicode="&#x14a;" horiz-adv-x="747" 
d="M556 710h98v-710c0 -152 -75 -210 -204 -210c-48 0 -74 6 -89 9l7 87c13 -1 36 -5 75 -5c76 0 109 37 113 120l-365 549v-550h-98v710h105l358 -524v524z" />
    <glyph glyph-name="Ntilde" unicode="&#xd1;" horiz-adv-x="747" 
d="M303 813c-22 0 -32 -17 -34 -44h-50c4 68 29 111 87 111c54 0 103 -46 141 -46c21 0 32 17 34 43h50c-5 -68 -30 -110 -87 -110c-51 0 -105 46 -141 46zM556 710h98v-710h-101l-362 549v-549h-98v710h105l358 -524v524z" />
    <glyph glyph-name="Oacute" unicode="&#xd3;" horiz-adv-x="803" 
d="M504 883h101l-157 -117h-92zM401 -15c-186 0 -354 148 -354 370s168 370 354 370c187 0 355 -148 355 -370s-168 -370 -355 -370zM401 77c122 0 249 92 249 278s-127 278 -249 278s-248 -92 -248 -278s126 -278 248 -278z" />
    <glyph glyph-name="Obreve" unicode="&#x14e;" horiz-adv-x="803" 
d="M402 764c-89 0 -139 47 -145 119h67c8 -41 34 -65 78 -65s70 24 78 65h66c-8 -72 -56 -119 -144 -119zM401 -15c-186 0 -354 148 -354 370s168 370 354 370c187 0 355 -148 355 -370s-168 -370 -355 -370zM401 77c122 0 249 92 249 278s-127 278 -249 278
s-248 -92 -248 -278s126 -278 248 -278z" />
    <glyph glyph-name="Ocircumflex" unicode="&#xd4;" horiz-adv-x="803" 
d="M401 846l-79 -80h-85l116 117h96l116 -117h-86zM401 725c187 0 355 -148 355 -370s-168 -370 -355 -370c-186 0 -354 148 -354 370s168 370 354 370zM401 77c122 0 249 92 249 278s-127 278 -249 278s-248 -92 -248 -278s126 -278 248 -278z" />
    <glyph glyph-name="Odieresis" unicode="&#xd6;" horiz-adv-x="803" 
d="M311 775c-30 0 -50 20 -50 52c0 31 20 53 50 53s51 -22 51 -53c0 -32 -21 -52 -51 -52zM495 775c-30 0 -52 20 -52 52c0 31 22 53 52 53c29 0 50 -22 50 -53c0 -32 -21 -52 -50 -52zM401 -15c-186 0 -354 148 -354 370s168 370 354 370c187 0 355 -148 355 -370
s-168 -370 -355 -370zM401 77c122 0 249 92 249 278s-127 278 -249 278s-248 -92 -248 -278s126 -278 248 -278z" />
    <glyph glyph-name="Ograve" unicode="&#xd2;" horiz-adv-x="803" 
d="M356 766l-157 117h101l147 -117h-91zM401 -15c-186 0 -354 148 -354 370s168 370 354 370c187 0 355 -148 355 -370s-168 -370 -355 -370zM401 77c122 0 249 92 249 278s-127 278 -249 278s-248 -92 -248 -278s126 -278 248 -278z" />
    <glyph glyph-name="Ohungarumlaut" unicode="&#x150;" horiz-adv-x="803" 
d="M409 883h107l-163 -117h-90zM598 883h108l-163 -117h-90zM401 -15c-186 0 -354 148 -354 370s168 370 354 370c187 0 355 -148 355 -370s-168 -370 -355 -370zM401 77c122 0 249 92 249 278s-127 278 -249 278s-248 -92 -248 -278s126 -278 248 -278z" />
    <glyph glyph-name="Omacron" unicode="&#x14c;" horiz-adv-x="803" 
d="M263 849h278v-64h-278v64zM401 -15c-186 0 -354 148 -354 370s168 370 354 370c187 0 355 -148 355 -370s-168 -370 -355 -370zM401 77c122 0 249 92 249 278s-127 278 -249 278s-248 -92 -248 -278s126 -278 248 -278z" />
    <glyph glyph-name="Oslash" unicode="&#xd8;" horiz-adv-x="803" 
d="M756 667l-76 -80c47 -61 76 -140 76 -232c0 -222 -168 -370 -355 -370c-81 0 -159 28 -221 78l-75 -79l-58 59l76 80c-47 61 -76 140 -76 232c0 222 168 370 354 370c82 0 159 -28 221 -78l76 79zM152 355c0 -64 15 -118 40 -160l365 383c-45 37 -101 56 -156 56
c-123 0 -249 -92 -249 -279zM651 355c0 65 -15 118 -40 160l-365 -383c44 -37 100 -56 155 -56c123 0 250 93 250 279z" />
    <glyph glyph-name="Oslashacute" unicode="&#x1fe;" horiz-adv-x="803" 
d="M605 883l-157 -117h-92l148 117h101zM756 667l-76 -80c47 -61 76 -140 76 -232c0 -222 -168 -370 -355 -370c-81 0 -159 28 -221 78l-75 -79l-58 59l76 80c-47 61 -76 140 -76 232c0 222 168 370 354 370c82 0 159 -28 221 -78l76 79zM152 355c0 -64 15 -118 40 -160
l365 383c-45 37 -101 56 -156 56c-123 0 -249 -92 -249 -279zM651 355c0 65 -15 118 -40 160l-365 -383c44 -37 100 -56 155 -56c123 0 250 93 250 279z" />
    <glyph glyph-name="Otilde" unicode="&#xd5;" horiz-adv-x="803" 
d="M471 767c-51 0 -105 46 -141 46c-22 0 -32 -17 -34 -44h-50c4 68 29 111 87 111c54 0 103 -46 141 -46c21 0 32 17 34 43h50c-5 -68 -30 -110 -87 -110zM401 -15c-186 0 -354 148 -354 370s168 370 354 370c187 0 355 -148 355 -370s-168 -370 -355 -370zM401 77
c122 0 249 92 249 278s-127 278 -249 278s-248 -92 -248 -278s126 -278 248 -278z" />
    <glyph glyph-name="OE" unicode="&#x152;" horiz-adv-x="1078" 
d="M1028 625h-278v-216h238v-83h-238v-241h278v-85h-378v91c-64 -67 -153 -106 -249 -106c-186 0 -354 148 -354 370s168 370 354 370c96 0 185 -39 249 -106v91h378v-85zM401 77c122 0 249 92 249 278s-127 278 -249 278s-248 -92 -248 -278s126 -278 248 -278z" />
    <glyph glyph-name="Thorn" unicode="&#xde;" horiz-adv-x="605" 
d="M302 601c149 0 258 -71 258 -232s-108 -250 -258 -250h-109v-119h-100v710h100v-109h109zM287 198c104 0 163 59 163 161c0 103 -60 160 -163 160h-94v-321h94z" />
    <glyph glyph-name="Racute" unicode="&#x154;" horiz-adv-x="637" 
d="M520 883l-157 -117h-92l148 117h101zM472 0l-181 276h-98v-276h-100v710h224c149 0 258 -58 258 -208c0 -121 -70 -194 -175 -217l192 -285h-120zM193 625v-269h118c95 0 153 42 153 135c0 94 -60 134 -153 134h-118z" />
    <glyph glyph-name="Rcaron" unicode="&#x158;" horiz-adv-x="637" 
d="M268 766l-116 117h85l79 -80l79 80h86l-116 -117h-97zM472 0l-181 276h-98v-276h-100v710h224c149 0 258 -58 258 -208c0 -121 -70 -194 -175 -217l192 -285h-120zM193 625v-269h118c95 0 153 42 153 135c0 94 -60 134 -153 134h-118z" />
    <glyph glyph-name="uni0156" unicode="&#x156;" horiz-adv-x="637" 
d="M400 285l192 -285h-120l-181 276h-98v-276h-100v710h224c149 0 258 -58 258 -208c0 -121 -70 -194 -175 -217zM193 625v-269h118c95 0 153 42 153 135c0 94 -60 134 -153 134h-118zM319 -56c29 0 50 -15 50 -54c0 -52 -32 -104 -70 -141l-32 29c19 22 37 48 44 73
c-26 3 -42 20 -42 45c0 29 23 48 50 48z" />
    <glyph glyph-name="Sacute" unicode="&#x15a;" horiz-adv-x="546" 
d="M374 883h101l-157 -117h-92zM274 -15c-121 0 -199 54 -248 150l69 53c43 -68 97 -120 181 -120c74 0 121 42 121 102c0 51 -33 83 -78 110c-98 61 -256 99 -256 256c0 119 90 189 210 189c101 0 172 -45 215 -121l-72 -54c-32 50 -72 92 -142 92c-65 0 -110 -38 -110 -95
c0 -47 30 -77 73 -103c100 -62 267 -99 267 -261c0 -127 -98 -198 -230 -198z" />
    <glyph glyph-name="Scaron" unicode="&#x160;" horiz-adv-x="546" 
d="M223 766l-116 117h85l79 -80l79 80h86l-116 -117h-97zM237 444c100 -62 267 -99 267 -261c0 -127 -98 -198 -230 -198c-121 0 -199 54 -248 150l69 53c43 -68 97 -120 181 -120c74 0 121 42 121 102c0 51 -33 83 -78 110c-98 61 -256 99 -256 256c0 119 90 189 210 189
c101 0 172 -45 215 -121l-72 -54c-32 50 -72 92 -142 92c-65 0 -110 -38 -110 -95c0 -47 30 -77 73 -103z" />
    <glyph glyph-name="Scedilla" unicode="&#x15e;" horiz-adv-x="546" 
d="M504 183c0 -121 -89 -191 -212 -198l-33 -38c9 3 23 6 42 6c53 0 82 -27 82 -75c0 -60 -50 -97 -138 -97c-44 0 -88 14 -119 39l30 47c28 -21 60 -33 86 -33c32 0 52 14 52 36c0 21 -13 33 -43 33c-17 0 -28 -3 -41 -8l-37 23l59 69c-97 12 -163 64 -206 148l69 53
c43 -68 97 -120 181 -120c74 0 121 42 121 102c0 51 -33 83 -78 110c-98 61 -256 99 -256 256c0 119 90 189 210 189c101 0 172 -45 215 -121l-72 -54c-32 50 -72 92 -142 92c-65 0 -110 -38 -110 -95c0 -47 30 -77 73 -103c100 -62 267 -99 267 -261z" />
    <glyph glyph-name="Scircumflex" unicode="&#x15c;" horiz-adv-x="546" 
d="M272 846l-79 -80h-85l116 117h96l116 -117h-86zM237 444c100 -62 267 -99 267 -261c0 -127 -98 -198 -230 -198c-121 0 -199 54 -248 150l69 53c43 -68 97 -120 181 -120c74 0 121 42 121 102c0 51 -33 83 -78 110c-98 61 -256 99 -256 256c0 119 90 189 210 189
c101 0 172 -45 215 -121l-72 -54c-32 50 -72 92 -142 92c-65 0 -110 -38 -110 -95c0 -47 30 -77 73 -103z" />
    <glyph glyph-name="uni0218" unicode="&#x218;" horiz-adv-x="546" 
d="M237 444c100 -62 267 -99 267 -261c0 -127 -98 -198 -230 -198c-121 0 -199 54 -248 150l69 53c43 -68 97 -120 181 -120c74 0 121 42 121 102c0 51 -33 83 -78 110c-98 61 -256 99 -256 256c0 119 90 189 210 189c101 0 172 -45 215 -121l-72 -54c-32 50 -72 92 -142 92
c-65 0 -110 -38 -110 -95c0 -47 30 -77 73 -103zM273 -56c29 0 50 -15 50 -54c0 -52 -32 -104 -70 -141l-32 29c19 22 37 48 44 73c-26 3 -42 20 -42 45c0 29 23 48 50 48z" />
    <glyph glyph-name="uni1E9E" unicode="&#x1e9e;" horiz-adv-x="1092" 
d="M274 -15c-121 0 -199 54 -248 150l69 53c43 -68 97 -120 181 -120c74 0 121 42 121 102c0 51 -33 83 -78 110c-98 61 -256 99 -256 256c0 119 90 189 210 189c101 0 172 -45 215 -121l-72 -54c-32 50 -72 92 -142 92c-65 0 -110 -38 -110 -95c0 -47 30 -77 73 -103
c100 -62 267 -99 267 -261c0 -127 -98 -198 -230 -198zM820 -15c-121 0 -199 54 -248 150l69 53c43 -68 97 -120 181 -120c74 0 121 42 121 102c0 51 -33 83 -78 110c-98 61 -256 99 -256 256c0 119 90 189 210 189c101 0 172 -45 215 -121l-72 -54c-32 50 -72 92 -142 92
c-65 0 -110 -38 -110 -95c0 -47 30 -77 73 -103c100 -62 267 -99 267 -261c0 -127 -98 -198 -230 -198z" />
    <glyph glyph-name="Tbar" unicode="&#x166;" horiz-adv-x="543" 
d="M509 625h-188v-229h149v-85h-149v-311h-100v311h-150v85h150v229h-187v85h475v-85z" />
    <glyph glyph-name="Tcaron" unicode="&#x164;" horiz-adv-x="544" 
d="M224 766l-116 117h85l79 -80l79 80h86l-116 -117h-97zM510 710v-85h-188v-625h-100v625h-188v85h476z" />
    <glyph glyph-name="uni0162" unicode="&#x162;" horiz-adv-x="544" 
d="M322 0h-15l-46 -53c9 3 23 6 42 6c53 0 82 -27 82 -75c0 -60 -50 -97 -138 -97c-44 0 -88 14 -119 39l30 47c28 -21 60 -33 86 -33c32 0 52 14 52 36c0 21 -13 33 -43 33c-17 0 -28 -3 -41 -8l-37 23l70 82h-23v625h-188v85h476v-85h-188v-625z" />
    <glyph glyph-name="uni021A" unicode="&#x21a;" horiz-adv-x="544" 
d="M510 710v-85h-188v-625h-100v625h-188v85h476zM275 -56c29 0 50 -15 50 -54c0 -52 -32 -104 -70 -141l-32 29c19 22 37 48 44 73c-26 3 -42 20 -42 45c0 29 23 48 50 48z" />
    <glyph glyph-name="Uacute" unicode="&#xda;" horiz-adv-x="705" 
d="M455 883h101l-157 -117h-92zM350 -15c-166 0 -267 99 -267 284v441h101l-2 -435c-1 -130 71 -197 168 -197c101 0 170 67 170 197v435h102v-441c0 -185 -101 -284 -272 -284z" />
    <glyph glyph-name="Ubreve" unicode="&#x16c;" horiz-adv-x="705" 
d="M353 764c-89 0 -139 47 -145 119h67c8 -41 34 -65 78 -65s70 24 78 65h66c-8 -72 -56 -119 -144 -119zM350 -15c-166 0 -267 99 -267 284v441h101l-2 -435c-1 -130 71 -197 168 -197c101 0 170 67 170 197v435h102v-441c0 -185 -101 -284 -272 -284z" />
    <glyph glyph-name="Ucircumflex" unicode="&#xdb;" horiz-adv-x="705" 
d="M352 846l-79 -80h-85l116 117h96l116 -117h-86zM520 710h102v-441c0 -185 -101 -284 -272 -284c-166 0 -267 99 -267 284v441h101l-2 -435c-1 -130 71 -197 168 -197c101 0 170 67 170 197v435z" />
    <glyph glyph-name="Udieresis" unicode="&#xdc;" horiz-adv-x="705" 
d="M261 775c-30 0 -50 20 -50 52c0 31 20 53 50 53s51 -22 51 -53c0 -32 -21 -52 -51 -52zM445 775c-30 0 -52 20 -52 52c0 31 22 53 52 53c29 0 50 -22 50 -53c0 -32 -21 -52 -50 -52zM350 -15c-166 0 -267 99 -267 284v441h101l-2 -435c-1 -130 71 -197 168 -197
c101 0 170 67 170 197v435h102v-441c0 -185 -101 -284 -272 -284z" />
    <glyph glyph-name="Ugrave" unicode="&#xd9;" horiz-adv-x="705" 
d="M307 766l-157 117h101l147 -117h-91zM350 -15c-166 0 -267 99 -267 284v441h101l-2 -435c-1 -130 71 -197 168 -197c101 0 170 67 170 197v435h102v-441c0 -185 -101 -284 -272 -284z" />
    <glyph glyph-name="Uhungarumlaut" unicode="&#x170;" horiz-adv-x="705" 
d="M360 883h107l-163 -117h-90zM549 883h108l-163 -117h-90zM350 -15c-166 0 -267 99 -267 284v441h101l-2 -435c-1 -130 71 -197 168 -197c101 0 170 67 170 197v435h102v-441c0 -185 -101 -284 -272 -284z" />
    <glyph glyph-name="Umacron" unicode="&#x16a;" horiz-adv-x="705" 
d="M214 849h278v-64h-278v64zM350 -15c-166 0 -267 99 -267 284v441h101l-2 -435c-1 -130 71 -197 168 -197c101 0 170 67 170 197v435h102v-441c0 -185 -101 -284 -272 -284z" />
    <glyph glyph-name="Uogonek" unicode="&#x172;" horiz-adv-x="705" 
d="M520 710h102v-441c0 -165 -80 -262 -219 -281c-53 -17 -87 -49 -87 -85c0 -25 15 -41 41 -41c24 0 41 8 62 27l42 -60c-30 -33 -71 -51 -119 -51c-78 0 -120 47 -120 106c0 44 20 78 65 106c-128 23 -204 119 -204 279v441h101l-2 -435c-1 -130 71 -197 168 -197
c101 0 170 67 170 197v435z" />
    <glyph glyph-name="Uring" unicode="&#x16e;" horiz-adv-x="705" 
d="M354 759c-55 0 -94 37 -94 88c0 53 39 90 94 90c54 0 92 -38 92 -91c0 -50 -39 -87 -92 -87zM353 804c26 0 45 18 45 43c0 26 -19 45 -45 45s-45 -19 -45 -45c0 -25 20 -43 45 -43zM350 -15c-166 0 -267 99 -267 284v441h101l-2 -435c-1 -130 71 -197 168 -197
c101 0 170 67 170 197v435h102v-441c0 -185 -101 -284 -272 -284z" />
    <glyph glyph-name="Utilde" unicode="&#x168;" horiz-adv-x="705" 
d="M422 767c-51 0 -105 46 -141 46c-22 0 -32 -17 -34 -44h-50c4 68 29 111 87 111c54 0 103 -46 141 -46c21 0 32 17 34 43h50c-5 -68 -30 -110 -87 -110zM350 -15c-166 0 -267 99 -267 284v441h101l-2 -435c-1 -130 71 -197 168 -197c101 0 170 67 170 197v435h102v-441
c0 -185 -101 -284 -272 -284z" />
    <glyph glyph-name="Wacute" unicode="&#x1e82;" horiz-adv-x="1070" 
d="M739 883l-157 -117h-92l148 117h101zM946 710h105l-242 -710h-88l-186 554l-187 -554h-88l-241 710h110l177 -546l186 546h90l186 -546z" />
    <glyph glyph-name="Wcircumflex" unicode="&#x174;" horiz-adv-x="1070" 
d="M535 846l-79 -80h-85l116 117h96l116 -117h-86zM946 710h105l-242 -710h-88l-186 554l-187 -554h-88l-241 710h110l177 -546l186 546h90l186 -546z" />
    <glyph glyph-name="Wdieresis" unicode="&#x1e84;" horiz-adv-x="1070" 
d="M444 775c-30 0 -50 20 -50 52c0 31 20 53 50 53s51 -22 51 -53c0 -32 -21 -52 -51 -52zM628 775c-30 0 -52 20 -52 52c0 31 22 53 52 53c29 0 50 -22 50 -53c0 -32 -21 -52 -50 -52zM946 710h105l-242 -710h-88l-186 554l-187 -554h-88l-241 710h110l177 -546l186 546h90
l186 -546z" />
    <glyph glyph-name="Wgrave" unicode="&#x1e80;" horiz-adv-x="1070" 
d="M581 766h-91l-157 117h101zM946 710h105l-242 -710h-88l-186 554l-187 -554h-88l-241 710h110l177 -546l186 546h90l186 -546z" />
    <glyph glyph-name="Yacute" unicode="&#xdd;" horiz-adv-x="602" 
d="M505 883l-157 -117h-92l148 117h101zM588 710l-233 -424v-286h-110v288l-232 422h121l170 -318l169 318h115z" />
    <glyph glyph-name="Ycircumflex" unicode="&#x176;" horiz-adv-x="602" 
d="M301 846l-79 -80h-85l116 117h96l116 -117h-86zM588 710l-233 -424v-286h-110v288l-232 422h121l170 -318l169 318h115z" />
    <glyph glyph-name="Ydieresis" unicode="&#x178;" horiz-adv-x="602" 
d="M210 775c-30 0 -50 20 -50 52c0 31 20 53 50 53s51 -22 51 -53c0 -32 -21 -52 -51 -52zM394 775c-30 0 -52 20 -52 52c0 31 22 53 52 53c29 0 50 -22 50 -53c0 -32 -21 -52 -50 -52zM588 710l-233 -424v-286h-110v288l-232 422h121l170 -318l169 318h115z" />
    <glyph glyph-name="Ygrave" unicode="&#x1ef2;" horiz-adv-x="602" 
d="M347 766h-91l-157 117h101zM588 710l-233 -424v-286h-110v288l-232 422h121l170 -318l169 318h115z" />
    <glyph glyph-name="Zacute" unicode="&#x179;" horiz-adv-x="574" 
d="M397 883h101l-157 -117h-92zM62 91l321 529h-302v90h429v-90l-325 -529h329v-91h-452v91z" />
    <glyph glyph-name="Zcaron" unicode="&#x17d;" horiz-adv-x="574" 
d="M246 766l-116 117h85l79 -80l79 80h86l-116 -117h-97zM185 91h329v-91h-452v91l321 529h-302v90h429v-90z" />
    <glyph glyph-name="Zdotaccent" unicode="&#x17b;" horiz-adv-x="574" 
d="M295 782c-33 0 -58 20 -58 52c0 31 25 54 58 54c34 0 58 -23 58 -54c0 -32 -24 -52 -58 -52zM62 91l321 529h-302v90h429v-90l-325 -529h329v-91h-452v91z" />
    <glyph glyph-name="Q.alt" horiz-adv-x="803" 
d="M756 355c0 -117 -47 -214 -119 -279l84 -106l-79 -56l-85 107c-48 -23 -101 -36 -156 -36c-186 0 -354 148 -354 370s168 370 354 370c187 0 355 -148 355 -370zM153 355c0 -186 126 -278 248 -278s249 92 249 278s-127 278 -249 278s-248 -92 -248 -278z" />
    <glyph glyph-name="aacute" unicode="&#xe1;" horiz-adv-x="566" 
d="M439 723l-115 -152h-81l100 152h96zM495 0h-96c-5 12 -10 29 -11 59c-39 -43 -103 -74 -171 -74c-90 0 -165 37 -165 144c0 124 117 180 336 186v20c0 62 -37 98 -108 99s-116 -32 -150 -71l-53 57c32 47 110 98 207 98c104 0 200 -44 200 -189v-258c0 -24 4 -52 11 -71z
M242 63c61 0 114 31 146 80v105c-136 -2 -231 -35 -231 -113c0 -45 29 -72 85 -72z" />
    <glyph glyph-name="abreve" unicode="&#x103;" horiz-adv-x="566" 
d="M283 569c-90 0 -140 49 -143 154h65c6 -66 32 -96 78 -96c45 0 72 30 78 96h65c-7 -105 -55 -154 -143 -154zM495 0h-96c-5 12 -10 29 -11 59c-39 -43 -103 -74 -171 -74c-90 0 -165 37 -165 144c0 124 117 180 336 186v20c0 62 -37 98 -108 99s-116 -32 -150 -71l-53 57
c32 47 110 98 207 98c104 0 200 -44 200 -189v-258c0 -24 4 -52 11 -71zM242 63c61 0 114 31 146 80v105c-136 -2 -231 -35 -231 -113c0 -45 29 -72 85 -72z" />
    <glyph glyph-name="acircumflex" unicode="&#xe2;" horiz-adv-x="566" 
d="M284 671l-72 -100h-82l101 152h105l102 -152h-82zM495 0h-96c-5 12 -10 29 -11 59c-39 -43 -103 -74 -171 -74c-90 0 -165 37 -165 144c0 124 117 180 336 186v20c0 62 -37 98 -108 99s-116 -32 -150 -71l-53 57c32 47 110 98 207 98c104 0 200 -44 200 -189v-258
c0 -24 4 -52 11 -71zM242 63c61 0 114 31 146 80v105c-136 -2 -231 -35 -231 -113c0 -45 29 -72 85 -72z" />
    <glyph glyph-name="adieresis" unicode="&#xe4;" horiz-adv-x="566" 
d="M184 578c-32 0 -56 22 -56 55c0 35 24 59 56 59c33 0 56 -24 56 -59c0 -33 -23 -55 -56 -55zM384 578c-33 0 -56 22 -56 55c0 35 23 59 56 59c32 0 55 -24 55 -59c0 -33 -23 -55 -55 -55zM495 0h-96c-5 12 -10 29 -11 59c-39 -43 -103 -74 -171 -74
c-90 0 -165 37 -165 144c0 124 117 180 336 186v20c0 62 -37 98 -108 99s-116 -32 -150 -71l-53 57c32 47 110 98 207 98c104 0 200 -44 200 -189v-258c0 -24 4 -52 11 -71zM242 63c61 0 114 31 146 80v105c-136 -2 -231 -35 -231 -113c0 -45 29 -72 85 -72z" />
    <glyph glyph-name="agrave" unicode="&#xe0;" horiz-adv-x="566" 
d="M324 571h-80l-117 152h96zM495 0h-96c-5 12 -10 29 -11 59c-39 -43 -103 -74 -171 -74c-90 0 -165 37 -165 144c0 124 117 180 336 186v20c0 62 -37 98 -108 99s-116 -32 -150 -71l-53 57c32 47 110 98 207 98c104 0 200 -44 200 -189v-258c0 -24 4 -52 11 -71zM242 63
c61 0 114 31 146 80v105c-136 -2 -231 -35 -231 -113c0 -45 29 -72 85 -72z" />
    <glyph glyph-name="amacron" unicode="&#x101;" horiz-adv-x="566" 
d="M410 673v-63h-254v63h254zM495 0h-96c-5 12 -10 29 -11 59c-39 -43 -103 -74 -171 -74c-90 0 -165 37 -165 144c0 124 117 180 336 186v20c0 62 -37 98 -108 99s-116 -32 -150 -71l-53 57c32 47 110 98 207 98c104 0 200 -44 200 -189v-258c0 -24 4 -52 11 -71zM242 63
c61 0 114 31 146 80v105c-136 -2 -231 -35 -231 -113c0 -45 29 -72 85 -72z" />
    <glyph glyph-name="aogonek" unicode="&#x105;" horiz-adv-x="566" 
d="M504 -102l42 -60c-31 -33 -71 -51 -120 -51c-78 0 -120 47 -120 106c0 51 28 89 89 119c-4 11 -6 26 -7 47c-39 -43 -103 -74 -171 -74c-90 0 -165 37 -165 144c0 124 117 180 336 186v20c0 62 -37 98 -108 99s-116 -32 -150 -71l-53 57c32 47 110 98 207 98
c104 0 200 -44 200 -189v-258c0 -24 4 -52 11 -71c-58 -17 -94 -50 -94 -88c0 -25 15 -41 41 -41c23 0 40 8 62 27zM242 63c61 0 114 31 146 80v105c-136 -2 -231 -35 -231 -113c0 -45 29 -72 85 -72z" />
    <glyph glyph-name="aring" unicode="&#xe5;" horiz-adv-x="566" 
d="M284 574c-57 0 -98 40 -98 93c0 55 41 95 98 95s97 -40 97 -96c0 -52 -40 -92 -97 -92zM283 716c-28 0 -48 -21 -48 -49c0 -27 20 -47 48 -47c29 0 49 20 49 48c0 27 -20 48 -49 48zM495 0h-96c-5 12 -10 29 -11 59c-39 -43 -103 -74 -171 -74c-90 0 -165 37 -165 144
c0 124 117 180 336 186v20c0 62 -37 98 -108 99s-116 -32 -150 -71l-53 57c32 47 110 98 207 98c104 0 200 -44 200 -189v-258c0 -24 4 -52 11 -71zM242 63c61 0 114 31 146 80v105c-136 -2 -231 -35 -231 -113c0 -45 29 -72 85 -72z" />
    <glyph glyph-name="atilde" unicode="&#xe3;" horiz-adv-x="566" 
d="M210 633c-23 0 -33 -18 -35 -45h-50c4 69 30 113 88 113c55 0 105 -47 144 -47c21 0 32 17 34 44h51c-5 -69 -31 -113 -88 -113c-53 0 -108 48 -144 48zM495 0h-96c-5 12 -10 29 -11 59c-39 -43 -103 -74 -171 -74c-90 0 -165 37 -165 144c0 124 117 180 336 186v20
c0 62 -37 98 -108 99s-116 -32 -150 -71l-53 57c32 47 110 98 207 98c104 0 200 -44 200 -189v-258c0 -24 4 -52 11 -71zM242 63c61 0 114 31 146 80v105c-136 -2 -231 -35 -231 -113c0 -45 29 -72 85 -72z" />
    <glyph glyph-name="ae" unicode="&#xe6;" horiz-adv-x="913" 
d="M869 270v-40h-383c9 -105 84 -157 170 -157c74 0 120 28 162 72l50 -65c-43 -48 -111 -95 -221 -95c-100 0 -173 45 -216 110c-39 -67 -120 -110 -207 -110c-97 0 -172 37 -172 144c0 124 117 180 336 186v20c0 62 -37 98 -108 99s-116 -32 -150 -71l-53 57
c32 47 110 98 207 98c71 0 138 -21 174 -80c42 49 102 80 172 80c142 0 239 -100 239 -248zM629 432c-72 0 -127 -46 -141 -134h278c-10 85 -63 134 -137 134zM242 63c68 0 128 37 160 95c-9 28 -14 59 -14 90c-136 -2 -231 -35 -231 -113c0 -45 29 -72 85 -72z" />
    <glyph glyph-name="aeacute" unicode="&#x1fd;" horiz-adv-x="913" 
d="M613 723l-115 -152h-81l100 152h96zM869 270v-40h-383c9 -105 84 -157 170 -157c74 0 120 28 162 72l50 -65c-43 -48 -111 -95 -221 -95c-100 0 -173 45 -216 110c-39 -67 -120 -110 -207 -110c-97 0 -172 37 -172 144c0 124 117 180 336 186v20c0 62 -37 98 -108 99
s-116 -32 -150 -71l-53 57c32 47 110 98 207 98c71 0 138 -21 174 -80c42 49 102 80 172 80c142 0 239 -100 239 -248zM629 432c-72 0 -127 -46 -141 -134h278c-10 85 -63 134 -137 134zM242 63c68 0 128 37 160 95c-9 28 -14 59 -14 90c-136 -2 -231 -35 -231 -113
c0 -45 29 -72 85 -72z" />
    <glyph glyph-name="cacute" unicode="&#x107;" horiz-adv-x="520" 
d="M259 571l100 152h96l-115 -152h-81zM52 251c0 154 105 267 257 267c76 0 137 -27 170 -57l-35 -82c-26 25 -72 49 -132 49c-98 0 -158 -79 -158 -177s64 -177 161 -177c65 0 107 23 141 53l37 -75c-28 -24 -83 -67 -183 -67c-166 0 -258 113 -258 266z" />
    <glyph glyph-name="ccaron" unicode="&#x10d;" horiz-adv-x="520" 
d="M249 571l-103 152h82l71 -99l73 99h82l-103 -152h-102zM456 127l37 -75c-28 -24 -83 -67 -183 -67c-166 0 -258 113 -258 266c0 154 105 267 257 267c76 0 137 -27 170 -57l-35 -82c-26 25 -72 49 -132 49c-98 0 -158 -79 -158 -177s64 -177 161 -177c65 0 107 23 141 53
z" />
    <glyph glyph-name="ccedilla" unicode="&#xe7;" horiz-adv-x="520" 
d="M327 -47c52 0 82 -36 82 -75c0 -60 -50 -97 -138 -97c-44 0 -88 14 -120 39l30 47c29 -21 61 -33 87 -33c32 0 51 14 51 36c0 21 -13 33 -43 33c-16 0 -28 -3 -41 -8l-37 23l61 71c-134 21 -207 126 -207 262c0 154 105 267 257 267c76 0 137 -27 170 -57l-35 -82
c-26 25 -72 49 -132 49c-98 0 -158 -79 -158 -177s64 -177 161 -177c65 0 107 23 141 53l37 -75c-27 -23 -80 -65 -176 -67l-33 -38c9 3 23 6 43 6z" />
    <glyph glyph-name="ccircumflex" unicode="&#x109;" horiz-adv-x="520" 
d="M301 671l-72 -100h-82l101 152h105l102 -152h-82zM456 127l37 -75c-28 -24 -83 -67 -183 -67c-166 0 -258 113 -258 266c0 154 105 267 257 267c76 0 137 -27 170 -57l-35 -82c-26 25 -72 49 -132 49c-98 0 -158 -79 -158 -177s64 -177 161 -177c65 0 107 23 141 53z" />
    <glyph glyph-name="cdotaccent" unicode="&#x10b;" horiz-adv-x="520" 
d="M300 609c-38 0 -66 24 -66 59c0 36 28 61 66 61c39 0 67 -25 67 -61c0 -35 -28 -59 -67 -59zM52 251c0 154 105 267 257 267c76 0 137 -27 170 -57l-35 -82c-26 25 -72 49 -132 49c-98 0 -158 -79 -158 -177s64 -177 161 -177c65 0 107 23 141 53l37 -75
c-28 -24 -83 -67 -183 -67c-166 0 -258 113 -258 266z" />
    <glyph glyph-name="eth" unicode="&#xf0;" horiz-adv-x="619" 
d="M399 663c107 -85 169 -215 169 -372c0 -205 -112 -306 -258 -306c-143 0 -258 107 -258 265c0 155 110 265 257 265c43 0 83 -12 116 -35c-27 53 -66 98 -117 132l-150 -84l-36 63l109 61c-32 12 -67 21 -104 27l13 85c71 -7 135 -26 190 -56l101 57l36 -64zM310 73
c77 0 136 48 152 159c10 135 -50 212 -140 212c-102 0 -166 -83 -166 -194c0 -110 65 -177 154 -177z" />
    <glyph glyph-name="dcaron" unicode="&#x10f;" horiz-adv-x="653" 
d="M454 428v322h96v-750h-89l-1 84c-32 -61 -87 -99 -173 -99c-132 0 -235 100 -235 266s103 267 235 267c80 0 134 -34 167 -90zM652 750h83l-32 -162h-66zM308 73c96 0 153 80 153 178c-1 99 -57 179 -153 179c-98 0 -156 -72 -156 -179s58 -178 156 -178z" />
    <glyph glyph-name="dcroat" unicode="&#x111;" horiz-adv-x="637" 
d="M636 641v-73h-86v-568h-89l-1 84c-32 -61 -87 -99 -173 -99c-132 0 -235 100 -235 266s103 267 235 267c80 0 134 -34 167 -90v140h-211v73h211v109h96v-109h86zM308 73c96 0 153 80 153 178c-1 99 -57 179 -153 179c-98 0 -156 -72 -156 -179s58 -178 156 -178z" />
    <glyph glyph-name="eacute" unicode="&#xe9;" horiz-adv-x="583" 
d="M459 723l-115 -152h-81l100 152h96zM538 270v-40h-383c9 -105 82 -157 172 -157c70 0 118 28 160 72l50 -65c-42 -48 -113 -95 -220 -95c-161 0 -265 106 -265 266c0 156 105 267 248 267c141 0 238 -100 238 -248zM300 432c-72 0 -128 -46 -143 -134h279
c-10 85 -62 134 -136 134z" />
    <glyph glyph-name="ebreve" unicode="&#x115;" horiz-adv-x="583" 
d="M303 569c-90 0 -140 49 -143 154h65c6 -66 32 -96 78 -96c45 0 72 30 78 96h65c-7 -105 -55 -154 -143 -154zM538 270v-40h-383c9 -105 82 -157 172 -157c70 0 118 28 160 72l50 -65c-42 -48 -113 -95 -220 -95c-161 0 -265 106 -265 266c0 156 105 267 248 267
c141 0 238 -100 238 -248zM300 432c-72 0 -128 -46 -143 -134h279c-10 85 -62 134 -136 134z" />
    <glyph glyph-name="ecaron" unicode="&#x11b;" horiz-adv-x="583" 
d="M252 571l-103 152h82l71 -99l73 99h82l-103 -152h-102zM538 270v-40h-383c9 -105 82 -157 172 -157c70 0 118 28 160 72l50 -65c-42 -48 -113 -95 -220 -95c-161 0 -265 106 -265 266c0 156 105 267 248 267c141 0 238 -100 238 -248zM300 432c-72 0 -128 -46 -143 -134
h279c-10 85 -62 134 -136 134z" />
    <glyph glyph-name="ecircumflex" unicode="&#xea;" horiz-adv-x="583" 
d="M304 671l-72 -100h-82l101 152h105l102 -152h-82zM538 270v-40h-383c9 -105 82 -157 172 -157c70 0 118 28 160 72l50 -65c-42 -48 -113 -95 -220 -95c-161 0 -265 106 -265 266c0 156 105 267 248 267c141 0 238 -100 238 -248zM300 432c-72 0 -128 -46 -143 -134h279
c-10 85 -62 134 -136 134z" />
    <glyph glyph-name="edieresis" unicode="&#xeb;" horiz-adv-x="583" 
d="M204 578c-32 0 -56 22 -56 55c0 35 24 59 56 59c33 0 56 -24 56 -59c0 -33 -23 -55 -56 -55zM404 578c-33 0 -56 22 -56 55c0 35 23 59 56 59c32 0 55 -24 55 -59c0 -33 -23 -55 -55 -55zM538 270v-40h-383c9 -105 82 -157 172 -157c70 0 118 28 160 72l50 -65
c-42 -48 -113 -95 -220 -95c-161 0 -265 106 -265 266c0 156 105 267 248 267c141 0 238 -100 238 -248zM300 432c-72 0 -128 -46 -143 -134h279c-10 85 -62 134 -136 134z" />
    <glyph glyph-name="edotaccent" unicode="&#x117;" horiz-adv-x="583" 
d="M303 609c-38 0 -66 24 -66 59c0 36 28 61 66 61c39 0 67 -25 67 -61c0 -35 -28 -59 -67 -59zM538 270v-40h-383c9 -105 82 -157 172 -157c70 0 118 28 160 72l50 -65c-42 -48 -113 -95 -220 -95c-161 0 -265 106 -265 266c0 156 105 267 248 267c141 0 238 -100 238 -248
zM300 432c-72 0 -128 -46 -143 -134h279c-10 85 -62 134 -136 134z" />
    <glyph glyph-name="egrave" unicode="&#xe8;" horiz-adv-x="583" 
d="M344 571h-80l-117 152h96zM538 270v-40h-383c9 -105 82 -157 172 -157c70 0 118 28 160 72l50 -65c-42 -48 -113 -95 -220 -95c-161 0 -265 106 -265 266c0 156 105 267 248 267c141 0 238 -100 238 -248zM300 432c-72 0 -128 -46 -143 -134h279c-10 85 -62 134 -136 134
z" />
    <glyph glyph-name="emacron" unicode="&#x113;" horiz-adv-x="583" 
d="M430 673v-63h-254v63h254zM538 270v-40h-383c9 -105 82 -157 172 -157c70 0 118 28 160 72l50 -65c-42 -48 -113 -95 -220 -95c-161 0 -265 106 -265 266c0 156 105 267 248 267c141 0 238 -100 238 -248zM300 432c-72 0 -128 -46 -143 -134h279c-10 85 -62 134 -136 134
z" />
    <glyph glyph-name="eogonek" unicode="&#x119;" horiz-adv-x="583" 
d="M538 270v-40h-383c9 -105 82 -157 172 -157c70 0 118 28 160 72l50 -65c-50 -59 -149 -110 -149 -170c0 -27 17 -39 41 -39c22 0 46 10 63 27l41 -60c-30 -33 -71 -51 -119 -51c-79 0 -124 47 -124 106c0 37 15 67 37 92h-10c-161 0 -265 106 -265 266
c0 156 105 267 248 267c141 0 238 -100 238 -248zM300 432c-72 0 -128 -46 -143 -134h279c-10 85 -62 134 -136 134z" />
    <glyph glyph-name="gbreve" unicode="&#x11f;" horiz-adv-x="558" 
d="M273 569c-90 0 -140 49 -143 154h65c6 -66 32 -96 78 -96c45 0 72 30 78 96h65c-7 -105 -55 -154 -143 -154zM343 78c115 0 179 -41 179 -127c0 -87 -71 -159 -263 -159c-133 0 -229 28 -229 114c0 54 42 86 79 105c-25 13 -47 37 -47 81c0 51 37 80 77 108
c-46 32 -74 81 -74 141c0 104 86 177 207 177c50 0 94 -12 129 -33l91 75l53 -56l-92 -67c20 -27 31 -60 31 -96c0 -105 -90 -179 -212 -179c-27 0 -52 4 -75 11c-22 -16 -41 -33 -41 -54c0 -20 16 -36 73 -38zM275 446c-64 0 -114 -37 -114 -105c0 -69 50 -107 114 -107
s111 38 111 107c0 68 -47 105 -111 105zM267 -139c99 0 166 25 166 76c0 39 -26 55 -111 57l-150 3c-28 -17 -47 -39 -47 -69c0 -42 37 -67 142 -67z" />
    <glyph glyph-name="gcircumflex" unicode="&#x11d;" horiz-adv-x="558" 
d="M274 671l-72 -100h-82l101 152h105l102 -152h-82zM343 78c115 0 179 -41 179 -127c0 -87 -71 -159 -263 -159c-133 0 -229 28 -229 114c0 54 42 86 79 105c-25 13 -47 37 -47 81c0 51 37 80 77 108c-46 32 -74 81 -74 141c0 104 86 177 207 177c50 0 94 -12 129 -33
l91 75l53 -56l-92 -67c20 -27 31 -60 31 -96c0 -105 -90 -179 -212 -179c-27 0 -52 4 -75 11c-22 -16 -41 -33 -41 -54c0 -20 16 -36 73 -38zM275 446c-64 0 -114 -37 -114 -105c0 -69 50 -107 114 -107s111 38 111 107c0 68 -47 105 -111 105zM267 -139c99 0 166 25 166 76
c0 39 -26 55 -111 57l-150 3c-28 -17 -47 -39 -47 -69c0 -42 37 -67 142 -67z" />
    <glyph glyph-name="uni0123" unicode="&#x123;" horiz-adv-x="558" 
d="M273 566c-28 0 -50 15 -50 54c0 52 32 104 71 141l32 -29c-20 -22 -38 -49 -44 -73c25 -4 41 -21 41 -45c0 -29 -23 -48 -50 -48zM343 78c115 0 179 -41 179 -127c0 -87 -71 -159 -263 -159c-133 0 -229 28 -229 114c0 54 42 86 79 105c-25 13 -47 37 -47 81
c0 51 37 80 77 108c-46 32 -74 81 -74 141c0 104 86 177 207 177c50 0 94 -12 129 -33l91 75l53 -56l-92 -67c20 -27 31 -60 31 -96c0 -105 -90 -179 -212 -179c-27 0 -52 4 -75 11c-22 -16 -41 -33 -41 -54c0 -20 16 -36 73 -38zM275 446c-64 0 -114 -37 -114 -105
c0 -69 50 -107 114 -107s111 38 111 107c0 68 -47 105 -111 105zM267 -139c99 0 166 25 166 76c0 39 -26 55 -111 57l-150 3c-28 -17 -47 -39 -47 -69c0 -42 37 -67 142 -67z" />
    <glyph glyph-name="gdotaccent" unicode="&#x121;" horiz-adv-x="558" 
d="M274 609c-38 0 -66 24 -66 59c0 36 28 61 66 61c39 0 67 -25 67 -61c0 -35 -28 -59 -67 -59zM343 78c115 0 179 -41 179 -127c0 -87 -71 -159 -263 -159c-133 0 -229 28 -229 114c0 54 42 86 79 105c-25 13 -47 37 -47 81c0 51 37 80 77 108c-46 32 -74 81 -74 141
c0 104 86 177 207 177c50 0 94 -12 129 -33l91 75l53 -56l-92 -67c20 -27 31 -60 31 -96c0 -105 -90 -179 -212 -179c-27 0 -52 4 -75 11c-22 -16 -41 -33 -41 -54c0 -20 16 -36 73 -38zM275 446c-64 0 -114 -37 -114 -105c0 -69 50 -107 114 -107s111 38 111 107
c0 68 -47 105 -111 105zM267 -139c99 0 166 25 166 76c0 39 -26 55 -111 57l-150 3c-28 -17 -47 -39 -47 -69c0 -42 37 -67 142 -67z" />
    <glyph glyph-name="hbar" unicode="&#x127;" horiz-adv-x="622" 
d="M365 518c113 0 170 -61 170 -177v-341h-96v310c0 87 -36 125 -110 125c-63 0 -115 -42 -145 -98v-337h-97v568h-85v73h85v109h97v-109h210v-73h-210v-133c42 53 107 83 181 83z" />
    <glyph glyph-name="hcircumflex" unicode="&#x125;" horiz-adv-x="622" 
d="M311 886l-79 -80h-85l116 117h96l116 -117h-86zM365 518c113 0 170 -61 170 -177v-341h-96v310c0 87 -36 125 -110 125c-63 0 -115 -42 -145 -98v-337h-97v750h97v-315c42 53 107 83 181 83z" />
    <glyph glyph-name="dotlessi" unicode="&#x131;" horiz-adv-x="298" 
d="M101 502h96v-502h-96v502z" />
    <glyph glyph-name="iacute" unicode="&#xed;" horiz-adv-x="298" 
d="M108 571l100 152h96l-115 -152h-81zM101 502h96v-502h-96v502z" />
    <glyph glyph-name="ibreve" unicode="&#x12d;" horiz-adv-x="298" 
d="M148 569c-90 0 -140 49 -143 154h65c6 -66 32 -96 78 -96c45 0 72 30 78 96h65c-7 -105 -55 -154 -143 -154zM101 502h96v-502h-96v502z" />
    <glyph glyph-name="icircumflex" unicode="&#xee;" horiz-adv-x="298" 
d="M201 723l102 -152h-82l-72 100l-72 -100h-82l101 152h105zM101 0v502h96v-502h-96z" />
    <glyph glyph-name="idieresis" unicode="&#xef;" horiz-adv-x="298" 
d="M49 578c-32 0 -56 22 -56 55c0 35 24 59 56 59c33 0 56 -24 56 -59c0 -33 -23 -55 -56 -55zM249 578c-33 0 -56 22 -56 55c0 35 23 59 56 59c32 0 55 -24 55 -59c0 -33 -23 -55 -55 -55zM101 502h96v-502h-96v502z" />
    <glyph glyph-name="i.loclTRK" horiz-adv-x="298" 
d="M149 609c-38 0 -66 24 -66 59c0 36 28 61 66 61c39 0 67 -25 67 -61c0 -35 -28 -59 -67 -59zM101 502h96v-502h-96v502z" />
    <glyph glyph-name="igrave" unicode="&#xec;" horiz-adv-x="298" 
d="M-7 723h96l101 -152h-80zM101 502h96v-502h-96v502z" />
    <glyph glyph-name="ij" unicode="&#x133;" horiz-adv-x="596" 
d="M149 609c-38 0 -66 24 -66 59c0 36 28 61 66 61c39 0 67 -25 67 -61c0 -35 -28 -59 -67 -59zM447 609c-38 0 -66 24 -66 59c0 36 28 61 66 61c39 0 67 -25 67 -61c0 -35 -28 -59 -67 -59zM101 502h96v-502h-96v502zM272 -203v81c13 -1 24 -2 39 -2c63 0 88 28 88 87v539
h96v-553c0 -89 -54 -155 -156 -155c-28 0 -49 1 -67 3z" />
    <glyph glyph-name="imacron" unicode="&#x12b;" horiz-adv-x="298" 
d="M22 673h254v-63h-254v63zM101 502h96v-502h-96v502z" />
    <glyph glyph-name="iogonek" unicode="&#x12f;" horiz-adv-x="298" 
d="M149 609c-38 0 -66 24 -66 59c0 36 28 61 66 61c39 0 67 -25 67 -61c0 -35 -28 -59 -67 -59zM206 -102l42 -60c-31 -33 -71 -51 -120 -51c-78 0 -120 47 -120 106c0 52 30 91 93 122v487h96v-502c-58 -17 -94 -50 -94 -88c0 -25 15 -41 41 -41c23 0 40 8 62 27z" />
    <glyph glyph-name="itilde" unicode="&#x129;" horiz-adv-x="298" 
d="M220 585c-53 0 -108 48 -144 48c-23 0 -33 -18 -35 -45h-50c4 69 30 113 88 113c55 0 105 -47 144 -47c21 0 32 17 34 44h51c-5 -69 -31 -113 -88 -113zM101 502h96v-502h-96v502z" />
    <glyph glyph-name="uni0237" unicode="&#x237;" horiz-adv-x="298" 
d="M-26 -203v81c13 -1 24 -2 39 -2c63 0 88 28 88 87v539h96v-553c0 -89 -54 -155 -156 -155c-28 0 -49 1 -67 3z" />
    <glyph glyph-name="jcircumflex" unicode="&#x135;" horiz-adv-x="298" 
d="M201 723l102 -152h-82l-72 100l-72 -100h-82l101 152h105zM101 -37v539h96v-553c0 -89 -54 -155 -156 -155c-28 0 -49 1 -67 3v81c13 -1 24 -2 39 -2c63 0 88 28 88 87z" />
    <glyph glyph-name="uni0137" unicode="&#x137;" horiz-adv-x="534" 
d="M301 284l227 -284h-114l-177 217l-53 -54v-163h-97v750h97v-482l213 234h113zM269 -47c27 0 49 -15 49 -54c0 -53 -32 -104 -71 -141l-32 29c21 22 38 49 45 73c-26 4 -41 21 -41 45c0 29 22 48 50 48z" />
    <glyph glyph-name="kgreenlandic" unicode="&#x138;" horiz-adv-x="534" 
d="M414 0l-177 217l-53 -54v-163h-97v502h97v-234l213 234h113l-209 -218l227 -284h-114z" />
    <glyph glyph-name="lacute" unicode="&#x13a;" horiz-adv-x="271" 
d="M238 923h101l-157 -117h-92zM87 750h97v-750h-97v750z" />
    <glyph glyph-name="lcaron" unicode="&#x13e;" horiz-adv-x="286" 
d="M87 750h97v-750h-97v750zM285 750h83l-32 -162h-66z" />
    <glyph glyph-name="uni013C" unicode="&#x13c;" horiz-adv-x="271" 
d="M184 750v-750h-97v750h97zM137 -47c27 0 49 -15 49 -54c0 -53 -32 -104 -71 -141l-32 29c21 22 38 49 45 73c-26 4 -41 21 -41 45c0 29 22 48 50 48z" />
    <glyph glyph-name="ldot" unicode="&#x140;" horiz-adv-x="289" 
d="M87 750h97v-750h-97v750zM280 310c-38 0 -67 24 -67 63s29 65 67 65c40 0 68 -26 68 -65s-28 -63 -68 -63z" />
    <glyph glyph-name="lslash" unicode="&#x142;" horiz-adv-x="271" 
d="M271 539v-85l-87 -57v-397h-97v333l-87 -57v85l87 57v332h97v-268z" />
    <glyph glyph-name="nacute" unicode="&#x144;" horiz-adv-x="622" 
d="M466 723l-115 -152h-81l100 152h96zM365 518c113 0 170 -61 170 -177v-341h-96v310c0 87 -36 125 -110 125c-64 0 -116 -43 -145 -100v-335h-97v502h97v-67c42 53 107 83 181 83z" />
    <glyph glyph-name="ncaron" unicode="&#x148;" horiz-adv-x="622" 
d="M260 571l-103 152h82l71 -99l73 99h82l-103 -152h-102zM365 518c113 0 170 -61 170 -177v-341h-96v310c0 87 -36 125 -110 125c-64 0 -116 -43 -145 -100v-335h-97v502h97v-67c42 53 107 83 181 83z" />
    <glyph glyph-name="uni0146" unicode="&#x146;" horiz-adv-x="622" 
d="M365 518c113 0 170 -61 170 -177v-341h-96v310c0 87 -36 125 -110 125c-64 0 -116 -43 -145 -100v-335h-97v502h97v-67c42 53 107 83 181 83zM313 -47c27 0 49 -15 49 -54c0 -53 -32 -104 -71 -141l-32 29c21 22 38 49 45 73c-26 4 -41 21 -41 45c0 29 22 48 50 48z" />
    <glyph glyph-name="eng" unicode="&#x14b;" horiz-adv-x="622" 
d="M365 515c113 0 170 -61 170 -176v-390c0 -89 -54 -155 -156 -155c-27 0 -46 1 -64 3v80c12 -1 22 -1 36 -1c63 0 88 28 88 87v344c0 88 -36 125 -110 125c-64 0 -116 -43 -145 -100v-332h-97v502h97v-70c42 53 107 83 181 83z" />
    <glyph glyph-name="ntilde" unicode="&#xf1;" horiz-adv-x="622" 
d="M238 633c-23 0 -33 -18 -35 -45h-50c4 69 30 113 88 113c55 0 105 -47 144 -47c21 0 32 17 34 44h51c-5 -69 -31 -113 -88 -113c-53 0 -108 48 -144 48zM365 518c113 0 170 -61 170 -177v-341h-96v310c0 87 -36 125 -110 125c-64 0 -116 -43 -145 -100v-335h-97v502h97
v-67c42 53 107 83 181 83z" />
    <glyph glyph-name="oacute" unicode="&#xf3;" horiz-adv-x="621" 
d="M270 571l100 152h96l-115 -152h-81zM310 -15c-143 0 -258 108 -258 266c0 159 115 267 259 267c143 0 259 -108 259 -267c0 -158 -116 -266 -260 -266zM310 73c90 0 156 67 156 178c0 112 -66 179 -156 179c-89 0 -154 -67 -154 -179c0 -111 65 -178 154 -178z" />
    <glyph glyph-name="obreve" unicode="&#x14f;" horiz-adv-x="621" 
d="M310 569c-90 0 -140 49 -143 154h65c6 -66 32 -96 78 -96c45 0 72 30 78 96h65c-7 -105 -55 -154 -143 -154zM310 -15c-143 0 -258 108 -258 266c0 159 115 267 259 267c143 0 259 -108 259 -267c0 -158 -116 -266 -260 -266zM310 73c90 0 156 67 156 178
c0 112 -66 179 -156 179c-89 0 -154 -67 -154 -179c0 -111 65 -178 154 -178z" />
    <glyph glyph-name="ocircumflex" unicode="&#xf4;" horiz-adv-x="621" 
d="M311 671l-72 -100h-82l101 152h105l102 -152h-82zM311 518c143 0 259 -108 259 -267c0 -158 -116 -266 -260 -266c-143 0 -258 108 -258 266c0 159 115 267 259 267zM310 73c90 0 156 67 156 178c0 112 -66 179 -156 179c-89 0 -154 -67 -154 -179
c0 -111 65 -178 154 -178z" />
    <glyph glyph-name="odieresis" unicode="&#xf6;" horiz-adv-x="621" 
d="M211 578c-32 0 -56 22 -56 55c0 35 24 59 56 59c33 0 56 -24 56 -59c0 -33 -23 -55 -56 -55zM411 578c-33 0 -56 22 -56 55c0 35 23 59 56 59c32 0 55 -24 55 -59c0 -33 -23 -55 -55 -55zM310 -15c-143 0 -258 108 -258 266c0 159 115 267 259 267
c143 0 259 -108 259 -267c0 -158 -116 -266 -260 -266zM310 73c90 0 156 67 156 178c0 112 -66 179 -156 179c-89 0 -154 -67 -154 -179c0 -111 65 -178 154 -178z" />
    <glyph glyph-name="ograve" unicode="&#xf2;" horiz-adv-x="621" 
d="M154 723h96l101 -152h-80zM310 -15c-143 0 -258 108 -258 266c0 159 115 267 259 267c143 0 259 -108 259 -267c0 -158 -116 -266 -260 -266zM310 73c90 0 156 67 156 178c0 112 -66 179 -156 179c-89 0 -154 -67 -154 -179c0 -111 65 -178 154 -178z" />
    <glyph glyph-name="ohungarumlaut" unicode="&#x151;" horiz-adv-x="621" 
d="M178 571l107 152h99l-124 -152h-82zM359 571l107 152h99l-124 -152h-82zM310 -15c-143 0 -258 108 -258 266c0 159 115 267 259 267c143 0 259 -108 259 -267c0 -158 -116 -266 -260 -266zM310 73c90 0 156 67 156 178c0 112 -66 179 -156 179c-89 0 -154 -67 -154 -179
c0 -111 65 -178 154 -178z" />
    <glyph glyph-name="omacron" unicode="&#x14d;" horiz-adv-x="621" 
d="M183 673h254v-63h-254v63zM310 -15c-143 0 -258 108 -258 266c0 159 115 267 259 267c143 0 259 -108 259 -267c0 -158 -116 -266 -260 -266zM310 73c90 0 156 67 156 178c0 112 -66 179 -156 179c-89 0 -154 -67 -154 -179c0 -111 65 -178 154 -178z" />
    <glyph glyph-name="oslash" unicode="&#xf8;" horiz-adv-x="621" 
d="M570 463l-49 -51c31 -43 49 -98 49 -161c0 -158 -116 -266 -260 -266c-58 0 -112 18 -155 50l-48 -50l-55 56l48 50c-30 43 -48 98 -48 160c0 159 115 267 259 267c58 0 112 -18 155 -50l49 51zM154 251c0 -33 6 -63 16 -88l233 240c-25 20 -57 30 -93 30
c-90 0 -156 -68 -156 -182zM468 251c0 34 -6 64 -17 89l-233 -240c26 -20 57 -30 92 -30c92 0 158 69 158 181z" />
    <glyph glyph-name="oslashacute" unicode="&#x1ff;" horiz-adv-x="621" 
d="M466 723l-115 -152h-81l100 152h96zM570 463l-49 -51c31 -43 49 -98 49 -161c0 -158 -116 -266 -260 -266c-58 0 -112 18 -155 50l-48 -50l-55 56l48 50c-30 43 -48 98 -48 160c0 159 115 267 259 267c58 0 112 -18 155 -50l49 51zM154 251c0 -33 6 -63 16 -88l233 240
c-25 20 -57 30 -93 30c-90 0 -156 -68 -156 -182zM468 251c0 34 -6 64 -17 89l-233 -240c26 -20 57 -30 92 -30c92 0 158 69 158 181z" />
    <glyph glyph-name="otilde" unicode="&#xf5;" horiz-adv-x="621" 
d="M381 585c-53 0 -108 48 -144 48c-23 0 -33 -18 -35 -45h-50c4 69 30 113 88 113c55 0 105 -47 144 -47c21 0 32 17 34 44h51c-5 -69 -31 -113 -88 -113zM310 -15c-143 0 -258 108 -258 266c0 159 115 267 259 267c143 0 259 -108 259 -267c0 -158 -116 -266 -260 -266z
M310 73c90 0 156 67 156 178c0 112 -66 179 -156 179c-89 0 -154 -67 -154 -179c0 -111 65 -178 154 -178z" />
    <glyph glyph-name="oe" unicode="&#x153;" horiz-adv-x="996" 
d="M951 270v-40h-383c10 -105 84 -157 171 -157c73 0 119 28 161 72l50 -65c-43 -48 -111 -95 -220 -95c-94 0 -170 38 -215 104c-46 -65 -120 -104 -205 -104c-143 0 -258 108 -258 266c0 159 115 267 258 267c85 0 159 -39 205 -104c43 65 114 104 198 104
c141 0 238 -100 238 -248zM711 432c-72 0 -127 -46 -141 -134h278c-10 85 -63 134 -137 134zM310 73c90 0 156 67 156 178c0 112 -66 179 -156 179c-89 0 -154 -67 -154 -179c0 -111 65 -178 154 -178z" />
    <glyph glyph-name="thorn" unicode="&#xfe;" horiz-adv-x="642" 
d="M356 518c132 0 235 -101 235 -267s-103 -266 -235 -266c-84 0 -140 37 -172 96v-277h-97v946h97v-328c32 59 87 96 172 96zM334 72c98 0 156 72 156 179s-58 178 -156 178c-95 0 -153 -80 -152 -178s57 -179 152 -179z" />
    <glyph glyph-name="racute" unicode="&#x155;" horiz-adv-x="401" 
d="M291 723l-115 -152h-81l100 152h96zM184 401c29 66 95 110 173 110v-98c-79 -6 -161 -45 -173 -181v-232h-97v502h97v-101z" />
    <glyph glyph-name="rcaron" unicode="&#x159;" horiz-adv-x="401" 
d="M84 571l-103 152h82l71 -99l73 99h82l-103 -152h-102zM184 401c29 66 95 110 173 110v-98c-79 -6 -161 -45 -173 -181v-232h-97v502h97v-101z" />
    <glyph glyph-name="uni0157" unicode="&#x157;" horiz-adv-x="401" 
d="M184 401c29 66 95 110 173 110v-98c-79 -6 -161 -45 -173 -181v-232h-97v502h97v-101zM137 -47c27 0 49 -15 49 -54c0 -53 -32 -104 -71 -141l-32 29c21 22 38 49 45 73c-26 4 -41 21 -41 45c0 29 22 48 50 48z" />
    <glyph glyph-name="sacute" unicode="&#x15b;" horiz-adv-x="472" 
d="M196 571l100 152h96l-115 -152h-81zM247 -15c-114 0 -171 49 -207 88l53 70c35 -43 88 -78 150 -78c50 0 84 24 84 66c0 43 -28 61 -108 85c-78 23 -154 57 -154 155c0 97 82 147 175 147c90 0 144 -33 175 -76l-54 -61c-29 29 -66 59 -116 59c-48 0 -81 -23 -81 -60
c0 -47 50 -65 115 -83c85 -28 148 -61 148 -152c0 -106 -81 -160 -180 -160z" />
    <glyph glyph-name="scaron" unicode="&#x161;" horiz-adv-x="472" 
d="M185 571l-103 152h82l71 -99l73 99h82l-103 -152h-102zM279 297c85 -28 148 -61 148 -152c0 -106 -81 -160 -180 -160c-114 0 -171 49 -207 88l53 70c35 -43 88 -78 150 -78c50 0 84 24 84 66c0 43 -28 61 -108 85c-78 23 -154 57 -154 155c0 97 82 147 175 147
c90 0 144 -33 175 -76l-54 -61c-29 29 -66 59 -116 59c-48 0 -81 -23 -81 -60c0 -47 50 -65 115 -83z" />
    <glyph glyph-name="scedilla" unicode="&#x15f;" horiz-adv-x="472" 
d="M427 145c0 -103 -76 -157 -171 -160l-33 -38c9 3 23 6 43 6c52 0 82 -36 82 -75c0 -60 -50 -97 -138 -97c-44 0 -88 14 -120 39l30 47c29 -21 61 -33 87 -33c32 0 51 14 51 36c0 21 -13 33 -43 33c-16 0 -28 -3 -41 -8l-37 23l60 70c-81 12 -127 52 -157 85l53 70
c35 -43 88 -78 150 -78c50 0 84 24 84 66c0 43 -28 61 -108 85c-78 23 -154 57 -154 155c0 97 82 147 175 147c90 0 144 -33 175 -76l-54 -61c-29 29 -66 59 -116 59c-48 0 -81 -23 -81 -60c0 -47 50 -65 115 -83c85 -28 148 -61 148 -152z" />
    <glyph glyph-name="scircumflex" unicode="&#x15d;" horiz-adv-x="472" 
d="M237 671l-72 -100h-82l101 152h105l102 -152h-82zM279 297c85 -28 148 -61 148 -152c0 -106 -81 -160 -180 -160c-114 0 -171 49 -207 88l53 70c35 -43 88 -78 150 -78c50 0 84 24 84 66c0 43 -28 61 -108 85c-78 23 -154 57 -154 155c0 97 82 147 175 147
c90 0 144 -33 175 -76l-54 -61c-29 29 -66 59 -116 59c-48 0 -81 -23 -81 -60c0 -47 50 -65 115 -83z" />
    <glyph glyph-name="uni0219" unicode="&#x219;" horiz-adv-x="472" 
d="M279 297c85 -28 148 -61 148 -152c0 -106 -81 -160 -180 -160c-114 0 -171 49 -207 88l53 70c35 -43 88 -78 150 -78c50 0 84 24 84 66c0 43 -28 61 -108 85c-78 23 -154 57 -154 155c0 97 82 147 175 147c90 0 144 -33 175 -76l-54 -61c-29 29 -66 59 -116 59
c-48 0 -81 -23 -81 -60c0 -47 50 -65 115 -83zM238 -47c27 0 49 -15 49 -54c0 -53 -32 -104 -71 -141l-32 29c21 22 38 49 45 73c-26 4 -41 21 -41 45c0 29 22 48 50 48z" />
    <glyph glyph-name="germandbls" unicode="&#xdf;" horiz-adv-x="632" 
d="M415 424c95 -23 157 -96 157 -202c0 -156 -87 -231 -241 -231c-16 0 -27 1 -36 2v85c11 -1 16 -2 30 -2c91 0 147 52 147 153c0 93 -66 147 -156 147h-12v81h5c64 1 110 42 110 108c0 62 -45 107 -108 107c-77 0 -125 -62 -125 -173v-499h-97v494c0 168 79 263 230 263
c117 0 197 -78 197 -182c0 -73 -39 -128 -101 -151z" />
    <glyph glyph-name="tbar" unicode="&#x167;" horiz-adv-x="399" 
d="M361 75l3 -78c-19 -5 -51 -12 -98 -12c-105 0 -155 42 -155 150v83h-80v80h80v125h-80v79h80v130l96 20v-150h143v-79h-143v-125h143v-80h-143v-70c0 -69 38 -80 93 -80c20 0 45 3 61 7z" />
    <glyph glyph-name="tcaron" unicode="&#x165;" horiz-adv-x="399" 
d="M376 750l-32 -162h-66l15 162h83zM300 68c20 0 45 3 61 7l3 -78c-19 -5 -51 -12 -98 -12c-105 0 -155 42 -155 150v288h-80v79h80v130l96 20v-150h143v-79h-143v-275c0 -69 38 -80 93 -80z" />
    <glyph glyph-name="uni0163" unicode="&#x163;" horiz-adv-x="399" 
d="M267 -47c52 0 82 -36 82 -75c0 -60 -50 -97 -138 -97c-44 0 -88 14 -120 39l30 47c29 -21 61 -33 87 -33c32 0 51 14 51 36c0 21 -13 33 -43 33c-16 0 -28 -3 -41 -8l-37 23l63 74c-61 16 -90 60 -90 143v288h-80v79h80v130l96 20v-150h143v-79h-143v-275
c0 -69 38 -80 93 -80c20 0 45 3 61 7l3 -78c-19 -5 -51 -12 -98 -12h-9l-33 -38c9 3 23 6 43 6z" />
    <glyph glyph-name="uni021B" unicode="&#x21b;" horiz-adv-x="399" 
d="M364 -3c-19 -5 -51 -12 -98 -12c-105 0 -155 42 -155 150v288h-80v79h80v130l96 20v-150h143v-79h-143v-275c0 -69 38 -80 93 -80c20 0 45 3 61 7zM240 -47c27 0 49 -15 49 -54c0 -53 -32 -104 -71 -141l-32 29c21 22 38 49 45 73c-26 4 -41 21 -41 45c0 29 22 48 50 48z
" />
    <glyph glyph-name="uacute" unicode="&#xfa;" horiz-adv-x="581" 
d="M250 571l100 152h96l-115 -152h-81zM290 -15c-129 0 -216 58 -216 219v298h96v-300c0 -84 40 -132 120 -132c81 0 120 48 120 132v300h97v-298c0 -161 -88 -219 -217 -219z" />
    <glyph glyph-name="ubreve" unicode="&#x16d;" horiz-adv-x="581" 
d="M290 569c-90 0 -140 49 -143 154h65c6 -66 32 -96 78 -96c45 0 72 30 78 96h65c-7 -105 -55 -154 -143 -154zM290 -15c-129 0 -216 58 -216 219v298h96v-300c0 -84 40 -132 120 -132c81 0 120 48 120 132v300h97v-298c0 -161 -88 -219 -217 -219z" />
    <glyph glyph-name="ucircumflex" unicode="&#xfb;" horiz-adv-x="581" 
d="M291 671l-72 -100h-82l101 152h105l102 -152h-82zM410 502h97v-298c0 -161 -88 -219 -217 -219s-216 58 -216 219v298h96v-300c0 -84 40 -132 120 -132c81 0 120 48 120 132v300z" />
    <glyph glyph-name="udieresis" unicode="&#xfc;" horiz-adv-x="581" 
d="M191 578c-32 0 -56 22 -56 55c0 35 24 59 56 59c33 0 56 -24 56 -59c0 -33 -23 -55 -56 -55zM391 578c-33 0 -56 22 -56 55c0 35 23 59 56 59c32 0 55 -24 55 -59c0 -33 -23 -55 -55 -55zM290 -15c-129 0 -216 58 -216 219v298h96v-300c0 -84 40 -132 120 -132
c81 0 120 48 120 132v300h97v-298c0 -161 -88 -219 -217 -219z" />
    <glyph glyph-name="ugrave" unicode="&#xf9;" horiz-adv-x="581" 
d="M134 723h96l101 -152h-80zM290 -15c-129 0 -216 58 -216 219v298h96v-300c0 -84 40 -132 120 -132c81 0 120 48 120 132v300h97v-298c0 -161 -88 -219 -217 -219z" />
    <glyph glyph-name="uhungarumlaut" unicode="&#x171;" horiz-adv-x="581" 
d="M158 571l107 152h99l-124 -152h-82zM339 571l107 152h99l-124 -152h-82zM290 -15c-129 0 -216 58 -216 219v298h96v-300c0 -84 40 -132 120 -132c81 0 120 48 120 132v300h97v-298c0 -161 -88 -219 -217 -219z" />
    <glyph glyph-name="umacron" unicode="&#x16b;" horiz-adv-x="581" 
d="M163 673h254v-63h-254v63zM290 -15c-129 0 -216 58 -216 219v298h96v-300c0 -84 40 -132 120 -132c81 0 120 48 120 132v300h97v-298c0 -161 -88 -219 -217 -219z" />
    <glyph glyph-name="uogonek" unicode="&#x173;" horiz-adv-x="581" 
d="M410 502h97v-298c0 -149 -75 -209 -188 -218c-37 -18 -58 -45 -58 -74c0 -25 15 -41 41 -41c23 0 40 8 62 27l42 -60c-31 -33 -71 -51 -120 -51c-78 0 -120 47 -120 106c0 40 17 72 55 99c-90 19 -147 82 -147 212v298h96v-300c0 -84 40 -132 120 -132
c81 0 120 48 120 132v300z" />
    <glyph glyph-name="uring" unicode="&#x16f;" horiz-adv-x="581" 
d="M291 574c-57 0 -98 40 -98 93c0 55 41 95 98 95s97 -40 97 -96c0 -52 -40 -92 -97 -92zM290 620c29 0 49 20 49 48c0 27 -20 48 -49 48c-28 0 -48 -21 -48 -49c0 -27 20 -47 48 -47zM290 -15c-129 0 -216 58 -216 219v298h96v-300c0 -84 40 -132 120 -132
c81 0 120 48 120 132v300h97v-298c0 -161 -88 -219 -217 -219z" />
    <glyph glyph-name="utilde" unicode="&#x169;" horiz-adv-x="581" 
d="M361 585c-53 0 -108 48 -144 48c-23 0 -33 -18 -35 -45h-50c4 69 30 113 88 113c55 0 105 -47 144 -47c21 0 32 17 34 44h51c-5 -69 -31 -113 -88 -113zM290 -15c-129 0 -216 58 -216 219v298h96v-300c0 -84 40 -132 120 -132c81 0 120 48 120 132v300h97v-298
c0 -161 -88 -219 -217 -219z" />
    <glyph glyph-name="wacute" unicode="&#x1e83;" horiz-adv-x="831" 
d="M571 723l-115 -152h-81l100 152h96zM703 502h97l-169 -502h-94l-130 383l-123 -383h-94l-161 502h102l115 -378l120 378h97l123 -377z" />
    <glyph glyph-name="wcircumflex" unicode="&#x175;" horiz-adv-x="831" 
d="M416 671l-72 -100h-82l101 152h105l102 -152h-82zM703 502h97l-169 -502h-94l-130 383l-123 -383h-94l-161 502h102l115 -378l120 378h97l123 -377z" />
    <glyph glyph-name="wdieresis" unicode="&#x1e85;" horiz-adv-x="831" 
d="M316 578c-32 0 -56 22 -56 55c0 35 24 59 56 59c33 0 56 -24 56 -59c0 -33 -23 -55 -56 -55zM516 578c-33 0 -56 22 -56 55c0 35 23 59 56 59c32 0 55 -24 55 -59c0 -33 -23 -55 -55 -55zM703 502h97l-169 -502h-94l-130 383l-123 -383h-94l-161 502h102l115 -378
l120 378h97l123 -377z" />
    <glyph glyph-name="wgrave" unicode="&#x1e81;" horiz-adv-x="831" 
d="M456 571h-80l-117 152h96zM703 502h97l-169 -502h-94l-130 383l-123 -383h-94l-161 502h102l115 -378l120 378h97l123 -377z" />
    <glyph glyph-name="yacute" unicode="&#xfd;" horiz-adv-x="534" 
d="M422 723l-115 -152h-81l100 152h96zM404 502h100l-230 -594c-27 -70 -72 -120 -159 -120c-33 0 -59 6 -78 11l8 77c11 -3 29 -8 61 -8c47 0 73 17 93 72l27 74l-198 488h108l138 -356z" />
    <glyph glyph-name="ycircumflex" unicode="&#x177;" horiz-adv-x="534" 
d="M268 671l-72 -100h-82l101 152h105l102 -152h-82zM404 502h100l-230 -594c-27 -70 -72 -120 -159 -120c-33 0 -59 6 -78 11l8 77c11 -3 29 -8 61 -8c47 0 73 17 93 72l27 74l-198 488h108l138 -356z" />
    <glyph glyph-name="ydieresis" unicode="&#xff;" horiz-adv-x="534" 
d="M168 578c-32 0 -56 22 -56 55c0 35 24 59 56 59c33 0 56 -24 56 -59c0 -33 -23 -55 -56 -55zM368 578c-33 0 -56 22 -56 55c0 35 23 59 56 59c32 0 55 -24 55 -59c0 -33 -23 -55 -55 -55zM404 502h100l-230 -594c-27 -70 -72 -120 -159 -120c-33 0 -59 6 -78 11l8 77
c11 -3 29 -8 61 -8c47 0 73 17 93 72l27 74l-198 488h108l138 -356z" />
    <glyph glyph-name="ygrave" unicode="&#x1ef3;" horiz-adv-x="534" 
d="M308 571h-80l-117 152h96zM404 502h100l-230 -594c-27 -70 -72 -120 -159 -120c-33 0 -59 6 -78 11l8 77c11 -3 29 -8 61 -8c47 0 73 17 93 72l27 74l-198 488h108l138 -356z" />
    <glyph glyph-name="zacute" unicode="&#x17a;" horiz-adv-x="460" 
d="M386 723l-115 -152h-81l100 152h96zM148 75h281v-75h-398v76l272 351h-260v75h376v-75z" />
    <glyph glyph-name="zcaron" unicode="&#x17e;" horiz-adv-x="460" 
d="M179 571l-103 152h82l71 -99l73 99h82l-103 -152h-102zM148 75h281v-75h-398v76l272 351h-260v75h376v-75z" />
    <glyph glyph-name="zdotaccent" unicode="&#x17c;" horiz-adv-x="460" 
d="M230 609c-38 0 -66 24 -66 59c0 36 28 61 66 61c39 0 67 -25 67 -61c0 -35 -28 -59 -67 -59zM148 75h281v-75h-398v76l272 351h-260v75h376v-75z" />
    <glyph glyph-name="zero.linTab" horiz-adv-x="646" 
d="M322 -15c-177 0 -262 167 -262 370s85 370 262 370c178 0 264 -167 264 -370s-86 -370 -264 -370zM322 67c100 0 158 108 158 288s-58 288 -158 288s-156 -108 -156 -288s56 -288 156 -288z" />
    <glyph glyph-name="one.linTab" horiz-adv-x="646" 
d="M346 710h65v-710h-101v603l-167 -69v91z" />
    <glyph glyph-name="two.linTab" horiz-adv-x="646" 
d="M205 87h355v-87h-481v87c160 135 347 277 347 425c0 82 -50 123 -120 123c-81 0 -130 -55 -158 -120l-77 41c28 86 107 169 243 169s217 -85 217 -210c0 -194 -206 -338 -326 -428z" />
    <glyph glyph-name="three.linTab" horiz-adv-x="646" 
d="M381 365c91 -14 161 -62 161 -173c0 -136 -117 -207 -237 -207c-118 0 -190 41 -226 69l38 80c36 -25 97 -59 173 -59c77 0 146 38 146 119c0 84 -63 128 -194 128h-48v74h48c127 0 173 66 173 136c0 69 -45 105 -114 105s-121 -28 -164 -63l-41 68c45 44 118 83 214 83
c122 0 205 -66 205 -180c0 -89 -51 -156 -134 -180z" />
    <glyph glyph-name="four.linTab" horiz-adv-x="646" 
d="M596 275v-77h-122v-198h-101v198h-337v74l342 438h96v-435h122zM130 275h243v310z" />
    <glyph glyph-name="five.linTab" horiz-adv-x="646" 
d="M352 449c123 0 209 -73 209 -216c0 -156 -109 -248 -264 -248c-136 0 -210 58 -249 88l44 79c37 -28 110 -81 204 -81c98 0 158 58 158 155c0 93 -54 142 -134 142c-93 0 -140 -52 -167 -81l-60 28l44 395h378v-87h-303l-27 -235c33 30 87 61 167 61z" />
    <glyph glyph-name="six.linTab" horiz-adv-x="646" 
d="M371 440c122 0 212 -81 212 -219s-95 -236 -246 -236c-169 0 -260 128 -260 328c0 253 134 412 331 412c41 0 69 -6 95 -14l-2 -84c-24 7 -48 13 -80 13c-139 0 -239 -120 -242 -307c39 68 105 107 192 107zM336 72c87 0 142 57 142 145c0 89 -58 140 -136 140
c-75 0 -141 -49 -158 -140c15 -84 62 -145 152 -145z" />
    <glyph glyph-name="seven.linTab" horiz-adv-x="646" 
d="M104 710h459v-61c-78 -116 -235 -375 -276 -649h-109c47 269 185 498 268 623h-342v87z" />
    <glyph glyph-name="eight.linTab" horiz-adv-x="646" 
d="M409 386c88 -39 172 -88 172 -197c0 -121 -97 -204 -259 -204s-255 79 -255 196c0 106 82 162 157 192c-63 35 -112 84 -112 169c0 110 86 183 215 183c130 0 215 -72 215 -171c0 -84 -63 -139 -133 -168zM326 647c-62 0 -116 -36 -116 -100c0 -69 63 -102 137 -135
c49 27 98 69 98 131c0 68 -57 104 -119 104zM325 69c83 0 150 46 150 116c0 83 -91 114 -182 154c-72 -24 -124 -76 -124 -143c1 -81 73 -127 156 -127z" />
    <glyph glyph-name="nine.linTab" horiz-adv-x="646" 
d="M309 725c169 0 260 -128 260 -327c0 -254 -134 -413 -331 -413c-41 0 -69 6 -95 14l2 84c24 -7 48 -13 80 -13c139 0 239 120 242 307c-39 -67 -105 -107 -192 -107c-122 0 -212 82 -212 219c0 138 95 236 246 236zM304 353c75 0 141 49 158 140c-15 84 -62 145 -152 145
c-87 0 -142 -57 -142 -145s58 -140 136 -140z" />
    <glyph glyph-name="colon.cap" horiz-adv-x="254" 
d="M127 490c-39 0 -68 24 -68 63s29 65 68 65s67 -26 67 -65s-28 -63 -67 -63zM127 93c-39 0 -68 23 -68 62s29 66 68 66s67 -27 67 -66s-28 -62 -67 -62z" />
    <glyph glyph-name="colonmonetary" unicode="&#x20a1;" horiz-adv-x="668" 
d="M640 87c-44 -49 -103 -85 -188 -97l-14 -94h-74l13 89c-31 0 -62 5 -91 14l-15 -103h-74l20 132c-101 58 -170 172 -170 327c0 205 118 339 272 365l14 91h74l-13 -86c34 -1 64 -6 91 -12l15 98h74l-19 -125c23 -12 43 -26 62 -42l-41 -89c-10 11 -22 21 -35 31l-75 -498
c57 14 99 45 133 83zM301 98c29 -13 59 -19 90 -19l81 541c-25 8 -51 12 -81 12h-11zM151 355c0 -96 33 -167 83 -213l70 473c-85 -35 -153 -121 -153 -260z" />
    <glyph glyph-name="cent.bar" horiz-adv-x="519" 
d="M493 52c-25 -22 -73 -59 -157 -66v-90h-83v94c-130 23 -201 127 -201 262c0 133 80 236 201 261v94h83v-90c63 -6 114 -30 143 -56l-35 -82c-26 25 -72 49 -132 49c-98 0 -158 -78 -158 -176s64 -178 161 -178c65 0 107 23 141 54z" />
    <glyph glyph-name="colonmonetary.bar" horiz-adv-x="668" 
d="M640 87c-48 -53 -113 -91 -210 -100l-14 -91h-74l13 90c-33 3 -64 10 -94 21l-16 -111h-74l22 147c-88 62 -146 170 -146 312c0 193 105 323 246 359l14 97h74l-13 -86h9c32 0 61 -3 87 -8l14 94h74l-17 -115c31 -14 58 -31 82 -52l-41 -89c-16 16 -34 31 -56 44
l-76 -516c69 11 117 45 155 88zM151 355c0 -171 106 -263 218 -275l81 546c-18 4 -38 6 -59 6c-120 0 -240 -93 -240 -277z" />
    <glyph glyph-name="dollar.bar" horiz-adv-x="544" 
d="M503 183c0 -113 -77 -181 -187 -195v-83h-84v82c-98 11 -164 63 -207 148l70 53c42 -68 96 -120 180 -120c75 0 121 42 121 102c0 51 -32 83 -77 110c-99 61 -257 99 -257 256c0 105 70 172 170 186v83h84v-83c78 -11 135 -53 172 -118l-73 -54c-31 50 -72 92 -142 92
c-65 0 -110 -38 -110 -95c0 -47 30 -77 74 -103c99 -62 266 -99 266 -261z" />
    <glyph glyph-name="u1F16A" unicode="&#x1f16a;" horiz-adv-x="799" 
d="M341 198l74 323h27l-75 -323h-26zM713 261c11 -2 17 1 26 6l7 -22c-7 -7 -20 -12 -36 -10c-50 -2 -73 54 -73 142s23 144 73 144c16 0 29 -5 36 -10l-7 -22c-9 3 -15 6 -26 6c-28 0 -49 -28 -49 -117c0 -91 21 -119 49 -117zM143 515v-24h-35v-251h-24v251h-36v24h95z
M278 515h27l17 -275h-26l-12 196l-37 -196h-16l-37 193l-12 -193h-23l16 275h27l38 -196zM575 515h28l15 -275h-24l-13 193l-36 -193h-16l-38 196l-11 -196h-25l17 275h27l38 -196z" />
    <glyph glyph-name="copyright.cap" horiz-adv-x="360" 
d="M184 450c-69 0 -136 51 -136 137c0 87 67 138 136 138c70 0 138 -51 138 -138c0 -86 -68 -137 -138 -137zM184 470c56 0 114 38 114 117c0 81 -58 118 -114 118c-54 0 -112 -37 -112 -118c0 -79 58 -117 112 -117zM186 518c-35 0 -63 24 -63 70s28 71 63 71
c17 0 28 -5 38 -12l-9 -21c-7 5 -15 8 -27 8c-22 0 -39 -13 -39 -46s16 -46 39 -46c15 0 23 4 32 11l9 -20c-11 -10 -23 -15 -43 -15z" />
    <glyph glyph-name="registered.cap" horiz-adv-x="360" 
d="M184 725c70 0 138 -51 138 -138c0 -86 -68 -137 -138 -137c-69 0 -136 51 -136 137c0 87 67 138 136 138zM184 470c56 0 114 38 114 117c0 81 -58 118 -114 118c-54 0 -112 -37 -112 -118c0 -79 58 -117 112 -117zM237 613c0 -20 -12 -34 -29 -40l33 -49h-31l-27 46h-16
v-46h-26v128h48c28 0 48 -12 48 -39zM167 631v-44h17c14 0 25 8 25 24c0 14 -10 20 -25 20h-17z" />
    <glyph glyph-name="copyright.star" horiz-adv-x="803" 
d="M368 -15c-185 0 -368 136 -368 370s183 370 368 370c186 0 369 -136 369 -370s-183 -370 -369 -370zM368 25c157 0 322 110 322 330s-165 330 -322 330s-321 -110 -321 -330s164 -330 321 -330zM382 134c-114 0 -205 78 -205 227c0 150 92 228 205 228
c55 0 90 -15 123 -38l-14 -53c-29 21 -55 32 -105 32c-71 0 -144 -48 -144 -168s70 -169 144 -169c57 0 88 16 118 45l17 -54c-34 -30 -74 -50 -139 -50zM390 461l-21 -62l-63 -1l49 -41l-17 -62l52 37l53 -37l-17 62l50 41l-64 1z" />
    <glyph glyph-name="copyright.x" horiz-adv-x="360" 
d="M184 243c-69 0 -136 51 -136 137c0 87 67 138 136 138c70 0 138 -51 138 -138c0 -86 -68 -137 -138 -137zM184 263c56 0 114 38 114 117c0 81 -58 118 -114 118c-54 0 -112 -37 -112 -118c0 -79 58 -117 112 -117zM186 311c-35 0 -63 24 -63 70s28 71 63 71
c17 0 28 -5 38 -12l-9 -21c-7 5 -15 8 -27 8c-22 0 -39 -13 -39 -46s16 -46 39 -46c15 0 23 4 32 11l9 -20c-11 -10 -23 -15 -43 -15z" />
    <glyph glyph-name="registered.x" horiz-adv-x="360" 
d="M184 518c70 0 138 -51 138 -138c0 -86 -68 -137 -138 -137c-69 0 -136 51 -136 137c0 87 67 138 136 138zM184 263c56 0 114 38 114 117c0 81 -58 118 -114 118c-54 0 -112 -37 -112 -118c0 -79 58 -117 112 -117zM237 406c0 -20 -12 -34 -29 -40l33 -49h-31l-27 46h-16
v-46h-26v128h48c28 0 48 -12 48 -39zM167 424v-44h17c14 0 25 8 25 24c0 14 -10 20 -25 20h-17z" />
    <glyph glyph-name="trademark.x" horiz-adv-x="658" 
d="M249 502v-54h-68v-221h-64v221h-69v54h201zM610 227h-60l-24 192l-67 -192h-43l-66 191l-22 -191h-56l31 275h71l66 -186l66 186h73z" />
    <glyph glyph-name="uni0308" unicode="&#x308;" 
d="M-305 578c-32 0 -56 22 -56 55c0 35 24 59 56 59c33 0 56 -24 56 -59c0 -33 -23 -55 -56 -55zM-105 578c-33 0 -56 22 -56 55c0 35 23 59 56 59c32 0 55 -24 55 -59c0 -33 -23 -55 -55 -55z" />
    <glyph glyph-name="uni0307" unicode="&#x307;" 
d="M-117 609c-38 0 -66 24 -66 59c0 36 28 61 66 61c39 0 67 -25 67 -61c0 -35 -28 -59 -67 -59z" />
    <glyph glyph-name="gravecomb" unicode="&#x300;" 
d="M-247 723h96l101 -152h-80z" />
    <glyph glyph-name="acutecomb" unicode="&#x301;" 
d="M-246 571l100 152h96l-115 -152h-81z" />
    <glyph glyph-name="uni030B" unicode="&#x30b;" 
d="M-437 571l107 152h99l-124 -152h-82zM-256 571l107 152h99l-124 -152h-82z" />
    <glyph glyph-name="uni030C.alt" 
d="M-133 750h83l-32 -162h-66z" />
    <glyph glyph-name="uni0302" unicode="&#x302;" 
d="M-50 571h-82l-72 100l-72 -100h-82l101 152h105z" />
    <glyph glyph-name="uni030C" unicode="&#x30c;" 
d="M-132 723h82l-103 -152h-102l-103 152h82l71 -99z" />
    <glyph glyph-name="uni0306" unicode="&#x306;" 
d="M-193 569c-90 0 -140 49 -143 154h65c6 -66 32 -96 78 -96c45 0 72 30 78 96h65c-7 -105 -55 -154 -143 -154z" />
    <glyph glyph-name="uni030A" unicode="&#x30a;" 
d="M-147 574c-57 0 -98 40 -98 93c0 55 41 95 98 95s97 -40 97 -96c0 -52 -40 -92 -97 -92zM-148 620c29 0 49 20 49 48c0 27 -20 48 -49 48c-28 0 -48 -21 -48 -49c0 -27 20 -47 48 -47z" />
    <glyph glyph-name="tildecomb" unicode="&#x303;" 
d="M-138 585c-53 0 -108 48 -144 48c-23 0 -33 -18 -35 -45h-50c4 69 30 113 88 113c55 0 105 -47 144 -47c21 0 32 17 34 44h51c-5 -69 -31 -113 -88 -113z" />
    <glyph glyph-name="uni0304" unicode="&#x304;" 
d="M-304 673h254v-63h-254v63z" />
    <glyph glyph-name="uni0312" unicode="&#x312;" 
d="M-94 659c25 -4 41 -21 41 -45c0 -29 -23 -48 -50 -48c-28 0 -50 15 -50 54c0 52 32 104 71 141l32 -29c-20 -22 -38 -49 -44 -73z" />
    <glyph glyph-name="uni0326" unicode="&#x326;" 
d="M-99 -47c27 0 49 -15 49 -54c0 -53 -32 -104 -71 -141l-32 29c21 22 38 49 45 73c-26 4 -41 21 -41 45c0 29 22 48 50 48z" />
    <glyph glyph-name="uni0327" unicode="&#x327;" 
d="M-188 -219c-44 0 -88 14 -120 39l30 47c29 -21 61 -33 87 -33c32 0 51 14 51 36c0 21 -13 33 -43 33c-16 0 -28 -3 -41 -8l-37 23l70 82h62l-46 -53c9 3 23 6 43 6c52 0 82 -36 82 -75c0 -60 -50 -97 -138 -97z" />
    <glyph glyph-name="uni0328" unicode="&#x328;" 
d="M-170 -213c-78 0 -120 47 -120 106c0 55 33 95 104 127l85 -20c-58 -17 -94 -50 -94 -88c0 -25 15 -41 41 -41c23 0 40 8 62 27l42 -60c-31 -33 -71 -51 -120 -51z" />
    <glyph glyph-name="acute" unicode="&#xb4;" horiz-adv-x="600" 
d="M49 571l100 152h96l-115 -152h-81z" />
    <glyph glyph-name="breve" unicode="&#x2d8;" horiz-adv-x="600" 
d="M242 569c-90 0 -140 49 -142 154h64c6 -66 33 -96 78 -96c46 0 73 30 78 96h66c-7 -105 -56 -154 -144 -154z" />
    <glyph glyph-name="caron" unicode="&#x2c7;" horiz-adv-x="600" 
d="M321 723h83l-103 -152h-102l-103 152h82l71 -99z" />
    <glyph glyph-name="cedilla" unicode="&#xb8;" horiz-adv-x="600" 
d="M221 -219c-44 0 -88 14 -120 39l31 47c28 -21 60 -33 86 -33c32 0 52 14 52 36c0 21 -13 33 -43 33c-17 0 -28 -3 -41 -8l-37 23l69 82h63l-46 -53c8 3 23 6 42 6c52 0 82 -36 82 -75c0 -60 -50 -97 -138 -97z" />
    <glyph glyph-name="circumflex" unicode="&#x2c6;" horiz-adv-x="600" 
d="M404 571h-83l-71 100l-72 -100h-82l101 152h105z" />
    <glyph glyph-name="dieresis" unicode="&#xa8;" horiz-adv-x="600" 
d="M152 578c-33 0 -56 22 -56 55c0 35 23 59 56 59c32 0 56 -24 56 -59c0 -33 -24 -55 -56 -55zM352 578c-33 0 -56 22 -56 55c0 35 23 59 56 59c32 0 55 -24 55 -59c0 -33 -23 -55 -55 -55z" />
    <glyph glyph-name="dotaccent" unicode="&#x2d9;" horiz-adv-x="600" 
d="M162 609c-38 0 -66 24 -66 59c0 36 28 61 66 61c39 0 66 -25 66 -61c0 -35 -27 -59 -66 -59z" />
    <glyph glyph-name="grave" unicode="`" horiz-adv-x="600" 
d="M118 723h95l102 -152h-81z" />
    <glyph glyph-name="hungarumlaut" unicode="&#x2dd;" horiz-adv-x="600" 
d="M96 571l107 152h99l-124 -152h-82zM277 571l107 152h99l-125 -152h-81z" />
    <glyph glyph-name="macron" unicode="&#xaf;" horiz-adv-x="600" 
d="M96 673h254v-63h-254v63z" />
    <glyph glyph-name="ogonek" unicode="&#x2db;" horiz-adv-x="600" 
d="M236 -213c-78 0 -120 47 -120 106c0 55 33 95 104 127l85 -20c-58 -17 -94 -50 -94 -88c0 -25 15 -41 41 -41c23 0 40 8 62 27l42 -60c-31 -33 -71 -51 -120 -51z" />
    <glyph glyph-name="ring" unicode="&#x2da;" horiz-adv-x="600" 
d="M194 574c-57 0 -98 40 -98 93c0 55 41 95 98 95s97 -40 97 -96c0 -52 -40 -92 -97 -92zM193 620c28 0 48 20 48 48c0 27 -20 48 -48 48s-48 -21 -48 -49c0 -27 20 -47 48 -47z" />
    <glyph glyph-name="tilde" unicode="&#x2dc;" horiz-adv-x="600" 
d="M325 585c-53 0 -108 48 -144 48c-23 0 -33 -18 -35 -45h-50c4 69 30 113 88 113c55 0 105 -47 143 -47c22 0 33 17 35 44h50c-4 -69 -30 -113 -87 -113z" />
    <glyph glyph-name="uni0308.case" 
d="M-369 775c-30 0 -50 20 -50 52c0 31 20 53 50 53s51 -22 51 -53c0 -32 -21 -52 -51 -52zM-185 775c-30 0 -52 20 -52 52c0 31 22 53 52 53c29 0 50 -22 50 -53c0 -32 -21 -52 -50 -52z" />
    <glyph glyph-name="uni0307.case" 
d="M-267 782c-33 0 -58 20 -58 52c0 31 25 54 58 54c34 0 58 -23 58 -54c0 -32 -24 -52 -58 -52z" />
    <glyph glyph-name="gravecomb.case" 
d="M-336 766l-157 117h101l147 -117h-91z" />
    <glyph glyph-name="acutecomb.case" 
d="M-215 883h101l-157 -117h-92z" />
    <glyph glyph-name="uni030B.case" 
d="M-331 883h107l-163 -117h-90zM-142 883h108l-163 -117h-90z" />
    <glyph glyph-name="uni0302.case" 
d="M-107 766h-86l-78 80l-79 -80h-85l116 117h96z" />
    <glyph glyph-name="uni030C.case" 
d="M-233 883h86l-116 -117h-97l-116 117h85l79 -80z" />
    <glyph glyph-name="uni0306.case" 
d="M-254 764c-89 0 -139 47 -145 119h67c8 -41 34 -65 78 -65s70 24 78 65h66c-8 -72 -56 -119 -144 -119z" />
    <glyph glyph-name="uni030A.case" 
d="M-249 759c-55 0 -94 37 -94 88c0 53 39 90 94 90c54 0 92 -38 92 -91c0 -50 -39 -87 -92 -87zM-250 804c26 0 45 18 45 43c0 26 -19 45 -45 45s-45 -19 -45 -45c0 -25 20 -43 45 -43z" />
    <glyph glyph-name="tildecomb.case" 
d="M-180 767c-51 0 -105 46 -141 46c-22 0 -32 -17 -34 -44h-50c4 68 29 111 87 111c54 0 103 -46 141 -46c21 0 32 17 34 43h50c-5 -68 -30 -110 -87 -110z" />
    <glyph glyph-name="uni0304.case" 
d="M-389 849h278v-64h-278v64z" />
    <glyph glyph-name="uni0326.case" 
d="M-132 -56c29 0 50 -15 50 -54c0 -52 -32 -104 -70 -141l-32 29c19 22 37 48 44 73c-26 3 -42 20 -42 45c0 29 23 48 50 48z" />
    <glyph glyph-name="uni0327.case" 
d="M-264 -219c-44 0 -88 14 -119 39l30 47c28 -21 60 -33 86 -33c32 0 52 14 52 36c0 21 -13 33 -43 33c-17 0 -28 -3 -41 -8l-37 23l70 82h62l-46 -53c9 3 23 6 42 6c53 0 82 -27 82 -75c0 -60 -50 -97 -138 -97z" />
    <glyph glyph-name="uni0328.case" 
d="M-280 -213c-78 0 -120 47 -120 106c0 55 32 95 104 127l85 -20c-58 -17 -95 -50 -95 -88c0 -25 15 -41 41 -41c24 0 41 8 62 27l42 -60c-30 -33 -71 -51 -119 -51z" />
    <glyph glyph-name="bowl" horiz-adv-x="618" 
d="M239 -15c-132 0 -236 100 -236 266s103 267 236 267c148 0 207 -117 207 -267c0 -151 -58 -266 -207 -266zM260 73c95 0 153 80 152 178c-1 99 -57 179 -152 179c-98 0 -156 -72 -156 -179s58 -178 156 -178z" />
    </font>
</defs>
</svg>
